M48
;DRILL file {KiCad (2016-02-16 BZR 6568, Git 6c5f954)-product} date Sun 21 Feb 2016 12:14:27 PM EST
;FORMAT={-:-/ absolute / inch / decimal}
FMAT,2
INCH,TZ
T1C0.008
T2C0.030
T3C0.035
T4C0.039
T5C0.040
T6C0.063
T7C0.039
T8C0.128
%
G90
G05
M72
T1
X4.075Y-3.335
X4.1Y-3.66
X4.125Y-3.335
X4.125Y-3.49
X4.135Y-3.625
X4.135Y-5.1
X4.175Y-3.505
X4.19Y-3.335
X4.19Y-3.45
X4.235Y-3.335
X4.235Y-3.545
X4.255Y-4.795
X4.27Y-3.445
X4.325Y-3.545
X4.3519Y-3.3163
X4.3519Y-3.3556
X4.3519Y-3.395
X4.3519Y-3.4344
X4.39Y-3.12
X4.39Y-3.215
X4.3913Y-3.3163
X4.3913Y-3.3556
X4.3913Y-3.395
X4.3913Y-3.4344
X4.395Y-4.465
X4.4Y-2.7
X4.4Y-5.6
X4.4109Y-3.215
X4.42Y-4.795
X4.42Y-4.895
X4.425Y-3.515
X4.43Y-3.12
X4.43Y-3.235
X4.4306Y-3.3163
X4.4306Y-3.3556
X4.4306Y-3.395
X4.4306Y-3.4344
X4.45Y-5.07
X4.455Y-3.235
X4.47Y-3.3163
X4.47Y-3.3556
X4.47Y-3.395
X4.47Y-3.4344
X4.49Y-3.22
X4.495Y-4.465
X4.55Y-3.355
X4.5557Y-3.2936
X4.58Y-3.305
X4.6Y-2.7
X4.6Y-4.24
X4.6Y-5.6
X4.75Y-2.7
X4.75Y-4.215
X4.75Y-5.6
X4.775Y-3.425
X4.7761Y-3.5139
X4.845Y-4.2203
X4.86Y-4.195
X4.95Y-2.7
X4.95Y-5.145
X4.95Y-5.6
X4.9587Y-5.06
X4.985Y-4.385
X5.Y-3.3
X5.075Y-4.2203
X5.095Y-4.405
X5.1Y-2.7
X5.1Y-5.6
X5.125Y-4.945
X5.14Y-3.515
X5.1613Y-3.195
X5.165Y-4.23
X5.175Y-3.1
X5.24Y-4.39
X5.24Y-4.49
X5.3Y-2.7
X5.3Y-5.6
X5.365Y-4.085
X5.365Y-4.265
X5.45Y-2.7
X5.45Y-5.6
X5.525Y-3.975
X5.525Y-4.025
X5.525Y-4.33
X5.525Y-4.37
X5.65Y-2.7
X5.65Y-5.6
X5.7Y-4.11
X5.7872Y-4.3678
X5.8028Y-4.3522
T2
X3.735Y-5.13
X3.735Y-5.32
X3.885Y-5.25
X4.085Y-5.53
X4.13Y-5.035
X5.41Y-4.76
T3
X4.Y-4.
X4.Y-4.1
X4.Y-4.2
X4.Y-4.3
X4.1Y-4.05
X4.1Y-4.15
X4.1Y-4.25
X4.1Y-4.35
X5.95Y-2.875
X5.95Y-2.975
X5.95Y-3.075
X5.95Y-3.175
X5.95Y-3.625
X5.95Y-3.725
X5.95Y-3.825
X5.95Y-3.925
X5.95Y-4.375
X5.95Y-4.475
X5.95Y-4.575
X5.95Y-4.675
X5.95Y-5.125
X5.95Y-5.225
X5.95Y-5.325
X5.95Y-5.425
X6.05Y-2.925
X6.05Y-3.025
X6.05Y-3.125
X6.05Y-3.225
X6.05Y-3.675
X6.05Y-3.775
X6.05Y-3.875
X6.05Y-3.975
X6.05Y-4.425
X6.05Y-4.525
X6.05Y-4.625
X6.05Y-4.725
X6.05Y-5.175
X6.05Y-5.275
X6.05Y-5.375
X6.05Y-5.475
T5
X4.34Y-4.105
X4.44Y-4.105
X4.54Y-4.105
X4.875Y-3.85
X4.975Y-3.85
X5.075Y-3.85
T6
X3.6299Y-3.8659
X3.6299Y-4.4841
X6.4201Y-2.7409
X6.4201Y-3.3591
X6.4201Y-3.4909
X6.4201Y-4.1091
X6.4201Y-4.2409
X6.4201Y-4.8591
X6.4201Y-4.9909
X6.4201Y-5.6091
T7
X5.13Y-4.34
X5.17Y-4.54
X5.21Y-4.34
T8
X3.75Y-3.95
X3.75Y-4.4
X6.3Y-2.825
X6.3Y-3.275
X6.3Y-3.575
X6.3Y-4.025
X6.3Y-4.325
X6.3Y-4.775
X6.3Y-5.075
X6.3Y-5.525
T4
X3.75Y-4.7756G85X3.75Y-4.8544
G05
X3.8287Y-5.G85X3.9074Y-5.
G05
X3.9862Y-4.7756G85X3.9862Y-4.8544
G05
T0
M30
