G04 #@! TF.FileFunction,Copper,L2,Inr,Signal*
%FSLAX46Y46*%
G04 Gerber Fmt 4.6, Leading zero omitted, Abs format (unit mm)*
G04 Created by KiCad (PCBNEW (2016-02-16 BZR 6568, Git 6c5f954)-product) date Sun 21 Feb 2016 12:14:23 PM EST*
%MOMM*%
G01*
G04 APERTURE LIST*
%ADD10C,0.100000*%
%ADD11R,3.500120X3.500120*%
%ADD12R,1.501140X1.501140*%
%ADD13C,1.501140*%
%ADD14C,2.500000*%
%ADD15R,1.727200X2.032000*%
%ADD16O,1.727200X2.032000*%
%ADD17C,0.406400*%
%ADD18C,1.270000*%
%ADD19C,0.254000*%
G04 APERTURE END LIST*
D10*
D11*
X101249480Y-122301000D03*
X95250000Y-122301000D03*
X98249740Y-127000000D03*
D12*
X153670000Y-120015000D03*
D13*
X151130000Y-118745000D03*
X153670000Y-117475000D03*
X151130000Y-116205000D03*
X153670000Y-114935000D03*
X151130000Y-113665000D03*
X153670000Y-112395000D03*
X151130000Y-111125000D03*
D14*
X163070000Y-123420000D03*
X163070000Y-107720000D03*
D12*
X101600000Y-101600000D03*
D13*
X104140000Y-102870000D03*
X101600000Y-104140000D03*
X104140000Y-105410000D03*
X101600000Y-106680000D03*
X104140000Y-107950000D03*
X101600000Y-109220000D03*
X104140000Y-110490000D03*
D14*
X92200000Y-98195000D03*
X92200000Y-113895000D03*
D12*
X153670000Y-81915000D03*
D13*
X151130000Y-80645000D03*
X153670000Y-79375000D03*
X151130000Y-78105000D03*
X153670000Y-76835000D03*
X151130000Y-75565000D03*
X153670000Y-74295000D03*
X151130000Y-73025000D03*
D14*
X163070000Y-85320000D03*
X163070000Y-69620000D03*
D12*
X153670000Y-100965000D03*
D13*
X151130000Y-99695000D03*
X153670000Y-98425000D03*
X151130000Y-97155000D03*
X153670000Y-95885000D03*
X151130000Y-94615000D03*
X153670000Y-93345000D03*
X151130000Y-92075000D03*
D14*
X163070000Y-104370000D03*
X163070000Y-88670000D03*
D12*
X153670000Y-139065000D03*
D13*
X151130000Y-137795000D03*
X153670000Y-136525000D03*
X151130000Y-135255000D03*
X153670000Y-133985000D03*
X151130000Y-132715000D03*
X153670000Y-131445000D03*
X151130000Y-130175000D03*
D14*
X163070000Y-142470000D03*
X163070000Y-126770000D03*
D15*
X123825000Y-97790000D03*
D16*
X126365000Y-97790000D03*
X128905000Y-97790000D03*
D15*
X115316000Y-104267000D03*
D16*
X112776000Y-104267000D03*
X110236000Y-104267000D03*
D17*
X123063000Y-107196000D03*
X131097000Y-81153000D03*
X106045000Y-89027000D03*
X109855000Y-90043000D03*
X104775000Y-84709000D03*
X116332000Y-83947000D03*
X107569000Y-84709000D03*
X112038000Y-81661000D03*
X111506000Y-81661000D03*
X140335000Y-110998000D03*
X140335000Y-102235000D03*
X125951000Y-128524000D03*
X133096000Y-114046000D03*
X128905000Y-107196000D03*
X121285000Y-86995000D03*
X116840000Y-107696000D03*
X111633000Y-113411000D03*
D18*
X94869000Y-135128000D03*
D17*
X129413000Y-111887000D03*
X112395000Y-89281000D03*
X111760000Y-68580000D03*
X116840000Y-68580000D03*
X120650000Y-68580000D03*
X125730000Y-68580000D03*
X129540000Y-68580000D03*
X134620000Y-68580000D03*
X138430000Y-68580000D03*
X143510000Y-68580000D03*
X143510000Y-142240000D03*
X138430000Y-142240000D03*
X134620000Y-142240000D03*
X129540000Y-142240000D03*
X125730000Y-142240000D03*
X120650000Y-142240000D03*
X116840000Y-142240000D03*
X111760000Y-142240000D03*
X130175000Y-125603000D03*
X105029000Y-92075000D03*
X107569000Y-90043000D03*
X104775000Y-88646000D03*
X103505000Y-84709000D03*
X106426000Y-87630000D03*
X108458000Y-87503000D03*
X112522000Y-82169000D03*
X113157000Y-82169000D03*
X115714433Y-83656757D03*
X115570000Y-85217000D03*
X106426000Y-84709000D03*
X111506000Y-79248000D03*
X112522000Y-79248000D03*
X110538000Y-87233000D03*
X111538000Y-87233000D03*
X112538000Y-87233000D03*
X113538000Y-87233000D03*
X113538000Y-86233000D03*
X112538000Y-86233000D03*
X111538000Y-86233000D03*
X110538000Y-86233000D03*
X110538000Y-84233000D03*
X110538000Y-85233000D03*
X111538000Y-85233000D03*
X112538000Y-85233000D03*
X113538000Y-85233000D03*
X113538000Y-84233000D03*
X112538000Y-84233000D03*
X111538000Y-84233000D03*
X136271000Y-103759000D03*
X136271000Y-108331000D03*
X140335000Y-109982000D03*
X144780000Y-104394000D03*
X140335000Y-100965000D03*
X125730000Y-130683000D03*
X126619000Y-111379000D03*
X120650000Y-107061000D03*
X123444000Y-106553000D03*
X133096000Y-111506000D03*
X131191000Y-107442000D03*
X130556000Y-89281000D03*
X121311838Y-89254162D03*
X127000000Y-83820000D03*
X131445000Y-78740000D03*
X114173000Y-113411000D03*
D18*
X104902000Y-127889000D03*
X103759000Y-140462000D03*
X94869000Y-130302000D03*
X98679000Y-133350000D03*
D17*
X113030000Y-128778000D03*
X112268000Y-124333000D03*
X112268000Y-121793000D03*
D18*
X137414000Y-120904000D03*
D17*
X104140000Y-92964000D03*
X114046000Y-81788000D03*
X108077000Y-121793000D03*
X105029000Y-129540000D03*
X146995435Y-110941565D03*
X147390565Y-110546435D03*
D19*
G36*
X167184000Y-144324000D02*
X88086000Y-144324000D01*
X88086000Y-140732386D01*
X158013052Y-140732386D01*
X158317895Y-141470163D01*
X158881868Y-142035121D01*
X159619111Y-142341251D01*
X160417386Y-142341948D01*
X161155163Y-142037105D01*
X161720121Y-141473132D01*
X162026251Y-140735889D01*
X162026948Y-139937614D01*
X161722105Y-139199837D01*
X161158132Y-138634879D01*
X160420889Y-138328749D01*
X159622614Y-138328052D01*
X158884837Y-138632895D01*
X158319879Y-139196868D01*
X158013749Y-139934111D01*
X158013052Y-140732386D01*
X88086000Y-140732386D01*
X88086000Y-138019096D01*
X149998234Y-138019096D01*
X150170142Y-138435146D01*
X150488180Y-138753739D01*
X150903929Y-138926373D01*
X151354096Y-138926766D01*
X151770146Y-138754858D01*
X152088739Y-138436820D01*
X152139559Y-138314430D01*
X152530966Y-138314430D01*
X152530966Y-139815570D01*
X152560536Y-139964229D01*
X152644744Y-140090256D01*
X152770771Y-140174464D01*
X152919430Y-140204034D01*
X154420570Y-140204034D01*
X154569229Y-140174464D01*
X154695256Y-140090256D01*
X154779464Y-139964229D01*
X154809034Y-139815570D01*
X154809034Y-138314430D01*
X154779464Y-138165771D01*
X154695256Y-138039744D01*
X154569229Y-137955536D01*
X154420570Y-137925966D01*
X152919430Y-137925966D01*
X152770771Y-137955536D01*
X152644744Y-138039744D01*
X152560536Y-138165771D01*
X152530966Y-138314430D01*
X152139559Y-138314430D01*
X152261373Y-138021071D01*
X152261766Y-137570904D01*
X152089858Y-137154854D01*
X151771820Y-136836261D01*
X151561904Y-136749096D01*
X152538234Y-136749096D01*
X152710142Y-137165146D01*
X153028180Y-137483739D01*
X153443929Y-137656373D01*
X153894096Y-137656766D01*
X154310146Y-137484858D01*
X154628739Y-137166820D01*
X154801373Y-136751071D01*
X154801766Y-136300904D01*
X154629858Y-135884854D01*
X154311820Y-135566261D01*
X153896071Y-135393627D01*
X153445904Y-135393234D01*
X153029854Y-135565142D01*
X152711261Y-135883180D01*
X152538627Y-136298929D01*
X152538234Y-136749096D01*
X151561904Y-136749096D01*
X151356071Y-136663627D01*
X150905904Y-136663234D01*
X150489854Y-136835142D01*
X150171261Y-137153180D01*
X149998627Y-137568929D01*
X149998234Y-138019096D01*
X88086000Y-138019096D01*
X88086000Y-135329208D01*
X93852824Y-135329208D01*
X94007175Y-135702766D01*
X94292731Y-135988821D01*
X94666018Y-136143824D01*
X95070208Y-136144176D01*
X95443766Y-135989825D01*
X95729821Y-135704269D01*
X95823321Y-135479096D01*
X149998234Y-135479096D01*
X150170142Y-135895146D01*
X150488180Y-136213739D01*
X150903929Y-136386373D01*
X151354096Y-136386766D01*
X151770146Y-136214858D01*
X152088739Y-135896820D01*
X152261373Y-135481071D01*
X152261766Y-135030904D01*
X152089858Y-134614854D01*
X151771820Y-134296261D01*
X151356071Y-134123627D01*
X150905904Y-134123234D01*
X150489854Y-134295142D01*
X150171261Y-134613180D01*
X149998627Y-135028929D01*
X149998234Y-135479096D01*
X95823321Y-135479096D01*
X95884824Y-135330982D01*
X95885176Y-134926792D01*
X95730825Y-134553234D01*
X95445269Y-134267179D01*
X95071982Y-134112176D01*
X94667792Y-134111824D01*
X94294234Y-134266175D01*
X94008179Y-134551731D01*
X93853176Y-134925018D01*
X93852824Y-135329208D01*
X88086000Y-135329208D01*
X88086000Y-132939096D01*
X149998234Y-132939096D01*
X150170142Y-133355146D01*
X150488180Y-133673739D01*
X150903929Y-133846373D01*
X151354096Y-133846766D01*
X151770146Y-133674858D01*
X152088739Y-133356820D01*
X152261373Y-132941071D01*
X152261766Y-132490904D01*
X152089858Y-132074854D01*
X151771820Y-131756261D01*
X151561904Y-131669096D01*
X152538234Y-131669096D01*
X152710142Y-132085146D01*
X153028180Y-132403739D01*
X153443929Y-132576373D01*
X153894096Y-132576766D01*
X154310146Y-132404858D01*
X154628739Y-132086820D01*
X154801373Y-131671071D01*
X154801766Y-131220904D01*
X154629858Y-130804854D01*
X154311820Y-130486261D01*
X153896071Y-130313627D01*
X153445904Y-130313234D01*
X153029854Y-130485142D01*
X152711261Y-130803180D01*
X152538627Y-131218929D01*
X152538234Y-131669096D01*
X151561904Y-131669096D01*
X151356071Y-131583627D01*
X150905904Y-131583234D01*
X150489854Y-131755142D01*
X150171261Y-132073180D01*
X149998627Y-132488929D01*
X149998234Y-132939096D01*
X88086000Y-132939096D01*
X88086000Y-130399096D01*
X149998234Y-130399096D01*
X150170142Y-130815146D01*
X150488180Y-131133739D01*
X150903929Y-131306373D01*
X151354096Y-131306766D01*
X151770146Y-131134858D01*
X152088739Y-130816820D01*
X152261373Y-130401071D01*
X152261766Y-129950904D01*
X152089858Y-129534854D01*
X151857795Y-129302386D01*
X158013052Y-129302386D01*
X158317895Y-130040163D01*
X158881868Y-130605121D01*
X159619111Y-130911251D01*
X160417386Y-130911948D01*
X161155163Y-130607105D01*
X161720121Y-130043132D01*
X162026251Y-129305889D01*
X162026948Y-128507614D01*
X161722105Y-127769837D01*
X161158132Y-127204879D01*
X160420889Y-126898749D01*
X159622614Y-126898052D01*
X158884837Y-127202895D01*
X158319879Y-127766868D01*
X158013749Y-128504111D01*
X158013052Y-129302386D01*
X151857795Y-129302386D01*
X151771820Y-129216261D01*
X151356071Y-129043627D01*
X150905904Y-129043234D01*
X150489854Y-129215142D01*
X150171261Y-129533180D01*
X149998627Y-129948929D01*
X149998234Y-130399096D01*
X88086000Y-130399096D01*
X88086000Y-129655695D01*
X104444699Y-129655695D01*
X104533451Y-129870490D01*
X104697645Y-130034972D01*
X104912286Y-130124098D01*
X105144695Y-130124301D01*
X105359490Y-130035549D01*
X105523972Y-129871355D01*
X105613098Y-129656714D01*
X105613301Y-129424305D01*
X105524549Y-129209510D01*
X105360355Y-129045028D01*
X105145714Y-128955902D01*
X104913305Y-128955699D01*
X104698510Y-129044451D01*
X104534028Y-129208645D01*
X104444902Y-129423286D01*
X104444699Y-129655695D01*
X88086000Y-129655695D01*
X88086000Y-128639695D01*
X125366699Y-128639695D01*
X125455451Y-128854490D01*
X125619645Y-129018972D01*
X125834286Y-129108098D01*
X126066695Y-129108301D01*
X126281490Y-129019549D01*
X126445972Y-128855355D01*
X126535098Y-128640714D01*
X126535301Y-128408305D01*
X126446549Y-128193510D01*
X126282355Y-128029028D01*
X126067714Y-127939902D01*
X125835305Y-127939699D01*
X125620510Y-128028451D01*
X125456028Y-128192645D01*
X125366902Y-128407286D01*
X125366699Y-128639695D01*
X88086000Y-128639695D01*
X88086000Y-120550940D01*
X99110956Y-120550940D01*
X99110956Y-124051060D01*
X99140526Y-124199719D01*
X99224734Y-124325746D01*
X99350761Y-124409954D01*
X99499420Y-124439524D01*
X102999540Y-124439524D01*
X103148199Y-124409954D01*
X103274226Y-124325746D01*
X103358434Y-124199719D01*
X103388004Y-124051060D01*
X103388004Y-121908695D01*
X107492699Y-121908695D01*
X107581451Y-122123490D01*
X107745645Y-122287972D01*
X107960286Y-122377098D01*
X108192695Y-122377301D01*
X108407490Y-122288549D01*
X108571972Y-122124355D01*
X108661098Y-121909714D01*
X108661301Y-121677305D01*
X108572549Y-121462510D01*
X108408355Y-121298028D01*
X108193714Y-121208902D01*
X107961305Y-121208699D01*
X107746510Y-121297451D01*
X107582028Y-121461645D01*
X107492902Y-121676286D01*
X107492699Y-121908695D01*
X103388004Y-121908695D01*
X103388004Y-121105208D01*
X136397824Y-121105208D01*
X136552175Y-121478766D01*
X136837731Y-121764821D01*
X137211018Y-121919824D01*
X137615208Y-121920176D01*
X137988766Y-121765825D01*
X138072350Y-121682386D01*
X158013052Y-121682386D01*
X158317895Y-122420163D01*
X158881868Y-122985121D01*
X159619111Y-123291251D01*
X160417386Y-123291948D01*
X161155163Y-122987105D01*
X161720121Y-122423132D01*
X162026251Y-121685889D01*
X162026948Y-120887614D01*
X161722105Y-120149837D01*
X161158132Y-119584879D01*
X160420889Y-119278749D01*
X159622614Y-119278052D01*
X158884837Y-119582895D01*
X158319879Y-120146868D01*
X158013749Y-120884111D01*
X158013052Y-121682386D01*
X138072350Y-121682386D01*
X138274821Y-121480269D01*
X138429824Y-121106982D01*
X138430176Y-120702792D01*
X138275825Y-120329234D01*
X137990269Y-120043179D01*
X137616982Y-119888176D01*
X137212792Y-119887824D01*
X136839234Y-120042175D01*
X136553179Y-120327731D01*
X136398176Y-120701018D01*
X136397824Y-121105208D01*
X103388004Y-121105208D01*
X103388004Y-120550940D01*
X103358434Y-120402281D01*
X103274226Y-120276254D01*
X103148199Y-120192046D01*
X102999540Y-120162476D01*
X99499420Y-120162476D01*
X99350761Y-120192046D01*
X99224734Y-120276254D01*
X99140526Y-120402281D01*
X99110956Y-120550940D01*
X88086000Y-120550940D01*
X88086000Y-118969096D01*
X149998234Y-118969096D01*
X150170142Y-119385146D01*
X150488180Y-119703739D01*
X150903929Y-119876373D01*
X151354096Y-119876766D01*
X151770146Y-119704858D01*
X152088739Y-119386820D01*
X152139559Y-119264430D01*
X152530966Y-119264430D01*
X152530966Y-120765570D01*
X152560536Y-120914229D01*
X152644744Y-121040256D01*
X152770771Y-121124464D01*
X152919430Y-121154034D01*
X154420570Y-121154034D01*
X154569229Y-121124464D01*
X154695256Y-121040256D01*
X154779464Y-120914229D01*
X154809034Y-120765570D01*
X154809034Y-119264430D01*
X154779464Y-119115771D01*
X154695256Y-118989744D01*
X154569229Y-118905536D01*
X154420570Y-118875966D01*
X152919430Y-118875966D01*
X152770771Y-118905536D01*
X152644744Y-118989744D01*
X152560536Y-119115771D01*
X152530966Y-119264430D01*
X152139559Y-119264430D01*
X152261373Y-118971071D01*
X152261766Y-118520904D01*
X152089858Y-118104854D01*
X151771820Y-117786261D01*
X151561904Y-117699096D01*
X152538234Y-117699096D01*
X152710142Y-118115146D01*
X153028180Y-118433739D01*
X153443929Y-118606373D01*
X153894096Y-118606766D01*
X154310146Y-118434858D01*
X154628739Y-118116820D01*
X154801373Y-117701071D01*
X154801766Y-117250904D01*
X154629858Y-116834854D01*
X154311820Y-116516261D01*
X153896071Y-116343627D01*
X153445904Y-116343234D01*
X153029854Y-116515142D01*
X152711261Y-116833180D01*
X152538627Y-117248929D01*
X152538234Y-117699096D01*
X151561904Y-117699096D01*
X151356071Y-117613627D01*
X150905904Y-117613234D01*
X150489854Y-117785142D01*
X150171261Y-118103180D01*
X149998627Y-118518929D01*
X149998234Y-118969096D01*
X88086000Y-118969096D01*
X88086000Y-116429096D01*
X149998234Y-116429096D01*
X150170142Y-116845146D01*
X150488180Y-117163739D01*
X150903929Y-117336373D01*
X151354096Y-117336766D01*
X151770146Y-117164858D01*
X152088739Y-116846820D01*
X152261373Y-116431071D01*
X152261766Y-115980904D01*
X152089858Y-115564854D01*
X151771820Y-115246261D01*
X151356071Y-115073627D01*
X150905904Y-115073234D01*
X150489854Y-115245142D01*
X150171261Y-115563180D01*
X149998627Y-115978929D01*
X149998234Y-116429096D01*
X88086000Y-116429096D01*
X88086000Y-115489582D01*
X130441348Y-115489582D01*
X130574506Y-115811849D01*
X130820854Y-116058628D01*
X131142888Y-116192348D01*
X131491582Y-116192652D01*
X131813849Y-116059494D01*
X132060628Y-115813146D01*
X132194348Y-115491112D01*
X132194652Y-115142418D01*
X132061494Y-114820151D01*
X131815146Y-114573372D01*
X131493112Y-114439652D01*
X131144418Y-114439348D01*
X130822151Y-114572506D01*
X130575372Y-114818854D01*
X130441652Y-115140888D01*
X130441348Y-115489582D01*
X88086000Y-115489582D01*
X88086000Y-114161695D01*
X132511699Y-114161695D01*
X132600451Y-114376490D01*
X132764645Y-114540972D01*
X132979286Y-114630098D01*
X133211695Y-114630301D01*
X133426490Y-114541549D01*
X133590972Y-114377355D01*
X133680098Y-114162714D01*
X133680301Y-113930305D01*
X133663274Y-113889096D01*
X149998234Y-113889096D01*
X150170142Y-114305146D01*
X150488180Y-114623739D01*
X150903929Y-114796373D01*
X151354096Y-114796766D01*
X151770146Y-114624858D01*
X152088739Y-114306820D01*
X152261373Y-113891071D01*
X152261766Y-113440904D01*
X152089858Y-113024854D01*
X151771820Y-112706261D01*
X151561904Y-112619096D01*
X152538234Y-112619096D01*
X152710142Y-113035146D01*
X153028180Y-113353739D01*
X153443929Y-113526373D01*
X153894096Y-113526766D01*
X154310146Y-113354858D01*
X154628739Y-113036820D01*
X154801373Y-112621071D01*
X154801766Y-112170904D01*
X154629858Y-111754854D01*
X154311820Y-111436261D01*
X153896071Y-111263627D01*
X153445904Y-111263234D01*
X153029854Y-111435142D01*
X152711261Y-111753180D01*
X152538627Y-112168929D01*
X152538234Y-112619096D01*
X151561904Y-112619096D01*
X151356071Y-112533627D01*
X150905904Y-112533234D01*
X150489854Y-112705142D01*
X150171261Y-113023180D01*
X149998627Y-113438929D01*
X149998234Y-113889096D01*
X133663274Y-113889096D01*
X133591549Y-113715510D01*
X133427355Y-113551028D01*
X133212714Y-113461902D01*
X132980305Y-113461699D01*
X132765510Y-113550451D01*
X132601028Y-113714645D01*
X132511902Y-113929286D01*
X132511699Y-114161695D01*
X88086000Y-114161695D01*
X88086000Y-112157386D01*
X93243052Y-112157386D01*
X93547895Y-112895163D01*
X94111868Y-113460121D01*
X94849111Y-113766251D01*
X95647386Y-113766948D01*
X96228843Y-113526695D01*
X111048699Y-113526695D01*
X111137451Y-113741490D01*
X111301645Y-113905972D01*
X111516286Y-113995098D01*
X111748695Y-113995301D01*
X111963490Y-113906549D01*
X112127972Y-113742355D01*
X112217098Y-113527714D01*
X112217301Y-113295305D01*
X112128549Y-113080510D01*
X111964355Y-112916028D01*
X111749714Y-112826902D01*
X111517305Y-112826699D01*
X111302510Y-112915451D01*
X111138028Y-113079645D01*
X111048902Y-113294286D01*
X111048699Y-113526695D01*
X96228843Y-113526695D01*
X96385163Y-113462105D01*
X96950121Y-112898132D01*
X97256251Y-112160889D01*
X97256389Y-112002695D01*
X128828699Y-112002695D01*
X128917451Y-112217490D01*
X129081645Y-112381972D01*
X129296286Y-112471098D01*
X129528695Y-112471301D01*
X129743490Y-112382549D01*
X129907972Y-112218355D01*
X129997098Y-112003714D01*
X129997301Y-111771305D01*
X129908549Y-111556510D01*
X129744355Y-111392028D01*
X129529714Y-111302902D01*
X129297305Y-111302699D01*
X129082510Y-111391451D01*
X128918028Y-111555645D01*
X128828902Y-111770286D01*
X128828699Y-112002695D01*
X97256389Y-112002695D01*
X97256948Y-111362614D01*
X96988987Y-110714096D01*
X103008234Y-110714096D01*
X103180142Y-111130146D01*
X103498180Y-111448739D01*
X103913929Y-111621373D01*
X104364096Y-111621766D01*
X104780146Y-111449858D01*
X105098739Y-111131820D01*
X105106265Y-111113695D01*
X139750699Y-111113695D01*
X139839451Y-111328490D01*
X140003645Y-111492972D01*
X140218286Y-111582098D01*
X140450695Y-111582301D01*
X140665490Y-111493549D01*
X140829972Y-111329355D01*
X140919098Y-111114714D01*
X140919148Y-111057260D01*
X146411134Y-111057260D01*
X146499886Y-111272055D01*
X146664080Y-111436537D01*
X146878721Y-111525663D01*
X147111130Y-111525866D01*
X147325925Y-111437114D01*
X147414097Y-111349096D01*
X149998234Y-111349096D01*
X150170142Y-111765146D01*
X150488180Y-112083739D01*
X150903929Y-112256373D01*
X151354096Y-112256766D01*
X151770146Y-112084858D01*
X152088739Y-111766820D01*
X152261373Y-111351071D01*
X152261766Y-110900904D01*
X152089858Y-110484854D01*
X151857795Y-110252386D01*
X158013052Y-110252386D01*
X158317895Y-110990163D01*
X158881868Y-111555121D01*
X159619111Y-111861251D01*
X160417386Y-111861948D01*
X161155163Y-111557105D01*
X161720121Y-110993132D01*
X162026251Y-110255889D01*
X162026948Y-109457614D01*
X161722105Y-108719837D01*
X161158132Y-108154879D01*
X160420889Y-107848749D01*
X159622614Y-107848052D01*
X158884837Y-108152895D01*
X158319879Y-108716868D01*
X158013749Y-109454111D01*
X158013052Y-110252386D01*
X151857795Y-110252386D01*
X151771820Y-110166261D01*
X151356071Y-109993627D01*
X150905904Y-109993234D01*
X150489854Y-110165142D01*
X150171261Y-110483180D01*
X149998627Y-110898929D01*
X149998234Y-111349096D01*
X147414097Y-111349096D01*
X147490407Y-111272920D01*
X147558391Y-111109196D01*
X147721055Y-111041984D01*
X147885537Y-110877790D01*
X147974663Y-110663149D01*
X147974866Y-110430740D01*
X147886114Y-110215945D01*
X147721920Y-110051463D01*
X147507279Y-109962337D01*
X147274870Y-109962134D01*
X147060075Y-110050886D01*
X146895593Y-110215080D01*
X146827609Y-110378804D01*
X146664945Y-110446016D01*
X146500463Y-110610210D01*
X146411337Y-110824851D01*
X146411134Y-111057260D01*
X140919148Y-111057260D01*
X140919301Y-110882305D01*
X140830549Y-110667510D01*
X140666355Y-110503028D01*
X140451714Y-110413902D01*
X140219305Y-110413699D01*
X140004510Y-110502451D01*
X139840028Y-110666645D01*
X139750902Y-110881286D01*
X139750699Y-111113695D01*
X105106265Y-111113695D01*
X105271373Y-110716071D01*
X105271640Y-110409582D01*
X129425348Y-110409582D01*
X129558506Y-110731849D01*
X129804854Y-110978628D01*
X130126888Y-111112348D01*
X130475582Y-111112652D01*
X130797849Y-110979494D01*
X131044628Y-110733146D01*
X131178348Y-110411112D01*
X131178349Y-110409582D01*
X131457348Y-110409582D01*
X131590506Y-110731849D01*
X131836854Y-110978628D01*
X132158888Y-111112348D01*
X132507582Y-111112652D01*
X132829849Y-110979494D01*
X133076628Y-110733146D01*
X133210348Y-110411112D01*
X133210652Y-110062418D01*
X133077494Y-109740151D01*
X132831146Y-109493372D01*
X132509112Y-109359652D01*
X132160418Y-109359348D01*
X131838151Y-109492506D01*
X131591372Y-109738854D01*
X131457652Y-110060888D01*
X131457348Y-110409582D01*
X131178349Y-110409582D01*
X131178652Y-110062418D01*
X131045494Y-109740151D01*
X130799146Y-109493372D01*
X130477112Y-109359652D01*
X130128418Y-109359348D01*
X129806151Y-109492506D01*
X129559372Y-109738854D01*
X129425652Y-110060888D01*
X129425348Y-110409582D01*
X105271640Y-110409582D01*
X105271766Y-110265904D01*
X105099858Y-109849854D01*
X104781820Y-109531261D01*
X104366071Y-109358627D01*
X103915904Y-109358234D01*
X103499854Y-109530142D01*
X103181261Y-109848180D01*
X103008627Y-110263929D01*
X103008234Y-110714096D01*
X96988987Y-110714096D01*
X96952105Y-110624837D01*
X96388132Y-110059879D01*
X95650889Y-109753749D01*
X94852614Y-109753052D01*
X94114837Y-110057895D01*
X93549879Y-110621868D01*
X93243749Y-111359111D01*
X93243052Y-112157386D01*
X88086000Y-112157386D01*
X88086000Y-109444096D01*
X100468234Y-109444096D01*
X100640142Y-109860146D01*
X100958180Y-110178739D01*
X101373929Y-110351373D01*
X101824096Y-110351766D01*
X102240146Y-110179858D01*
X102558739Y-109861820D01*
X102731373Y-109446071D01*
X102731766Y-108995904D01*
X102559858Y-108579854D01*
X102241820Y-108261261D01*
X102031904Y-108174096D01*
X103008234Y-108174096D01*
X103180142Y-108590146D01*
X103498180Y-108908739D01*
X103913929Y-109081373D01*
X104364096Y-109081766D01*
X104780146Y-108909858D01*
X105098739Y-108591820D01*
X105271373Y-108176071D01*
X105271691Y-107811695D01*
X116255699Y-107811695D01*
X116344451Y-108026490D01*
X116508645Y-108190972D01*
X116723286Y-108280098D01*
X116955695Y-108280301D01*
X117170490Y-108191549D01*
X117334972Y-108027355D01*
X117424098Y-107812714D01*
X117424301Y-107580305D01*
X117335549Y-107365510D01*
X117281829Y-107311695D01*
X122478699Y-107311695D01*
X122567451Y-107526490D01*
X122731645Y-107690972D01*
X122946286Y-107780098D01*
X123178695Y-107780301D01*
X123393490Y-107691549D01*
X123557972Y-107527355D01*
X123647098Y-107312714D01*
X123647098Y-107311695D01*
X128320699Y-107311695D01*
X128409451Y-107526490D01*
X128573645Y-107690972D01*
X128788286Y-107780098D01*
X129020695Y-107780301D01*
X129235490Y-107691549D01*
X129399972Y-107527355D01*
X129489098Y-107312714D01*
X129489301Y-107080305D01*
X129400549Y-106865510D01*
X129236355Y-106701028D01*
X129021714Y-106611902D01*
X128789305Y-106611699D01*
X128574510Y-106700451D01*
X128410028Y-106864645D01*
X128320902Y-107079286D01*
X128320699Y-107311695D01*
X123647098Y-107311695D01*
X123647301Y-107080305D01*
X123558549Y-106865510D01*
X123394355Y-106701028D01*
X123179714Y-106611902D01*
X122947305Y-106611699D01*
X122732510Y-106700451D01*
X122568028Y-106864645D01*
X122478902Y-107079286D01*
X122478699Y-107311695D01*
X117281829Y-107311695D01*
X117171355Y-107201028D01*
X116956714Y-107111902D01*
X116724305Y-107111699D01*
X116509510Y-107200451D01*
X116345028Y-107364645D01*
X116255902Y-107579286D01*
X116255699Y-107811695D01*
X105271691Y-107811695D01*
X105271766Y-107725904D01*
X105099858Y-107309854D01*
X104781820Y-106991261D01*
X104366071Y-106818627D01*
X103915904Y-106818234D01*
X103499854Y-106990142D01*
X103181261Y-107308180D01*
X103008627Y-107723929D01*
X103008234Y-108174096D01*
X102031904Y-108174096D01*
X101826071Y-108088627D01*
X101375904Y-108088234D01*
X100959854Y-108260142D01*
X100641261Y-108578180D01*
X100468627Y-108993929D01*
X100468234Y-109444096D01*
X88086000Y-109444096D01*
X88086000Y-105634096D01*
X103008234Y-105634096D01*
X103180142Y-106050146D01*
X103498180Y-106368739D01*
X103913929Y-106541373D01*
X104364096Y-106541766D01*
X104780146Y-106369858D01*
X105098739Y-106051820D01*
X105271373Y-105636071D01*
X105271766Y-105185904D01*
X105099858Y-104769854D01*
X104781820Y-104451261D01*
X104366071Y-104278627D01*
X103915904Y-104278234D01*
X103499854Y-104450142D01*
X103181261Y-104768180D01*
X103008627Y-105183929D01*
X103008234Y-105634096D01*
X88086000Y-105634096D01*
X88086000Y-104364096D01*
X100468234Y-104364096D01*
X100640142Y-104780146D01*
X100958180Y-105098739D01*
X101373929Y-105271373D01*
X101824096Y-105271766D01*
X102240146Y-105099858D01*
X102558739Y-104781820D01*
X102731373Y-104366071D01*
X102731616Y-104087231D01*
X108991400Y-104087231D01*
X108991400Y-104446769D01*
X109086140Y-104923057D01*
X109355935Y-105326834D01*
X109759712Y-105596629D01*
X110236000Y-105691369D01*
X110712288Y-105596629D01*
X111116065Y-105326834D01*
X111385860Y-104923057D01*
X111480600Y-104446769D01*
X111480600Y-104087231D01*
X111531400Y-104087231D01*
X111531400Y-104446769D01*
X111626140Y-104923057D01*
X111895935Y-105326834D01*
X112299712Y-105596629D01*
X112776000Y-105691369D01*
X113252288Y-105596629D01*
X113656065Y-105326834D01*
X113925860Y-104923057D01*
X114020600Y-104446769D01*
X114020600Y-104087231D01*
X113925860Y-103610943D01*
X113685354Y-103251000D01*
X114063936Y-103251000D01*
X114063936Y-105283000D01*
X114093506Y-105431659D01*
X114177714Y-105557686D01*
X114303741Y-105641894D01*
X114452400Y-105671464D01*
X116179600Y-105671464D01*
X116328259Y-105641894D01*
X116454286Y-105557686D01*
X116538494Y-105431659D01*
X116568064Y-105283000D01*
X116568064Y-103251000D01*
X116538494Y-103102341D01*
X116454286Y-102976314D01*
X116328259Y-102892106D01*
X116179600Y-102862536D01*
X114452400Y-102862536D01*
X114303741Y-102892106D01*
X114177714Y-102976314D01*
X114093506Y-103102341D01*
X114063936Y-103251000D01*
X113685354Y-103251000D01*
X113656065Y-103207166D01*
X113252288Y-102937371D01*
X112776000Y-102842631D01*
X112299712Y-102937371D01*
X111895935Y-103207166D01*
X111626140Y-103610943D01*
X111531400Y-104087231D01*
X111480600Y-104087231D01*
X111385860Y-103610943D01*
X111116065Y-103207166D01*
X110712288Y-102937371D01*
X110236000Y-102842631D01*
X109759712Y-102937371D01*
X109355935Y-103207166D01*
X109086140Y-103610943D01*
X108991400Y-104087231D01*
X102731616Y-104087231D01*
X102731766Y-103915904D01*
X102559858Y-103499854D01*
X102241820Y-103181261D01*
X102031904Y-103094096D01*
X103008234Y-103094096D01*
X103180142Y-103510146D01*
X103498180Y-103828739D01*
X103913929Y-104001373D01*
X104364096Y-104001766D01*
X104780146Y-103829858D01*
X105098739Y-103511820D01*
X105271373Y-103096071D01*
X105271766Y-102645904D01*
X105149789Y-102350695D01*
X139750699Y-102350695D01*
X139839451Y-102565490D01*
X140003645Y-102729972D01*
X140218286Y-102819098D01*
X140450695Y-102819301D01*
X140665490Y-102730549D01*
X140763825Y-102632386D01*
X158013052Y-102632386D01*
X158317895Y-103370163D01*
X158881868Y-103935121D01*
X159619111Y-104241251D01*
X160417386Y-104241948D01*
X161155163Y-103937105D01*
X161720121Y-103373132D01*
X162026251Y-102635889D01*
X162026948Y-101837614D01*
X161722105Y-101099837D01*
X161158132Y-100534879D01*
X160420889Y-100228749D01*
X159622614Y-100228052D01*
X158884837Y-100532895D01*
X158319879Y-101096868D01*
X158013749Y-101834111D01*
X158013052Y-102632386D01*
X140763825Y-102632386D01*
X140829972Y-102566355D01*
X140919098Y-102351714D01*
X140919301Y-102119305D01*
X140830549Y-101904510D01*
X140666355Y-101740028D01*
X140451714Y-101650902D01*
X140219305Y-101650699D01*
X140004510Y-101739451D01*
X139840028Y-101903645D01*
X139750902Y-102118286D01*
X139750699Y-102350695D01*
X105149789Y-102350695D01*
X105099858Y-102229854D01*
X104781820Y-101911261D01*
X104366071Y-101738627D01*
X103915904Y-101738234D01*
X103499854Y-101910142D01*
X103181261Y-102228180D01*
X103008627Y-102643929D01*
X103008234Y-103094096D01*
X102031904Y-103094096D01*
X101826071Y-103008627D01*
X101375904Y-103008234D01*
X100959854Y-103180142D01*
X100641261Y-103498180D01*
X100468627Y-103913929D01*
X100468234Y-104364096D01*
X88086000Y-104364096D01*
X88086000Y-100727386D01*
X93243052Y-100727386D01*
X93547895Y-101465163D01*
X94111868Y-102030121D01*
X94849111Y-102336251D01*
X95647386Y-102336948D01*
X96385163Y-102032105D01*
X96950121Y-101468132D01*
X97207028Y-100849430D01*
X100460966Y-100849430D01*
X100460966Y-102350570D01*
X100490536Y-102499229D01*
X100574744Y-102625256D01*
X100700771Y-102709464D01*
X100849430Y-102739034D01*
X102350570Y-102739034D01*
X102499229Y-102709464D01*
X102625256Y-102625256D01*
X102709464Y-102499229D01*
X102739034Y-102350570D01*
X102739034Y-100849430D01*
X102709464Y-100700771D01*
X102625256Y-100574744D01*
X102499229Y-100490536D01*
X102350570Y-100460966D01*
X100849430Y-100460966D01*
X100700771Y-100490536D01*
X100574744Y-100574744D01*
X100490536Y-100700771D01*
X100460966Y-100849430D01*
X97207028Y-100849430D01*
X97256251Y-100730889D01*
X97256948Y-99932614D01*
X97251363Y-99919096D01*
X149998234Y-99919096D01*
X150170142Y-100335146D01*
X150488180Y-100653739D01*
X150903929Y-100826373D01*
X151354096Y-100826766D01*
X151770146Y-100654858D01*
X152088739Y-100336820D01*
X152139559Y-100214430D01*
X152530966Y-100214430D01*
X152530966Y-101715570D01*
X152560536Y-101864229D01*
X152644744Y-101990256D01*
X152770771Y-102074464D01*
X152919430Y-102104034D01*
X154420570Y-102104034D01*
X154569229Y-102074464D01*
X154695256Y-101990256D01*
X154779464Y-101864229D01*
X154809034Y-101715570D01*
X154809034Y-100214430D01*
X154779464Y-100065771D01*
X154695256Y-99939744D01*
X154569229Y-99855536D01*
X154420570Y-99825966D01*
X152919430Y-99825966D01*
X152770771Y-99855536D01*
X152644744Y-99939744D01*
X152560536Y-100065771D01*
X152530966Y-100214430D01*
X152139559Y-100214430D01*
X152261373Y-99921071D01*
X152261766Y-99470904D01*
X152089858Y-99054854D01*
X151771820Y-98736261D01*
X151561904Y-98649096D01*
X152538234Y-98649096D01*
X152710142Y-99065146D01*
X153028180Y-99383739D01*
X153443929Y-99556373D01*
X153894096Y-99556766D01*
X154310146Y-99384858D01*
X154628739Y-99066820D01*
X154801373Y-98651071D01*
X154801766Y-98200904D01*
X154629858Y-97784854D01*
X154311820Y-97466261D01*
X153896071Y-97293627D01*
X153445904Y-97293234D01*
X153029854Y-97465142D01*
X152711261Y-97783180D01*
X152538627Y-98198929D01*
X152538234Y-98649096D01*
X151561904Y-98649096D01*
X151356071Y-98563627D01*
X150905904Y-98563234D01*
X150489854Y-98735142D01*
X150171261Y-99053180D01*
X149998627Y-99468929D01*
X149998234Y-99919096D01*
X97251363Y-99919096D01*
X96952105Y-99194837D01*
X96388132Y-98629879D01*
X95650889Y-98323749D01*
X94852614Y-98323052D01*
X94114837Y-98627895D01*
X93549879Y-99191868D01*
X93243749Y-99929111D01*
X93243052Y-100727386D01*
X88086000Y-100727386D01*
X88086000Y-96774000D01*
X122572936Y-96774000D01*
X122572936Y-98806000D01*
X122602506Y-98954659D01*
X122686714Y-99080686D01*
X122812741Y-99164894D01*
X122961400Y-99194464D01*
X124688600Y-99194464D01*
X124837259Y-99164894D01*
X124963286Y-99080686D01*
X125047494Y-98954659D01*
X125077064Y-98806000D01*
X125077064Y-97610231D01*
X125120400Y-97610231D01*
X125120400Y-97969769D01*
X125215140Y-98446057D01*
X125484935Y-98849834D01*
X125888712Y-99119629D01*
X126365000Y-99214369D01*
X126841288Y-99119629D01*
X127245065Y-98849834D01*
X127514860Y-98446057D01*
X127609600Y-97969769D01*
X127609600Y-97610231D01*
X127660400Y-97610231D01*
X127660400Y-97969769D01*
X127755140Y-98446057D01*
X128024935Y-98849834D01*
X128428712Y-99119629D01*
X128905000Y-99214369D01*
X129381288Y-99119629D01*
X129785065Y-98849834D01*
X130054860Y-98446057D01*
X130149600Y-97969769D01*
X130149600Y-97610231D01*
X130103625Y-97379096D01*
X149998234Y-97379096D01*
X150170142Y-97795146D01*
X150488180Y-98113739D01*
X150903929Y-98286373D01*
X151354096Y-98286766D01*
X151770146Y-98114858D01*
X152088739Y-97796820D01*
X152261373Y-97381071D01*
X152261766Y-96930904D01*
X152089858Y-96514854D01*
X151771820Y-96196261D01*
X151356071Y-96023627D01*
X150905904Y-96023234D01*
X150489854Y-96195142D01*
X150171261Y-96513180D01*
X149998627Y-96928929D01*
X149998234Y-97379096D01*
X130103625Y-97379096D01*
X130054860Y-97133943D01*
X129785065Y-96730166D01*
X129381288Y-96460371D01*
X128905000Y-96365631D01*
X128428712Y-96460371D01*
X128024935Y-96730166D01*
X127755140Y-97133943D01*
X127660400Y-97610231D01*
X127609600Y-97610231D01*
X127514860Y-97133943D01*
X127245065Y-96730166D01*
X126841288Y-96460371D01*
X126365000Y-96365631D01*
X125888712Y-96460371D01*
X125484935Y-96730166D01*
X125215140Y-97133943D01*
X125120400Y-97610231D01*
X125077064Y-97610231D01*
X125077064Y-96774000D01*
X125047494Y-96625341D01*
X124963286Y-96499314D01*
X124837259Y-96415106D01*
X124688600Y-96385536D01*
X122961400Y-96385536D01*
X122812741Y-96415106D01*
X122686714Y-96499314D01*
X122602506Y-96625341D01*
X122572936Y-96774000D01*
X88086000Y-96774000D01*
X88086000Y-94839096D01*
X149998234Y-94839096D01*
X150170142Y-95255146D01*
X150488180Y-95573739D01*
X150903929Y-95746373D01*
X151354096Y-95746766D01*
X151770146Y-95574858D01*
X152088739Y-95256820D01*
X152261373Y-94841071D01*
X152261766Y-94390904D01*
X152089858Y-93974854D01*
X151771820Y-93656261D01*
X151561904Y-93569096D01*
X152538234Y-93569096D01*
X152710142Y-93985146D01*
X153028180Y-94303739D01*
X153443929Y-94476373D01*
X153894096Y-94476766D01*
X154310146Y-94304858D01*
X154628739Y-93986820D01*
X154801373Y-93571071D01*
X154801766Y-93120904D01*
X154629858Y-92704854D01*
X154311820Y-92386261D01*
X153896071Y-92213627D01*
X153445904Y-92213234D01*
X153029854Y-92385142D01*
X152711261Y-92703180D01*
X152538627Y-93118929D01*
X152538234Y-93569096D01*
X151561904Y-93569096D01*
X151356071Y-93483627D01*
X150905904Y-93483234D01*
X150489854Y-93655142D01*
X150171261Y-93973180D01*
X149998627Y-94388929D01*
X149998234Y-94839096D01*
X88086000Y-94839096D01*
X88086000Y-93079695D01*
X103555699Y-93079695D01*
X103644451Y-93294490D01*
X103808645Y-93458972D01*
X104023286Y-93548098D01*
X104255695Y-93548301D01*
X104470490Y-93459549D01*
X104634972Y-93295355D01*
X104724098Y-93080714D01*
X104724301Y-92848305D01*
X104635549Y-92633510D01*
X104471355Y-92469028D01*
X104256714Y-92379902D01*
X104024305Y-92379699D01*
X103809510Y-92468451D01*
X103645028Y-92632645D01*
X103555902Y-92847286D01*
X103555699Y-93079695D01*
X88086000Y-93079695D01*
X88086000Y-92299096D01*
X149998234Y-92299096D01*
X150170142Y-92715146D01*
X150488180Y-93033739D01*
X150903929Y-93206373D01*
X151354096Y-93206766D01*
X151770146Y-93034858D01*
X152088739Y-92716820D01*
X152261373Y-92301071D01*
X152261766Y-91850904D01*
X152089858Y-91434854D01*
X151857795Y-91202386D01*
X158013052Y-91202386D01*
X158317895Y-91940163D01*
X158881868Y-92505121D01*
X159619111Y-92811251D01*
X160417386Y-92811948D01*
X161155163Y-92507105D01*
X161720121Y-91943132D01*
X162026251Y-91205889D01*
X162026948Y-90407614D01*
X161722105Y-89669837D01*
X161158132Y-89104879D01*
X160420889Y-88798749D01*
X159622614Y-88798052D01*
X158884837Y-89102895D01*
X158319879Y-89666868D01*
X158013749Y-90404111D01*
X158013052Y-91202386D01*
X151857795Y-91202386D01*
X151771820Y-91116261D01*
X151356071Y-90943627D01*
X150905904Y-90943234D01*
X150489854Y-91115142D01*
X150171261Y-91433180D01*
X149998627Y-91848929D01*
X149998234Y-92299096D01*
X88086000Y-92299096D01*
X88086000Y-90158695D01*
X109270699Y-90158695D01*
X109359451Y-90373490D01*
X109523645Y-90537972D01*
X109738286Y-90627098D01*
X109970695Y-90627301D01*
X110185490Y-90538549D01*
X110349972Y-90374355D01*
X110439098Y-90159714D01*
X110439301Y-89927305D01*
X110350549Y-89712510D01*
X110186355Y-89548028D01*
X109971714Y-89458902D01*
X109739305Y-89458699D01*
X109524510Y-89547451D01*
X109360028Y-89711645D01*
X109270902Y-89926286D01*
X109270699Y-90158695D01*
X88086000Y-90158695D01*
X88086000Y-89142695D01*
X105460699Y-89142695D01*
X105549451Y-89357490D01*
X105713645Y-89521972D01*
X105928286Y-89611098D01*
X106160695Y-89611301D01*
X106375490Y-89522549D01*
X106539972Y-89358355D01*
X106629098Y-89143714D01*
X106629301Y-88911305D01*
X106540549Y-88696510D01*
X106376355Y-88532028D01*
X106161714Y-88442902D01*
X105929305Y-88442699D01*
X105714510Y-88531451D01*
X105550028Y-88695645D01*
X105460902Y-88910286D01*
X105460699Y-89142695D01*
X88086000Y-89142695D01*
X88086000Y-87110695D01*
X120700699Y-87110695D01*
X120789451Y-87325490D01*
X120953645Y-87489972D01*
X121168286Y-87579098D01*
X121400695Y-87579301D01*
X121615490Y-87490549D01*
X121779972Y-87326355D01*
X121869098Y-87111714D01*
X121869301Y-86879305D01*
X121780549Y-86664510D01*
X121616355Y-86500028D01*
X121401714Y-86410902D01*
X121169305Y-86410699D01*
X120954510Y-86499451D01*
X120790028Y-86663645D01*
X120700902Y-86878286D01*
X120700699Y-87110695D01*
X88086000Y-87110695D01*
X88086000Y-84824695D01*
X104190699Y-84824695D01*
X104279451Y-85039490D01*
X104443645Y-85203972D01*
X104658286Y-85293098D01*
X104890695Y-85293301D01*
X105105490Y-85204549D01*
X105269972Y-85040355D01*
X105359098Y-84825714D01*
X105359098Y-84824695D01*
X106984699Y-84824695D01*
X107073451Y-85039490D01*
X107237645Y-85203972D01*
X107452286Y-85293098D01*
X107684695Y-85293301D01*
X107899490Y-85204549D01*
X108063972Y-85040355D01*
X108153098Y-84825714D01*
X108153301Y-84593305D01*
X108064549Y-84378510D01*
X107900355Y-84214028D01*
X107685714Y-84124902D01*
X107453305Y-84124699D01*
X107238510Y-84213451D01*
X107074028Y-84377645D01*
X106984902Y-84592286D01*
X106984699Y-84824695D01*
X105359098Y-84824695D01*
X105359301Y-84593305D01*
X105270549Y-84378510D01*
X105106355Y-84214028D01*
X104891714Y-84124902D01*
X104659305Y-84124699D01*
X104444510Y-84213451D01*
X104280028Y-84377645D01*
X104190902Y-84592286D01*
X104190699Y-84824695D01*
X88086000Y-84824695D01*
X88086000Y-84062695D01*
X115747699Y-84062695D01*
X115836451Y-84277490D01*
X116000645Y-84441972D01*
X116215286Y-84531098D01*
X116447695Y-84531301D01*
X116662490Y-84442549D01*
X116826972Y-84278355D01*
X116916098Y-84063714D01*
X116916301Y-83831305D01*
X116827549Y-83616510D01*
X116793485Y-83582386D01*
X158013052Y-83582386D01*
X158317895Y-84320163D01*
X158881868Y-84885121D01*
X159619111Y-85191251D01*
X160417386Y-85191948D01*
X161155163Y-84887105D01*
X161720121Y-84323132D01*
X162026251Y-83585889D01*
X162026948Y-82787614D01*
X161722105Y-82049837D01*
X161158132Y-81484879D01*
X160420889Y-81178749D01*
X159622614Y-81178052D01*
X158884837Y-81482895D01*
X158319879Y-82046868D01*
X158013749Y-82784111D01*
X158013052Y-83582386D01*
X116793485Y-83582386D01*
X116663355Y-83452028D01*
X116448714Y-83362902D01*
X116216305Y-83362699D01*
X116001510Y-83451451D01*
X115837028Y-83615645D01*
X115747902Y-83830286D01*
X115747699Y-84062695D01*
X88086000Y-84062695D01*
X88086000Y-81776695D01*
X110921699Y-81776695D01*
X111010451Y-81991490D01*
X111174645Y-82155972D01*
X111389286Y-82245098D01*
X111621695Y-82245301D01*
X111772104Y-82183153D01*
X111921286Y-82245098D01*
X112153695Y-82245301D01*
X112368490Y-82156549D01*
X112532972Y-81992355D01*
X112569786Y-81903695D01*
X113461699Y-81903695D01*
X113550451Y-82118490D01*
X113714645Y-82282972D01*
X113929286Y-82372098D01*
X114161695Y-82372301D01*
X114376490Y-82283549D01*
X114540972Y-82119355D01*
X114630098Y-81904714D01*
X114630301Y-81672305D01*
X114541549Y-81457510D01*
X114377355Y-81293028D01*
X114318755Y-81268695D01*
X130512699Y-81268695D01*
X130601451Y-81483490D01*
X130765645Y-81647972D01*
X130980286Y-81737098D01*
X131212695Y-81737301D01*
X131427490Y-81648549D01*
X131591972Y-81484355D01*
X131681098Y-81269714D01*
X131681301Y-81037305D01*
X131611799Y-80869096D01*
X149998234Y-80869096D01*
X150170142Y-81285146D01*
X150488180Y-81603739D01*
X150903929Y-81776373D01*
X151354096Y-81776766D01*
X151770146Y-81604858D01*
X152088739Y-81286820D01*
X152139559Y-81164430D01*
X152530966Y-81164430D01*
X152530966Y-82665570D01*
X152560536Y-82814229D01*
X152644744Y-82940256D01*
X152770771Y-83024464D01*
X152919430Y-83054034D01*
X154420570Y-83054034D01*
X154569229Y-83024464D01*
X154695256Y-82940256D01*
X154779464Y-82814229D01*
X154809034Y-82665570D01*
X154809034Y-81164430D01*
X154779464Y-81015771D01*
X154695256Y-80889744D01*
X154569229Y-80805536D01*
X154420570Y-80775966D01*
X152919430Y-80775966D01*
X152770771Y-80805536D01*
X152644744Y-80889744D01*
X152560536Y-81015771D01*
X152530966Y-81164430D01*
X152139559Y-81164430D01*
X152261373Y-80871071D01*
X152261766Y-80420904D01*
X152089858Y-80004854D01*
X151771820Y-79686261D01*
X151561904Y-79599096D01*
X152538234Y-79599096D01*
X152710142Y-80015146D01*
X153028180Y-80333739D01*
X153443929Y-80506373D01*
X153894096Y-80506766D01*
X154310146Y-80334858D01*
X154628739Y-80016820D01*
X154801373Y-79601071D01*
X154801766Y-79150904D01*
X154629858Y-78734854D01*
X154311820Y-78416261D01*
X153896071Y-78243627D01*
X153445904Y-78243234D01*
X153029854Y-78415142D01*
X152711261Y-78733180D01*
X152538627Y-79148929D01*
X152538234Y-79599096D01*
X151561904Y-79599096D01*
X151356071Y-79513627D01*
X150905904Y-79513234D01*
X150489854Y-79685142D01*
X150171261Y-80003180D01*
X149998627Y-80418929D01*
X149998234Y-80869096D01*
X131611799Y-80869096D01*
X131592549Y-80822510D01*
X131428355Y-80658028D01*
X131213714Y-80568902D01*
X130981305Y-80568699D01*
X130766510Y-80657451D01*
X130602028Y-80821645D01*
X130512902Y-81036286D01*
X130512699Y-81268695D01*
X114318755Y-81268695D01*
X114162714Y-81203902D01*
X113930305Y-81203699D01*
X113715510Y-81292451D01*
X113551028Y-81456645D01*
X113461902Y-81671286D01*
X113461699Y-81903695D01*
X112569786Y-81903695D01*
X112622098Y-81777714D01*
X112622301Y-81545305D01*
X112533549Y-81330510D01*
X112369355Y-81166028D01*
X112154714Y-81076902D01*
X111922305Y-81076699D01*
X111771896Y-81138847D01*
X111622714Y-81076902D01*
X111390305Y-81076699D01*
X111175510Y-81165451D01*
X111011028Y-81329645D01*
X110921902Y-81544286D01*
X110921699Y-81776695D01*
X88086000Y-81776695D01*
X88086000Y-78329096D01*
X149998234Y-78329096D01*
X150170142Y-78745146D01*
X150488180Y-79063739D01*
X150903929Y-79236373D01*
X151354096Y-79236766D01*
X151770146Y-79064858D01*
X152088739Y-78746820D01*
X152261373Y-78331071D01*
X152261766Y-77880904D01*
X152089858Y-77464854D01*
X151771820Y-77146261D01*
X151356071Y-76973627D01*
X150905904Y-76973234D01*
X150489854Y-77145142D01*
X150171261Y-77463180D01*
X149998627Y-77878929D01*
X149998234Y-78329096D01*
X88086000Y-78329096D01*
X88086000Y-75789096D01*
X149998234Y-75789096D01*
X150170142Y-76205146D01*
X150488180Y-76523739D01*
X150903929Y-76696373D01*
X151354096Y-76696766D01*
X151770146Y-76524858D01*
X152088739Y-76206820D01*
X152261373Y-75791071D01*
X152261766Y-75340904D01*
X152089858Y-74924854D01*
X151771820Y-74606261D01*
X151561904Y-74519096D01*
X152538234Y-74519096D01*
X152710142Y-74935146D01*
X153028180Y-75253739D01*
X153443929Y-75426373D01*
X153894096Y-75426766D01*
X154310146Y-75254858D01*
X154628739Y-74936820D01*
X154801373Y-74521071D01*
X154801766Y-74070904D01*
X154629858Y-73654854D01*
X154311820Y-73336261D01*
X153896071Y-73163627D01*
X153445904Y-73163234D01*
X153029854Y-73335142D01*
X152711261Y-73653180D01*
X152538627Y-74068929D01*
X152538234Y-74519096D01*
X151561904Y-74519096D01*
X151356071Y-74433627D01*
X150905904Y-74433234D01*
X150489854Y-74605142D01*
X150171261Y-74923180D01*
X149998627Y-75338929D01*
X149998234Y-75789096D01*
X88086000Y-75789096D01*
X88086000Y-73249096D01*
X149998234Y-73249096D01*
X150170142Y-73665146D01*
X150488180Y-73983739D01*
X150903929Y-74156373D01*
X151354096Y-74156766D01*
X151770146Y-73984858D01*
X152088739Y-73666820D01*
X152261373Y-73251071D01*
X152261766Y-72800904D01*
X152089858Y-72384854D01*
X151857795Y-72152386D01*
X158013052Y-72152386D01*
X158317895Y-72890163D01*
X158881868Y-73455121D01*
X159619111Y-73761251D01*
X160417386Y-73761948D01*
X161155163Y-73457105D01*
X161720121Y-72893132D01*
X162026251Y-72155889D01*
X162026948Y-71357614D01*
X161722105Y-70619837D01*
X161158132Y-70054879D01*
X160420889Y-69748749D01*
X159622614Y-69748052D01*
X158884837Y-70052895D01*
X158319879Y-70616868D01*
X158013749Y-71354111D01*
X158013052Y-72152386D01*
X151857795Y-72152386D01*
X151771820Y-72066261D01*
X151356071Y-71893627D01*
X150905904Y-71893234D01*
X150489854Y-72065142D01*
X150171261Y-72383180D01*
X149998627Y-72798929D01*
X149998234Y-73249096D01*
X88086000Y-73249096D01*
X88086000Y-66496000D01*
X167184000Y-66496000D01*
X167184000Y-144324000D01*
X167184000Y-144324000D01*
G37*
X167184000Y-144324000D02*
X88086000Y-144324000D01*
X88086000Y-140732386D01*
X158013052Y-140732386D01*
X158317895Y-141470163D01*
X158881868Y-142035121D01*
X159619111Y-142341251D01*
X160417386Y-142341948D01*
X161155163Y-142037105D01*
X161720121Y-141473132D01*
X162026251Y-140735889D01*
X162026948Y-139937614D01*
X161722105Y-139199837D01*
X161158132Y-138634879D01*
X160420889Y-138328749D01*
X159622614Y-138328052D01*
X158884837Y-138632895D01*
X158319879Y-139196868D01*
X158013749Y-139934111D01*
X158013052Y-140732386D01*
X88086000Y-140732386D01*
X88086000Y-138019096D01*
X149998234Y-138019096D01*
X150170142Y-138435146D01*
X150488180Y-138753739D01*
X150903929Y-138926373D01*
X151354096Y-138926766D01*
X151770146Y-138754858D01*
X152088739Y-138436820D01*
X152139559Y-138314430D01*
X152530966Y-138314430D01*
X152530966Y-139815570D01*
X152560536Y-139964229D01*
X152644744Y-140090256D01*
X152770771Y-140174464D01*
X152919430Y-140204034D01*
X154420570Y-140204034D01*
X154569229Y-140174464D01*
X154695256Y-140090256D01*
X154779464Y-139964229D01*
X154809034Y-139815570D01*
X154809034Y-138314430D01*
X154779464Y-138165771D01*
X154695256Y-138039744D01*
X154569229Y-137955536D01*
X154420570Y-137925966D01*
X152919430Y-137925966D01*
X152770771Y-137955536D01*
X152644744Y-138039744D01*
X152560536Y-138165771D01*
X152530966Y-138314430D01*
X152139559Y-138314430D01*
X152261373Y-138021071D01*
X152261766Y-137570904D01*
X152089858Y-137154854D01*
X151771820Y-136836261D01*
X151561904Y-136749096D01*
X152538234Y-136749096D01*
X152710142Y-137165146D01*
X153028180Y-137483739D01*
X153443929Y-137656373D01*
X153894096Y-137656766D01*
X154310146Y-137484858D01*
X154628739Y-137166820D01*
X154801373Y-136751071D01*
X154801766Y-136300904D01*
X154629858Y-135884854D01*
X154311820Y-135566261D01*
X153896071Y-135393627D01*
X153445904Y-135393234D01*
X153029854Y-135565142D01*
X152711261Y-135883180D01*
X152538627Y-136298929D01*
X152538234Y-136749096D01*
X151561904Y-136749096D01*
X151356071Y-136663627D01*
X150905904Y-136663234D01*
X150489854Y-136835142D01*
X150171261Y-137153180D01*
X149998627Y-137568929D01*
X149998234Y-138019096D01*
X88086000Y-138019096D01*
X88086000Y-135329208D01*
X93852824Y-135329208D01*
X94007175Y-135702766D01*
X94292731Y-135988821D01*
X94666018Y-136143824D01*
X95070208Y-136144176D01*
X95443766Y-135989825D01*
X95729821Y-135704269D01*
X95823321Y-135479096D01*
X149998234Y-135479096D01*
X150170142Y-135895146D01*
X150488180Y-136213739D01*
X150903929Y-136386373D01*
X151354096Y-136386766D01*
X151770146Y-136214858D01*
X152088739Y-135896820D01*
X152261373Y-135481071D01*
X152261766Y-135030904D01*
X152089858Y-134614854D01*
X151771820Y-134296261D01*
X151356071Y-134123627D01*
X150905904Y-134123234D01*
X150489854Y-134295142D01*
X150171261Y-134613180D01*
X149998627Y-135028929D01*
X149998234Y-135479096D01*
X95823321Y-135479096D01*
X95884824Y-135330982D01*
X95885176Y-134926792D01*
X95730825Y-134553234D01*
X95445269Y-134267179D01*
X95071982Y-134112176D01*
X94667792Y-134111824D01*
X94294234Y-134266175D01*
X94008179Y-134551731D01*
X93853176Y-134925018D01*
X93852824Y-135329208D01*
X88086000Y-135329208D01*
X88086000Y-132939096D01*
X149998234Y-132939096D01*
X150170142Y-133355146D01*
X150488180Y-133673739D01*
X150903929Y-133846373D01*
X151354096Y-133846766D01*
X151770146Y-133674858D01*
X152088739Y-133356820D01*
X152261373Y-132941071D01*
X152261766Y-132490904D01*
X152089858Y-132074854D01*
X151771820Y-131756261D01*
X151561904Y-131669096D01*
X152538234Y-131669096D01*
X152710142Y-132085146D01*
X153028180Y-132403739D01*
X153443929Y-132576373D01*
X153894096Y-132576766D01*
X154310146Y-132404858D01*
X154628739Y-132086820D01*
X154801373Y-131671071D01*
X154801766Y-131220904D01*
X154629858Y-130804854D01*
X154311820Y-130486261D01*
X153896071Y-130313627D01*
X153445904Y-130313234D01*
X153029854Y-130485142D01*
X152711261Y-130803180D01*
X152538627Y-131218929D01*
X152538234Y-131669096D01*
X151561904Y-131669096D01*
X151356071Y-131583627D01*
X150905904Y-131583234D01*
X150489854Y-131755142D01*
X150171261Y-132073180D01*
X149998627Y-132488929D01*
X149998234Y-132939096D01*
X88086000Y-132939096D01*
X88086000Y-130399096D01*
X149998234Y-130399096D01*
X150170142Y-130815146D01*
X150488180Y-131133739D01*
X150903929Y-131306373D01*
X151354096Y-131306766D01*
X151770146Y-131134858D01*
X152088739Y-130816820D01*
X152261373Y-130401071D01*
X152261766Y-129950904D01*
X152089858Y-129534854D01*
X151857795Y-129302386D01*
X158013052Y-129302386D01*
X158317895Y-130040163D01*
X158881868Y-130605121D01*
X159619111Y-130911251D01*
X160417386Y-130911948D01*
X161155163Y-130607105D01*
X161720121Y-130043132D01*
X162026251Y-129305889D01*
X162026948Y-128507614D01*
X161722105Y-127769837D01*
X161158132Y-127204879D01*
X160420889Y-126898749D01*
X159622614Y-126898052D01*
X158884837Y-127202895D01*
X158319879Y-127766868D01*
X158013749Y-128504111D01*
X158013052Y-129302386D01*
X151857795Y-129302386D01*
X151771820Y-129216261D01*
X151356071Y-129043627D01*
X150905904Y-129043234D01*
X150489854Y-129215142D01*
X150171261Y-129533180D01*
X149998627Y-129948929D01*
X149998234Y-130399096D01*
X88086000Y-130399096D01*
X88086000Y-129655695D01*
X104444699Y-129655695D01*
X104533451Y-129870490D01*
X104697645Y-130034972D01*
X104912286Y-130124098D01*
X105144695Y-130124301D01*
X105359490Y-130035549D01*
X105523972Y-129871355D01*
X105613098Y-129656714D01*
X105613301Y-129424305D01*
X105524549Y-129209510D01*
X105360355Y-129045028D01*
X105145714Y-128955902D01*
X104913305Y-128955699D01*
X104698510Y-129044451D01*
X104534028Y-129208645D01*
X104444902Y-129423286D01*
X104444699Y-129655695D01*
X88086000Y-129655695D01*
X88086000Y-128639695D01*
X125366699Y-128639695D01*
X125455451Y-128854490D01*
X125619645Y-129018972D01*
X125834286Y-129108098D01*
X126066695Y-129108301D01*
X126281490Y-129019549D01*
X126445972Y-128855355D01*
X126535098Y-128640714D01*
X126535301Y-128408305D01*
X126446549Y-128193510D01*
X126282355Y-128029028D01*
X126067714Y-127939902D01*
X125835305Y-127939699D01*
X125620510Y-128028451D01*
X125456028Y-128192645D01*
X125366902Y-128407286D01*
X125366699Y-128639695D01*
X88086000Y-128639695D01*
X88086000Y-120550940D01*
X99110956Y-120550940D01*
X99110956Y-124051060D01*
X99140526Y-124199719D01*
X99224734Y-124325746D01*
X99350761Y-124409954D01*
X99499420Y-124439524D01*
X102999540Y-124439524D01*
X103148199Y-124409954D01*
X103274226Y-124325746D01*
X103358434Y-124199719D01*
X103388004Y-124051060D01*
X103388004Y-121908695D01*
X107492699Y-121908695D01*
X107581451Y-122123490D01*
X107745645Y-122287972D01*
X107960286Y-122377098D01*
X108192695Y-122377301D01*
X108407490Y-122288549D01*
X108571972Y-122124355D01*
X108661098Y-121909714D01*
X108661301Y-121677305D01*
X108572549Y-121462510D01*
X108408355Y-121298028D01*
X108193714Y-121208902D01*
X107961305Y-121208699D01*
X107746510Y-121297451D01*
X107582028Y-121461645D01*
X107492902Y-121676286D01*
X107492699Y-121908695D01*
X103388004Y-121908695D01*
X103388004Y-121105208D01*
X136397824Y-121105208D01*
X136552175Y-121478766D01*
X136837731Y-121764821D01*
X137211018Y-121919824D01*
X137615208Y-121920176D01*
X137988766Y-121765825D01*
X138072350Y-121682386D01*
X158013052Y-121682386D01*
X158317895Y-122420163D01*
X158881868Y-122985121D01*
X159619111Y-123291251D01*
X160417386Y-123291948D01*
X161155163Y-122987105D01*
X161720121Y-122423132D01*
X162026251Y-121685889D01*
X162026948Y-120887614D01*
X161722105Y-120149837D01*
X161158132Y-119584879D01*
X160420889Y-119278749D01*
X159622614Y-119278052D01*
X158884837Y-119582895D01*
X158319879Y-120146868D01*
X158013749Y-120884111D01*
X158013052Y-121682386D01*
X138072350Y-121682386D01*
X138274821Y-121480269D01*
X138429824Y-121106982D01*
X138430176Y-120702792D01*
X138275825Y-120329234D01*
X137990269Y-120043179D01*
X137616982Y-119888176D01*
X137212792Y-119887824D01*
X136839234Y-120042175D01*
X136553179Y-120327731D01*
X136398176Y-120701018D01*
X136397824Y-121105208D01*
X103388004Y-121105208D01*
X103388004Y-120550940D01*
X103358434Y-120402281D01*
X103274226Y-120276254D01*
X103148199Y-120192046D01*
X102999540Y-120162476D01*
X99499420Y-120162476D01*
X99350761Y-120192046D01*
X99224734Y-120276254D01*
X99140526Y-120402281D01*
X99110956Y-120550940D01*
X88086000Y-120550940D01*
X88086000Y-118969096D01*
X149998234Y-118969096D01*
X150170142Y-119385146D01*
X150488180Y-119703739D01*
X150903929Y-119876373D01*
X151354096Y-119876766D01*
X151770146Y-119704858D01*
X152088739Y-119386820D01*
X152139559Y-119264430D01*
X152530966Y-119264430D01*
X152530966Y-120765570D01*
X152560536Y-120914229D01*
X152644744Y-121040256D01*
X152770771Y-121124464D01*
X152919430Y-121154034D01*
X154420570Y-121154034D01*
X154569229Y-121124464D01*
X154695256Y-121040256D01*
X154779464Y-120914229D01*
X154809034Y-120765570D01*
X154809034Y-119264430D01*
X154779464Y-119115771D01*
X154695256Y-118989744D01*
X154569229Y-118905536D01*
X154420570Y-118875966D01*
X152919430Y-118875966D01*
X152770771Y-118905536D01*
X152644744Y-118989744D01*
X152560536Y-119115771D01*
X152530966Y-119264430D01*
X152139559Y-119264430D01*
X152261373Y-118971071D01*
X152261766Y-118520904D01*
X152089858Y-118104854D01*
X151771820Y-117786261D01*
X151561904Y-117699096D01*
X152538234Y-117699096D01*
X152710142Y-118115146D01*
X153028180Y-118433739D01*
X153443929Y-118606373D01*
X153894096Y-118606766D01*
X154310146Y-118434858D01*
X154628739Y-118116820D01*
X154801373Y-117701071D01*
X154801766Y-117250904D01*
X154629858Y-116834854D01*
X154311820Y-116516261D01*
X153896071Y-116343627D01*
X153445904Y-116343234D01*
X153029854Y-116515142D01*
X152711261Y-116833180D01*
X152538627Y-117248929D01*
X152538234Y-117699096D01*
X151561904Y-117699096D01*
X151356071Y-117613627D01*
X150905904Y-117613234D01*
X150489854Y-117785142D01*
X150171261Y-118103180D01*
X149998627Y-118518929D01*
X149998234Y-118969096D01*
X88086000Y-118969096D01*
X88086000Y-116429096D01*
X149998234Y-116429096D01*
X150170142Y-116845146D01*
X150488180Y-117163739D01*
X150903929Y-117336373D01*
X151354096Y-117336766D01*
X151770146Y-117164858D01*
X152088739Y-116846820D01*
X152261373Y-116431071D01*
X152261766Y-115980904D01*
X152089858Y-115564854D01*
X151771820Y-115246261D01*
X151356071Y-115073627D01*
X150905904Y-115073234D01*
X150489854Y-115245142D01*
X150171261Y-115563180D01*
X149998627Y-115978929D01*
X149998234Y-116429096D01*
X88086000Y-116429096D01*
X88086000Y-115489582D01*
X130441348Y-115489582D01*
X130574506Y-115811849D01*
X130820854Y-116058628D01*
X131142888Y-116192348D01*
X131491582Y-116192652D01*
X131813849Y-116059494D01*
X132060628Y-115813146D01*
X132194348Y-115491112D01*
X132194652Y-115142418D01*
X132061494Y-114820151D01*
X131815146Y-114573372D01*
X131493112Y-114439652D01*
X131144418Y-114439348D01*
X130822151Y-114572506D01*
X130575372Y-114818854D01*
X130441652Y-115140888D01*
X130441348Y-115489582D01*
X88086000Y-115489582D01*
X88086000Y-114161695D01*
X132511699Y-114161695D01*
X132600451Y-114376490D01*
X132764645Y-114540972D01*
X132979286Y-114630098D01*
X133211695Y-114630301D01*
X133426490Y-114541549D01*
X133590972Y-114377355D01*
X133680098Y-114162714D01*
X133680301Y-113930305D01*
X133663274Y-113889096D01*
X149998234Y-113889096D01*
X150170142Y-114305146D01*
X150488180Y-114623739D01*
X150903929Y-114796373D01*
X151354096Y-114796766D01*
X151770146Y-114624858D01*
X152088739Y-114306820D01*
X152261373Y-113891071D01*
X152261766Y-113440904D01*
X152089858Y-113024854D01*
X151771820Y-112706261D01*
X151561904Y-112619096D01*
X152538234Y-112619096D01*
X152710142Y-113035146D01*
X153028180Y-113353739D01*
X153443929Y-113526373D01*
X153894096Y-113526766D01*
X154310146Y-113354858D01*
X154628739Y-113036820D01*
X154801373Y-112621071D01*
X154801766Y-112170904D01*
X154629858Y-111754854D01*
X154311820Y-111436261D01*
X153896071Y-111263627D01*
X153445904Y-111263234D01*
X153029854Y-111435142D01*
X152711261Y-111753180D01*
X152538627Y-112168929D01*
X152538234Y-112619096D01*
X151561904Y-112619096D01*
X151356071Y-112533627D01*
X150905904Y-112533234D01*
X150489854Y-112705142D01*
X150171261Y-113023180D01*
X149998627Y-113438929D01*
X149998234Y-113889096D01*
X133663274Y-113889096D01*
X133591549Y-113715510D01*
X133427355Y-113551028D01*
X133212714Y-113461902D01*
X132980305Y-113461699D01*
X132765510Y-113550451D01*
X132601028Y-113714645D01*
X132511902Y-113929286D01*
X132511699Y-114161695D01*
X88086000Y-114161695D01*
X88086000Y-112157386D01*
X93243052Y-112157386D01*
X93547895Y-112895163D01*
X94111868Y-113460121D01*
X94849111Y-113766251D01*
X95647386Y-113766948D01*
X96228843Y-113526695D01*
X111048699Y-113526695D01*
X111137451Y-113741490D01*
X111301645Y-113905972D01*
X111516286Y-113995098D01*
X111748695Y-113995301D01*
X111963490Y-113906549D01*
X112127972Y-113742355D01*
X112217098Y-113527714D01*
X112217301Y-113295305D01*
X112128549Y-113080510D01*
X111964355Y-112916028D01*
X111749714Y-112826902D01*
X111517305Y-112826699D01*
X111302510Y-112915451D01*
X111138028Y-113079645D01*
X111048902Y-113294286D01*
X111048699Y-113526695D01*
X96228843Y-113526695D01*
X96385163Y-113462105D01*
X96950121Y-112898132D01*
X97256251Y-112160889D01*
X97256389Y-112002695D01*
X128828699Y-112002695D01*
X128917451Y-112217490D01*
X129081645Y-112381972D01*
X129296286Y-112471098D01*
X129528695Y-112471301D01*
X129743490Y-112382549D01*
X129907972Y-112218355D01*
X129997098Y-112003714D01*
X129997301Y-111771305D01*
X129908549Y-111556510D01*
X129744355Y-111392028D01*
X129529714Y-111302902D01*
X129297305Y-111302699D01*
X129082510Y-111391451D01*
X128918028Y-111555645D01*
X128828902Y-111770286D01*
X128828699Y-112002695D01*
X97256389Y-112002695D01*
X97256948Y-111362614D01*
X96988987Y-110714096D01*
X103008234Y-110714096D01*
X103180142Y-111130146D01*
X103498180Y-111448739D01*
X103913929Y-111621373D01*
X104364096Y-111621766D01*
X104780146Y-111449858D01*
X105098739Y-111131820D01*
X105106265Y-111113695D01*
X139750699Y-111113695D01*
X139839451Y-111328490D01*
X140003645Y-111492972D01*
X140218286Y-111582098D01*
X140450695Y-111582301D01*
X140665490Y-111493549D01*
X140829972Y-111329355D01*
X140919098Y-111114714D01*
X140919148Y-111057260D01*
X146411134Y-111057260D01*
X146499886Y-111272055D01*
X146664080Y-111436537D01*
X146878721Y-111525663D01*
X147111130Y-111525866D01*
X147325925Y-111437114D01*
X147414097Y-111349096D01*
X149998234Y-111349096D01*
X150170142Y-111765146D01*
X150488180Y-112083739D01*
X150903929Y-112256373D01*
X151354096Y-112256766D01*
X151770146Y-112084858D01*
X152088739Y-111766820D01*
X152261373Y-111351071D01*
X152261766Y-110900904D01*
X152089858Y-110484854D01*
X151857795Y-110252386D01*
X158013052Y-110252386D01*
X158317895Y-110990163D01*
X158881868Y-111555121D01*
X159619111Y-111861251D01*
X160417386Y-111861948D01*
X161155163Y-111557105D01*
X161720121Y-110993132D01*
X162026251Y-110255889D01*
X162026948Y-109457614D01*
X161722105Y-108719837D01*
X161158132Y-108154879D01*
X160420889Y-107848749D01*
X159622614Y-107848052D01*
X158884837Y-108152895D01*
X158319879Y-108716868D01*
X158013749Y-109454111D01*
X158013052Y-110252386D01*
X151857795Y-110252386D01*
X151771820Y-110166261D01*
X151356071Y-109993627D01*
X150905904Y-109993234D01*
X150489854Y-110165142D01*
X150171261Y-110483180D01*
X149998627Y-110898929D01*
X149998234Y-111349096D01*
X147414097Y-111349096D01*
X147490407Y-111272920D01*
X147558391Y-111109196D01*
X147721055Y-111041984D01*
X147885537Y-110877790D01*
X147974663Y-110663149D01*
X147974866Y-110430740D01*
X147886114Y-110215945D01*
X147721920Y-110051463D01*
X147507279Y-109962337D01*
X147274870Y-109962134D01*
X147060075Y-110050886D01*
X146895593Y-110215080D01*
X146827609Y-110378804D01*
X146664945Y-110446016D01*
X146500463Y-110610210D01*
X146411337Y-110824851D01*
X146411134Y-111057260D01*
X140919148Y-111057260D01*
X140919301Y-110882305D01*
X140830549Y-110667510D01*
X140666355Y-110503028D01*
X140451714Y-110413902D01*
X140219305Y-110413699D01*
X140004510Y-110502451D01*
X139840028Y-110666645D01*
X139750902Y-110881286D01*
X139750699Y-111113695D01*
X105106265Y-111113695D01*
X105271373Y-110716071D01*
X105271640Y-110409582D01*
X129425348Y-110409582D01*
X129558506Y-110731849D01*
X129804854Y-110978628D01*
X130126888Y-111112348D01*
X130475582Y-111112652D01*
X130797849Y-110979494D01*
X131044628Y-110733146D01*
X131178348Y-110411112D01*
X131178349Y-110409582D01*
X131457348Y-110409582D01*
X131590506Y-110731849D01*
X131836854Y-110978628D01*
X132158888Y-111112348D01*
X132507582Y-111112652D01*
X132829849Y-110979494D01*
X133076628Y-110733146D01*
X133210348Y-110411112D01*
X133210652Y-110062418D01*
X133077494Y-109740151D01*
X132831146Y-109493372D01*
X132509112Y-109359652D01*
X132160418Y-109359348D01*
X131838151Y-109492506D01*
X131591372Y-109738854D01*
X131457652Y-110060888D01*
X131457348Y-110409582D01*
X131178349Y-110409582D01*
X131178652Y-110062418D01*
X131045494Y-109740151D01*
X130799146Y-109493372D01*
X130477112Y-109359652D01*
X130128418Y-109359348D01*
X129806151Y-109492506D01*
X129559372Y-109738854D01*
X129425652Y-110060888D01*
X129425348Y-110409582D01*
X105271640Y-110409582D01*
X105271766Y-110265904D01*
X105099858Y-109849854D01*
X104781820Y-109531261D01*
X104366071Y-109358627D01*
X103915904Y-109358234D01*
X103499854Y-109530142D01*
X103181261Y-109848180D01*
X103008627Y-110263929D01*
X103008234Y-110714096D01*
X96988987Y-110714096D01*
X96952105Y-110624837D01*
X96388132Y-110059879D01*
X95650889Y-109753749D01*
X94852614Y-109753052D01*
X94114837Y-110057895D01*
X93549879Y-110621868D01*
X93243749Y-111359111D01*
X93243052Y-112157386D01*
X88086000Y-112157386D01*
X88086000Y-109444096D01*
X100468234Y-109444096D01*
X100640142Y-109860146D01*
X100958180Y-110178739D01*
X101373929Y-110351373D01*
X101824096Y-110351766D01*
X102240146Y-110179858D01*
X102558739Y-109861820D01*
X102731373Y-109446071D01*
X102731766Y-108995904D01*
X102559858Y-108579854D01*
X102241820Y-108261261D01*
X102031904Y-108174096D01*
X103008234Y-108174096D01*
X103180142Y-108590146D01*
X103498180Y-108908739D01*
X103913929Y-109081373D01*
X104364096Y-109081766D01*
X104780146Y-108909858D01*
X105098739Y-108591820D01*
X105271373Y-108176071D01*
X105271691Y-107811695D01*
X116255699Y-107811695D01*
X116344451Y-108026490D01*
X116508645Y-108190972D01*
X116723286Y-108280098D01*
X116955695Y-108280301D01*
X117170490Y-108191549D01*
X117334972Y-108027355D01*
X117424098Y-107812714D01*
X117424301Y-107580305D01*
X117335549Y-107365510D01*
X117281829Y-107311695D01*
X122478699Y-107311695D01*
X122567451Y-107526490D01*
X122731645Y-107690972D01*
X122946286Y-107780098D01*
X123178695Y-107780301D01*
X123393490Y-107691549D01*
X123557972Y-107527355D01*
X123647098Y-107312714D01*
X123647098Y-107311695D01*
X128320699Y-107311695D01*
X128409451Y-107526490D01*
X128573645Y-107690972D01*
X128788286Y-107780098D01*
X129020695Y-107780301D01*
X129235490Y-107691549D01*
X129399972Y-107527355D01*
X129489098Y-107312714D01*
X129489301Y-107080305D01*
X129400549Y-106865510D01*
X129236355Y-106701028D01*
X129021714Y-106611902D01*
X128789305Y-106611699D01*
X128574510Y-106700451D01*
X128410028Y-106864645D01*
X128320902Y-107079286D01*
X128320699Y-107311695D01*
X123647098Y-107311695D01*
X123647301Y-107080305D01*
X123558549Y-106865510D01*
X123394355Y-106701028D01*
X123179714Y-106611902D01*
X122947305Y-106611699D01*
X122732510Y-106700451D01*
X122568028Y-106864645D01*
X122478902Y-107079286D01*
X122478699Y-107311695D01*
X117281829Y-107311695D01*
X117171355Y-107201028D01*
X116956714Y-107111902D01*
X116724305Y-107111699D01*
X116509510Y-107200451D01*
X116345028Y-107364645D01*
X116255902Y-107579286D01*
X116255699Y-107811695D01*
X105271691Y-107811695D01*
X105271766Y-107725904D01*
X105099858Y-107309854D01*
X104781820Y-106991261D01*
X104366071Y-106818627D01*
X103915904Y-106818234D01*
X103499854Y-106990142D01*
X103181261Y-107308180D01*
X103008627Y-107723929D01*
X103008234Y-108174096D01*
X102031904Y-108174096D01*
X101826071Y-108088627D01*
X101375904Y-108088234D01*
X100959854Y-108260142D01*
X100641261Y-108578180D01*
X100468627Y-108993929D01*
X100468234Y-109444096D01*
X88086000Y-109444096D01*
X88086000Y-105634096D01*
X103008234Y-105634096D01*
X103180142Y-106050146D01*
X103498180Y-106368739D01*
X103913929Y-106541373D01*
X104364096Y-106541766D01*
X104780146Y-106369858D01*
X105098739Y-106051820D01*
X105271373Y-105636071D01*
X105271766Y-105185904D01*
X105099858Y-104769854D01*
X104781820Y-104451261D01*
X104366071Y-104278627D01*
X103915904Y-104278234D01*
X103499854Y-104450142D01*
X103181261Y-104768180D01*
X103008627Y-105183929D01*
X103008234Y-105634096D01*
X88086000Y-105634096D01*
X88086000Y-104364096D01*
X100468234Y-104364096D01*
X100640142Y-104780146D01*
X100958180Y-105098739D01*
X101373929Y-105271373D01*
X101824096Y-105271766D01*
X102240146Y-105099858D01*
X102558739Y-104781820D01*
X102731373Y-104366071D01*
X102731616Y-104087231D01*
X108991400Y-104087231D01*
X108991400Y-104446769D01*
X109086140Y-104923057D01*
X109355935Y-105326834D01*
X109759712Y-105596629D01*
X110236000Y-105691369D01*
X110712288Y-105596629D01*
X111116065Y-105326834D01*
X111385860Y-104923057D01*
X111480600Y-104446769D01*
X111480600Y-104087231D01*
X111531400Y-104087231D01*
X111531400Y-104446769D01*
X111626140Y-104923057D01*
X111895935Y-105326834D01*
X112299712Y-105596629D01*
X112776000Y-105691369D01*
X113252288Y-105596629D01*
X113656065Y-105326834D01*
X113925860Y-104923057D01*
X114020600Y-104446769D01*
X114020600Y-104087231D01*
X113925860Y-103610943D01*
X113685354Y-103251000D01*
X114063936Y-103251000D01*
X114063936Y-105283000D01*
X114093506Y-105431659D01*
X114177714Y-105557686D01*
X114303741Y-105641894D01*
X114452400Y-105671464D01*
X116179600Y-105671464D01*
X116328259Y-105641894D01*
X116454286Y-105557686D01*
X116538494Y-105431659D01*
X116568064Y-105283000D01*
X116568064Y-103251000D01*
X116538494Y-103102341D01*
X116454286Y-102976314D01*
X116328259Y-102892106D01*
X116179600Y-102862536D01*
X114452400Y-102862536D01*
X114303741Y-102892106D01*
X114177714Y-102976314D01*
X114093506Y-103102341D01*
X114063936Y-103251000D01*
X113685354Y-103251000D01*
X113656065Y-103207166D01*
X113252288Y-102937371D01*
X112776000Y-102842631D01*
X112299712Y-102937371D01*
X111895935Y-103207166D01*
X111626140Y-103610943D01*
X111531400Y-104087231D01*
X111480600Y-104087231D01*
X111385860Y-103610943D01*
X111116065Y-103207166D01*
X110712288Y-102937371D01*
X110236000Y-102842631D01*
X109759712Y-102937371D01*
X109355935Y-103207166D01*
X109086140Y-103610943D01*
X108991400Y-104087231D01*
X102731616Y-104087231D01*
X102731766Y-103915904D01*
X102559858Y-103499854D01*
X102241820Y-103181261D01*
X102031904Y-103094096D01*
X103008234Y-103094096D01*
X103180142Y-103510146D01*
X103498180Y-103828739D01*
X103913929Y-104001373D01*
X104364096Y-104001766D01*
X104780146Y-103829858D01*
X105098739Y-103511820D01*
X105271373Y-103096071D01*
X105271766Y-102645904D01*
X105149789Y-102350695D01*
X139750699Y-102350695D01*
X139839451Y-102565490D01*
X140003645Y-102729972D01*
X140218286Y-102819098D01*
X140450695Y-102819301D01*
X140665490Y-102730549D01*
X140763825Y-102632386D01*
X158013052Y-102632386D01*
X158317895Y-103370163D01*
X158881868Y-103935121D01*
X159619111Y-104241251D01*
X160417386Y-104241948D01*
X161155163Y-103937105D01*
X161720121Y-103373132D01*
X162026251Y-102635889D01*
X162026948Y-101837614D01*
X161722105Y-101099837D01*
X161158132Y-100534879D01*
X160420889Y-100228749D01*
X159622614Y-100228052D01*
X158884837Y-100532895D01*
X158319879Y-101096868D01*
X158013749Y-101834111D01*
X158013052Y-102632386D01*
X140763825Y-102632386D01*
X140829972Y-102566355D01*
X140919098Y-102351714D01*
X140919301Y-102119305D01*
X140830549Y-101904510D01*
X140666355Y-101740028D01*
X140451714Y-101650902D01*
X140219305Y-101650699D01*
X140004510Y-101739451D01*
X139840028Y-101903645D01*
X139750902Y-102118286D01*
X139750699Y-102350695D01*
X105149789Y-102350695D01*
X105099858Y-102229854D01*
X104781820Y-101911261D01*
X104366071Y-101738627D01*
X103915904Y-101738234D01*
X103499854Y-101910142D01*
X103181261Y-102228180D01*
X103008627Y-102643929D01*
X103008234Y-103094096D01*
X102031904Y-103094096D01*
X101826071Y-103008627D01*
X101375904Y-103008234D01*
X100959854Y-103180142D01*
X100641261Y-103498180D01*
X100468627Y-103913929D01*
X100468234Y-104364096D01*
X88086000Y-104364096D01*
X88086000Y-100727386D01*
X93243052Y-100727386D01*
X93547895Y-101465163D01*
X94111868Y-102030121D01*
X94849111Y-102336251D01*
X95647386Y-102336948D01*
X96385163Y-102032105D01*
X96950121Y-101468132D01*
X97207028Y-100849430D01*
X100460966Y-100849430D01*
X100460966Y-102350570D01*
X100490536Y-102499229D01*
X100574744Y-102625256D01*
X100700771Y-102709464D01*
X100849430Y-102739034D01*
X102350570Y-102739034D01*
X102499229Y-102709464D01*
X102625256Y-102625256D01*
X102709464Y-102499229D01*
X102739034Y-102350570D01*
X102739034Y-100849430D01*
X102709464Y-100700771D01*
X102625256Y-100574744D01*
X102499229Y-100490536D01*
X102350570Y-100460966D01*
X100849430Y-100460966D01*
X100700771Y-100490536D01*
X100574744Y-100574744D01*
X100490536Y-100700771D01*
X100460966Y-100849430D01*
X97207028Y-100849430D01*
X97256251Y-100730889D01*
X97256948Y-99932614D01*
X97251363Y-99919096D01*
X149998234Y-99919096D01*
X150170142Y-100335146D01*
X150488180Y-100653739D01*
X150903929Y-100826373D01*
X151354096Y-100826766D01*
X151770146Y-100654858D01*
X152088739Y-100336820D01*
X152139559Y-100214430D01*
X152530966Y-100214430D01*
X152530966Y-101715570D01*
X152560536Y-101864229D01*
X152644744Y-101990256D01*
X152770771Y-102074464D01*
X152919430Y-102104034D01*
X154420570Y-102104034D01*
X154569229Y-102074464D01*
X154695256Y-101990256D01*
X154779464Y-101864229D01*
X154809034Y-101715570D01*
X154809034Y-100214430D01*
X154779464Y-100065771D01*
X154695256Y-99939744D01*
X154569229Y-99855536D01*
X154420570Y-99825966D01*
X152919430Y-99825966D01*
X152770771Y-99855536D01*
X152644744Y-99939744D01*
X152560536Y-100065771D01*
X152530966Y-100214430D01*
X152139559Y-100214430D01*
X152261373Y-99921071D01*
X152261766Y-99470904D01*
X152089858Y-99054854D01*
X151771820Y-98736261D01*
X151561904Y-98649096D01*
X152538234Y-98649096D01*
X152710142Y-99065146D01*
X153028180Y-99383739D01*
X153443929Y-99556373D01*
X153894096Y-99556766D01*
X154310146Y-99384858D01*
X154628739Y-99066820D01*
X154801373Y-98651071D01*
X154801766Y-98200904D01*
X154629858Y-97784854D01*
X154311820Y-97466261D01*
X153896071Y-97293627D01*
X153445904Y-97293234D01*
X153029854Y-97465142D01*
X152711261Y-97783180D01*
X152538627Y-98198929D01*
X152538234Y-98649096D01*
X151561904Y-98649096D01*
X151356071Y-98563627D01*
X150905904Y-98563234D01*
X150489854Y-98735142D01*
X150171261Y-99053180D01*
X149998627Y-99468929D01*
X149998234Y-99919096D01*
X97251363Y-99919096D01*
X96952105Y-99194837D01*
X96388132Y-98629879D01*
X95650889Y-98323749D01*
X94852614Y-98323052D01*
X94114837Y-98627895D01*
X93549879Y-99191868D01*
X93243749Y-99929111D01*
X93243052Y-100727386D01*
X88086000Y-100727386D01*
X88086000Y-96774000D01*
X122572936Y-96774000D01*
X122572936Y-98806000D01*
X122602506Y-98954659D01*
X122686714Y-99080686D01*
X122812741Y-99164894D01*
X122961400Y-99194464D01*
X124688600Y-99194464D01*
X124837259Y-99164894D01*
X124963286Y-99080686D01*
X125047494Y-98954659D01*
X125077064Y-98806000D01*
X125077064Y-97610231D01*
X125120400Y-97610231D01*
X125120400Y-97969769D01*
X125215140Y-98446057D01*
X125484935Y-98849834D01*
X125888712Y-99119629D01*
X126365000Y-99214369D01*
X126841288Y-99119629D01*
X127245065Y-98849834D01*
X127514860Y-98446057D01*
X127609600Y-97969769D01*
X127609600Y-97610231D01*
X127660400Y-97610231D01*
X127660400Y-97969769D01*
X127755140Y-98446057D01*
X128024935Y-98849834D01*
X128428712Y-99119629D01*
X128905000Y-99214369D01*
X129381288Y-99119629D01*
X129785065Y-98849834D01*
X130054860Y-98446057D01*
X130149600Y-97969769D01*
X130149600Y-97610231D01*
X130103625Y-97379096D01*
X149998234Y-97379096D01*
X150170142Y-97795146D01*
X150488180Y-98113739D01*
X150903929Y-98286373D01*
X151354096Y-98286766D01*
X151770146Y-98114858D01*
X152088739Y-97796820D01*
X152261373Y-97381071D01*
X152261766Y-96930904D01*
X152089858Y-96514854D01*
X151771820Y-96196261D01*
X151356071Y-96023627D01*
X150905904Y-96023234D01*
X150489854Y-96195142D01*
X150171261Y-96513180D01*
X149998627Y-96928929D01*
X149998234Y-97379096D01*
X130103625Y-97379096D01*
X130054860Y-97133943D01*
X129785065Y-96730166D01*
X129381288Y-96460371D01*
X128905000Y-96365631D01*
X128428712Y-96460371D01*
X128024935Y-96730166D01*
X127755140Y-97133943D01*
X127660400Y-97610231D01*
X127609600Y-97610231D01*
X127514860Y-97133943D01*
X127245065Y-96730166D01*
X126841288Y-96460371D01*
X126365000Y-96365631D01*
X125888712Y-96460371D01*
X125484935Y-96730166D01*
X125215140Y-97133943D01*
X125120400Y-97610231D01*
X125077064Y-97610231D01*
X125077064Y-96774000D01*
X125047494Y-96625341D01*
X124963286Y-96499314D01*
X124837259Y-96415106D01*
X124688600Y-96385536D01*
X122961400Y-96385536D01*
X122812741Y-96415106D01*
X122686714Y-96499314D01*
X122602506Y-96625341D01*
X122572936Y-96774000D01*
X88086000Y-96774000D01*
X88086000Y-94839096D01*
X149998234Y-94839096D01*
X150170142Y-95255146D01*
X150488180Y-95573739D01*
X150903929Y-95746373D01*
X151354096Y-95746766D01*
X151770146Y-95574858D01*
X152088739Y-95256820D01*
X152261373Y-94841071D01*
X152261766Y-94390904D01*
X152089858Y-93974854D01*
X151771820Y-93656261D01*
X151561904Y-93569096D01*
X152538234Y-93569096D01*
X152710142Y-93985146D01*
X153028180Y-94303739D01*
X153443929Y-94476373D01*
X153894096Y-94476766D01*
X154310146Y-94304858D01*
X154628739Y-93986820D01*
X154801373Y-93571071D01*
X154801766Y-93120904D01*
X154629858Y-92704854D01*
X154311820Y-92386261D01*
X153896071Y-92213627D01*
X153445904Y-92213234D01*
X153029854Y-92385142D01*
X152711261Y-92703180D01*
X152538627Y-93118929D01*
X152538234Y-93569096D01*
X151561904Y-93569096D01*
X151356071Y-93483627D01*
X150905904Y-93483234D01*
X150489854Y-93655142D01*
X150171261Y-93973180D01*
X149998627Y-94388929D01*
X149998234Y-94839096D01*
X88086000Y-94839096D01*
X88086000Y-93079695D01*
X103555699Y-93079695D01*
X103644451Y-93294490D01*
X103808645Y-93458972D01*
X104023286Y-93548098D01*
X104255695Y-93548301D01*
X104470490Y-93459549D01*
X104634972Y-93295355D01*
X104724098Y-93080714D01*
X104724301Y-92848305D01*
X104635549Y-92633510D01*
X104471355Y-92469028D01*
X104256714Y-92379902D01*
X104024305Y-92379699D01*
X103809510Y-92468451D01*
X103645028Y-92632645D01*
X103555902Y-92847286D01*
X103555699Y-93079695D01*
X88086000Y-93079695D01*
X88086000Y-92299096D01*
X149998234Y-92299096D01*
X150170142Y-92715146D01*
X150488180Y-93033739D01*
X150903929Y-93206373D01*
X151354096Y-93206766D01*
X151770146Y-93034858D01*
X152088739Y-92716820D01*
X152261373Y-92301071D01*
X152261766Y-91850904D01*
X152089858Y-91434854D01*
X151857795Y-91202386D01*
X158013052Y-91202386D01*
X158317895Y-91940163D01*
X158881868Y-92505121D01*
X159619111Y-92811251D01*
X160417386Y-92811948D01*
X161155163Y-92507105D01*
X161720121Y-91943132D01*
X162026251Y-91205889D01*
X162026948Y-90407614D01*
X161722105Y-89669837D01*
X161158132Y-89104879D01*
X160420889Y-88798749D01*
X159622614Y-88798052D01*
X158884837Y-89102895D01*
X158319879Y-89666868D01*
X158013749Y-90404111D01*
X158013052Y-91202386D01*
X151857795Y-91202386D01*
X151771820Y-91116261D01*
X151356071Y-90943627D01*
X150905904Y-90943234D01*
X150489854Y-91115142D01*
X150171261Y-91433180D01*
X149998627Y-91848929D01*
X149998234Y-92299096D01*
X88086000Y-92299096D01*
X88086000Y-90158695D01*
X109270699Y-90158695D01*
X109359451Y-90373490D01*
X109523645Y-90537972D01*
X109738286Y-90627098D01*
X109970695Y-90627301D01*
X110185490Y-90538549D01*
X110349972Y-90374355D01*
X110439098Y-90159714D01*
X110439301Y-89927305D01*
X110350549Y-89712510D01*
X110186355Y-89548028D01*
X109971714Y-89458902D01*
X109739305Y-89458699D01*
X109524510Y-89547451D01*
X109360028Y-89711645D01*
X109270902Y-89926286D01*
X109270699Y-90158695D01*
X88086000Y-90158695D01*
X88086000Y-89142695D01*
X105460699Y-89142695D01*
X105549451Y-89357490D01*
X105713645Y-89521972D01*
X105928286Y-89611098D01*
X106160695Y-89611301D01*
X106375490Y-89522549D01*
X106539972Y-89358355D01*
X106629098Y-89143714D01*
X106629301Y-88911305D01*
X106540549Y-88696510D01*
X106376355Y-88532028D01*
X106161714Y-88442902D01*
X105929305Y-88442699D01*
X105714510Y-88531451D01*
X105550028Y-88695645D01*
X105460902Y-88910286D01*
X105460699Y-89142695D01*
X88086000Y-89142695D01*
X88086000Y-87110695D01*
X120700699Y-87110695D01*
X120789451Y-87325490D01*
X120953645Y-87489972D01*
X121168286Y-87579098D01*
X121400695Y-87579301D01*
X121615490Y-87490549D01*
X121779972Y-87326355D01*
X121869098Y-87111714D01*
X121869301Y-86879305D01*
X121780549Y-86664510D01*
X121616355Y-86500028D01*
X121401714Y-86410902D01*
X121169305Y-86410699D01*
X120954510Y-86499451D01*
X120790028Y-86663645D01*
X120700902Y-86878286D01*
X120700699Y-87110695D01*
X88086000Y-87110695D01*
X88086000Y-84824695D01*
X104190699Y-84824695D01*
X104279451Y-85039490D01*
X104443645Y-85203972D01*
X104658286Y-85293098D01*
X104890695Y-85293301D01*
X105105490Y-85204549D01*
X105269972Y-85040355D01*
X105359098Y-84825714D01*
X105359098Y-84824695D01*
X106984699Y-84824695D01*
X107073451Y-85039490D01*
X107237645Y-85203972D01*
X107452286Y-85293098D01*
X107684695Y-85293301D01*
X107899490Y-85204549D01*
X108063972Y-85040355D01*
X108153098Y-84825714D01*
X108153301Y-84593305D01*
X108064549Y-84378510D01*
X107900355Y-84214028D01*
X107685714Y-84124902D01*
X107453305Y-84124699D01*
X107238510Y-84213451D01*
X107074028Y-84377645D01*
X106984902Y-84592286D01*
X106984699Y-84824695D01*
X105359098Y-84824695D01*
X105359301Y-84593305D01*
X105270549Y-84378510D01*
X105106355Y-84214028D01*
X104891714Y-84124902D01*
X104659305Y-84124699D01*
X104444510Y-84213451D01*
X104280028Y-84377645D01*
X104190902Y-84592286D01*
X104190699Y-84824695D01*
X88086000Y-84824695D01*
X88086000Y-84062695D01*
X115747699Y-84062695D01*
X115836451Y-84277490D01*
X116000645Y-84441972D01*
X116215286Y-84531098D01*
X116447695Y-84531301D01*
X116662490Y-84442549D01*
X116826972Y-84278355D01*
X116916098Y-84063714D01*
X116916301Y-83831305D01*
X116827549Y-83616510D01*
X116793485Y-83582386D01*
X158013052Y-83582386D01*
X158317895Y-84320163D01*
X158881868Y-84885121D01*
X159619111Y-85191251D01*
X160417386Y-85191948D01*
X161155163Y-84887105D01*
X161720121Y-84323132D01*
X162026251Y-83585889D01*
X162026948Y-82787614D01*
X161722105Y-82049837D01*
X161158132Y-81484879D01*
X160420889Y-81178749D01*
X159622614Y-81178052D01*
X158884837Y-81482895D01*
X158319879Y-82046868D01*
X158013749Y-82784111D01*
X158013052Y-83582386D01*
X116793485Y-83582386D01*
X116663355Y-83452028D01*
X116448714Y-83362902D01*
X116216305Y-83362699D01*
X116001510Y-83451451D01*
X115837028Y-83615645D01*
X115747902Y-83830286D01*
X115747699Y-84062695D01*
X88086000Y-84062695D01*
X88086000Y-81776695D01*
X110921699Y-81776695D01*
X111010451Y-81991490D01*
X111174645Y-82155972D01*
X111389286Y-82245098D01*
X111621695Y-82245301D01*
X111772104Y-82183153D01*
X111921286Y-82245098D01*
X112153695Y-82245301D01*
X112368490Y-82156549D01*
X112532972Y-81992355D01*
X112569786Y-81903695D01*
X113461699Y-81903695D01*
X113550451Y-82118490D01*
X113714645Y-82282972D01*
X113929286Y-82372098D01*
X114161695Y-82372301D01*
X114376490Y-82283549D01*
X114540972Y-82119355D01*
X114630098Y-81904714D01*
X114630301Y-81672305D01*
X114541549Y-81457510D01*
X114377355Y-81293028D01*
X114318755Y-81268695D01*
X130512699Y-81268695D01*
X130601451Y-81483490D01*
X130765645Y-81647972D01*
X130980286Y-81737098D01*
X131212695Y-81737301D01*
X131427490Y-81648549D01*
X131591972Y-81484355D01*
X131681098Y-81269714D01*
X131681301Y-81037305D01*
X131611799Y-80869096D01*
X149998234Y-80869096D01*
X150170142Y-81285146D01*
X150488180Y-81603739D01*
X150903929Y-81776373D01*
X151354096Y-81776766D01*
X151770146Y-81604858D01*
X152088739Y-81286820D01*
X152139559Y-81164430D01*
X152530966Y-81164430D01*
X152530966Y-82665570D01*
X152560536Y-82814229D01*
X152644744Y-82940256D01*
X152770771Y-83024464D01*
X152919430Y-83054034D01*
X154420570Y-83054034D01*
X154569229Y-83024464D01*
X154695256Y-82940256D01*
X154779464Y-82814229D01*
X154809034Y-82665570D01*
X154809034Y-81164430D01*
X154779464Y-81015771D01*
X154695256Y-80889744D01*
X154569229Y-80805536D01*
X154420570Y-80775966D01*
X152919430Y-80775966D01*
X152770771Y-80805536D01*
X152644744Y-80889744D01*
X152560536Y-81015771D01*
X152530966Y-81164430D01*
X152139559Y-81164430D01*
X152261373Y-80871071D01*
X152261766Y-80420904D01*
X152089858Y-80004854D01*
X151771820Y-79686261D01*
X151561904Y-79599096D01*
X152538234Y-79599096D01*
X152710142Y-80015146D01*
X153028180Y-80333739D01*
X153443929Y-80506373D01*
X153894096Y-80506766D01*
X154310146Y-80334858D01*
X154628739Y-80016820D01*
X154801373Y-79601071D01*
X154801766Y-79150904D01*
X154629858Y-78734854D01*
X154311820Y-78416261D01*
X153896071Y-78243627D01*
X153445904Y-78243234D01*
X153029854Y-78415142D01*
X152711261Y-78733180D01*
X152538627Y-79148929D01*
X152538234Y-79599096D01*
X151561904Y-79599096D01*
X151356071Y-79513627D01*
X150905904Y-79513234D01*
X150489854Y-79685142D01*
X150171261Y-80003180D01*
X149998627Y-80418929D01*
X149998234Y-80869096D01*
X131611799Y-80869096D01*
X131592549Y-80822510D01*
X131428355Y-80658028D01*
X131213714Y-80568902D01*
X130981305Y-80568699D01*
X130766510Y-80657451D01*
X130602028Y-80821645D01*
X130512902Y-81036286D01*
X130512699Y-81268695D01*
X114318755Y-81268695D01*
X114162714Y-81203902D01*
X113930305Y-81203699D01*
X113715510Y-81292451D01*
X113551028Y-81456645D01*
X113461902Y-81671286D01*
X113461699Y-81903695D01*
X112569786Y-81903695D01*
X112622098Y-81777714D01*
X112622301Y-81545305D01*
X112533549Y-81330510D01*
X112369355Y-81166028D01*
X112154714Y-81076902D01*
X111922305Y-81076699D01*
X111771896Y-81138847D01*
X111622714Y-81076902D01*
X111390305Y-81076699D01*
X111175510Y-81165451D01*
X111011028Y-81329645D01*
X110921902Y-81544286D01*
X110921699Y-81776695D01*
X88086000Y-81776695D01*
X88086000Y-78329096D01*
X149998234Y-78329096D01*
X150170142Y-78745146D01*
X150488180Y-79063739D01*
X150903929Y-79236373D01*
X151354096Y-79236766D01*
X151770146Y-79064858D01*
X152088739Y-78746820D01*
X152261373Y-78331071D01*
X152261766Y-77880904D01*
X152089858Y-77464854D01*
X151771820Y-77146261D01*
X151356071Y-76973627D01*
X150905904Y-76973234D01*
X150489854Y-77145142D01*
X150171261Y-77463180D01*
X149998627Y-77878929D01*
X149998234Y-78329096D01*
X88086000Y-78329096D01*
X88086000Y-75789096D01*
X149998234Y-75789096D01*
X150170142Y-76205146D01*
X150488180Y-76523739D01*
X150903929Y-76696373D01*
X151354096Y-76696766D01*
X151770146Y-76524858D01*
X152088739Y-76206820D01*
X152261373Y-75791071D01*
X152261766Y-75340904D01*
X152089858Y-74924854D01*
X151771820Y-74606261D01*
X151561904Y-74519096D01*
X152538234Y-74519096D01*
X152710142Y-74935146D01*
X153028180Y-75253739D01*
X153443929Y-75426373D01*
X153894096Y-75426766D01*
X154310146Y-75254858D01*
X154628739Y-74936820D01*
X154801373Y-74521071D01*
X154801766Y-74070904D01*
X154629858Y-73654854D01*
X154311820Y-73336261D01*
X153896071Y-73163627D01*
X153445904Y-73163234D01*
X153029854Y-73335142D01*
X152711261Y-73653180D01*
X152538627Y-74068929D01*
X152538234Y-74519096D01*
X151561904Y-74519096D01*
X151356071Y-74433627D01*
X150905904Y-74433234D01*
X150489854Y-74605142D01*
X150171261Y-74923180D01*
X149998627Y-75338929D01*
X149998234Y-75789096D01*
X88086000Y-75789096D01*
X88086000Y-73249096D01*
X149998234Y-73249096D01*
X150170142Y-73665146D01*
X150488180Y-73983739D01*
X150903929Y-74156373D01*
X151354096Y-74156766D01*
X151770146Y-73984858D01*
X152088739Y-73666820D01*
X152261373Y-73251071D01*
X152261766Y-72800904D01*
X152089858Y-72384854D01*
X151857795Y-72152386D01*
X158013052Y-72152386D01*
X158317895Y-72890163D01*
X158881868Y-73455121D01*
X159619111Y-73761251D01*
X160417386Y-73761948D01*
X161155163Y-73457105D01*
X161720121Y-72893132D01*
X162026251Y-72155889D01*
X162026948Y-71357614D01*
X161722105Y-70619837D01*
X161158132Y-70054879D01*
X160420889Y-69748749D01*
X159622614Y-69748052D01*
X158884837Y-70052895D01*
X158319879Y-70616868D01*
X158013749Y-71354111D01*
X158013052Y-72152386D01*
X151857795Y-72152386D01*
X151771820Y-72066261D01*
X151356071Y-71893627D01*
X150905904Y-71893234D01*
X150489854Y-72065142D01*
X150171261Y-72383180D01*
X149998627Y-72798929D01*
X149998234Y-73249096D01*
X88086000Y-73249096D01*
X88086000Y-66496000D01*
X167184000Y-66496000D01*
X167184000Y-144324000D01*
M02*
