G04 #@! TF.FileFunction,Soldermask,Top*
%FSLAX46Y46*%
G04 Gerber Fmt 4.6, Leading zero omitted, Abs format (unit mm)*
G04 Created by KiCad (PCBNEW (2016-02-16 BZR 6568, Git 6c5f954)-product) date Sun 21 Feb 2016 12:13:02 PM EST*
%MOMM*%
G01*
G04 APERTURE LIST*
%ADD10C,0.100000*%
%ADD11R,0.650800X0.550800*%
%ADD12R,1.300800X1.050800*%
%ADD13R,1.050800X1.300800*%
%ADD14R,0.550800X0.650800*%
%ADD15R,0.640800X0.500800*%
%ADD16C,3.302000*%
%ADD17R,1.551940X1.551940*%
%ADD18C,1.551940*%
%ADD19C,2.550800*%
%ADD20R,1.650800X5.750800*%
%ADD21R,1.570800X4.110800*%
%ADD22R,2.082800X1.778000*%
%ADD23O,2.082800X1.778000*%
%ADD24R,1.778000X1.778000*%
%ADD25O,1.778000X1.778000*%
%ADD26R,0.450800X0.650800*%
%ADD27R,0.650800X0.450800*%
%ADD28R,1.110800X0.700800*%
%ADD29R,0.650800X1.600800*%
%ADD30R,2.082800X2.082800*%
%ADD31O,2.082800X2.082800*%
G04 APERTURE END LIST*
D10*
D11*
X108754000Y-92329000D03*
X107654000Y-92329000D03*
D12*
X111760000Y-94123000D03*
X111760000Y-96123000D03*
X109855000Y-88503000D03*
X109855000Y-86503000D03*
D13*
X117618000Y-89408000D03*
X119618000Y-89408000D03*
D14*
X112522000Y-84878000D03*
X112522000Y-83778000D03*
D11*
X125010000Y-88900000D03*
X123910000Y-88900000D03*
D14*
X121920000Y-75480000D03*
X121920000Y-74380000D03*
X114300000Y-75480000D03*
X114300000Y-74380000D03*
D15*
X109259000Y-90932000D03*
X107149000Y-90932000D03*
D16*
X124460000Y-55245000D03*
X124460000Y-66675000D03*
D17*
X118110000Y-65405000D03*
D18*
X115570000Y-64135000D03*
X118110000Y-62865000D03*
X115570000Y-61595000D03*
X118110000Y-60325000D03*
X115570000Y-59055000D03*
X118110000Y-57785000D03*
X115570000Y-56515000D03*
D19*
X127510000Y-68810000D03*
X127510000Y-53110000D03*
D20*
X114490000Y-93980000D03*
X119190000Y-93980000D03*
D21*
X114300000Y-49530000D03*
X111760000Y-49530000D03*
X116840000Y-49530000D03*
D22*
X119380000Y-81280000D03*
D23*
X119380000Y-83820000D03*
X119380000Y-86360000D03*
D21*
X123190000Y-49530000D03*
X120650000Y-49530000D03*
X125730000Y-49530000D03*
D22*
X106680000Y-67310000D03*
D23*
X106680000Y-64770000D03*
X106680000Y-62230000D03*
X106680000Y-59690000D03*
X106680000Y-57150000D03*
X106680000Y-54610000D03*
D22*
X123190000Y-81280000D03*
D23*
X123190000Y-83820000D03*
X123190000Y-86360000D03*
D24*
X127000000Y-72390000D03*
D25*
X129540000Y-72390000D03*
X127000000Y-74930000D03*
X129540000Y-74930000D03*
X127000000Y-77470000D03*
X129540000Y-77470000D03*
X127000000Y-80010000D03*
X129540000Y-80010000D03*
X127000000Y-82550000D03*
X129540000Y-82550000D03*
X127000000Y-85090000D03*
X129540000Y-85090000D03*
X127000000Y-87630000D03*
X129540000Y-87630000D03*
X127000000Y-90170000D03*
X129540000Y-90170000D03*
X127000000Y-92710000D03*
X129540000Y-92710000D03*
X127000000Y-95250000D03*
X129540000Y-95250000D03*
D26*
X107754000Y-96520000D03*
X108654000Y-96520000D03*
X117660000Y-69850000D03*
X118560000Y-69850000D03*
D27*
X105537000Y-93022000D03*
X105537000Y-93922000D03*
X105537000Y-95573000D03*
X105537000Y-94673000D03*
D26*
X110040000Y-69850000D03*
X110940000Y-69850000D03*
D28*
X107104000Y-93665000D03*
X107104000Y-94615000D03*
X107104000Y-95565000D03*
X109304000Y-95565000D03*
X109304000Y-93665000D03*
X109304000Y-94615000D03*
X114765000Y-88453000D03*
X114765000Y-87503000D03*
X114765000Y-86553000D03*
X112565000Y-86553000D03*
X112565000Y-88453000D03*
D29*
X120015000Y-72230000D03*
X118745000Y-72230000D03*
X117475000Y-72230000D03*
X116205000Y-72230000D03*
X116205000Y-77630000D03*
X117475000Y-77630000D03*
X118745000Y-77630000D03*
X120015000Y-77630000D03*
X112395000Y-72230000D03*
X111125000Y-72230000D03*
X109855000Y-72230000D03*
X108585000Y-72230000D03*
X108585000Y-77630000D03*
X109855000Y-77630000D03*
X111125000Y-77630000D03*
X112395000Y-77630000D03*
D30*
X106680000Y-49530000D03*
D31*
X106680000Y-52070000D03*
M02*
