G04 #@! TF.FileFunction,Legend,Bot*
%FSLAX46Y46*%
G04 Gerber Fmt 4.6, Leading zero omitted, Abs format (unit mm)*
G04 Created by KiCad (PCBNEW (2016-02-16 BZR 6568, Git 6c5f954)-product) date Sun 21 Feb 2016 12:13:02 PM EST*
%MOMM*%
G01*
G04 APERTURE LIST*
%ADD10C,0.100000*%
%ADD11C,3.302000*%
%ADD12R,1.551940X1.551940*%
%ADD13C,1.551940*%
%ADD14C,2.550800*%
%ADD15R,1.570800X4.110800*%
%ADD16R,2.082800X1.778000*%
%ADD17O,2.082800X1.778000*%
%ADD18R,1.778000X1.778000*%
%ADD19O,1.778000X1.778000*%
%ADD20R,2.082800X2.082800*%
%ADD21O,2.082800X2.082800*%
G04 APERTURE END LIST*
D10*
%LPC*%
D11*
X124460000Y-55245000D03*
X124460000Y-66675000D03*
D12*
X118110000Y-65405000D03*
D13*
X115570000Y-64135000D03*
X118110000Y-62865000D03*
X115570000Y-61595000D03*
X118110000Y-60325000D03*
X115570000Y-59055000D03*
X118110000Y-57785000D03*
X115570000Y-56515000D03*
D14*
X127510000Y-68810000D03*
X127510000Y-53110000D03*
D15*
X111760000Y-49530000D03*
X116840000Y-49530000D03*
D16*
X119380000Y-81280000D03*
D17*
X119380000Y-83820000D03*
X119380000Y-86360000D03*
D15*
X120650000Y-49530000D03*
X125730000Y-49530000D03*
D16*
X106680000Y-67310000D03*
D17*
X106680000Y-64770000D03*
X106680000Y-62230000D03*
X106680000Y-59690000D03*
X106680000Y-57150000D03*
X106680000Y-54610000D03*
D16*
X123190000Y-81280000D03*
D17*
X123190000Y-83820000D03*
X123190000Y-86360000D03*
D18*
X127000000Y-72390000D03*
D19*
X129540000Y-72390000D03*
X127000000Y-74930000D03*
X129540000Y-74930000D03*
X127000000Y-77470000D03*
X129540000Y-77470000D03*
X127000000Y-80010000D03*
X129540000Y-80010000D03*
X127000000Y-82550000D03*
X129540000Y-82550000D03*
X127000000Y-85090000D03*
X129540000Y-85090000D03*
X127000000Y-87630000D03*
X129540000Y-87630000D03*
X127000000Y-90170000D03*
X129540000Y-90170000D03*
X127000000Y-92710000D03*
X129540000Y-92710000D03*
X127000000Y-95250000D03*
X129540000Y-95250000D03*
D20*
X106680000Y-49530000D03*
D21*
X106680000Y-52070000D03*
M02*
