G04 #@! TF.FileFunction,Copper,L1,Top,Signal*
%FSLAX46Y46*%
G04 Gerber Fmt 4.6, Leading zero omitted, Abs format (unit mm)*
G04 Created by KiCad (PCBNEW (2016-02-16 BZR 6568, Git 6c5f954)-product) date Sun 21 Feb 2016 12:13:02 PM EST*
%MOMM*%
G01*
G04 APERTURE LIST*
%ADD10C,0.100000*%
%ADD11R,0.600000X0.500000*%
%ADD12R,1.250000X1.000000*%
%ADD13R,1.000000X1.250000*%
%ADD14R,0.500000X0.600000*%
%ADD15R,0.590000X0.450000*%
%ADD16R,1.501140X1.501140*%
%ADD17C,1.501140*%
%ADD18C,2.500000*%
%ADD19R,1.600000X5.700000*%
%ADD20R,1.520000X4.060000*%
%ADD21R,2.032000X1.727200*%
%ADD22O,2.032000X1.727200*%
%ADD23R,1.727200X1.727200*%
%ADD24O,1.727200X1.727200*%
%ADD25R,0.400000X0.600000*%
%ADD26R,0.600000X0.400000*%
%ADD27R,1.060000X0.650000*%
%ADD28R,0.600000X1.550000*%
%ADD29R,2.032000X2.032000*%
%ADD30O,2.032000X2.032000*%
%ADD31C,1.270000*%
%ADD32C,0.406400*%
%ADD33C,0.508000*%
%ADD34C,0.254000*%
%ADD35C,1.270000*%
%ADD36C,0.203200*%
G04 APERTURE END LIST*
D10*
D11*
X108754000Y-92329000D03*
X107654000Y-92329000D03*
D12*
X111760000Y-94123000D03*
X111760000Y-96123000D03*
X109855000Y-88503000D03*
X109855000Y-86503000D03*
D13*
X117618000Y-89408000D03*
X119618000Y-89408000D03*
D14*
X112522000Y-84878000D03*
X112522000Y-83778000D03*
D11*
X125010000Y-88900000D03*
X123910000Y-88900000D03*
D14*
X121920000Y-75480000D03*
X121920000Y-74380000D03*
X114300000Y-75480000D03*
X114300000Y-74380000D03*
D15*
X109259000Y-90932000D03*
X107149000Y-90932000D03*
D16*
X118110000Y-65405000D03*
D17*
X115570000Y-64135000D03*
X118110000Y-62865000D03*
X115570000Y-61595000D03*
X118110000Y-60325000D03*
X115570000Y-59055000D03*
X118110000Y-57785000D03*
X115570000Y-56515000D03*
D18*
X127510000Y-68810000D03*
X127510000Y-53110000D03*
D19*
X114490000Y-93980000D03*
X119190000Y-93980000D03*
D20*
X114300000Y-49530000D03*
X111760000Y-49530000D03*
X116840000Y-49530000D03*
D21*
X119380000Y-81280000D03*
D22*
X119380000Y-83820000D03*
X119380000Y-86360000D03*
D20*
X123190000Y-49530000D03*
X120650000Y-49530000D03*
X125730000Y-49530000D03*
D21*
X106680000Y-67310000D03*
D22*
X106680000Y-64770000D03*
X106680000Y-62230000D03*
X106680000Y-59690000D03*
X106680000Y-57150000D03*
X106680000Y-54610000D03*
D21*
X123190000Y-81280000D03*
D22*
X123190000Y-83820000D03*
X123190000Y-86360000D03*
D23*
X127000000Y-72390000D03*
D24*
X129540000Y-72390000D03*
X127000000Y-74930000D03*
X129540000Y-74930000D03*
X127000000Y-77470000D03*
X129540000Y-77470000D03*
X127000000Y-80010000D03*
X129540000Y-80010000D03*
X127000000Y-82550000D03*
X129540000Y-82550000D03*
X127000000Y-85090000D03*
X129540000Y-85090000D03*
X127000000Y-87630000D03*
X129540000Y-87630000D03*
X127000000Y-90170000D03*
X129540000Y-90170000D03*
X127000000Y-92710000D03*
X129540000Y-92710000D03*
X127000000Y-95250000D03*
X129540000Y-95250000D03*
D25*
X107754000Y-96520000D03*
X108654000Y-96520000D03*
X117660000Y-69850000D03*
X118560000Y-69850000D03*
D26*
X105537000Y-93022000D03*
X105537000Y-93922000D03*
X105537000Y-95573000D03*
X105537000Y-94673000D03*
D25*
X110040000Y-69850000D03*
X110940000Y-69850000D03*
D27*
X107104000Y-93665000D03*
X107104000Y-94615000D03*
X107104000Y-95565000D03*
X109304000Y-95565000D03*
X109304000Y-93665000D03*
X109304000Y-94615000D03*
X114765000Y-88453000D03*
X114765000Y-87503000D03*
X114765000Y-86553000D03*
X112565000Y-86553000D03*
X112565000Y-88453000D03*
D28*
X120015000Y-72230000D03*
X118745000Y-72230000D03*
X117475000Y-72230000D03*
X116205000Y-72230000D03*
X116205000Y-77630000D03*
X117475000Y-77630000D03*
X118745000Y-77630000D03*
X120015000Y-77630000D03*
X112395000Y-72230000D03*
X111125000Y-72230000D03*
X109855000Y-72230000D03*
X108585000Y-72230000D03*
X108585000Y-77630000D03*
X109855000Y-77630000D03*
X111125000Y-77630000D03*
X112395000Y-77630000D03*
D29*
X106680000Y-49530000D03*
D30*
X106680000Y-52070000D03*
D31*
X110744000Y-94234000D03*
D32*
X115570000Y-87503000D03*
X120777000Y-89408000D03*
X110871000Y-86487000D03*
X112522000Y-83185000D03*
X108585000Y-78740000D03*
X116205000Y-78740000D03*
X122555000Y-74295000D03*
X114300000Y-73660000D03*
X125730000Y-49530000D03*
X120650000Y-49530000D03*
X116840000Y-49530000D03*
X111760000Y-49530000D03*
X111760000Y-96901000D03*
X106299000Y-94615000D03*
X106553000Y-90932000D03*
X122555000Y-75438000D03*
X114300000Y-76327000D03*
X111379000Y-88503000D03*
X114300000Y-52197000D03*
X123190000Y-52451000D03*
X111125000Y-79756000D03*
D33*
X108754000Y-92329000D02*
X108754000Y-91437000D01*
X108754000Y-91437000D02*
X109259000Y-90932000D01*
X109304000Y-93665000D02*
X109304000Y-92879000D01*
X109304000Y-92879000D02*
X108754000Y-92329000D01*
X112522000Y-92710000D02*
X110464000Y-92710000D01*
X110464000Y-92710000D02*
X109509000Y-93665000D01*
X109509000Y-93665000D02*
X109304000Y-93665000D01*
X113792000Y-93980000D02*
X112522000Y-92710000D01*
X114490000Y-93980000D02*
X113792000Y-93980000D01*
X107104000Y-93665000D02*
X107104000Y-92879000D01*
X107104000Y-92879000D02*
X107654000Y-92329000D01*
D34*
X107754000Y-96520000D02*
X107754000Y-96420000D01*
X107754000Y-96420000D02*
X108204000Y-95970000D01*
X108204000Y-95398518D02*
X108987518Y-94615000D01*
X108204000Y-95970000D02*
X108204000Y-95398518D01*
X108987518Y-94615000D02*
X109304000Y-94615000D01*
D33*
X109304000Y-94615000D02*
X110363000Y-94615000D01*
X110363000Y-94615000D02*
X110744000Y-94234000D01*
D35*
X110744000Y-94234000D02*
X111649000Y-94234000D01*
X111649000Y-94234000D02*
X111760000Y-94123000D01*
D33*
X114765000Y-87503000D02*
X115570000Y-87503000D01*
X119618000Y-89408000D02*
X120777000Y-89408000D01*
X109855000Y-86503000D02*
X110855000Y-86503000D01*
X110855000Y-86503000D02*
X110871000Y-86487000D01*
X112522000Y-83778000D02*
X112522000Y-83185000D01*
X108585000Y-77630000D02*
X108585000Y-78740000D01*
X116205000Y-77630000D02*
X116205000Y-78740000D01*
X121920000Y-74380000D02*
X122470000Y-74380000D01*
X122470000Y-74380000D02*
X122555000Y-74295000D01*
X114300000Y-74380000D02*
X114300000Y-73660000D01*
X111760000Y-96123000D02*
X111760000Y-96901000D01*
X105537000Y-94673000D02*
X106241000Y-94673000D01*
X106241000Y-94673000D02*
X106299000Y-94615000D01*
X107104000Y-94615000D02*
X106299000Y-94615000D01*
X107149000Y-90932000D02*
X106553000Y-90932000D01*
X114300000Y-76327000D02*
X114503199Y-76123801D01*
X114503199Y-76123801D02*
X118336199Y-76123801D01*
X118336199Y-76123801D02*
X118980000Y-75480000D01*
X122555000Y-75438000D02*
X121962000Y-75438000D01*
X121962000Y-75438000D02*
X121920000Y-75480000D01*
X114300000Y-76327000D02*
X114300000Y-75480000D01*
X109855000Y-88503000D02*
X111379000Y-88503000D01*
X112565000Y-88453000D02*
X111429000Y-88453000D01*
X111429000Y-88453000D02*
X111379000Y-88503000D01*
X121920000Y-75480000D02*
X118980000Y-75480000D01*
X118980000Y-75480000D02*
X116205000Y-72705000D01*
X116205000Y-72705000D02*
X116205000Y-72230000D01*
X114300000Y-75480000D02*
X111360000Y-75480000D01*
X111360000Y-75480000D02*
X108585000Y-72705000D01*
X108585000Y-72705000D02*
X108585000Y-72230000D01*
X114300000Y-75480000D02*
X114300000Y-75725000D01*
X114300000Y-75725000D02*
X112395000Y-77630000D01*
X121920000Y-75480000D02*
X121920000Y-75725000D01*
X121920000Y-75725000D02*
X120015000Y-77630000D01*
D34*
X114765000Y-86553000D02*
X115549000Y-86553000D01*
X115549000Y-86553000D02*
X116663000Y-87667000D01*
X116663000Y-87667000D02*
X116663000Y-88453000D01*
X106807000Y-89789000D02*
X112645000Y-89789000D01*
X112645000Y-89789000D02*
X113981000Y-88453000D01*
X113981000Y-88453000D02*
X114765000Y-88453000D01*
X105537000Y-91059000D02*
X106807000Y-89789000D01*
X105537000Y-93022000D02*
X105537000Y-91059000D01*
D33*
X119190000Y-93980000D02*
X119190000Y-91105000D01*
X119190000Y-91105000D02*
X117618000Y-89533000D01*
X117618000Y-89533000D02*
X117618000Y-89408000D01*
X114765000Y-88453000D02*
X116663000Y-88453000D01*
X116663000Y-88453000D02*
X117618000Y-89408000D01*
X112522000Y-84878000D02*
X112522000Y-86510000D01*
X112522000Y-86510000D02*
X112565000Y-86553000D01*
D34*
X125010000Y-88900000D02*
X128270000Y-88900000D01*
X128270000Y-88900000D02*
X129540000Y-90170000D01*
D33*
X118237000Y-88011000D02*
X122213000Y-88011000D01*
X123102000Y-88900000D02*
X123910000Y-88900000D01*
X122213000Y-88011000D02*
X123102000Y-88900000D01*
X117348000Y-87122000D02*
X118237000Y-88011000D01*
X117348000Y-84328000D02*
X117348000Y-87122000D01*
X119380000Y-83820000D02*
X117856000Y-83820000D01*
X117856000Y-83820000D02*
X117348000Y-84328000D01*
D36*
X118287800Y-68125354D02*
X117652799Y-67490353D01*
X117652799Y-67490353D02*
X117652799Y-65862201D01*
X117652799Y-65862201D02*
X118110000Y-65405000D01*
X118560000Y-69850000D02*
X118560000Y-69400000D01*
X118560000Y-69400000D02*
X118287800Y-69127800D01*
X118287800Y-69127800D02*
X118287800Y-68125354D01*
X118745000Y-72230000D02*
X118745000Y-71067500D01*
X118560000Y-70300000D02*
X118560000Y-69850000D01*
X118745000Y-71067500D02*
X118287800Y-70610300D01*
X118287800Y-70610300D02*
X118287800Y-70572200D01*
X118287800Y-70572200D02*
X118560000Y-70300000D01*
X117156229Y-66318131D02*
X117156229Y-65721229D01*
X117156229Y-65721229D02*
X115570000Y-64135000D01*
X117932200Y-68272646D02*
X117297201Y-67637647D01*
X117297201Y-67637647D02*
X117297201Y-66459103D01*
X117297201Y-66459103D02*
X117156229Y-66318131D01*
X117660000Y-69850000D02*
X117660000Y-69400000D01*
X117660000Y-69400000D02*
X117932200Y-69127800D01*
X117932200Y-69127800D02*
X117932200Y-68272646D01*
X117660000Y-70300000D02*
X117660000Y-69850000D01*
X117475000Y-72230000D02*
X117475000Y-71067500D01*
X117475000Y-71067500D02*
X117932200Y-70610300D01*
X117932200Y-70610300D02*
X117932200Y-70572200D01*
X117932200Y-70572200D02*
X117660000Y-70300000D01*
X114655600Y-57785000D02*
X118110000Y-57785000D01*
X110940000Y-69850000D02*
X110940000Y-69400000D01*
X110940000Y-69400000D02*
X110667800Y-69127800D01*
X110667800Y-69127800D02*
X110667800Y-61414646D01*
X110667800Y-61414646D02*
X114297446Y-57785000D01*
X114297446Y-57785000D02*
X114655600Y-57785000D01*
X111125000Y-72230000D02*
X111125000Y-71067500D01*
X111125000Y-71067500D02*
X110667800Y-70610300D01*
X110667800Y-70610300D02*
X110667800Y-70572200D01*
X110667800Y-70572200D02*
X110940000Y-70300000D01*
X110940000Y-70300000D02*
X110940000Y-69850000D01*
X110040000Y-69850000D02*
X110040000Y-69400000D01*
X114655599Y-57429401D02*
X115570000Y-56515000D01*
X110040000Y-69400000D02*
X110312200Y-69127800D01*
X110312200Y-69127800D02*
X110312200Y-61267354D01*
X114150153Y-57429401D02*
X114655599Y-57429401D01*
X110312200Y-61267354D02*
X114150153Y-57429401D01*
X109855000Y-71067500D02*
X110312200Y-70610300D01*
X110312200Y-70610300D02*
X110312200Y-70572200D01*
X109855000Y-72230000D02*
X109855000Y-71067500D01*
X110040000Y-70300000D02*
X110040000Y-69850000D01*
X110312200Y-70572200D02*
X110040000Y-70300000D01*
D33*
X114300000Y-49530000D02*
X114300000Y-52197000D01*
X119380000Y-86360000D02*
X120015000Y-86360000D01*
X120015000Y-86360000D02*
X121285000Y-85090000D01*
X121285000Y-85090000D02*
X121285000Y-80137000D01*
X121285000Y-80137000D02*
X120396000Y-79248000D01*
X120396000Y-79248000D02*
X119080000Y-79248000D01*
X119080000Y-79248000D02*
X118745000Y-78913000D01*
X118745000Y-78913000D02*
X118745000Y-77630000D01*
X123190000Y-52451000D02*
X123190000Y-49530000D01*
D34*
X119253000Y-54229000D02*
X109753400Y-54229000D01*
X109753400Y-54229000D02*
X106832400Y-57150000D01*
X106832400Y-57150000D02*
X106680000Y-57150000D01*
X131064000Y-66040000D02*
X119253000Y-54229000D01*
X131064000Y-78486000D02*
X131064000Y-66040000D01*
X129540000Y-80010000D02*
X131064000Y-78486000D01*
D33*
X125222000Y-83312000D02*
X125222000Y-72796400D01*
X125222000Y-72796400D02*
X125628400Y-72390000D01*
X125628400Y-72390000D02*
X127000000Y-72390000D01*
X123190000Y-83820000D02*
X124714000Y-83820000D01*
X124714000Y-83820000D02*
X125222000Y-83312000D01*
X111125000Y-79756000D02*
X111125000Y-77630000D01*
D34*
X108654000Y-96520000D02*
X108654000Y-96215000D01*
X108654000Y-96215000D02*
X109304000Y-95565000D01*
X105537000Y-93922000D02*
X105376518Y-93922000D01*
X104983000Y-94315518D02*
X104983000Y-95119000D01*
X105376518Y-93922000D02*
X104983000Y-94315518D01*
X104983000Y-95119000D02*
X105437000Y-95573000D01*
X105437000Y-95573000D02*
X105537000Y-95573000D01*
X107104000Y-95565000D02*
X105545000Y-95565000D01*
X105545000Y-95565000D02*
X105537000Y-95573000D01*
M02*
