M48
;DRILL file {KiCad (2016-02-16 BZR 6568, Git 6c5f954)-product} date Sun 21 Feb 2016 12:13:10 PM EST
;FORMAT={-:-/ absolute / inch / decimal}
FMAT,2
INCH,TZ
T1C0.008
T2C0.030
T3C0.035
T4C0.040
T5C0.063
T6C0.128
%
G90
G05
M72
T1
X4.185Y-3.725
X4.195Y-3.58
X4.275Y-3.1
X4.365Y-3.405
X4.375Y-3.14
X4.385Y-3.4844
X4.4Y-1.95
X4.4Y-3.815
X4.43Y-3.275
X4.5Y-2.055
X4.5Y-2.9
X4.5Y-3.005
X4.55Y-3.445
X4.575Y-3.1
X4.6Y-1.95
X4.75Y-1.95
X4.755Y-3.52
X4.825Y-2.925
X4.825Y-2.97
X4.85Y-2.065
X4.95Y-1.95
T2
X4.36Y-3.71
T3
X4.55Y-2.225
X4.55Y-2.325
X4.55Y-2.425
X4.55Y-2.525
X4.65Y-2.275
X4.65Y-2.375
X4.65Y-2.475
X4.65Y-2.575
T4
X4.2Y-1.95
X4.2Y-2.05
X4.2Y-2.15
X4.2Y-2.25
X4.2Y-2.35
X4.2Y-2.45
X4.2Y-2.55
X4.2Y-2.65
X4.7Y-3.2
X4.7Y-3.3
X4.7Y-3.4
X4.85Y-3.2
X4.85Y-3.3
X4.85Y-3.4
X5.Y-2.85
X5.Y-2.95
X5.Y-3.05
X5.Y-3.15
X5.Y-3.25
X5.Y-3.35
X5.Y-3.45
X5.Y-3.55
X5.Y-3.65
X5.Y-3.75
X5.1Y-2.85
X5.1Y-2.95
X5.1Y-3.05
X5.1Y-3.15
X5.1Y-3.25
X5.1Y-3.35
X5.1Y-3.45
X5.1Y-3.55
X5.1Y-3.65
X5.1Y-3.75
T5
X5.0201Y-2.0909
X5.0201Y-2.7091
T6
X4.9Y-2.175
X4.9Y-2.625
T0
M30
