G04 #@! TF.FileFunction,Legend,Top*
%FSLAX46Y46*%
G04 Gerber Fmt 4.6, Leading zero omitted, Abs format (unit mm)*
G04 Created by KiCad (PCBNEW (2016-02-16 BZR 6568, Git 6c5f954)-product) date Sun 21 Feb 2016 12:13:02 PM EST*
%MOMM*%
G01*
G04 APERTURE LIST*
%ADD10C,0.100000*%
%ADD11C,0.190500*%
%ADD12C,0.127000*%
%ADD13C,0.150000*%
%ADD14R,0.650800X0.550800*%
%ADD15R,1.300800X1.050800*%
%ADD16R,1.050800X1.300800*%
%ADD17R,0.550800X0.650800*%
%ADD18R,0.640800X0.500800*%
%ADD19C,3.302000*%
%ADD20R,1.551940X1.551940*%
%ADD21C,1.551940*%
%ADD22C,2.550800*%
%ADD23R,1.650800X5.750800*%
%ADD24R,1.570800X4.110800*%
%ADD25R,2.082800X1.778000*%
%ADD26O,2.082800X1.778000*%
%ADD27R,1.778000X1.778000*%
%ADD28O,1.778000X1.778000*%
%ADD29R,0.450800X0.650800*%
%ADD30R,0.650800X0.450800*%
%ADD31R,1.110800X0.700800*%
%ADD32R,0.650800X1.600800*%
%ADD33R,2.082800X2.082800*%
%ADD34O,2.082800X2.082800*%
G04 APERTURE END LIST*
D10*
D11*
X109020428Y-66929000D02*
X108947857Y-66892714D01*
X108839000Y-66892714D01*
X108730143Y-66929000D01*
X108657571Y-67001571D01*
X108621286Y-67074143D01*
X108585000Y-67219286D01*
X108585000Y-67328143D01*
X108621286Y-67473286D01*
X108657571Y-67545857D01*
X108730143Y-67618429D01*
X108839000Y-67654714D01*
X108911571Y-67654714D01*
X109020428Y-67618429D01*
X109056714Y-67582143D01*
X109056714Y-67328143D01*
X108911571Y-67328143D01*
X109383286Y-67654714D02*
X109383286Y-66892714D01*
X109818714Y-67654714D01*
X109818714Y-66892714D01*
X110181572Y-67654714D02*
X110181572Y-66892714D01*
X110363000Y-66892714D01*
X110471857Y-66929000D01*
X110544429Y-67001571D01*
X110580714Y-67074143D01*
X110617000Y-67219286D01*
X110617000Y-67328143D01*
X110580714Y-67473286D01*
X110544429Y-67545857D01*
X110471857Y-67618429D01*
X110363000Y-67654714D01*
X110181572Y-67654714D01*
X104956429Y-79865764D02*
X104956429Y-79103764D01*
X105246714Y-79103764D01*
X105319286Y-79140050D01*
X105355571Y-79176336D01*
X105391857Y-79248907D01*
X105391857Y-79357764D01*
X105355571Y-79430336D01*
X105319286Y-79466621D01*
X105246714Y-79502907D01*
X104956429Y-79502907D01*
X105718429Y-79865764D02*
X105718429Y-79357764D01*
X105718429Y-79103764D02*
X105682143Y-79140050D01*
X105718429Y-79176336D01*
X105754714Y-79140050D01*
X105718429Y-79103764D01*
X105718429Y-79176336D01*
X106081286Y-79357764D02*
X106081286Y-79865764D01*
X106081286Y-79430336D02*
X106117571Y-79394050D01*
X106190143Y-79357764D01*
X106299000Y-79357764D01*
X106371571Y-79394050D01*
X106407857Y-79466621D01*
X106407857Y-79865764D01*
X106770715Y-79865764D02*
X106770715Y-79103764D01*
X107061000Y-79103764D01*
X107133572Y-79140050D01*
X107169857Y-79176336D01*
X107206143Y-79248907D01*
X107206143Y-79357764D01*
X107169857Y-79430336D01*
X107133572Y-79466621D01*
X107061000Y-79502907D01*
X106770715Y-79502907D01*
X107641572Y-79865764D02*
X107569000Y-79829479D01*
X107532715Y-79793193D01*
X107496429Y-79720621D01*
X107496429Y-79502907D01*
X107532715Y-79430336D01*
X107569000Y-79394050D01*
X107641572Y-79357764D01*
X107750429Y-79357764D01*
X107823000Y-79394050D01*
X107859286Y-79430336D01*
X107895572Y-79502907D01*
X107895572Y-79720621D01*
X107859286Y-79793193D01*
X107823000Y-79829479D01*
X107750429Y-79865764D01*
X107641572Y-79865764D01*
X108222144Y-79865764D02*
X108222144Y-79357764D01*
X108222144Y-79103764D02*
X108185858Y-79140050D01*
X108222144Y-79176336D01*
X108258429Y-79140050D01*
X108222144Y-79103764D01*
X108222144Y-79176336D01*
X108585001Y-79357764D02*
X108585001Y-79865764D01*
X108585001Y-79430336D02*
X108621286Y-79394050D01*
X108693858Y-79357764D01*
X108802715Y-79357764D01*
X108875286Y-79394050D01*
X108911572Y-79466621D01*
X108911572Y-79865764D01*
X109165572Y-79357764D02*
X109455858Y-79357764D01*
X109274430Y-79103764D02*
X109274430Y-79756907D01*
X109310715Y-79829479D01*
X109383287Y-79865764D01*
X109455858Y-79865764D01*
X110181572Y-79357764D02*
X110471858Y-79357764D01*
X110290430Y-79103764D02*
X110290430Y-79756907D01*
X110326715Y-79829479D01*
X110399287Y-79865764D01*
X110471858Y-79865764D01*
X110834716Y-79865764D02*
X110762144Y-79829479D01*
X110725859Y-79793193D01*
X110689573Y-79720621D01*
X110689573Y-79502907D01*
X110725859Y-79430336D01*
X110762144Y-79394050D01*
X110834716Y-79357764D01*
X110943573Y-79357764D01*
X111016144Y-79394050D01*
X111052430Y-79430336D01*
X111088716Y-79502907D01*
X111088716Y-79720621D01*
X111052430Y-79793193D01*
X111016144Y-79829479D01*
X110943573Y-79865764D01*
X110834716Y-79865764D01*
X104847571Y-80361064D02*
X105283000Y-80361064D01*
X105065286Y-81123064D02*
X105065286Y-80361064D01*
X105537000Y-81123064D02*
X105537000Y-80615064D01*
X105537000Y-80760207D02*
X105573285Y-80687636D01*
X105609571Y-80651350D01*
X105682142Y-80615064D01*
X105754714Y-80615064D01*
X106008714Y-81123064D02*
X106008714Y-80615064D01*
X106008714Y-80361064D02*
X105972428Y-80397350D01*
X106008714Y-80433636D01*
X106044999Y-80397350D01*
X106008714Y-80361064D01*
X106008714Y-80433636D01*
X106371571Y-81123064D02*
X106371571Y-80361064D01*
X106552999Y-80361064D01*
X106661856Y-80397350D01*
X106734428Y-80469921D01*
X106770713Y-80542493D01*
X106806999Y-80687636D01*
X106806999Y-80796493D01*
X106770713Y-80941636D01*
X106734428Y-81014207D01*
X106661856Y-81086779D01*
X106552999Y-81123064D01*
X106371571Y-81123064D01*
X107423856Y-81086779D02*
X107351285Y-81123064D01*
X107206142Y-81123064D01*
X107133571Y-81086779D01*
X107097285Y-81014207D01*
X107097285Y-80723921D01*
X107133571Y-80651350D01*
X107206142Y-80615064D01*
X107351285Y-80615064D01*
X107423856Y-80651350D01*
X107460142Y-80723921D01*
X107460142Y-80796493D01*
X107097285Y-80869064D01*
X107714142Y-80615064D02*
X107895571Y-81123064D01*
X108076999Y-80615064D01*
X108911570Y-80905350D02*
X109274427Y-80905350D01*
X108838998Y-81123064D02*
X109092998Y-80361064D01*
X109346998Y-81123064D01*
X109927570Y-81123064D02*
X109927570Y-80361064D01*
X109927570Y-81086779D02*
X109854999Y-81123064D01*
X109709856Y-81123064D01*
X109637284Y-81086779D01*
X109600999Y-81050493D01*
X109564713Y-80977921D01*
X109564713Y-80760207D01*
X109600999Y-80687636D01*
X109637284Y-80651350D01*
X109709856Y-80615064D01*
X109854999Y-80615064D01*
X109927570Y-80651350D01*
X110616999Y-81123064D02*
X110616999Y-80723921D01*
X110580713Y-80651350D01*
X110508142Y-80615064D01*
X110362999Y-80615064D01*
X110290428Y-80651350D01*
X110616999Y-81086779D02*
X110544428Y-81123064D01*
X110362999Y-81123064D01*
X110290428Y-81086779D01*
X110254142Y-81014207D01*
X110254142Y-80941636D01*
X110290428Y-80869064D01*
X110362999Y-80832779D01*
X110544428Y-80832779D01*
X110616999Y-80796493D01*
X110979857Y-80615064D02*
X110979857Y-81377064D01*
X110979857Y-80651350D02*
X111052428Y-80615064D01*
X111197571Y-80615064D01*
X111270142Y-80651350D01*
X111306428Y-80687636D01*
X111342714Y-80760207D01*
X111342714Y-80977921D01*
X111306428Y-81050493D01*
X111270142Y-81086779D01*
X111197571Y-81123064D01*
X111052428Y-81123064D01*
X110979857Y-81086779D01*
X111560428Y-80615064D02*
X111850714Y-80615064D01*
X111669286Y-80361064D02*
X111669286Y-81014207D01*
X111705571Y-81086779D01*
X111778143Y-81123064D01*
X111850714Y-81123064D01*
X112395000Y-81086779D02*
X112322429Y-81123064D01*
X112177286Y-81123064D01*
X112104715Y-81086779D01*
X112068429Y-81014207D01*
X112068429Y-80723921D01*
X112104715Y-80651350D01*
X112177286Y-80615064D01*
X112322429Y-80615064D01*
X112395000Y-80651350D01*
X112431286Y-80723921D01*
X112431286Y-80796493D01*
X112068429Y-80869064D01*
X112757858Y-81123064D02*
X112757858Y-80615064D01*
X112757858Y-80760207D02*
X112794143Y-80687636D01*
X112830429Y-80651350D01*
X112903000Y-80615064D01*
X112975572Y-80615064D01*
X104883857Y-81872364D02*
X105065286Y-82380364D01*
X105246714Y-81872364D01*
X105682142Y-81618364D02*
X105754714Y-81618364D01*
X105827285Y-81654650D01*
X105863571Y-81690936D01*
X105899857Y-81763507D01*
X105936142Y-81908650D01*
X105936142Y-82090079D01*
X105899857Y-82235221D01*
X105863571Y-82307793D01*
X105827285Y-82344079D01*
X105754714Y-82380364D01*
X105682142Y-82380364D01*
X105609571Y-82344079D01*
X105573285Y-82307793D01*
X105537000Y-82235221D01*
X105500714Y-82090079D01*
X105500714Y-81908650D01*
X105537000Y-81763507D01*
X105573285Y-81690936D01*
X105609571Y-81654650D01*
X105682142Y-81618364D01*
X106262714Y-82307793D02*
X106298999Y-82344079D01*
X106262714Y-82380364D01*
X106226428Y-82344079D01*
X106262714Y-82307793D01*
X106262714Y-82380364D01*
X107024713Y-82380364D02*
X106589285Y-82380364D01*
X106806999Y-82380364D02*
X106806999Y-81618364D01*
X106734428Y-81727221D01*
X106661856Y-81799793D01*
X106589285Y-81836079D01*
X105210429Y-83238521D02*
X105319286Y-83274807D01*
X105355571Y-83311093D01*
X105391857Y-83383664D01*
X105391857Y-83492521D01*
X105355571Y-83565093D01*
X105319286Y-83601379D01*
X105246714Y-83637664D01*
X104956429Y-83637664D01*
X104956429Y-82875664D01*
X105210429Y-82875664D01*
X105283000Y-82911950D01*
X105319286Y-82948236D01*
X105355571Y-83020807D01*
X105355571Y-83093379D01*
X105319286Y-83165950D01*
X105283000Y-83202236D01*
X105210429Y-83238521D01*
X104956429Y-83238521D01*
X106008714Y-83601379D02*
X105936143Y-83637664D01*
X105791000Y-83637664D01*
X105718429Y-83601379D01*
X105682143Y-83528807D01*
X105682143Y-83238521D01*
X105718429Y-83165950D01*
X105791000Y-83129664D01*
X105936143Y-83129664D01*
X106008714Y-83165950D01*
X106045000Y-83238521D01*
X106045000Y-83311093D01*
X105682143Y-83383664D01*
X106371572Y-83129664D02*
X106371572Y-83637664D01*
X106371572Y-83202236D02*
X106407857Y-83165950D01*
X106480429Y-83129664D01*
X106589286Y-83129664D01*
X106661857Y-83165950D01*
X106698143Y-83238521D01*
X106698143Y-83637664D01*
X107641572Y-83637664D02*
X107641572Y-82875664D01*
X108077000Y-83637664D02*
X107750429Y-83202236D01*
X108077000Y-82875664D02*
X107641572Y-83311093D01*
X108693857Y-83601379D02*
X108621286Y-83637664D01*
X108476143Y-83637664D01*
X108403572Y-83601379D01*
X108367286Y-83528807D01*
X108367286Y-83238521D01*
X108403572Y-83165950D01*
X108476143Y-83129664D01*
X108621286Y-83129664D01*
X108693857Y-83165950D01*
X108730143Y-83238521D01*
X108730143Y-83311093D01*
X108367286Y-83383664D01*
X109056715Y-83637664D02*
X109056715Y-83129664D01*
X109056715Y-83202236D02*
X109093000Y-83165950D01*
X109165572Y-83129664D01*
X109274429Y-83129664D01*
X109347000Y-83165950D01*
X109383286Y-83238521D01*
X109383286Y-83637664D01*
X109383286Y-83238521D02*
X109419572Y-83165950D01*
X109492143Y-83129664D01*
X109601000Y-83129664D01*
X109673572Y-83165950D01*
X109709857Y-83238521D01*
X109709857Y-83637664D01*
X110072715Y-83129664D02*
X110072715Y-83891664D01*
X110072715Y-83165950D02*
X110145286Y-83129664D01*
X110290429Y-83129664D01*
X110363000Y-83165950D01*
X110399286Y-83202236D01*
X110435572Y-83274807D01*
X110435572Y-83492521D01*
X110399286Y-83565093D01*
X110363000Y-83601379D01*
X110290429Y-83637664D01*
X110145286Y-83637664D01*
X110072715Y-83601379D01*
X110762144Y-83637664D02*
X110762144Y-82875664D01*
X110834715Y-83347379D02*
X111052429Y-83637664D01*
X111052429Y-83129664D02*
X110762144Y-83419950D01*
X111669286Y-83601379D02*
X111596715Y-83637664D01*
X111451572Y-83637664D01*
X111379001Y-83601379D01*
X111342715Y-83528807D01*
X111342715Y-83238521D01*
X111379001Y-83165950D01*
X111451572Y-83129664D01*
X111596715Y-83129664D01*
X111669286Y-83165950D01*
X111705572Y-83238521D01*
X111705572Y-83311093D01*
X111342715Y-83383664D01*
D12*
X116319904Y-86589810D02*
X116150571Y-86347905D01*
X116029618Y-86589810D02*
X116029618Y-86081810D01*
X116223142Y-86081810D01*
X116271523Y-86106000D01*
X116295714Y-86130190D01*
X116319904Y-86178571D01*
X116319904Y-86251143D01*
X116295714Y-86299524D01*
X116271523Y-86323714D01*
X116223142Y-86347905D01*
X116029618Y-86347905D01*
X116682761Y-86081810D02*
X116682761Y-86444667D01*
X116658571Y-86517238D01*
X116610190Y-86565619D01*
X116537618Y-86589810D01*
X116489237Y-86589810D01*
X117142381Y-86251143D02*
X117142381Y-86589810D01*
X117021428Y-86057619D02*
X116900476Y-86420476D01*
X117214952Y-86420476D01*
X117650381Y-86081810D02*
X117408476Y-86081810D01*
X117384286Y-86323714D01*
X117408476Y-86299524D01*
X117456857Y-86275333D01*
X117577810Y-86275333D01*
X117626191Y-86299524D01*
X117650381Y-86323714D01*
X117674572Y-86372095D01*
X117674572Y-86493048D01*
X117650381Y-86541429D01*
X117626191Y-86565619D01*
X117577810Y-86589810D01*
X117456857Y-86589810D01*
X117408476Y-86565619D01*
X117384286Y-86541429D01*
X116422714Y-81243714D02*
X116592048Y-81243714D01*
X116664619Y-81509810D02*
X116422714Y-81509810D01*
X116422714Y-81001810D01*
X116664619Y-81001810D01*
X116833952Y-81001810D02*
X117172619Y-81509810D01*
X117172619Y-81001810D02*
X116833952Y-81509810D01*
X117293572Y-81001810D02*
X117583858Y-81001810D01*
X117438715Y-81509810D02*
X117438715Y-81001810D01*
X122561047Y-79350810D02*
X122561047Y-78842810D01*
X122754571Y-78842810D01*
X122802952Y-78867000D01*
X122827143Y-78891190D01*
X122851333Y-78939571D01*
X122851333Y-79012143D01*
X122827143Y-79060524D01*
X122802952Y-79084714D01*
X122754571Y-79108905D01*
X122561047Y-79108905D01*
X123069047Y-79350810D02*
X123069047Y-78842810D01*
X123262571Y-78842810D01*
X123310952Y-78867000D01*
X123335143Y-78891190D01*
X123359333Y-78939571D01*
X123359333Y-79012143D01*
X123335143Y-79060524D01*
X123310952Y-79084714D01*
X123262571Y-79108905D01*
X123069047Y-79108905D01*
X123552857Y-79326619D02*
X123625428Y-79350810D01*
X123746381Y-79350810D01*
X123794762Y-79326619D01*
X123818952Y-79302429D01*
X123843143Y-79254048D01*
X123843143Y-79205667D01*
X123818952Y-79157286D01*
X123794762Y-79133095D01*
X123746381Y-79108905D01*
X123649619Y-79084714D01*
X123601238Y-79060524D01*
X123577047Y-79036333D01*
X123552857Y-78987952D01*
X123552857Y-78939571D01*
X123577047Y-78891190D01*
X123601238Y-78867000D01*
X123649619Y-78842810D01*
X123770571Y-78842810D01*
X123843143Y-78867000D01*
X119089714Y-79350810D02*
X118920381Y-79108905D01*
X118799428Y-79350810D02*
X118799428Y-78842810D01*
X118992952Y-78842810D01*
X119041333Y-78867000D01*
X119065524Y-78891190D01*
X119089714Y-78939571D01*
X119089714Y-79012143D01*
X119065524Y-79060524D01*
X119041333Y-79084714D01*
X118992952Y-79108905D01*
X118799428Y-79108905D01*
X119307428Y-79084714D02*
X119476762Y-79084714D01*
X119549333Y-79350810D02*
X119307428Y-79350810D01*
X119307428Y-78842810D01*
X119549333Y-78842810D01*
X119936381Y-79084714D02*
X119767047Y-79084714D01*
X119767047Y-79350810D02*
X119767047Y-78842810D01*
X120008952Y-78842810D01*
D11*
X109020428Y-49149000D02*
X108947857Y-49112714D01*
X108839000Y-49112714D01*
X108730143Y-49149000D01*
X108657571Y-49221571D01*
X108621286Y-49294143D01*
X108585000Y-49439286D01*
X108585000Y-49548143D01*
X108621286Y-49693286D01*
X108657571Y-49765857D01*
X108730143Y-49838429D01*
X108839000Y-49874714D01*
X108911571Y-49874714D01*
X109020428Y-49838429D01*
X109056714Y-49802143D01*
X109056714Y-49548143D01*
X108911571Y-49548143D01*
X109383286Y-49874714D02*
X109383286Y-49112714D01*
X109818714Y-49874714D01*
X109818714Y-49112714D01*
X110181572Y-49874714D02*
X110181572Y-49112714D01*
X110363000Y-49112714D01*
X110471857Y-49149000D01*
X110544429Y-49221571D01*
X110580714Y-49294143D01*
X110617000Y-49439286D01*
X110617000Y-49548143D01*
X110580714Y-49693286D01*
X110544429Y-49765857D01*
X110471857Y-49838429D01*
X110363000Y-49874714D01*
X110181572Y-49874714D01*
X108258429Y-52124429D02*
X108839000Y-52124429D01*
X108548714Y-52414714D02*
X108548714Y-51834143D01*
X109129286Y-51652714D02*
X109601000Y-51652714D01*
X109347000Y-51943000D01*
X109455858Y-51943000D01*
X109528429Y-51979286D01*
X109564715Y-52015571D01*
X109601000Y-52088143D01*
X109601000Y-52269571D01*
X109564715Y-52342143D01*
X109528429Y-52378429D01*
X109455858Y-52414714D01*
X109238143Y-52414714D01*
X109165572Y-52378429D01*
X109129286Y-52342143D01*
X110254143Y-51652714D02*
X110109000Y-51652714D01*
X110036429Y-51689000D01*
X110000143Y-51725286D01*
X109927572Y-51834143D01*
X109891286Y-51979286D01*
X109891286Y-52269571D01*
X109927572Y-52342143D01*
X109963857Y-52378429D01*
X110036429Y-52414714D01*
X110181572Y-52414714D01*
X110254143Y-52378429D01*
X110290429Y-52342143D01*
X110326714Y-52269571D01*
X110326714Y-52088143D01*
X110290429Y-52015571D01*
X110254143Y-51979286D01*
X110181572Y-51943000D01*
X110036429Y-51943000D01*
X109963857Y-51979286D01*
X109927572Y-52015571D01*
X109891286Y-52088143D01*
X110544428Y-51652714D02*
X110798428Y-52414714D01*
X111052428Y-51652714D01*
X108893429Y-58946144D02*
X108893429Y-58692144D01*
X108494286Y-58692144D02*
X109256286Y-58692144D01*
X109256286Y-59055001D01*
X109256286Y-59236429D02*
X109256286Y-59671858D01*
X108494286Y-59454144D02*
X109256286Y-59454144D01*
X108494286Y-59925858D02*
X109256286Y-59925858D01*
X109256286Y-60107286D01*
X109220000Y-60216143D01*
X109147429Y-60288715D01*
X109074857Y-60325000D01*
X108929714Y-60361286D01*
X108820857Y-60361286D01*
X108675714Y-60325000D01*
X108603143Y-60288715D01*
X108530571Y-60216143D01*
X108494286Y-60107286D01*
X108494286Y-59925858D01*
X108494286Y-60687858D02*
X109256286Y-60687858D01*
D13*
X107954000Y-92804000D02*
X108454000Y-92804000D01*
X108454000Y-91854000D02*
X107954000Y-91854000D01*
X112610000Y-95623000D02*
X112610000Y-94623000D01*
X110910000Y-94623000D02*
X110910000Y-95623000D01*
X109005000Y-87003000D02*
X109005000Y-88003000D01*
X110705000Y-88003000D02*
X110705000Y-87003000D01*
X119118000Y-88558000D02*
X118118000Y-88558000D01*
X118118000Y-90258000D02*
X119118000Y-90258000D01*
X112047000Y-84078000D02*
X112047000Y-84578000D01*
X112997000Y-84578000D02*
X112997000Y-84078000D01*
X124210000Y-89375000D02*
X124710000Y-89375000D01*
X124710000Y-88425000D02*
X124210000Y-88425000D01*
X121445000Y-74680000D02*
X121445000Y-75180000D01*
X122395000Y-75180000D02*
X122395000Y-74680000D01*
X113825000Y-74680000D02*
X113825000Y-75180000D01*
X114775000Y-75180000D02*
X114775000Y-74680000D01*
X107954000Y-90932000D02*
X107704000Y-90932000D01*
X108454000Y-90932000D02*
X108704000Y-90932000D01*
X108454000Y-90932000D02*
X107954000Y-91282000D01*
X107954000Y-91282000D02*
X107954000Y-90582000D01*
X107954000Y-90582000D02*
X108454000Y-90932000D01*
X108454000Y-91282000D02*
X108454000Y-90582000D01*
X109504000Y-90132000D02*
X107104000Y-90132000D01*
X109504000Y-91732000D02*
X107104000Y-91732000D01*
X132334000Y-68580000D02*
X132334000Y-53340000D01*
X132334000Y-53340000D02*
X114300000Y-53340000D01*
X114300000Y-53340000D02*
X114300000Y-68580000D01*
X114300000Y-68580000D02*
X132334000Y-68580000D01*
X117840000Y-96980000D02*
X115840000Y-96980000D01*
X115840000Y-90980000D02*
X117840000Y-90980000D01*
X118110000Y-82550000D02*
X118110000Y-87630000D01*
X118110000Y-87630000D02*
X120650000Y-87630000D01*
X120650000Y-87630000D02*
X120650000Y-82550000D01*
X120930000Y-79730000D02*
X120930000Y-81280000D01*
X120650000Y-82550000D02*
X118110000Y-82550000D01*
X117830000Y-81280000D02*
X117830000Y-79730000D01*
X117830000Y-79730000D02*
X120930000Y-79730000D01*
X105410000Y-66040000D02*
X105410000Y-53340000D01*
X105410000Y-53340000D02*
X107950000Y-53340000D01*
X107950000Y-53340000D02*
X107950000Y-66040000D01*
X105130000Y-68860000D02*
X105130000Y-67310000D01*
X105410000Y-66040000D02*
X107950000Y-66040000D01*
X108230000Y-67310000D02*
X108230000Y-68860000D01*
X108230000Y-68860000D02*
X105130000Y-68860000D01*
X121920000Y-82550000D02*
X121920000Y-87630000D01*
X121920000Y-87630000D02*
X124460000Y-87630000D01*
X124460000Y-87630000D02*
X124460000Y-82550000D01*
X124740000Y-79730000D02*
X124740000Y-81280000D01*
X124460000Y-82550000D02*
X121920000Y-82550000D01*
X121640000Y-81280000D02*
X121640000Y-79730000D01*
X121640000Y-79730000D02*
X124740000Y-79730000D01*
X130810000Y-96520000D02*
X130810000Y-71120000D01*
X125730000Y-73660000D02*
X125730000Y-96520000D01*
X130810000Y-96520000D02*
X125730000Y-96520000D01*
X130810000Y-71120000D02*
X128270000Y-71120000D01*
X127000000Y-70840000D02*
X125450000Y-70840000D01*
X128270000Y-71120000D02*
X128270000Y-73660000D01*
X128270000Y-73660000D02*
X125730000Y-73660000D01*
X125450000Y-70840000D02*
X125450000Y-72390000D01*
X108454000Y-95995000D02*
X107954000Y-95995000D01*
X107954000Y-97045000D02*
X108454000Y-97045000D01*
X118360000Y-69325000D02*
X117860000Y-69325000D01*
X117860000Y-70375000D02*
X118360000Y-70375000D01*
X106062000Y-93722000D02*
X106062000Y-93222000D01*
X105012000Y-93222000D02*
X105012000Y-93722000D01*
X105012000Y-94873000D02*
X105012000Y-95373000D01*
X106062000Y-95373000D02*
X106062000Y-94873000D01*
X110740000Y-69325000D02*
X110240000Y-69325000D01*
X110240000Y-70375000D02*
X110740000Y-70375000D01*
X107904000Y-92915000D02*
G75*
G03X107904000Y-92915000I-100000J0D01*
G01*
X108454000Y-93165000D02*
X107954000Y-93165000D01*
X108454000Y-96065000D02*
X108454000Y-93165000D01*
X107954000Y-96065000D02*
X108454000Y-96065000D01*
X107954000Y-93165000D02*
X107954000Y-96065000D01*
X114065000Y-89203000D02*
G75*
G03X114065000Y-89203000I-100000J0D01*
G01*
X113415000Y-88953000D02*
X113915000Y-88953000D01*
X113415000Y-86053000D02*
X113415000Y-88953000D01*
X113915000Y-86053000D02*
X113415000Y-86053000D01*
X113915000Y-88953000D02*
X113915000Y-86053000D01*
X120685000Y-72855000D02*
X120540000Y-72855000D01*
X120685000Y-77005000D02*
X120540000Y-77005000D01*
X115535000Y-77005000D02*
X115680000Y-77005000D01*
X115535000Y-72855000D02*
X115680000Y-72855000D01*
X120685000Y-72855000D02*
X120685000Y-77005000D01*
X115535000Y-72855000D02*
X115535000Y-77005000D01*
X120540000Y-72855000D02*
X120540000Y-71455000D01*
X113065000Y-72855000D02*
X112920000Y-72855000D01*
X113065000Y-77005000D02*
X112920000Y-77005000D01*
X107915000Y-77005000D02*
X108060000Y-77005000D01*
X107915000Y-72855000D02*
X108060000Y-72855000D01*
X113065000Y-72855000D02*
X113065000Y-77005000D01*
X107915000Y-72855000D02*
X107915000Y-77005000D01*
X112920000Y-72855000D02*
X112920000Y-71455000D01*
X107950000Y-50800000D02*
X107950000Y-53340000D01*
X108230000Y-47980000D02*
X108230000Y-49530000D01*
X107950000Y-50800000D02*
X105410000Y-50800000D01*
X105130000Y-49530000D02*
X105130000Y-47980000D01*
X105130000Y-47980000D02*
X108230000Y-47980000D01*
X105410000Y-50800000D02*
X105410000Y-53340000D01*
X105410000Y-53340000D02*
X107950000Y-53340000D01*
D12*
X110151333Y-92510429D02*
X110127143Y-92534619D01*
X110054571Y-92558810D01*
X110006190Y-92558810D01*
X109933619Y-92534619D01*
X109885238Y-92486238D01*
X109861047Y-92437857D01*
X109836857Y-92341095D01*
X109836857Y-92268524D01*
X109861047Y-92171762D01*
X109885238Y-92123381D01*
X109933619Y-92075000D01*
X110006190Y-92050810D01*
X110054571Y-92050810D01*
X110127143Y-92075000D01*
X110151333Y-92099190D01*
X110635143Y-92558810D02*
X110344857Y-92558810D01*
X110490000Y-92558810D02*
X110490000Y-92050810D01*
X110441619Y-92123381D01*
X110393238Y-92171762D01*
X110344857Y-92195952D01*
X113338429Y-95207667D02*
X113362619Y-95231857D01*
X113386810Y-95304429D01*
X113386810Y-95352810D01*
X113362619Y-95425381D01*
X113314238Y-95473762D01*
X113265857Y-95497953D01*
X113169095Y-95522143D01*
X113096524Y-95522143D01*
X112999762Y-95497953D01*
X112951381Y-95473762D01*
X112903000Y-95425381D01*
X112878810Y-95352810D01*
X112878810Y-95304429D01*
X112903000Y-95231857D01*
X112927190Y-95207667D01*
X112927190Y-95014143D02*
X112903000Y-94989953D01*
X112878810Y-94941572D01*
X112878810Y-94820619D01*
X112903000Y-94772238D01*
X112927190Y-94748048D01*
X112975571Y-94723857D01*
X113023952Y-94723857D01*
X113096524Y-94748048D01*
X113386810Y-95038334D01*
X113386810Y-94723857D01*
X108639429Y-87587667D02*
X108663619Y-87611857D01*
X108687810Y-87684429D01*
X108687810Y-87732810D01*
X108663619Y-87805381D01*
X108615238Y-87853762D01*
X108566857Y-87877953D01*
X108470095Y-87902143D01*
X108397524Y-87902143D01*
X108300762Y-87877953D01*
X108252381Y-87853762D01*
X108204000Y-87805381D01*
X108179810Y-87732810D01*
X108179810Y-87684429D01*
X108204000Y-87611857D01*
X108228190Y-87587667D01*
X108179810Y-87418334D02*
X108179810Y-87103857D01*
X108373333Y-87273191D01*
X108373333Y-87200619D01*
X108397524Y-87152238D01*
X108421714Y-87128048D01*
X108470095Y-87103857D01*
X108591048Y-87103857D01*
X108639429Y-87128048D01*
X108663619Y-87152238D01*
X108687810Y-87200619D01*
X108687810Y-87345762D01*
X108663619Y-87394143D01*
X108639429Y-87418334D01*
X120946333Y-89589429D02*
X120922143Y-89613619D01*
X120849571Y-89637810D01*
X120801190Y-89637810D01*
X120728619Y-89613619D01*
X120680238Y-89565238D01*
X120656047Y-89516857D01*
X120631857Y-89420095D01*
X120631857Y-89347524D01*
X120656047Y-89250762D01*
X120680238Y-89202381D01*
X120728619Y-89154000D01*
X120801190Y-89129810D01*
X120849571Y-89129810D01*
X120922143Y-89154000D01*
X120946333Y-89178190D01*
X121381762Y-89299143D02*
X121381762Y-89637810D01*
X121260809Y-89105619D02*
X121139857Y-89468476D01*
X121454333Y-89468476D01*
X113719429Y-84412667D02*
X113743619Y-84436857D01*
X113767810Y-84509429D01*
X113767810Y-84557810D01*
X113743619Y-84630381D01*
X113695238Y-84678762D01*
X113646857Y-84702953D01*
X113550095Y-84727143D01*
X113477524Y-84727143D01*
X113380762Y-84702953D01*
X113332381Y-84678762D01*
X113284000Y-84630381D01*
X113259810Y-84557810D01*
X113259810Y-84509429D01*
X113284000Y-84436857D01*
X113308190Y-84412667D01*
X113259810Y-83953048D02*
X113259810Y-84194953D01*
X113501714Y-84219143D01*
X113477524Y-84194953D01*
X113453333Y-84146572D01*
X113453333Y-84025619D01*
X113477524Y-83977238D01*
X113501714Y-83953048D01*
X113550095Y-83928857D01*
X113671048Y-83928857D01*
X113719429Y-83953048D01*
X113743619Y-83977238D01*
X113767810Y-84025619D01*
X113767810Y-84146572D01*
X113743619Y-84194953D01*
X113719429Y-84219143D01*
X124375333Y-90097429D02*
X124351143Y-90121619D01*
X124278571Y-90145810D01*
X124230190Y-90145810D01*
X124157619Y-90121619D01*
X124109238Y-90073238D01*
X124085047Y-90024857D01*
X124060857Y-89928095D01*
X124060857Y-89855524D01*
X124085047Y-89758762D01*
X124109238Y-89710381D01*
X124157619Y-89662000D01*
X124230190Y-89637810D01*
X124278571Y-89637810D01*
X124351143Y-89662000D01*
X124375333Y-89686190D01*
X124810762Y-89637810D02*
X124714000Y-89637810D01*
X124665619Y-89662000D01*
X124641428Y-89686190D01*
X124593047Y-89758762D01*
X124568857Y-89855524D01*
X124568857Y-90049048D01*
X124593047Y-90097429D01*
X124617238Y-90121619D01*
X124665619Y-90145810D01*
X124762381Y-90145810D01*
X124810762Y-90121619D01*
X124834952Y-90097429D01*
X124859143Y-90049048D01*
X124859143Y-89928095D01*
X124834952Y-89879714D01*
X124810762Y-89855524D01*
X124762381Y-89831333D01*
X124665619Y-89831333D01*
X124617238Y-89855524D01*
X124593047Y-89879714D01*
X124568857Y-89928095D01*
X122101429Y-73363667D02*
X122125619Y-73387857D01*
X122149810Y-73460429D01*
X122149810Y-73508810D01*
X122125619Y-73581381D01*
X122077238Y-73629762D01*
X122028857Y-73653953D01*
X121932095Y-73678143D01*
X121859524Y-73678143D01*
X121762762Y-73653953D01*
X121714381Y-73629762D01*
X121666000Y-73581381D01*
X121641810Y-73508810D01*
X121641810Y-73460429D01*
X121666000Y-73387857D01*
X121690190Y-73363667D01*
X121641810Y-73194334D02*
X121641810Y-72855667D01*
X122149810Y-73073381D01*
X114481429Y-73363667D02*
X114505619Y-73387857D01*
X114529810Y-73460429D01*
X114529810Y-73508810D01*
X114505619Y-73581381D01*
X114457238Y-73629762D01*
X114408857Y-73653953D01*
X114312095Y-73678143D01*
X114239524Y-73678143D01*
X114142762Y-73653953D01*
X114094381Y-73629762D01*
X114046000Y-73581381D01*
X114021810Y-73508810D01*
X114021810Y-73460429D01*
X114046000Y-73387857D01*
X114070190Y-73363667D01*
X114239524Y-73073381D02*
X114215333Y-73121762D01*
X114191143Y-73145953D01*
X114142762Y-73170143D01*
X114118571Y-73170143D01*
X114070190Y-73145953D01*
X114046000Y-73121762D01*
X114021810Y-73073381D01*
X114021810Y-72976619D01*
X114046000Y-72928238D01*
X114070190Y-72904048D01*
X114118571Y-72879857D01*
X114142762Y-72879857D01*
X114191143Y-72904048D01*
X114215333Y-72928238D01*
X114239524Y-72976619D01*
X114239524Y-73073381D01*
X114263714Y-73121762D01*
X114287905Y-73145953D01*
X114336286Y-73170143D01*
X114433048Y-73170143D01*
X114481429Y-73145953D01*
X114505619Y-73121762D01*
X114529810Y-73073381D01*
X114529810Y-72976619D01*
X114505619Y-72928238D01*
X114481429Y-72904048D01*
X114433048Y-72879857D01*
X114336286Y-72879857D01*
X114287905Y-72904048D01*
X114263714Y-72928238D01*
X114239524Y-72976619D01*
X109861047Y-91161810D02*
X109861047Y-90653810D01*
X109982000Y-90653810D01*
X110054571Y-90678000D01*
X110102952Y-90726381D01*
X110127143Y-90774762D01*
X110151333Y-90871524D01*
X110151333Y-90944095D01*
X110127143Y-91040857D01*
X110102952Y-91089238D01*
X110054571Y-91137619D01*
X109982000Y-91161810D01*
X109861047Y-91161810D01*
X110635143Y-91161810D02*
X110344857Y-91161810D01*
X110490000Y-91161810D02*
X110490000Y-90653810D01*
X110441619Y-90726381D01*
X110393238Y-90774762D01*
X110344857Y-90798952D01*
X116755333Y-90780810D02*
X116513428Y-90780810D01*
X116513428Y-90272810D01*
X117190762Y-90780810D02*
X116900476Y-90780810D01*
X117045619Y-90780810D02*
X117045619Y-90272810D01*
X116997238Y-90345381D01*
X116948857Y-90393762D01*
X116900476Y-90417952D01*
X106722333Y-96749810D02*
X106553000Y-96507905D01*
X106432047Y-96749810D02*
X106432047Y-96241810D01*
X106625571Y-96241810D01*
X106673952Y-96266000D01*
X106698143Y-96290190D01*
X106722333Y-96338571D01*
X106722333Y-96411143D01*
X106698143Y-96459524D01*
X106673952Y-96483714D01*
X106625571Y-96507905D01*
X106432047Y-96507905D01*
X107206143Y-96749810D02*
X106915857Y-96749810D01*
X107061000Y-96749810D02*
X107061000Y-96241810D01*
X107012619Y-96314381D01*
X106964238Y-96362762D01*
X106915857Y-96386952D01*
X119422333Y-70079810D02*
X119253000Y-69837905D01*
X119132047Y-70079810D02*
X119132047Y-69571810D01*
X119325571Y-69571810D01*
X119373952Y-69596000D01*
X119398143Y-69620190D01*
X119422333Y-69668571D01*
X119422333Y-69741143D01*
X119398143Y-69789524D01*
X119373952Y-69813714D01*
X119325571Y-69837905D01*
X119132047Y-69837905D01*
X119615857Y-69620190D02*
X119640047Y-69596000D01*
X119688428Y-69571810D01*
X119809381Y-69571810D01*
X119857762Y-69596000D01*
X119881952Y-69620190D01*
X119906143Y-69668571D01*
X119906143Y-69716952D01*
X119881952Y-69789524D01*
X119591666Y-70079810D01*
X119906143Y-70079810D01*
X105766810Y-92159667D02*
X105524905Y-92329000D01*
X105766810Y-92449953D02*
X105258810Y-92449953D01*
X105258810Y-92256429D01*
X105283000Y-92208048D01*
X105307190Y-92183857D01*
X105355571Y-92159667D01*
X105428143Y-92159667D01*
X105476524Y-92183857D01*
X105500714Y-92208048D01*
X105524905Y-92256429D01*
X105524905Y-92449953D01*
X105258810Y-91990334D02*
X105258810Y-91675857D01*
X105452333Y-91845191D01*
X105452333Y-91772619D01*
X105476524Y-91724238D01*
X105500714Y-91700048D01*
X105549095Y-91675857D01*
X105670048Y-91675857D01*
X105718429Y-91700048D01*
X105742619Y-91724238D01*
X105766810Y-91772619D01*
X105766810Y-91917762D01*
X105742619Y-91966143D01*
X105718429Y-91990334D01*
X105766810Y-96604667D02*
X105524905Y-96774000D01*
X105766810Y-96894953D02*
X105258810Y-96894953D01*
X105258810Y-96701429D01*
X105283000Y-96653048D01*
X105307190Y-96628857D01*
X105355571Y-96604667D01*
X105428143Y-96604667D01*
X105476524Y-96628857D01*
X105500714Y-96653048D01*
X105524905Y-96701429D01*
X105524905Y-96894953D01*
X105428143Y-96169238D02*
X105766810Y-96169238D01*
X105234619Y-96290191D02*
X105597476Y-96411143D01*
X105597476Y-96096667D01*
X111802333Y-70079810D02*
X111633000Y-69837905D01*
X111512047Y-70079810D02*
X111512047Y-69571810D01*
X111705571Y-69571810D01*
X111753952Y-69596000D01*
X111778143Y-69620190D01*
X111802333Y-69668571D01*
X111802333Y-69741143D01*
X111778143Y-69789524D01*
X111753952Y-69813714D01*
X111705571Y-69837905D01*
X111512047Y-69837905D01*
X112261952Y-69571810D02*
X112020047Y-69571810D01*
X111995857Y-69813714D01*
X112020047Y-69789524D01*
X112068428Y-69765333D01*
X112189381Y-69765333D01*
X112237762Y-69789524D01*
X112261952Y-69813714D01*
X112286143Y-69862095D01*
X112286143Y-69983048D01*
X112261952Y-70031429D01*
X112237762Y-70055619D01*
X112189381Y-70079810D01*
X112068428Y-70079810D01*
X112020047Y-70055619D01*
X111995857Y-70031429D01*
X109467952Y-96241810D02*
X109467952Y-96653048D01*
X109492143Y-96701429D01*
X109516333Y-96725619D01*
X109564714Y-96749810D01*
X109661476Y-96749810D01*
X109709857Y-96725619D01*
X109734048Y-96701429D01*
X109758238Y-96653048D01*
X109758238Y-96241810D01*
X110266238Y-96749810D02*
X109975952Y-96749810D01*
X110121095Y-96749810D02*
X110121095Y-96241810D01*
X110072714Y-96314381D01*
X110024333Y-96362762D01*
X109975952Y-96386952D01*
X113277952Y-89637810D02*
X113277952Y-90049048D01*
X113302143Y-90097429D01*
X113326333Y-90121619D01*
X113374714Y-90145810D01*
X113471476Y-90145810D01*
X113519857Y-90121619D01*
X113544048Y-90097429D01*
X113568238Y-90049048D01*
X113568238Y-89637810D01*
X113785952Y-89686190D02*
X113810142Y-89662000D01*
X113858523Y-89637810D01*
X113979476Y-89637810D01*
X114027857Y-89662000D01*
X114052047Y-89686190D01*
X114076238Y-89734571D01*
X114076238Y-89782952D01*
X114052047Y-89855524D01*
X113761761Y-90145810D01*
X114076238Y-90145810D01*
X121006810Y-77222048D02*
X121418048Y-77222048D01*
X121466429Y-77197857D01*
X121490619Y-77173667D01*
X121514810Y-77125286D01*
X121514810Y-77028524D01*
X121490619Y-76980143D01*
X121466429Y-76955952D01*
X121418048Y-76931762D01*
X121006810Y-76931762D01*
X121006810Y-76738239D02*
X121006810Y-76423762D01*
X121200333Y-76593096D01*
X121200333Y-76520524D01*
X121224524Y-76472143D01*
X121248714Y-76447953D01*
X121297095Y-76423762D01*
X121418048Y-76423762D01*
X121466429Y-76447953D01*
X121490619Y-76472143D01*
X121514810Y-76520524D01*
X121514810Y-76665667D01*
X121490619Y-76714048D01*
X121466429Y-76738239D01*
X113386810Y-77222048D02*
X113798048Y-77222048D01*
X113846429Y-77197857D01*
X113870619Y-77173667D01*
X113894810Y-77125286D01*
X113894810Y-77028524D01*
X113870619Y-76980143D01*
X113846429Y-76955952D01*
X113798048Y-76931762D01*
X113386810Y-76931762D01*
X113556143Y-76472143D02*
X113894810Y-76472143D01*
X113362619Y-76593096D02*
X113725476Y-76714048D01*
X113725476Y-76399572D01*
%LPC*%
D14*
X108754000Y-92329000D03*
X107654000Y-92329000D03*
D15*
X111760000Y-94123000D03*
X111760000Y-96123000D03*
X109855000Y-88503000D03*
X109855000Y-86503000D03*
D16*
X117618000Y-89408000D03*
X119618000Y-89408000D03*
D17*
X112522000Y-84878000D03*
X112522000Y-83778000D03*
D14*
X125010000Y-88900000D03*
X123910000Y-88900000D03*
D17*
X121920000Y-75480000D03*
X121920000Y-74380000D03*
X114300000Y-75480000D03*
X114300000Y-74380000D03*
D18*
X109259000Y-90932000D03*
X107149000Y-90932000D03*
D19*
X124460000Y-55245000D03*
X124460000Y-66675000D03*
D20*
X118110000Y-65405000D03*
D21*
X115570000Y-64135000D03*
X118110000Y-62865000D03*
X115570000Y-61595000D03*
X118110000Y-60325000D03*
X115570000Y-59055000D03*
X118110000Y-57785000D03*
X115570000Y-56515000D03*
D22*
X127510000Y-68810000D03*
X127510000Y-53110000D03*
D23*
X114490000Y-93980000D03*
X119190000Y-93980000D03*
D24*
X114300000Y-49530000D03*
X111760000Y-49530000D03*
X116840000Y-49530000D03*
D25*
X119380000Y-81280000D03*
D26*
X119380000Y-83820000D03*
X119380000Y-86360000D03*
D24*
X123190000Y-49530000D03*
X120650000Y-49530000D03*
X125730000Y-49530000D03*
D25*
X106680000Y-67310000D03*
D26*
X106680000Y-64770000D03*
X106680000Y-62230000D03*
X106680000Y-59690000D03*
X106680000Y-57150000D03*
X106680000Y-54610000D03*
D25*
X123190000Y-81280000D03*
D26*
X123190000Y-83820000D03*
X123190000Y-86360000D03*
D27*
X127000000Y-72390000D03*
D28*
X129540000Y-72390000D03*
X127000000Y-74930000D03*
X129540000Y-74930000D03*
X127000000Y-77470000D03*
X129540000Y-77470000D03*
X127000000Y-80010000D03*
X129540000Y-80010000D03*
X127000000Y-82550000D03*
X129540000Y-82550000D03*
X127000000Y-85090000D03*
X129540000Y-85090000D03*
X127000000Y-87630000D03*
X129540000Y-87630000D03*
X127000000Y-90170000D03*
X129540000Y-90170000D03*
X127000000Y-92710000D03*
X129540000Y-92710000D03*
X127000000Y-95250000D03*
X129540000Y-95250000D03*
D29*
X107754000Y-96520000D03*
X108654000Y-96520000D03*
X117660000Y-69850000D03*
X118560000Y-69850000D03*
D30*
X105537000Y-93022000D03*
X105537000Y-93922000D03*
X105537000Y-95573000D03*
X105537000Y-94673000D03*
D29*
X110040000Y-69850000D03*
X110940000Y-69850000D03*
D31*
X107104000Y-93665000D03*
X107104000Y-94615000D03*
X107104000Y-95565000D03*
X109304000Y-95565000D03*
X109304000Y-93665000D03*
X109304000Y-94615000D03*
X114765000Y-88453000D03*
X114765000Y-87503000D03*
X114765000Y-86553000D03*
X112565000Y-86553000D03*
X112565000Y-88453000D03*
D32*
X120015000Y-72230000D03*
X118745000Y-72230000D03*
X117475000Y-72230000D03*
X116205000Y-72230000D03*
X116205000Y-77630000D03*
X117475000Y-77630000D03*
X118745000Y-77630000D03*
X120015000Y-77630000D03*
X112395000Y-72230000D03*
X111125000Y-72230000D03*
X109855000Y-72230000D03*
X108585000Y-72230000D03*
X108585000Y-77630000D03*
X109855000Y-77630000D03*
X111125000Y-77630000D03*
X112395000Y-77630000D03*
D33*
X106680000Y-49530000D03*
D34*
X106680000Y-52070000D03*
M02*
