M48
;Layer_Color=9474304
;FILE_FORMAT=2:5
INCH,LZ
;TYPE=PLATED
T1F00S00C0.00800
T2F00S00C0.03543
%
T01
X00505Y-01425
X00605Y-01225
X00805
X00905Y-01025
X01105
X01005Y-00825
X00805
X00605
X00405
X00505Y-00625
X00705
X00905
X0093031Y-0057056
X0087888Y-0053965
X0082746Y-0050875
X0097844Y-0052811
X0098174Y-0060147
X0103358Y-0063167
X0102906Y-0056033
X0108178Y-0058897
X0108539Y-0066192
X0113721Y-0069217
X0113359Y-0061922
X00705Y-01025
X00505
X00405Y-01225
X00205
X00005
X-00195
X-00395
X-00595
X-00795
X-00695Y-01025
X-00495
X-00295
X-00095
X-00085Y-00943
X-0005
X-00015
X0002
X00055
X0009
X00125
X00108Y-00865
X00082Y-00857
X00055Y-00858
X0000276
X0002Y-00878
X-00025Y-00869
X-0002665Y-0076996
X0001665
X0005996
Y-0072665
X0001665
X-0002665
X-0006996
Y-0076996
Y-0068335
X-0002665
X0001665
X0005996
Y-0064004
X0001665
X-0002665
X-0006996
X-00067Y-00552
X-00015
Y-00526
X-00096Y-00511
X-00137Y-0056
X-00164Y-00571
X-00166Y-006
X-00158Y-0063
Y-00669
Y-0071276
Y-00739
Y-00774
Y-00809
Y-00844
X-0012Y-00943
X00105Y-01025
X00305
X00262Y-00859
X00238Y-00735
X00238Y-007
X00148Y-0071299
Y-0065
X00175Y-0066
X0017Y-0063
X0011969Y-0055831
X0008032Y-0052169
X00168Y-00781
X-00238Y-006
X-0028598Y-0063402
X-00285Y-00535
X-00495Y-00625
X-0057488Y-0064988
X-00695Y-00625
X-00895
X-009083Y-0055727
X-008569Y-0052633
X-0095291Y-0051271
X-0095971Y-005882
X-0101369Y-006144
X-0100432Y-0054365
X-0105609Y-0057398
X-0106287Y-0064877
X-0111469Y-0067902
X-0110791Y-0060423
X-0115972Y-0063448
X-00995Y-00825
X-00795
X-00595
X-00895Y-01025
X-01095
X-00495Y-01425
X-00295
X-00095
X00105
X00305
X-01195Y-00425
X-01395
X-01295Y-00225
X-01495
X-0151591Y-00075
Y-00025
Y00025
Y00075
X-01495Y00175
X-01295
X-0124Y00075
Y00025
Y-00027
Y-00075
X-01195Y00375
X-01395
X-01295Y00575
X-01195Y00775
X-00995
X-00795
X-00595
X-00395
X-00195
X-0003123Y0080113
X-0003134Y0074113
X-0003145Y0068113
X-0003156Y0062113
X-0003166Y0056113
X-0003177Y0050113
X-0003188Y0044113
X-0003198Y0038113
X-0003209Y0032113
X-000322Y0026113
X-0003231Y0020113
X-0003241Y0014113
X-00049Y00076
X-00071Y00054
X0Y0
X0005141Y0002587
X0010418Y-0000268
X0010748Y-0007604
X00053Y-00073
X000302Y-0012858
X-0003059Y-0011849
Y-0017849
X-00095Y-00225
X0002959Y-0023351
X00105Y-00225
X00073Y-00295
X-00023
X-00055Y-00465
X-0021Y-0048
X-0031Y-00495
X-0041Y-00495
X-0044563Y-0027881
X-0043883Y-0020332
X-00495Y-00225
X-0049704Y-0030975
X-0054845Y-0034069
X-0054165Y-002652
X-0059306Y-0029614
X-0059986Y-0037163
X-00595Y-00425
X-0065126Y-0040257
X-006912Y-0042639
X-0069587Y-0035802
X-0073409Y-0038083
X-0079009Y-0041383
X-007522Y-0046332
X-0080549Y-0049539
X-0085009Y-0045083
X-009015Y-0048177
X-00995Y-00425
X-00895Y-00225
X-00695
X-0064446Y-0032708
X-0039422Y-0024788
X-0038742Y-0017238
X-0033602Y-0014144
X-0034282Y-0021694
X-00295Y-00225
X-0029141Y-00186
X-0028461Y-001105
X-002332Y-0007957
X-0024Y-0015506
X-0018859Y-0012412
X-0018179Y-0004863
X-00195Y-00025
X-0013038Y-0001769
X-0013718Y-0009318
X-0003059Y-0005849
X0002871Y0011313
X0002882Y0017313
X0002893Y0023313
X0002903Y0029313
X0002914Y0035313
X0002925Y0041313
X0002936Y0047313
X0002946Y0053313
X0002957Y0059313
X0002968Y0065313
X0002978Y0071313
X0002989Y0077313
X0003Y0083313
X0003011Y0089313
X0003022Y0095313
X0003032Y0101313
X-000308Y0104113
X-0003091Y0098113
X-0003102Y0092113
X-0003112Y0086113
X-00095Y00975
X00105
X00305
X00205Y00775
X00305Y00575
X00105
X-00095
X-00295
X-00495
X-00695
X-00895
X-01095
X-00995Y00375
X-00795
X-00595
X-00395
X-00195
X-00095Y00175
X00105
X00305
X00205Y00375
X0020704Y-000645
X0021033Y-0013785
X0026176Y-0016876
X0025846Y-000954
X0030989Y-0012631
X0031319Y-0019967
X00305Y-00225
X0036461Y-0023057
X0036132Y-0015722
X0015891Y-0010694
X00205Y-00425
X-00395Y-00025
X-00595
X-00795
X-00695Y00175
X-00495
X-00895
X-01095
Y-00225
Y00975
X-00895
X-00695
X-00495
X-00295
X00505
X00705
X00905
X01105
X01205Y00775
X01005
X00805
X00605
X00405
X00505Y00575
X00705
X00905
X01105
X01305
X01405Y00375
X01205
X01005
X00805
X00605
X00405
X00505Y00175
X00705
X00905
X01105
X01305
X0124Y00075
Y00025
Y-00025
X01205
X0124Y-00075
X01305Y-00225
X01105
X00905
X00705
X0061845Y-0031176
X0056703Y-0028085
X0057032Y-0035421
X0051889Y-003233
X005156Y-0024994
X00505Y-00225
X0046417Y-0021903
X0046747Y-0029239
X0041604Y-0026148
X0041274Y-0018813
X00405Y-00025
X00605
X00805
Y-00425
X0077603Y-0047784
X0071303Y-0044109
X0065303Y-0040409
X00405Y-00425
X0087559Y-004663
X0092701Y-004972
X01005Y-00425
X01205
X01405
X01502Y-00075
Y-00025
Y00025
Y00075
X01005Y01175
X00805
X00605
X00405
X00505Y01375
X00705
X00305
X00205Y01175
X0002946Y0119312
X0003054Y0113313
X0003043Y0107313
X-000307Y0110113
X-0003059Y0116113
X-0003059Y0122113
Y0128113
X0003059Y0125311
Y0131311
X-00195Y01175
X-00395
X-00595
X-00795
X-00995
X-00695Y01375
X-00495
X-00295
T02
X-011Y-001
X-01
Y0
X-011
Y001
X-01
X-0026Y00076
Y00176
Y00276
X01Y001
X011
Y0
X01
Y-001
X011
M30
