G04 #@! TF.FileFunction,Copper,L3,Inr,Signal*
%FSLAX46Y46*%
G04 Gerber Fmt 4.6, Leading zero omitted, Abs format (unit mm)*
G04 Created by KiCad (PCBNEW 0.201509030901+6151~29~ubuntu15.04.1-product) date Thu 19 Nov 2015 01:23:01 PM EST*
%MOMM*%
G01*
G04 APERTURE LIST*
%ADD10C,0.100000*%
%ADD11C,1.300000*%
%ADD12C,0.406400*%
%ADD13C,0.508000*%
%ADD14C,0.152400*%
%ADD15C,0.177800*%
%ADD16C,0.254000*%
G04 APERTURE END LIST*
D10*
D11*
X26987500Y-28149600D03*
X27781250Y-29524400D03*
X28575000Y-30899200D03*
X29368750Y-32274000D03*
X30162500Y-33648800D03*
X30956250Y-35023600D03*
X31750000Y-36398400D03*
X32543750Y-37773200D03*
X33337500Y-39148000D03*
X34131250Y-40522800D03*
X34925000Y-41897600D03*
X35718750Y-43272400D03*
X36512500Y-44647200D03*
X37306250Y-46022000D03*
X38100000Y-47396800D03*
X38893750Y-48771600D03*
X39687500Y-50146400D03*
X42862500Y-50146400D03*
X43656250Y-48771600D03*
X44450000Y-47396800D03*
X45243750Y-46022000D03*
X46037500Y-44647200D03*
X46831250Y-43272400D03*
X47625000Y-41897600D03*
X48418750Y-40522800D03*
X49212500Y-39148000D03*
X50006250Y-37773200D03*
X50800000Y-36398400D03*
X51593750Y-35023600D03*
X52387500Y-33648800D03*
X53181250Y-32274000D03*
X53975000Y-30899200D03*
X54768750Y-29524400D03*
X55562500Y-28149600D03*
X53975000Y-25400000D03*
X52387500Y-25400000D03*
X50800000Y-25400000D03*
X49212500Y-25400000D03*
X47625000Y-25400000D03*
X42862500Y-25400000D03*
X41275000Y-25400000D03*
X39687500Y-25400000D03*
X34925000Y-25400000D03*
X33337500Y-25400000D03*
X31750000Y-25400000D03*
X30162500Y-25400000D03*
X28575000Y-25400000D03*
D12*
X30000000Y-29550000D03*
X29100000Y-29050000D03*
X39850000Y-35200000D03*
X39850000Y-33700000D03*
X35750000Y-26000000D03*
X37550000Y-36250000D03*
X36150000Y-36500000D03*
X33650000Y-36500000D03*
X40550000Y-38850000D03*
X40550000Y-37650000D03*
X40550000Y-38250000D03*
X31600000Y-27700000D03*
X30716989Y-26200000D03*
X28200000Y-28050000D03*
X29850000Y-30150000D03*
X30850000Y-31750000D03*
X30850000Y-32750000D03*
X32100000Y-34400000D03*
X32750000Y-34500000D03*
X51562000Y-30007010D03*
X46841386Y-28960400D03*
X52197000Y-28321000D03*
X48895000Y-27686010D03*
X49022000Y-29041790D03*
X48641000Y-36703000D03*
D13*
X35058000Y-29077000D03*
X34058000Y-29077000D03*
X34058000Y-30077000D03*
X35058000Y-30077000D03*
X36058000Y-30077000D03*
X37058000Y-30077000D03*
X37058000Y-29077000D03*
X36058000Y-29077000D03*
X37058000Y-31077000D03*
X36058000Y-31077000D03*
X35058000Y-31077000D03*
X34058000Y-31077000D03*
X34058000Y-32077000D03*
X35058000Y-32077000D03*
X36058000Y-32077000D03*
X37058000Y-32077000D03*
X39243000Y-42545000D03*
X43561000Y-45339000D03*
D12*
X33786343Y-26330000D03*
X46355000Y-35601802D03*
X35122473Y-26883644D03*
X36304548Y-34275238D03*
X39150000Y-30350000D03*
X35750000Y-26925000D03*
X45250000Y-35050000D03*
X39150000Y-31950000D03*
X47142400Y-34112200D03*
X34600000Y-26900000D03*
X45250000Y-35881010D03*
X38250000Y-33808003D03*
X40640000Y-42545000D03*
X37024461Y-34313574D03*
X41750000Y-38408003D03*
X49149000Y-33528000D03*
X41750000Y-37900000D03*
X49149000Y-34036000D03*
X39293791Y-38223925D03*
X49149000Y-33020000D03*
X46736000Y-30480000D03*
X47743990Y-30480000D03*
X38250000Y-33300000D03*
X46609000Y-32512000D03*
X45250000Y-31800000D03*
X36950000Y-25800000D03*
X45250000Y-33350000D03*
X36950000Y-26350000D03*
X45250000Y-34000000D03*
X36950000Y-26900000D03*
X48244579Y-34305421D03*
X48768000Y-34417000D03*
X46593586Y-31892414D03*
X37550000Y-35300000D03*
X38950000Y-34950000D03*
X38745276Y-33695009D03*
X33847519Y-34298872D03*
D13*
X43561000Y-42545000D03*
D12*
X47879000Y-31877000D03*
X47498000Y-36703000D03*
X51308000Y-30607000D03*
X33792247Y-26880000D03*
X46126432Y-30567256D03*
X45250000Y-34508003D03*
X39150000Y-31150000D03*
X32550000Y-26900000D03*
X39300000Y-32700000D03*
D13*
X39243000Y-45339000D03*
D14*
X47142400Y-34112200D02*
X47142400Y-34163000D01*
X47142400Y-34163000D02*
X48234600Y-35255200D01*
X48234600Y-35255200D02*
X48234600Y-39497000D01*
X48234600Y-39497000D02*
X47548800Y-40182800D01*
X47548800Y-40182800D02*
X47548800Y-41821400D01*
X47548800Y-41821400D02*
X47625000Y-41897600D01*
X34600000Y-26900000D02*
X35006001Y-27306001D01*
X45718999Y-27306001D02*
X46975001Y-26049999D01*
X35006001Y-27306001D02*
X45718999Y-27306001D01*
X46975001Y-26049999D02*
X47625000Y-25400000D01*
X46609000Y-32512000D02*
X46609000Y-34188400D01*
X47929800Y-35509200D02*
X47929800Y-39370000D01*
X47929800Y-39370000D02*
X46736000Y-40563800D01*
X46609000Y-34188400D02*
X47929800Y-35509200D01*
X46736000Y-40563800D02*
X46736000Y-43177150D01*
X46736000Y-43177150D02*
X46831250Y-43272400D01*
X46037500Y-44647200D02*
X45948600Y-44558300D01*
X47100000Y-35158376D02*
X46228009Y-34286385D01*
X45948600Y-44558300D02*
X45948600Y-40843200D01*
X46228009Y-32778009D02*
X45250000Y-31800000D01*
X45948600Y-40843200D02*
X47100000Y-39691800D01*
X47100000Y-39691800D02*
X47100000Y-35158376D01*
X46228009Y-34286385D02*
X46228009Y-32778009D01*
X45243750Y-46022000D02*
X45186600Y-45964850D01*
X45186600Y-45964850D02*
X45186600Y-41122600D01*
X45186600Y-41122600D02*
X46800000Y-39509200D01*
X46800000Y-39509200D02*
X46800000Y-35250000D01*
X46800000Y-35250000D02*
X45950000Y-34400000D01*
X45950000Y-34400000D02*
X45950000Y-34050000D01*
X45950000Y-34050000D02*
X45857552Y-33957552D01*
X45857552Y-33957552D02*
X45250000Y-33350000D01*
X45650000Y-34459224D02*
X45650000Y-34112632D01*
X45650000Y-34112632D02*
X45537368Y-34000000D01*
X45537368Y-34000000D02*
X45250000Y-34000000D01*
X45950000Y-39825800D02*
X45950000Y-34759224D01*
X45950000Y-34759224D02*
X45650000Y-34459224D01*
X45669200Y-40106600D02*
X45950000Y-39825800D01*
X44450000Y-47396800D02*
X44415949Y-47362749D01*
X44415949Y-47362749D02*
X44415949Y-44814251D01*
X44846405Y-40929395D02*
X45669200Y-40106600D01*
X44415949Y-44814251D02*
X44846405Y-44383795D01*
X44846405Y-44383795D02*
X44846405Y-40929395D01*
X45669200Y-34131832D02*
X45537368Y-34000000D01*
D15*
X41021000Y-25654000D02*
X41275000Y-25400000D01*
D16*
X43561000Y-42545000D02*
X43561000Y-39071934D01*
X43561000Y-39071934D02*
X40339066Y-35850000D01*
X40339066Y-35850000D02*
X39050000Y-35850000D01*
X39050000Y-35850000D02*
X38450000Y-35250000D01*
X38450000Y-35250000D02*
X38450000Y-34450000D01*
X38450000Y-34450000D02*
X38745276Y-34154724D01*
X38745276Y-34154724D02*
X38745276Y-33695009D01*
D14*
X45250000Y-34508003D02*
X45695990Y-34953993D01*
X45695990Y-34953993D02*
X45695990Y-39720586D01*
X45695990Y-39720586D02*
X44551600Y-40864976D01*
X44551600Y-40864976D02*
X44551600Y-42849800D01*
X42951400Y-44450000D02*
X42951400Y-48066750D01*
X44551600Y-42849800D02*
X42951400Y-44450000D01*
X42951400Y-48066750D02*
X43656250Y-48771600D01*
X45361456Y-34619459D02*
X45250000Y-34508003D01*
X43535600Y-48650950D02*
X43656250Y-48771600D01*
D16*
X39243000Y-45339000D02*
X39243000Y-44979790D01*
X39243000Y-44979790D02*
X36900000Y-42636790D01*
X32595250Y-26900000D02*
X32550000Y-26900000D01*
X36900000Y-42636790D02*
X36900000Y-35509756D01*
X36900000Y-35509756D02*
X34575399Y-33185155D01*
X34575399Y-33185155D02*
X34575399Y-28880149D01*
X34575399Y-28880149D02*
X32595250Y-26900000D01*
X39243000Y-45339000D02*
X39243000Y-43880787D01*
X38050000Y-42687787D02*
X39243000Y-43880787D01*
X38050000Y-35160934D02*
X38050000Y-42687787D01*
X37750000Y-33160934D02*
X37750000Y-34860934D01*
X37750000Y-34860934D02*
X38050000Y-35160934D01*
X39300000Y-32700000D02*
X38210934Y-32700000D01*
X38210934Y-32700000D02*
X37750000Y-33160934D01*
M02*
