G04 #@! TF.FileFunction,Paste,Top*
%FSLAX46Y46*%
G04 Gerber Fmt 4.6, Leading zero omitted, Abs format (unit mm)*
G04 Created by KiCad (PCBNEW 0.201509030901+6151~29~ubuntu15.04.1-product) date Thu 19 Nov 2015 01:23:01 PM EST*
%MOMM*%
G01*
G04 APERTURE LIST*
%ADD10C,0.100000*%
%ADD11R,0.350000X0.200000*%
%ADD12R,0.700000X1.200000*%
%ADD13R,0.300000X0.350000*%
%ADD14R,0.750000X0.800000*%
%ADD15R,1.000000X1.000000*%
%ADD16R,0.254000X0.900000*%
%ADD17R,0.900000X0.254000*%
%ADD18R,0.350000X0.300000*%
%ADD19R,0.280000X0.430000*%
%ADD20R,0.430000X0.280000*%
%ADD21R,0.800000X0.300000*%
%ADD22R,0.300000X0.300000*%
%ADD23R,0.300000X0.500000*%
%ADD24R,0.500000X0.300000*%
%ADD25R,0.850000X0.600000*%
%ADD26R,0.950000X0.850000*%
%ADD27R,0.850000X0.950000*%
G04 APERTURE END LIST*
D10*
D11*
X41275000Y-38850000D03*
X39825000Y-37650000D03*
X39825000Y-38050000D03*
X39825000Y-38450000D03*
X39825000Y-38850000D03*
X41275000Y-38450000D03*
X41275000Y-38050000D03*
X41275000Y-37650000D03*
D12*
X40550000Y-38250000D03*
D13*
X31575000Y-34000000D03*
X32125000Y-34000000D03*
D14*
X31600000Y-26700000D03*
X31600000Y-28200000D03*
D15*
X34058000Y-32077000D03*
X35058000Y-32077000D03*
X36058000Y-32077000D03*
X37058000Y-32077000D03*
X37058000Y-31077000D03*
X36058000Y-31077000D03*
X35058000Y-31077000D03*
X34058000Y-31077000D03*
X34058000Y-30077000D03*
X35058000Y-30077000D03*
X36058000Y-30077000D03*
X37058000Y-30077000D03*
X37058000Y-29077000D03*
X36058000Y-29077000D03*
X35058000Y-29077000D03*
D16*
X37758000Y-27627000D03*
D17*
X38508000Y-32777000D03*
D16*
X33358000Y-33527000D03*
D17*
X32608000Y-28377000D03*
X32608000Y-28777000D03*
X32608000Y-29177000D03*
X32608000Y-29577000D03*
X32608000Y-29977000D03*
X32608000Y-30377000D03*
X32608000Y-30777000D03*
X32608000Y-31177000D03*
X32608000Y-31577000D03*
X32608000Y-31977000D03*
X32608000Y-32377000D03*
X32608000Y-32777000D03*
D16*
X33758000Y-33527000D03*
X34158000Y-33527000D03*
X34558000Y-33527000D03*
X34958000Y-33527000D03*
X35358000Y-33527000D03*
X35758000Y-33527000D03*
X36158000Y-33527000D03*
X36558000Y-33527000D03*
X36958000Y-33527000D03*
X37358000Y-33527000D03*
X37758000Y-33527000D03*
D17*
X38508000Y-32377000D03*
X38508000Y-31977000D03*
X38508000Y-31577000D03*
X38508000Y-31177000D03*
X38508000Y-30777000D03*
X38508000Y-30377000D03*
X38508000Y-29977000D03*
X38508000Y-29577000D03*
X38508000Y-29177000D03*
X38508000Y-28777000D03*
X38508000Y-28377000D03*
D16*
X37358000Y-27627000D03*
X36958000Y-27627000D03*
X36558000Y-27627000D03*
X36158000Y-27627000D03*
X35758000Y-27627000D03*
X35358000Y-27627000D03*
X34958000Y-27627000D03*
X34558000Y-27627000D03*
X34158000Y-27627000D03*
X33758000Y-27627000D03*
X33358000Y-27627000D03*
D15*
X34058000Y-29077000D03*
D13*
X38975000Y-34700000D03*
X39525000Y-34700000D03*
D18*
X32900000Y-26875000D03*
X32900000Y-26325000D03*
D13*
X38975000Y-35700000D03*
X39525000Y-35700000D03*
D18*
X38050000Y-35475000D03*
X38050000Y-36025000D03*
X35100000Y-26925000D03*
X35100000Y-26375000D03*
X37550000Y-35475000D03*
X37550000Y-36025000D03*
D13*
X38975000Y-34200000D03*
X39525000Y-34200000D03*
D18*
X48615600Y-35666000D03*
X48615600Y-36216000D03*
X47853600Y-35666000D03*
X47853600Y-36216000D03*
X49377600Y-35666000D03*
X49377600Y-36216000D03*
D13*
X33625000Y-34500000D03*
X33075000Y-34500000D03*
X38975000Y-33200000D03*
X39525000Y-33200000D03*
D18*
X34115000Y-26880000D03*
X34115000Y-26330000D03*
X30950000Y-29875000D03*
X30950000Y-29325000D03*
X47218600Y-28960400D03*
X47218600Y-29510400D03*
X46456600Y-28960400D03*
X46456600Y-29510400D03*
D13*
X38975000Y-33700000D03*
X39525000Y-33700000D03*
X31625000Y-31500000D03*
X31075000Y-31500000D03*
X38975000Y-35200000D03*
X39525000Y-35200000D03*
X31625000Y-32000000D03*
X31075000Y-32000000D03*
D14*
X43561000Y-43192000D03*
X43561000Y-44692000D03*
D18*
X37050000Y-35475000D03*
X37050000Y-36025000D03*
X35750000Y-26925000D03*
X35750000Y-26375000D03*
X48768000Y-29993000D03*
X48768000Y-29443000D03*
X48768000Y-28427000D03*
X48768000Y-28977000D03*
X33480000Y-26880000D03*
X33480000Y-26330000D03*
X30450000Y-29875000D03*
X30450000Y-29325000D03*
D13*
X31625000Y-32500000D03*
X31075000Y-32500000D03*
X30425000Y-31000000D03*
X29875000Y-31000000D03*
X29975000Y-29050000D03*
X29425000Y-29050000D03*
D14*
X39243000Y-44692000D03*
X39243000Y-43192000D03*
D13*
X30425000Y-30500000D03*
X29875000Y-30500000D03*
X31625000Y-33000000D03*
X31075000Y-33000000D03*
D18*
X28200000Y-27175000D03*
X28200000Y-27725000D03*
D19*
X51055000Y-30734000D03*
X50545000Y-30734000D03*
X51055000Y-29972000D03*
X50545000Y-29972000D03*
X31605000Y-31000000D03*
X31095000Y-31000000D03*
X32105000Y-33500000D03*
X31595000Y-33500000D03*
D20*
X31450000Y-29855000D03*
X31450000Y-29345000D03*
D21*
X34250000Y-35850000D03*
X35550000Y-37150000D03*
X35550000Y-36500000D03*
X35550000Y-35850000D03*
X34250000Y-36500000D03*
X34250000Y-37150000D03*
D22*
X49726600Y-34545400D03*
X46226600Y-35045400D03*
X45726600Y-31545400D03*
X49226600Y-31045400D03*
D23*
X48726600Y-31145400D03*
X48226600Y-31145400D03*
X47726600Y-31145400D03*
X47226600Y-31145400D03*
X46726600Y-31145400D03*
D22*
X46226600Y-31045400D03*
D24*
X45826600Y-32045400D03*
X45826600Y-32545400D03*
X45826600Y-33045400D03*
X45826600Y-33545400D03*
X45826600Y-34045400D03*
D22*
X45726600Y-34545400D03*
D23*
X46726600Y-34945400D03*
X47226600Y-34945400D03*
X47726600Y-34945400D03*
X48226600Y-34945400D03*
X48726600Y-34945400D03*
D22*
X49226600Y-35045400D03*
D24*
X49626600Y-34045400D03*
X49626600Y-33545400D03*
X49626600Y-33045400D03*
X49626600Y-32545400D03*
X49626600Y-32045400D03*
D22*
X49726600Y-31545400D03*
D25*
X42077000Y-43392000D03*
X40727000Y-43392000D03*
X40727000Y-44492000D03*
X42077000Y-44492000D03*
D26*
X51245600Y-27136400D03*
X49795600Y-27136400D03*
X49795600Y-28286400D03*
X51245600Y-28286400D03*
D27*
X30325000Y-28175000D03*
X30325000Y-26725000D03*
X29175000Y-26725000D03*
X29175000Y-28175000D03*
D18*
X35050000Y-35125000D03*
X35050000Y-34575000D03*
X34450000Y-35125000D03*
X34450000Y-34575000D03*
M02*
