G04 #@! TF.FileFunction,Legend,Top*
%FSLAX46Y46*%
G04 Gerber Fmt 4.6, Leading zero omitted, Abs format (unit mm)*
G04 Created by KiCad (PCBNEW 0.201509030901+6151~29~ubuntu15.04.1-product) date Thu 19 Nov 2015 01:23:01 PM EST*
%MOMM*%
G01*
G04 APERTURE LIST*
%ADD10C,0.100000*%
%ADD11C,0.200000*%
%ADD12C,0.150000*%
%ADD13C,1.300000*%
%ADD14R,0.350000X0.200000*%
%ADD15R,0.700000X1.200000*%
%ADD16R,0.300000X0.350000*%
%ADD17R,0.750000X0.800000*%
%ADD18R,1.000000X1.000000*%
%ADD19R,0.254000X0.900000*%
%ADD20R,0.900000X0.254000*%
%ADD21R,0.350000X0.300000*%
%ADD22R,0.280000X0.430000*%
%ADD23R,0.430000X0.280000*%
%ADD24R,0.800000X0.300000*%
%ADD25R,0.300000X0.300000*%
%ADD26R,0.300000X0.500000*%
%ADD27R,0.500000X0.300000*%
%ADD28R,0.850000X0.600000*%
%ADD29R,0.950000X0.850000*%
%ADD30R,0.850000X0.950000*%
G04 APERTURE END LIST*
D10*
D11*
X42386429Y-28233714D02*
X42624524Y-28900381D01*
X42862620Y-28233714D01*
X43767382Y-28900381D02*
X43195953Y-28900381D01*
X43481667Y-28900381D02*
X43481667Y-27900381D01*
X43386429Y-28043238D01*
X43291191Y-28138476D01*
X43195953Y-28186095D01*
X44195953Y-28805143D02*
X44243572Y-28852762D01*
X44195953Y-28900381D01*
X44148334Y-28852762D01*
X44195953Y-28805143D01*
X44195953Y-28900381D01*
X44624524Y-27995619D02*
X44672143Y-27948000D01*
X44767381Y-27900381D01*
X45005477Y-27900381D01*
X45100715Y-27948000D01*
X45148334Y-27995619D01*
X45195953Y-28090857D01*
X45195953Y-28186095D01*
X45148334Y-28328952D01*
X44576905Y-28900381D01*
X45195953Y-28900381D01*
X43648524Y-38536571D02*
X43791381Y-38584190D01*
X43839000Y-38631810D01*
X43886619Y-38727048D01*
X43886619Y-38869905D01*
X43839000Y-38965143D01*
X43791381Y-39012762D01*
X43696143Y-39060381D01*
X43315190Y-39060381D01*
X43315190Y-38060381D01*
X43648524Y-38060381D01*
X43743762Y-38108000D01*
X43791381Y-38155619D01*
X43839000Y-38250857D01*
X43839000Y-38346095D01*
X43791381Y-38441333D01*
X43743762Y-38488952D01*
X43648524Y-38536571D01*
X43315190Y-38536571D01*
X44696143Y-39012762D02*
X44600905Y-39060381D01*
X44410428Y-39060381D01*
X44315190Y-39012762D01*
X44267571Y-38917524D01*
X44267571Y-38536571D01*
X44315190Y-38441333D01*
X44410428Y-38393714D01*
X44600905Y-38393714D01*
X44696143Y-38441333D01*
X44743762Y-38536571D01*
X44743762Y-38631810D01*
X44267571Y-38727048D01*
X45172333Y-38393714D02*
X45172333Y-39060381D01*
X45172333Y-38488952D02*
X45219952Y-38441333D01*
X45315190Y-38393714D01*
X45458048Y-38393714D01*
X45553286Y-38441333D01*
X45600905Y-38536571D01*
X45600905Y-39060381D01*
X46839000Y-39060381D02*
X46839000Y-38060381D01*
X47410429Y-39060381D02*
X46981857Y-38488952D01*
X47410429Y-38060381D02*
X46839000Y-38631810D01*
X41688095Y-26503381D02*
X42259524Y-26503381D01*
X41973809Y-27503381D02*
X41973809Y-26503381D01*
X42592857Y-27503381D02*
X42592857Y-26836714D01*
X42592857Y-27027190D02*
X42640476Y-26931952D01*
X42688095Y-26884333D01*
X42783333Y-26836714D01*
X42878572Y-26836714D01*
X43211905Y-27503381D02*
X43211905Y-26836714D01*
X43211905Y-26503381D02*
X43164286Y-26551000D01*
X43211905Y-26598619D01*
X43259524Y-26551000D01*
X43211905Y-26503381D01*
X43211905Y-26598619D01*
X43688095Y-27503381D02*
X43688095Y-26503381D01*
X44069048Y-26503381D01*
X44164286Y-26551000D01*
X44211905Y-26598619D01*
X44259524Y-26693857D01*
X44259524Y-26836714D01*
X44211905Y-26931952D01*
X44164286Y-26979571D01*
X44069048Y-27027190D01*
X43688095Y-27027190D01*
X44830952Y-27503381D02*
X44735714Y-27455762D01*
X44688095Y-27408143D01*
X44640476Y-27312905D01*
X44640476Y-27027190D01*
X44688095Y-26931952D01*
X44735714Y-26884333D01*
X44830952Y-26836714D01*
X44973810Y-26836714D01*
X45069048Y-26884333D01*
X45116667Y-26931952D01*
X45164286Y-27027190D01*
X45164286Y-27312905D01*
X45116667Y-27408143D01*
X45069048Y-27455762D01*
X44973810Y-27503381D01*
X44830952Y-27503381D01*
X45592857Y-27503381D02*
X45592857Y-26836714D01*
X45592857Y-26503381D02*
X45545238Y-26551000D01*
X45592857Y-26598619D01*
X45640476Y-26551000D01*
X45592857Y-26503381D01*
X45592857Y-26598619D01*
X46069047Y-26836714D02*
X46069047Y-27503381D01*
X46069047Y-26931952D02*
X46116666Y-26884333D01*
X46211904Y-26836714D01*
X46354762Y-26836714D01*
X46450000Y-26884333D01*
X46497619Y-26979571D01*
X46497619Y-27503381D01*
X46830952Y-26836714D02*
X47211904Y-26836714D01*
X46973809Y-26503381D02*
X46973809Y-27360524D01*
X47021428Y-27455762D01*
X47116666Y-27503381D01*
X47211904Y-27503381D01*
D12*
X25400000Y-25400000D02*
X57150000Y-25400000D01*
X57150000Y-25400000D02*
X41275000Y-52896000D01*
X41275000Y-52896000D02*
X25400000Y-25400000D01*
X39915000Y-37107000D02*
G75*
G03X39915000Y-37107000I-127000J0D01*
G01*
X41300000Y-39000000D02*
X39800000Y-39000000D01*
X39800000Y-37500000D02*
X41300000Y-37500000D01*
X31975000Y-34400000D02*
X31725000Y-34400000D01*
X31725000Y-33600000D02*
X31975000Y-33600000D01*
X32200000Y-27100000D02*
X32200000Y-27800000D01*
X31000000Y-27800000D02*
X31000000Y-27100000D01*
X32129000Y-27783000D02*
G75*
G03X32129000Y-27783000I-127000J0D01*
G01*
X33058000Y-33577000D02*
X32558000Y-33577000D01*
X32558000Y-33577000D02*
X32558000Y-33077000D01*
X38558000Y-33077000D02*
X38558000Y-33577000D01*
X38558000Y-33577000D02*
X38058000Y-33577000D01*
X38058000Y-27577000D02*
X38558000Y-27577000D01*
X38558000Y-27577000D02*
X38558000Y-28077000D01*
X32558000Y-28077000D02*
X32558000Y-27577000D01*
X32558000Y-27577000D02*
X33058000Y-27577000D01*
X39375000Y-35100000D02*
X39125000Y-35100000D01*
X39125000Y-34300000D02*
X39375000Y-34300000D01*
X33300000Y-26475000D02*
X33300000Y-26725000D01*
X32500000Y-26725000D02*
X32500000Y-26475000D01*
X39375000Y-36100000D02*
X39125000Y-36100000D01*
X39125000Y-35300000D02*
X39375000Y-35300000D01*
X37650000Y-35875000D02*
X37650000Y-35625000D01*
X38450000Y-35625000D02*
X38450000Y-35875000D01*
X35500000Y-26525000D02*
X35500000Y-26775000D01*
X34700000Y-26775000D02*
X34700000Y-26525000D01*
X37150000Y-35875000D02*
X37150000Y-35625000D01*
X37950000Y-35625000D02*
X37950000Y-35875000D01*
X39375000Y-34600000D02*
X39125000Y-34600000D01*
X39125000Y-33800000D02*
X39375000Y-33800000D01*
X48215600Y-36066000D02*
X48215600Y-35816000D01*
X49015600Y-35816000D02*
X49015600Y-36066000D01*
X47453600Y-36066000D02*
X47453600Y-35816000D01*
X48253600Y-35816000D02*
X48253600Y-36066000D01*
X48977600Y-36066000D02*
X48977600Y-35816000D01*
X49777600Y-35816000D02*
X49777600Y-36066000D01*
X33225000Y-34100000D02*
X33475000Y-34100000D01*
X33475000Y-34900000D02*
X33225000Y-34900000D01*
X39375000Y-33600000D02*
X39125000Y-33600000D01*
X39125000Y-32800000D02*
X39375000Y-32800000D01*
X34515000Y-26480000D02*
X34515000Y-26730000D01*
X33715000Y-26730000D02*
X33715000Y-26480000D01*
X31350000Y-29475000D02*
X31350000Y-29725000D01*
X30550000Y-29725000D02*
X30550000Y-29475000D01*
X46818600Y-29360400D02*
X46818600Y-29110400D01*
X47618600Y-29110400D02*
X47618600Y-29360400D01*
X46056600Y-29360400D02*
X46056600Y-29110400D01*
X46856600Y-29110400D02*
X46856600Y-29360400D01*
X39375000Y-34100000D02*
X39125000Y-34100000D01*
X39125000Y-33300000D02*
X39375000Y-33300000D01*
X31225000Y-31100000D02*
X31475000Y-31100000D01*
X31475000Y-31900000D02*
X31225000Y-31900000D01*
X39375000Y-35600000D02*
X39125000Y-35600000D01*
X39125000Y-34800000D02*
X39375000Y-34800000D01*
X31225000Y-31600000D02*
X31475000Y-31600000D01*
X31475000Y-32400000D02*
X31225000Y-32400000D01*
X44161000Y-43592000D02*
X44161000Y-44292000D01*
X42961000Y-44292000D02*
X42961000Y-43592000D01*
X36650000Y-35875000D02*
X36650000Y-35625000D01*
X37450000Y-35625000D02*
X37450000Y-35875000D01*
X36150000Y-26525000D02*
X36150000Y-26775000D01*
X35350000Y-26775000D02*
X35350000Y-26525000D01*
X49168000Y-29593000D02*
X49168000Y-29843000D01*
X48368000Y-29843000D02*
X48368000Y-29593000D01*
X48368000Y-28827000D02*
X48368000Y-28577000D01*
X49168000Y-28577000D02*
X49168000Y-28827000D01*
X33880000Y-26480000D02*
X33880000Y-26730000D01*
X33080000Y-26730000D02*
X33080000Y-26480000D01*
X30850000Y-29475000D02*
X30850000Y-29725000D01*
X30050000Y-29725000D02*
X30050000Y-29475000D01*
X31225000Y-32100000D02*
X31475000Y-32100000D01*
X31475000Y-32900000D02*
X31225000Y-32900000D01*
X30025000Y-30600000D02*
X30275000Y-30600000D01*
X30275000Y-31400000D02*
X30025000Y-31400000D01*
X29575000Y-28650000D02*
X29825000Y-28650000D01*
X29825000Y-29450000D02*
X29575000Y-29450000D01*
X38643000Y-44292000D02*
X38643000Y-43592000D01*
X39843000Y-43592000D02*
X39843000Y-44292000D01*
X30025000Y-30100000D02*
X30275000Y-30100000D01*
X30275000Y-30900000D02*
X30025000Y-30900000D01*
X31225000Y-32600000D02*
X31475000Y-32600000D01*
X31475000Y-33400000D02*
X31225000Y-33400000D01*
X27800000Y-27575000D02*
X27800000Y-27325000D01*
X28600000Y-27325000D02*
X28600000Y-27575000D01*
X50685000Y-31174000D02*
X50915000Y-31174000D01*
X50915000Y-30294000D02*
X50685000Y-30294000D01*
X50685000Y-30412000D02*
X50915000Y-30412000D01*
X50915000Y-29532000D02*
X50685000Y-29532000D01*
X31235000Y-31440000D02*
X31465000Y-31440000D01*
X31465000Y-30560000D02*
X31235000Y-30560000D01*
X31735000Y-33940000D02*
X31965000Y-33940000D01*
X31965000Y-33060000D02*
X31735000Y-33060000D01*
X31010000Y-29485000D02*
X31010000Y-29715000D01*
X31890000Y-29715000D02*
X31890000Y-29485000D01*
X36424000Y-37643000D02*
G75*
G03X36424000Y-37643000I-127000J0D01*
G01*
X49758600Y-30505400D02*
G75*
G03X49758600Y-30505400I-127000J0D01*
G01*
X49726600Y-31345400D02*
X49726600Y-31045400D01*
X49726600Y-31045400D02*
X49426600Y-31045400D01*
X49426600Y-35045400D02*
X49726600Y-35045400D01*
X49726600Y-35045400D02*
X49726600Y-34745400D01*
X45726600Y-34745400D02*
X45726600Y-35045400D01*
X45726600Y-35045400D02*
X46026600Y-35045400D01*
X46026600Y-31045400D02*
X45726600Y-31045400D01*
X45726600Y-31045400D02*
X45726600Y-31345400D01*
X42418000Y-42418000D02*
G75*
G03X42418000Y-42418000I-127000J0D01*
G01*
X42545000Y-42926000D02*
X40132000Y-42926000D01*
X40132000Y-42926000D02*
X40132000Y-44958000D01*
X40132000Y-44958000D02*
X42672000Y-44958000D01*
X42672000Y-44958000D02*
X42672000Y-42926000D01*
X42672000Y-42926000D02*
X42545000Y-42926000D01*
X51520600Y-26411400D02*
G75*
G03X51520600Y-26411400I-100000J0D01*
G01*
X49520600Y-27811400D02*
X49520600Y-27611400D01*
X51520600Y-27611400D02*
X51520600Y-27811400D01*
X50320600Y-28511400D02*
X50720600Y-28511400D01*
X50720600Y-26911400D02*
X50320600Y-26911400D01*
X31150000Y-28350000D02*
G75*
G03X31150000Y-28350000I-100000J0D01*
G01*
X29650000Y-26450000D02*
X29850000Y-26450000D01*
X29850000Y-28450000D02*
X29650000Y-28450000D01*
X28950000Y-27250000D02*
X28950000Y-27650000D01*
X30550000Y-27650000D02*
X30550000Y-27250000D01*
D10*
G36*
X42857615Y-48103693D02*
X42271461Y-48103693D01*
X41685307Y-48103693D01*
X41685307Y-47800847D01*
X41685307Y-47498000D01*
X41802538Y-47498000D01*
X41919769Y-47498000D01*
X41919769Y-47204923D01*
X41919332Y-47102930D01*
X41918128Y-47016374D01*
X41916318Y-46952010D01*
X41914061Y-46916591D01*
X41912815Y-46911847D01*
X41899327Y-46926524D01*
X41864970Y-46967840D01*
X41813037Y-47031723D01*
X41746820Y-47114099D01*
X41669613Y-47210896D01*
X41596507Y-47303110D01*
X41497920Y-47426957D01*
X41420348Y-47522268D01*
X41361339Y-47591750D01*
X41318437Y-47638110D01*
X41289188Y-47664054D01*
X41271136Y-47672289D01*
X41264271Y-47669456D01*
X41245902Y-47647318D01*
X41207233Y-47599230D01*
X41152083Y-47529992D01*
X41084268Y-47444402D01*
X41007604Y-47347258D01*
X40972465Y-47302616D01*
X40892862Y-47201648D01*
X40820159Y-47109890D01*
X40758240Y-47032209D01*
X40710991Y-46973471D01*
X40682299Y-46938545D01*
X40676655Y-46932083D01*
X40666305Y-46925987D01*
X40658941Y-46936423D01*
X40654086Y-46968163D01*
X40651261Y-47025977D01*
X40649990Y-47114637D01*
X40649769Y-47200737D01*
X40649769Y-47498000D01*
X40767000Y-47498000D01*
X40884230Y-47498000D01*
X40884230Y-47800847D01*
X40884230Y-48103693D01*
X40298077Y-48103693D01*
X39711923Y-48103693D01*
X39711923Y-47800847D01*
X39711923Y-47498000D01*
X39838923Y-47498000D01*
X39965923Y-47498000D01*
X39965923Y-46999770D01*
X39965923Y-46501539D01*
X39838923Y-46501539D01*
X39711923Y-46501539D01*
X39711923Y-46188923D01*
X39711923Y-45876308D01*
X40153468Y-45876308D01*
X40595014Y-45876308D01*
X40646814Y-45933155D01*
X40672948Y-45964694D01*
X40718321Y-46022513D01*
X40778979Y-46101444D01*
X40850970Y-46196319D01*
X40930337Y-46301969D01*
X40981923Y-46371164D01*
X41061384Y-46477033D01*
X41133843Y-46571602D01*
X41195887Y-46650577D01*
X41244106Y-46709665D01*
X41275089Y-46744573D01*
X41284769Y-46752325D01*
X41301383Y-46737274D01*
X41337665Y-46694982D01*
X41390204Y-46629743D01*
X41455588Y-46545850D01*
X41530407Y-46447596D01*
X41587615Y-46371164D01*
X41669585Y-46261404D01*
X41746649Y-46159190D01*
X41814852Y-46069690D01*
X41870241Y-45998073D01*
X41908860Y-45949506D01*
X41922723Y-45933155D01*
X41974524Y-45876308D01*
X42416069Y-45876308D01*
X42857615Y-45876308D01*
X42857615Y-46188923D01*
X42857615Y-46501539D01*
X42730615Y-46501539D01*
X42603615Y-46501539D01*
X42603615Y-46999770D01*
X42603615Y-47498000D01*
X42730615Y-47498000D01*
X42857615Y-47498000D01*
X42857615Y-47800847D01*
X42857615Y-48103693D01*
X42857615Y-48103693D01*
X42857615Y-48103693D01*
G37*
X42857615Y-48103693D02*
X42271461Y-48103693D01*
X41685307Y-48103693D01*
X41685307Y-47800847D01*
X41685307Y-47498000D01*
X41802538Y-47498000D01*
X41919769Y-47498000D01*
X41919769Y-47204923D01*
X41919332Y-47102930D01*
X41918128Y-47016374D01*
X41916318Y-46952010D01*
X41914061Y-46916591D01*
X41912815Y-46911847D01*
X41899327Y-46926524D01*
X41864970Y-46967840D01*
X41813037Y-47031723D01*
X41746820Y-47114099D01*
X41669613Y-47210896D01*
X41596507Y-47303110D01*
X41497920Y-47426957D01*
X41420348Y-47522268D01*
X41361339Y-47591750D01*
X41318437Y-47638110D01*
X41289188Y-47664054D01*
X41271136Y-47672289D01*
X41264271Y-47669456D01*
X41245902Y-47647318D01*
X41207233Y-47599230D01*
X41152083Y-47529992D01*
X41084268Y-47444402D01*
X41007604Y-47347258D01*
X40972465Y-47302616D01*
X40892862Y-47201648D01*
X40820159Y-47109890D01*
X40758240Y-47032209D01*
X40710991Y-46973471D01*
X40682299Y-46938545D01*
X40676655Y-46932083D01*
X40666305Y-46925987D01*
X40658941Y-46936423D01*
X40654086Y-46968163D01*
X40651261Y-47025977D01*
X40649990Y-47114637D01*
X40649769Y-47200737D01*
X40649769Y-47498000D01*
X40767000Y-47498000D01*
X40884230Y-47498000D01*
X40884230Y-47800847D01*
X40884230Y-48103693D01*
X40298077Y-48103693D01*
X39711923Y-48103693D01*
X39711923Y-47800847D01*
X39711923Y-47498000D01*
X39838923Y-47498000D01*
X39965923Y-47498000D01*
X39965923Y-46999770D01*
X39965923Y-46501539D01*
X39838923Y-46501539D01*
X39711923Y-46501539D01*
X39711923Y-46188923D01*
X39711923Y-45876308D01*
X40153468Y-45876308D01*
X40595014Y-45876308D01*
X40646814Y-45933155D01*
X40672948Y-45964694D01*
X40718321Y-46022513D01*
X40778979Y-46101444D01*
X40850970Y-46196319D01*
X40930337Y-46301969D01*
X40981923Y-46371164D01*
X41061384Y-46477033D01*
X41133843Y-46571602D01*
X41195887Y-46650577D01*
X41244106Y-46709665D01*
X41275089Y-46744573D01*
X41284769Y-46752325D01*
X41301383Y-46737274D01*
X41337665Y-46694982D01*
X41390204Y-46629743D01*
X41455588Y-46545850D01*
X41530407Y-46447596D01*
X41587615Y-46371164D01*
X41669585Y-46261404D01*
X41746649Y-46159190D01*
X41814852Y-46069690D01*
X41870241Y-45998073D01*
X41908860Y-45949506D01*
X41922723Y-45933155D01*
X41974524Y-45876308D01*
X42416069Y-45876308D01*
X42857615Y-45876308D01*
X42857615Y-46188923D01*
X42857615Y-46501539D01*
X42730615Y-46501539D01*
X42603615Y-46501539D01*
X42603615Y-46999770D01*
X42603615Y-47498000D01*
X42730615Y-47498000D01*
X42857615Y-47498000D01*
X42857615Y-47800847D01*
X42857615Y-48103693D01*
X42857615Y-48103693D01*
D12*
X35450000Y-34725000D02*
X35450000Y-34975000D01*
X34650000Y-34975000D02*
X34650000Y-34725000D01*
X34850000Y-34725000D02*
X34850000Y-34975000D01*
X34050000Y-34975000D02*
X34050000Y-34725000D01*
%LPC*%
D13*
X26987500Y-28149600D03*
X27781250Y-29524400D03*
X28575000Y-30899200D03*
X29368750Y-32274000D03*
X30162500Y-33648800D03*
X30956250Y-35023600D03*
X31750000Y-36398400D03*
X32543750Y-37773200D03*
X33337500Y-39148000D03*
X34131250Y-40522800D03*
X34925000Y-41897600D03*
X35718750Y-43272400D03*
X36512500Y-44647200D03*
X37306250Y-46022000D03*
X38100000Y-47396800D03*
X38893750Y-48771600D03*
X39687500Y-50146400D03*
X42862500Y-50146400D03*
X43656250Y-48771600D03*
X44450000Y-47396800D03*
X45243750Y-46022000D03*
X46037500Y-44647200D03*
X46831250Y-43272400D03*
X47625000Y-41897600D03*
X48418750Y-40522800D03*
X49212500Y-39148000D03*
X50006250Y-37773200D03*
X50800000Y-36398400D03*
X51593750Y-35023600D03*
X52387500Y-33648800D03*
X53181250Y-32274000D03*
X53975000Y-30899200D03*
X54768750Y-29524400D03*
X55562500Y-28149600D03*
X53975000Y-25400000D03*
X52387500Y-25400000D03*
X50800000Y-25400000D03*
X49212500Y-25400000D03*
X47625000Y-25400000D03*
X42862500Y-25400000D03*
X41275000Y-25400000D03*
X39687500Y-25400000D03*
X34925000Y-25400000D03*
X33337500Y-25400000D03*
X31750000Y-25400000D03*
X30162500Y-25400000D03*
X28575000Y-25400000D03*
D14*
X41275000Y-38850000D03*
X39825000Y-37650000D03*
X39825000Y-38050000D03*
X39825000Y-38450000D03*
X39825000Y-38850000D03*
X41275000Y-38450000D03*
X41275000Y-38050000D03*
X41275000Y-37650000D03*
D15*
X40550000Y-38250000D03*
D16*
X31575000Y-34000000D03*
X32125000Y-34000000D03*
D17*
X31600000Y-26700000D03*
X31600000Y-28200000D03*
D18*
X34058000Y-32077000D03*
X35058000Y-32077000D03*
X36058000Y-32077000D03*
X37058000Y-32077000D03*
X37058000Y-31077000D03*
X36058000Y-31077000D03*
X35058000Y-31077000D03*
X34058000Y-31077000D03*
X34058000Y-30077000D03*
X35058000Y-30077000D03*
X36058000Y-30077000D03*
X37058000Y-30077000D03*
X37058000Y-29077000D03*
X36058000Y-29077000D03*
X35058000Y-29077000D03*
D19*
X37758000Y-27627000D03*
D20*
X38508000Y-32777000D03*
D19*
X33358000Y-33527000D03*
D20*
X32608000Y-28377000D03*
X32608000Y-28777000D03*
X32608000Y-29177000D03*
X32608000Y-29577000D03*
X32608000Y-29977000D03*
X32608000Y-30377000D03*
X32608000Y-30777000D03*
X32608000Y-31177000D03*
X32608000Y-31577000D03*
X32608000Y-31977000D03*
X32608000Y-32377000D03*
X32608000Y-32777000D03*
D19*
X33758000Y-33527000D03*
X34158000Y-33527000D03*
X34558000Y-33527000D03*
X34958000Y-33527000D03*
X35358000Y-33527000D03*
X35758000Y-33527000D03*
X36158000Y-33527000D03*
X36558000Y-33527000D03*
X36958000Y-33527000D03*
X37358000Y-33527000D03*
X37758000Y-33527000D03*
D20*
X38508000Y-32377000D03*
X38508000Y-31977000D03*
X38508000Y-31577000D03*
X38508000Y-31177000D03*
X38508000Y-30777000D03*
X38508000Y-30377000D03*
X38508000Y-29977000D03*
X38508000Y-29577000D03*
X38508000Y-29177000D03*
X38508000Y-28777000D03*
X38508000Y-28377000D03*
D19*
X37358000Y-27627000D03*
X36958000Y-27627000D03*
X36558000Y-27627000D03*
X36158000Y-27627000D03*
X35758000Y-27627000D03*
X35358000Y-27627000D03*
X34958000Y-27627000D03*
X34558000Y-27627000D03*
X34158000Y-27627000D03*
X33758000Y-27627000D03*
X33358000Y-27627000D03*
D18*
X34058000Y-29077000D03*
D16*
X38975000Y-34700000D03*
X39525000Y-34700000D03*
D21*
X32900000Y-26875000D03*
X32900000Y-26325000D03*
D16*
X38975000Y-35700000D03*
X39525000Y-35700000D03*
D21*
X38050000Y-35475000D03*
X38050000Y-36025000D03*
X35100000Y-26925000D03*
X35100000Y-26375000D03*
X37550000Y-35475000D03*
X37550000Y-36025000D03*
D16*
X38975000Y-34200000D03*
X39525000Y-34200000D03*
D21*
X48615600Y-35666000D03*
X48615600Y-36216000D03*
X47853600Y-35666000D03*
X47853600Y-36216000D03*
X49377600Y-35666000D03*
X49377600Y-36216000D03*
D16*
X33625000Y-34500000D03*
X33075000Y-34500000D03*
X38975000Y-33200000D03*
X39525000Y-33200000D03*
D21*
X34115000Y-26880000D03*
X34115000Y-26330000D03*
X30950000Y-29875000D03*
X30950000Y-29325000D03*
X47218600Y-28960400D03*
X47218600Y-29510400D03*
X46456600Y-28960400D03*
X46456600Y-29510400D03*
D16*
X38975000Y-33700000D03*
X39525000Y-33700000D03*
X31625000Y-31500000D03*
X31075000Y-31500000D03*
X38975000Y-35200000D03*
X39525000Y-35200000D03*
X31625000Y-32000000D03*
X31075000Y-32000000D03*
D17*
X43561000Y-43192000D03*
X43561000Y-44692000D03*
D21*
X37050000Y-35475000D03*
X37050000Y-36025000D03*
X35750000Y-26925000D03*
X35750000Y-26375000D03*
X48768000Y-29993000D03*
X48768000Y-29443000D03*
X48768000Y-28427000D03*
X48768000Y-28977000D03*
X33480000Y-26880000D03*
X33480000Y-26330000D03*
X30450000Y-29875000D03*
X30450000Y-29325000D03*
D16*
X31625000Y-32500000D03*
X31075000Y-32500000D03*
X30425000Y-31000000D03*
X29875000Y-31000000D03*
X29975000Y-29050000D03*
X29425000Y-29050000D03*
D17*
X39243000Y-44692000D03*
X39243000Y-43192000D03*
D16*
X30425000Y-30500000D03*
X29875000Y-30500000D03*
X31625000Y-33000000D03*
X31075000Y-33000000D03*
D21*
X28200000Y-27175000D03*
X28200000Y-27725000D03*
D22*
X51055000Y-30734000D03*
X50545000Y-30734000D03*
X51055000Y-29972000D03*
X50545000Y-29972000D03*
X31605000Y-31000000D03*
X31095000Y-31000000D03*
X32105000Y-33500000D03*
X31595000Y-33500000D03*
D23*
X31450000Y-29855000D03*
X31450000Y-29345000D03*
D24*
X34250000Y-35850000D03*
X35550000Y-37150000D03*
X35550000Y-36500000D03*
X35550000Y-35850000D03*
X34250000Y-36500000D03*
X34250000Y-37150000D03*
D25*
X49726600Y-34545400D03*
X46226600Y-35045400D03*
X45726600Y-31545400D03*
X49226600Y-31045400D03*
D26*
X48726600Y-31145400D03*
X48226600Y-31145400D03*
X47726600Y-31145400D03*
X47226600Y-31145400D03*
X46726600Y-31145400D03*
D25*
X46226600Y-31045400D03*
D27*
X45826600Y-32045400D03*
X45826600Y-32545400D03*
X45826600Y-33045400D03*
X45826600Y-33545400D03*
X45826600Y-34045400D03*
D25*
X45726600Y-34545400D03*
D26*
X46726600Y-34945400D03*
X47226600Y-34945400D03*
X47726600Y-34945400D03*
X48226600Y-34945400D03*
X48726600Y-34945400D03*
D25*
X49226600Y-35045400D03*
D27*
X49626600Y-34045400D03*
X49626600Y-33545400D03*
X49626600Y-33045400D03*
X49626600Y-32545400D03*
X49626600Y-32045400D03*
D25*
X49726600Y-31545400D03*
D28*
X42077000Y-43392000D03*
X40727000Y-43392000D03*
X40727000Y-44492000D03*
X42077000Y-44492000D03*
D29*
X51245600Y-27136400D03*
X49795600Y-27136400D03*
X49795600Y-28286400D03*
X51245600Y-28286400D03*
D30*
X30325000Y-28175000D03*
X30325000Y-26725000D03*
X29175000Y-26725000D03*
X29175000Y-28175000D03*
D21*
X35050000Y-35125000D03*
X35050000Y-34575000D03*
X34450000Y-35125000D03*
X34450000Y-34575000D03*
M02*
