G04 #@! TF.FileFunction,Legend,Bot*
%FSLAX46Y46*%
G04 Gerber Fmt 4.6, Leading zero omitted, Abs format (unit mm)*
G04 Created by KiCad (PCBNEW 0.201509030901+6151~29~ubuntu15.04.1-product) date Thu 19 Nov 2015 01:23:01 PM EST*
%MOMM*%
G01*
G04 APERTURE LIST*
%ADD10C,0.100000*%
%ADD11C,1.300000*%
G04 APERTURE END LIST*
D10*
%LPC*%
D11*
X26987500Y-28149600D03*
X27781250Y-29524400D03*
X28575000Y-30899200D03*
X29368750Y-32274000D03*
X30162500Y-33648800D03*
X30956250Y-35023600D03*
X31750000Y-36398400D03*
X32543750Y-37773200D03*
X33337500Y-39148000D03*
X34131250Y-40522800D03*
X34925000Y-41897600D03*
X35718750Y-43272400D03*
X36512500Y-44647200D03*
X37306250Y-46022000D03*
X38100000Y-47396800D03*
X38893750Y-48771600D03*
X39687500Y-50146400D03*
X42862500Y-50146400D03*
X43656250Y-48771600D03*
X44450000Y-47396800D03*
X45243750Y-46022000D03*
X46037500Y-44647200D03*
X46831250Y-43272400D03*
X47625000Y-41897600D03*
X48418750Y-40522800D03*
X49212500Y-39148000D03*
X50006250Y-37773200D03*
X50800000Y-36398400D03*
X51593750Y-35023600D03*
X52387500Y-33648800D03*
X53181250Y-32274000D03*
X53975000Y-30899200D03*
X54768750Y-29524400D03*
X55562500Y-28149600D03*
X53975000Y-25400000D03*
X52387500Y-25400000D03*
X50800000Y-25400000D03*
X49212500Y-25400000D03*
X47625000Y-25400000D03*
X42862500Y-25400000D03*
X41275000Y-25400000D03*
X39687500Y-25400000D03*
X34925000Y-25400000D03*
X33337500Y-25400000D03*
X31750000Y-25400000D03*
X30162500Y-25400000D03*
X28575000Y-25400000D03*
M02*
