G04 #@! TF.FileFunction,Copper,L2,Inr,Signal*
%FSLAX46Y46*%
G04 Gerber Fmt 4.6, Leading zero omitted, Abs format (unit mm)*
G04 Created by KiCad (PCBNEW 0.201509030901+6151~29~ubuntu15.04.1-product) date Thu 19 Nov 2015 01:23:01 PM EST*
%MOMM*%
G01*
G04 APERTURE LIST*
%ADD10C,0.100000*%
%ADD11C,1.300000*%
%ADD12C,0.406400*%
%ADD13C,0.508000*%
%ADD14C,0.254000*%
%ADD15C,0.152400*%
G04 APERTURE END LIST*
D10*
D11*
X26987500Y-28149600D03*
X27781250Y-29524400D03*
X28575000Y-30899200D03*
X29368750Y-32274000D03*
X30162500Y-33648800D03*
X30956250Y-35023600D03*
X31750000Y-36398400D03*
X32543750Y-37773200D03*
X33337500Y-39148000D03*
X34131250Y-40522800D03*
X34925000Y-41897600D03*
X35718750Y-43272400D03*
X36512500Y-44647200D03*
X37306250Y-46022000D03*
X38100000Y-47396800D03*
X38893750Y-48771600D03*
X39687500Y-50146400D03*
X42862500Y-50146400D03*
X43656250Y-48771600D03*
X44450000Y-47396800D03*
X45243750Y-46022000D03*
X46037500Y-44647200D03*
X46831250Y-43272400D03*
X47625000Y-41897600D03*
X48418750Y-40522800D03*
X49212500Y-39148000D03*
X50006250Y-37773200D03*
X50800000Y-36398400D03*
X51593750Y-35023600D03*
X52387500Y-33648800D03*
X53181250Y-32274000D03*
X53975000Y-30899200D03*
X54768750Y-29524400D03*
X55562500Y-28149600D03*
X53975000Y-25400000D03*
X52387500Y-25400000D03*
X50800000Y-25400000D03*
X49212500Y-25400000D03*
X47625000Y-25400000D03*
X42862500Y-25400000D03*
X41275000Y-25400000D03*
X39687500Y-25400000D03*
X34925000Y-25400000D03*
X33337500Y-25400000D03*
X31750000Y-25400000D03*
X30162500Y-25400000D03*
X28575000Y-25400000D03*
D12*
X30000000Y-29550000D03*
X29100000Y-29050000D03*
X39850000Y-35200000D03*
X39850000Y-33700000D03*
X35750000Y-26000000D03*
X37550000Y-36250000D03*
X36150000Y-36500000D03*
X33650000Y-36500000D03*
X40550000Y-38850000D03*
X40550000Y-37650000D03*
X40550000Y-38250000D03*
X31600000Y-27700000D03*
X30716989Y-26200000D03*
X28200000Y-28050000D03*
X29850000Y-30150000D03*
X30850000Y-31750000D03*
X30850000Y-32750000D03*
X32100000Y-34400000D03*
X32750000Y-34500000D03*
X51562000Y-30007010D03*
X46841386Y-28960400D03*
X52197000Y-28321000D03*
X48895000Y-27686010D03*
X49022000Y-29041790D03*
X48641000Y-36703000D03*
D13*
X35058000Y-29077000D03*
X34058000Y-29077000D03*
X34058000Y-30077000D03*
X35058000Y-30077000D03*
X36058000Y-30077000D03*
X37058000Y-30077000D03*
X37058000Y-29077000D03*
X36058000Y-29077000D03*
X37058000Y-31077000D03*
X36058000Y-31077000D03*
X35058000Y-31077000D03*
X34058000Y-31077000D03*
X34058000Y-32077000D03*
X35058000Y-32077000D03*
X36058000Y-32077000D03*
X37058000Y-32077000D03*
X39243000Y-42545000D03*
X43561000Y-45339000D03*
D12*
X33786343Y-26330000D03*
X46355000Y-35601802D03*
X35122473Y-26883644D03*
X36304548Y-34275238D03*
X39150000Y-30350000D03*
X35750000Y-26925000D03*
X45250000Y-35050000D03*
X39150000Y-31950000D03*
X47142400Y-34112200D03*
X34600000Y-26900000D03*
X45250000Y-35881010D03*
X38250000Y-33808003D03*
X40640000Y-42545000D03*
X37024461Y-34313574D03*
X41750000Y-38408003D03*
X49149000Y-33528000D03*
X41750000Y-37900000D03*
X49149000Y-34036000D03*
X39293791Y-38223925D03*
X49149000Y-33020000D03*
X46736000Y-30480000D03*
X47743990Y-30480000D03*
X38250000Y-33300000D03*
X46609000Y-32512000D03*
X45250000Y-31800000D03*
X36950000Y-25800000D03*
X45250000Y-33350000D03*
X36950000Y-26350000D03*
X45250000Y-34000000D03*
X36950000Y-26900000D03*
X48244579Y-34305421D03*
X48768000Y-34417000D03*
X46593586Y-31892414D03*
X37550000Y-35300000D03*
X38950000Y-34950000D03*
X38745276Y-33695009D03*
X33847519Y-34298872D03*
D13*
X43561000Y-42545000D03*
D12*
X47879000Y-31877000D03*
X47498000Y-36703000D03*
X51308000Y-30607000D03*
X33792247Y-26880000D03*
X46126432Y-30567256D03*
X45250000Y-34508003D03*
X39150000Y-31150000D03*
X32550000Y-26900000D03*
X39300000Y-32700000D03*
D13*
X39243000Y-45339000D03*
D14*
X42862500Y-25400000D02*
X42862500Y-26319238D01*
X42862500Y-26319238D02*
X42993262Y-26450000D01*
X39687500Y-26112500D02*
X39500000Y-26300000D01*
X39687500Y-25400000D02*
X39687500Y-26112500D01*
D15*
X50006250Y-37773200D02*
X50006250Y-37687250D01*
X50006250Y-37687250D02*
X49530000Y-37211000D01*
X34131250Y-40522800D02*
X34534200Y-40522800D01*
X34534200Y-40522800D02*
X34798000Y-40259000D01*
X32543750Y-37773200D02*
X32711800Y-37773200D01*
X32711800Y-37773200D02*
X33147000Y-37338000D01*
X42862500Y-50146400D02*
X42399400Y-50146400D01*
G36*
X27829725Y-25897037D02*
X28076663Y-26144407D01*
X28399469Y-26278447D01*
X28748998Y-26278752D01*
X29072037Y-26145275D01*
X29319407Y-25898337D01*
X29368706Y-25779612D01*
X29417225Y-25897037D01*
X29664163Y-26144407D01*
X29986969Y-26278447D01*
X30336498Y-26278752D01*
X30659537Y-26145275D01*
X30906907Y-25898337D01*
X30956206Y-25779612D01*
X31004725Y-25897037D01*
X31251663Y-26144407D01*
X31574469Y-26278447D01*
X31923998Y-26278752D01*
X32247037Y-26145275D01*
X32494407Y-25898337D01*
X32543706Y-25779612D01*
X32592225Y-25897037D01*
X32839163Y-26144407D01*
X33161969Y-26278447D01*
X33511498Y-26278752D01*
X33834537Y-26145275D01*
X34081907Y-25898337D01*
X34131206Y-25779612D01*
X34179725Y-25897037D01*
X34426663Y-26144407D01*
X34749469Y-26278447D01*
X35098998Y-26278752D01*
X35422037Y-26145275D01*
X35669407Y-25898337D01*
X35760649Y-25678600D01*
X36532864Y-25678600D01*
X36518276Y-25713733D01*
X36518126Y-25885513D01*
X36583725Y-26044275D01*
X36614344Y-26074947D01*
X36584152Y-26105086D01*
X36518276Y-26263733D01*
X36518126Y-26435513D01*
X36583725Y-26594275D01*
X36614344Y-26624947D01*
X36584152Y-26655086D01*
X36518276Y-26813733D01*
X36518126Y-26985513D01*
X36583725Y-27144275D01*
X36705086Y-27265848D01*
X36863733Y-27331724D01*
X37035513Y-27331874D01*
X37194275Y-27266275D01*
X37315848Y-27144914D01*
X37381724Y-26986267D01*
X37381874Y-26814487D01*
X37316275Y-26655725D01*
X37285656Y-26625053D01*
X37315848Y-26594914D01*
X37381724Y-26436267D01*
X37381874Y-26264487D01*
X37316275Y-26105725D01*
X37285656Y-26075053D01*
X37315848Y-26044914D01*
X37381724Y-25886267D01*
X37381874Y-25714487D01*
X37367046Y-25678600D01*
X40439469Y-25678600D01*
X40529725Y-25897037D01*
X40776663Y-26144407D01*
X41099469Y-26278447D01*
X41448998Y-26278752D01*
X41772037Y-26145275D01*
X42019407Y-25898337D01*
X42110649Y-25678600D01*
X46789469Y-25678600D01*
X46879725Y-25897037D01*
X47126663Y-26144407D01*
X47449469Y-26278447D01*
X47798998Y-26278752D01*
X48122037Y-26145275D01*
X48369407Y-25898337D01*
X48418706Y-25779612D01*
X48467225Y-25897037D01*
X48714163Y-26144407D01*
X49036969Y-26278447D01*
X49386498Y-26278752D01*
X49709537Y-26145275D01*
X49956907Y-25898337D01*
X50006206Y-25779612D01*
X50054725Y-25897037D01*
X50301663Y-26144407D01*
X50624469Y-26278447D01*
X50973998Y-26278752D01*
X51297037Y-26145275D01*
X51544407Y-25898337D01*
X51593706Y-25779612D01*
X51642225Y-25897037D01*
X51889163Y-26144407D01*
X52211969Y-26278447D01*
X52561498Y-26278752D01*
X52884537Y-26145275D01*
X53131907Y-25898337D01*
X53181206Y-25779612D01*
X53229725Y-25897037D01*
X53476663Y-26144407D01*
X53799469Y-26278447D01*
X54148998Y-26278752D01*
X54472037Y-26145275D01*
X54719407Y-25898337D01*
X54810649Y-25678600D01*
X56667444Y-25678600D01*
X55746036Y-27274477D01*
X55738031Y-27271153D01*
X55388502Y-27270848D01*
X55065463Y-27404325D01*
X54818093Y-27651263D01*
X54684053Y-27974069D01*
X54683748Y-28323598D01*
X54816896Y-28645842D01*
X54594752Y-28645648D01*
X54271713Y-28779125D01*
X54024343Y-29026063D01*
X53890303Y-29348869D01*
X53889998Y-29698398D01*
X54023146Y-30020642D01*
X53801002Y-30020448D01*
X53477963Y-30153925D01*
X53230593Y-30400863D01*
X53096553Y-30723669D01*
X53096248Y-31073198D01*
X53229396Y-31395442D01*
X53007252Y-31395248D01*
X52684213Y-31528725D01*
X52436843Y-31775663D01*
X52302803Y-32098469D01*
X52302498Y-32447998D01*
X52435646Y-32770242D01*
X52213502Y-32770048D01*
X51890463Y-32903525D01*
X51643093Y-33150463D01*
X51509053Y-33473269D01*
X51508748Y-33822798D01*
X51641896Y-34145042D01*
X51419752Y-34144848D01*
X51096713Y-34278325D01*
X50849343Y-34525263D01*
X50715303Y-34848069D01*
X50714998Y-35197598D01*
X50848146Y-35519842D01*
X50626002Y-35519648D01*
X50302963Y-35653125D01*
X50055593Y-35900063D01*
X49921553Y-36222869D01*
X49921248Y-36572398D01*
X50054725Y-36895437D01*
X50141197Y-36982060D01*
X49395943Y-38272838D01*
X49388031Y-38269553D01*
X49038502Y-38269248D01*
X48715463Y-38402725D01*
X48468093Y-38649663D01*
X48334053Y-38972469D01*
X48333748Y-39321998D01*
X48467225Y-39645037D01*
X48553678Y-39731641D01*
X47808420Y-41022429D01*
X47800531Y-41019153D01*
X47451002Y-41018848D01*
X47127963Y-41152325D01*
X46880593Y-41399263D01*
X46746553Y-41722069D01*
X46746248Y-42071598D01*
X46879396Y-42393842D01*
X46657252Y-42393648D01*
X46334213Y-42527125D01*
X46086843Y-42774063D01*
X45952803Y-43096869D01*
X45952498Y-43446398D01*
X46085646Y-43768642D01*
X45863502Y-43768448D01*
X45540463Y-43901925D01*
X45293093Y-44148863D01*
X45159053Y-44471669D01*
X45158748Y-44821198D01*
X45291896Y-45143442D01*
X45069752Y-45143248D01*
X44746713Y-45276725D01*
X44499343Y-45523663D01*
X44365303Y-45846469D01*
X44364998Y-46195998D01*
X44498146Y-46518242D01*
X44276002Y-46518048D01*
X43952963Y-46651525D01*
X43705593Y-46898463D01*
X43571553Y-47221269D01*
X43571248Y-47570798D01*
X43704396Y-47893042D01*
X43482252Y-47892848D01*
X43159213Y-48026325D01*
X42911843Y-48273263D01*
X42777803Y-48596069D01*
X42777498Y-48945598D01*
X42910975Y-49268637D01*
X42997364Y-49355177D01*
X41275000Y-52338312D01*
X40346443Y-50730052D01*
X40431907Y-50644737D01*
X40565947Y-50321931D01*
X40566252Y-49972402D01*
X40432775Y-49649363D01*
X40185837Y-49401993D01*
X39863031Y-49267953D01*
X39639062Y-49267758D01*
X39772197Y-48947131D01*
X39772502Y-48597602D01*
X39639025Y-48274563D01*
X39392087Y-48027193D01*
X39069281Y-47893153D01*
X38845312Y-47892958D01*
X38978447Y-47572331D01*
X38978752Y-47222802D01*
X38845275Y-46899763D01*
X38598337Y-46652393D01*
X38275531Y-46518353D01*
X38051562Y-46518158D01*
X38184697Y-46197531D01*
X38185002Y-45848002D01*
X38051525Y-45524963D01*
X37961294Y-45434574D01*
X38760316Y-45434574D01*
X38833633Y-45612014D01*
X38969272Y-45747890D01*
X39146584Y-45821516D01*
X39338574Y-45821684D01*
X39516014Y-45748367D01*
X39651890Y-45612728D01*
X39725516Y-45435416D01*
X39725684Y-45243426D01*
X39652367Y-45065986D01*
X39516728Y-44930110D01*
X39339416Y-44856484D01*
X39147426Y-44856316D01*
X38969986Y-44929633D01*
X38834110Y-45065272D01*
X38760484Y-45242584D01*
X38760316Y-45434574D01*
X37961294Y-45434574D01*
X37804587Y-45277593D01*
X37481781Y-45143553D01*
X37257812Y-45143358D01*
X37390947Y-44822731D01*
X37391252Y-44473202D01*
X37257775Y-44150163D01*
X37010837Y-43902793D01*
X36688031Y-43768753D01*
X36464062Y-43768558D01*
X36597197Y-43447931D01*
X36597502Y-43098402D01*
X36464025Y-42775363D01*
X36319428Y-42630513D01*
X40208126Y-42630513D01*
X40273725Y-42789275D01*
X40395086Y-42910848D01*
X40553733Y-42976724D01*
X40725513Y-42976874D01*
X40884275Y-42911275D01*
X41005848Y-42789914D01*
X41067859Y-42640574D01*
X43078316Y-42640574D01*
X43151633Y-42818014D01*
X43287272Y-42953890D01*
X43464584Y-43027516D01*
X43656574Y-43027684D01*
X43834014Y-42954367D01*
X43969890Y-42818728D01*
X44043516Y-42641416D01*
X44043684Y-42449426D01*
X43970367Y-42271986D01*
X43834728Y-42136110D01*
X43657416Y-42062484D01*
X43465426Y-42062316D01*
X43287986Y-42135633D01*
X43152110Y-42271272D01*
X43078484Y-42448584D01*
X43078316Y-42640574D01*
X41067859Y-42640574D01*
X41071724Y-42631267D01*
X41071874Y-42459487D01*
X41006275Y-42300725D01*
X40884914Y-42179152D01*
X40726267Y-42113276D01*
X40554487Y-42113126D01*
X40395725Y-42178725D01*
X40274152Y-42300086D01*
X40208276Y-42458733D01*
X40208126Y-42630513D01*
X36319428Y-42630513D01*
X36217087Y-42527993D01*
X35894281Y-42393953D01*
X35670312Y-42393758D01*
X35803447Y-42073131D01*
X35803752Y-41723602D01*
X35670275Y-41400563D01*
X35423337Y-41153193D01*
X35100531Y-41019153D01*
X34751002Y-41018848D01*
X34741726Y-41022681D01*
X33996370Y-39731725D01*
X34081907Y-39646337D01*
X34215947Y-39323531D01*
X34216252Y-38974002D01*
X34082775Y-38650963D01*
X33835837Y-38403593D01*
X33609086Y-38309438D01*
X38861917Y-38309438D01*
X38927516Y-38468200D01*
X39048877Y-38589773D01*
X39207524Y-38655649D01*
X39379304Y-38655799D01*
X39538066Y-38590200D01*
X39659639Y-38468839D01*
X39725515Y-38310192D01*
X39725665Y-38138412D01*
X39662489Y-37985513D01*
X41318126Y-37985513D01*
X41383725Y-38144275D01*
X41393345Y-38153912D01*
X41384152Y-38163089D01*
X41318276Y-38321736D01*
X41318126Y-38493516D01*
X41383725Y-38652278D01*
X41505086Y-38773851D01*
X41663733Y-38839727D01*
X41835513Y-38839877D01*
X41994275Y-38774278D01*
X42115848Y-38652917D01*
X42181724Y-38494270D01*
X42181874Y-38322490D01*
X42116275Y-38163728D01*
X42106655Y-38154091D01*
X42115848Y-38144914D01*
X42181724Y-37986267D01*
X42181874Y-37814487D01*
X42116275Y-37655725D01*
X41994914Y-37534152D01*
X41836267Y-37468276D01*
X41664487Y-37468126D01*
X41505725Y-37533725D01*
X41384152Y-37655086D01*
X41318276Y-37813733D01*
X41318126Y-37985513D01*
X39662489Y-37985513D01*
X39660066Y-37979650D01*
X39538705Y-37858077D01*
X39380058Y-37792201D01*
X39208278Y-37792051D01*
X39049516Y-37857650D01*
X38927943Y-37979011D01*
X38862067Y-38137658D01*
X38861917Y-38309438D01*
X33609086Y-38309438D01*
X33513031Y-38269553D01*
X33163502Y-38269248D01*
X33154202Y-38273091D01*
X32408852Y-36982143D01*
X32494407Y-36896737D01*
X32539345Y-36788513D01*
X47066126Y-36788513D01*
X47131725Y-36947275D01*
X47253086Y-37068848D01*
X47411733Y-37134724D01*
X47583513Y-37134874D01*
X47742275Y-37069275D01*
X47863848Y-36947914D01*
X47929724Y-36789267D01*
X47929874Y-36617487D01*
X47864275Y-36458725D01*
X47742914Y-36337152D01*
X47584267Y-36271276D01*
X47412487Y-36271126D01*
X47253725Y-36336725D01*
X47132152Y-36458086D01*
X47066276Y-36616733D01*
X47066126Y-36788513D01*
X32539345Y-36788513D01*
X32628447Y-36573931D01*
X32628752Y-36224402D01*
X32495275Y-35901363D01*
X32248337Y-35653993D01*
X31925531Y-35519953D01*
X31701562Y-35519758D01*
X31757304Y-35385513D01*
X37118126Y-35385513D01*
X37183725Y-35544275D01*
X37305086Y-35665848D01*
X37463733Y-35731724D01*
X37635513Y-35731874D01*
X37794275Y-35666275D01*
X37915848Y-35544914D01*
X37981724Y-35386267D01*
X37981874Y-35214487D01*
X37916275Y-35055725D01*
X37896099Y-35035513D01*
X38518126Y-35035513D01*
X38583725Y-35194275D01*
X38705086Y-35315848D01*
X38863733Y-35381724D01*
X39035513Y-35381874D01*
X39194275Y-35316275D01*
X39315848Y-35194914D01*
X39381724Y-35036267D01*
X39381874Y-34864487D01*
X39316275Y-34705725D01*
X39194914Y-34584152D01*
X39036267Y-34518276D01*
X38864487Y-34518126D01*
X38705725Y-34583725D01*
X38584152Y-34705086D01*
X38518276Y-34863733D01*
X38518126Y-35035513D01*
X37896099Y-35035513D01*
X37794914Y-34934152D01*
X37636267Y-34868276D01*
X37464487Y-34868126D01*
X37305725Y-34933725D01*
X37184152Y-35055086D01*
X37118276Y-35213733D01*
X37118126Y-35385513D01*
X31757304Y-35385513D01*
X31834697Y-35199131D01*
X31835002Y-34849602D01*
X31701525Y-34526563D01*
X31559596Y-34384385D01*
X33415645Y-34384385D01*
X33481244Y-34543147D01*
X33602605Y-34664720D01*
X33761252Y-34730596D01*
X33933032Y-34730746D01*
X34091794Y-34665147D01*
X34213367Y-34543786D01*
X34279243Y-34385139D01*
X34279264Y-34360751D01*
X35872674Y-34360751D01*
X35938273Y-34519513D01*
X36059634Y-34641086D01*
X36218281Y-34706962D01*
X36390061Y-34707112D01*
X36548823Y-34641513D01*
X36650724Y-34539790D01*
X36658186Y-34557849D01*
X36779547Y-34679422D01*
X36938194Y-34745298D01*
X37109974Y-34745448D01*
X37268736Y-34679849D01*
X37390309Y-34558488D01*
X37456185Y-34399841D01*
X37456335Y-34228061D01*
X37390736Y-34069299D01*
X37269375Y-33947726D01*
X37110728Y-33881850D01*
X36938948Y-33881700D01*
X36780186Y-33947299D01*
X36678285Y-34049022D01*
X36670823Y-34030963D01*
X36549462Y-33909390D01*
X36390815Y-33843514D01*
X36219035Y-33843364D01*
X36060273Y-33908963D01*
X35938700Y-34030324D01*
X35872824Y-34188971D01*
X35872674Y-34360751D01*
X34279264Y-34360751D01*
X34279393Y-34213359D01*
X34213794Y-34054597D01*
X34092433Y-33933024D01*
X33933786Y-33867148D01*
X33762006Y-33866998D01*
X33603244Y-33932597D01*
X33481671Y-34053958D01*
X33415795Y-34212605D01*
X33415645Y-34384385D01*
X31559596Y-34384385D01*
X31454587Y-34279193D01*
X31131781Y-34145153D01*
X30907812Y-34144958D01*
X31040947Y-33824331D01*
X31041252Y-33474802D01*
X31004359Y-33385513D01*
X37818126Y-33385513D01*
X37883725Y-33544275D01*
X37893345Y-33553912D01*
X37884152Y-33563089D01*
X37818276Y-33721736D01*
X37818126Y-33893516D01*
X37883725Y-34052278D01*
X38005086Y-34173851D01*
X38163733Y-34239727D01*
X38335513Y-34239877D01*
X38494275Y-34174278D01*
X38576305Y-34092391D01*
X38659009Y-34126733D01*
X38830789Y-34126883D01*
X38989551Y-34061284D01*
X39111124Y-33939923D01*
X39177000Y-33781276D01*
X39177150Y-33609496D01*
X39111551Y-33450734D01*
X39096357Y-33435513D01*
X44818126Y-33435513D01*
X44883725Y-33594275D01*
X44964344Y-33675034D01*
X44884152Y-33755086D01*
X44818276Y-33913733D01*
X44818126Y-34085513D01*
X44883725Y-34244275D01*
X44893345Y-34253912D01*
X44884152Y-34263089D01*
X44818276Y-34421736D01*
X44818126Y-34593516D01*
X44883725Y-34752278D01*
X44910342Y-34778942D01*
X44884152Y-34805086D01*
X44818276Y-34963733D01*
X44818126Y-35135513D01*
X44883725Y-35294275D01*
X45005086Y-35415848D01*
X45124772Y-35465546D01*
X45005725Y-35514735D01*
X44884152Y-35636096D01*
X44818276Y-35794743D01*
X44818126Y-35966523D01*
X44883725Y-36125285D01*
X45005086Y-36246858D01*
X45163733Y-36312734D01*
X45335513Y-36312884D01*
X45494275Y-36247285D01*
X45615848Y-36125924D01*
X45681724Y-35967277D01*
X45681874Y-35795497D01*
X45616275Y-35636735D01*
X45494914Y-35515162D01*
X45375228Y-35465464D01*
X45494275Y-35416275D01*
X45615848Y-35294914D01*
X45681724Y-35136267D01*
X45681874Y-34964487D01*
X45616275Y-34805725D01*
X45589658Y-34779061D01*
X45615848Y-34752917D01*
X45681724Y-34594270D01*
X45681874Y-34422490D01*
X45616275Y-34263728D01*
X45606655Y-34254091D01*
X45615848Y-34244914D01*
X45635447Y-34197713D01*
X46710526Y-34197713D01*
X46776125Y-34356475D01*
X46897486Y-34478048D01*
X47056133Y-34543924D01*
X47227913Y-34544074D01*
X47386675Y-34478475D01*
X47474368Y-34390934D01*
X47812705Y-34390934D01*
X47878304Y-34549696D01*
X47999665Y-34671269D01*
X48158312Y-34737145D01*
X48330092Y-34737295D01*
X48434533Y-34694141D01*
X48523086Y-34782848D01*
X48681733Y-34848724D01*
X48853513Y-34848874D01*
X49012275Y-34783275D01*
X49133848Y-34661914D01*
X49199724Y-34503267D01*
X49199755Y-34467844D01*
X49234513Y-34467874D01*
X49393275Y-34402275D01*
X49514848Y-34280914D01*
X49580724Y-34122267D01*
X49580874Y-33950487D01*
X49515275Y-33791725D01*
X49505656Y-33782090D01*
X49514848Y-33772914D01*
X49580724Y-33614267D01*
X49580874Y-33442487D01*
X49515275Y-33283725D01*
X49505656Y-33274090D01*
X49514848Y-33264914D01*
X49580724Y-33106267D01*
X49580874Y-32934487D01*
X49515275Y-32775725D01*
X49393914Y-32654152D01*
X49235267Y-32588276D01*
X49063487Y-32588126D01*
X48904725Y-32653725D01*
X48783152Y-32775086D01*
X48717276Y-32933733D01*
X48717126Y-33105513D01*
X48782725Y-33264275D01*
X48792344Y-33273910D01*
X48783152Y-33283086D01*
X48717276Y-33441733D01*
X48717126Y-33613513D01*
X48782725Y-33772275D01*
X48792344Y-33781910D01*
X48783152Y-33791086D01*
X48717276Y-33949733D01*
X48717245Y-33985156D01*
X48682487Y-33985126D01*
X48578046Y-34028280D01*
X48489493Y-33939573D01*
X48330846Y-33873697D01*
X48159066Y-33873547D01*
X48000304Y-33939146D01*
X47878731Y-34060507D01*
X47812855Y-34219154D01*
X47812705Y-34390934D01*
X47474368Y-34390934D01*
X47508248Y-34357114D01*
X47574124Y-34198467D01*
X47574274Y-34026687D01*
X47508675Y-33867925D01*
X47387314Y-33746352D01*
X47228667Y-33680476D01*
X47056887Y-33680326D01*
X46898125Y-33745925D01*
X46776552Y-33867286D01*
X46710676Y-34025933D01*
X46710526Y-34197713D01*
X45635447Y-34197713D01*
X45681724Y-34086267D01*
X45681874Y-33914487D01*
X45616275Y-33755725D01*
X45535656Y-33674966D01*
X45615848Y-33594914D01*
X45681724Y-33436267D01*
X45681874Y-33264487D01*
X45616275Y-33105725D01*
X45494914Y-32984152D01*
X45336267Y-32918276D01*
X45164487Y-32918126D01*
X45005725Y-32983725D01*
X44884152Y-33105086D01*
X44818276Y-33263733D01*
X44818126Y-33435513D01*
X39096357Y-33435513D01*
X38990190Y-33329161D01*
X38831543Y-33263285D01*
X38681832Y-33263154D01*
X38681874Y-33214487D01*
X38616275Y-33055725D01*
X38494914Y-32934152D01*
X38336267Y-32868276D01*
X38164487Y-32868126D01*
X38005725Y-32933725D01*
X37884152Y-33055086D01*
X37818276Y-33213733D01*
X37818126Y-33385513D01*
X31004359Y-33385513D01*
X30907775Y-33151763D01*
X30660837Y-32904393D01*
X30338031Y-32770353D01*
X30114062Y-32770158D01*
X30247197Y-32449531D01*
X30247502Y-32100002D01*
X30114025Y-31776963D01*
X29867087Y-31529593D01*
X29544281Y-31395553D01*
X29320312Y-31395358D01*
X29453447Y-31074731D01*
X29453752Y-30725202D01*
X29334055Y-30435513D01*
X38718126Y-30435513D01*
X38783725Y-30594275D01*
X38905086Y-30715848D01*
X38987339Y-30750003D01*
X38905725Y-30783725D01*
X38784152Y-30905086D01*
X38718276Y-31063733D01*
X38718126Y-31235513D01*
X38783725Y-31394275D01*
X38905086Y-31515848D01*
X38987339Y-31550003D01*
X38905725Y-31583725D01*
X38784152Y-31705086D01*
X38718276Y-31863733D01*
X38718126Y-32035513D01*
X38783725Y-32194275D01*
X38905086Y-32315848D01*
X39024120Y-32365275D01*
X38934152Y-32455086D01*
X38868276Y-32613733D01*
X38868126Y-32785513D01*
X38933725Y-32944275D01*
X39055086Y-33065848D01*
X39213733Y-33131724D01*
X39385513Y-33131874D01*
X39544275Y-33066275D01*
X39665848Y-32944914D01*
X39731724Y-32786267D01*
X39731874Y-32614487D01*
X39666275Y-32455725D01*
X39544914Y-32334152D01*
X39425880Y-32284725D01*
X39515848Y-32194914D01*
X39581724Y-32036267D01*
X39581855Y-31885513D01*
X44818126Y-31885513D01*
X44883725Y-32044275D01*
X45005086Y-32165848D01*
X45163733Y-32231724D01*
X45335513Y-32231874D01*
X45494275Y-32166275D01*
X45615848Y-32044914D01*
X45643663Y-31977927D01*
X46161712Y-31977927D01*
X46227311Y-32136689D01*
X46300416Y-32209922D01*
X46243152Y-32267086D01*
X46177276Y-32425733D01*
X46177126Y-32597513D01*
X46242725Y-32756275D01*
X46364086Y-32877848D01*
X46522733Y-32943724D01*
X46694513Y-32943874D01*
X46853275Y-32878275D01*
X46974848Y-32756914D01*
X47040724Y-32598267D01*
X47040874Y-32426487D01*
X46975275Y-32267725D01*
X46902170Y-32194492D01*
X46959434Y-32137328D01*
X47025310Y-31978681D01*
X47025324Y-31962513D01*
X47447126Y-31962513D01*
X47512725Y-32121275D01*
X47634086Y-32242848D01*
X47792733Y-32308724D01*
X47964513Y-32308874D01*
X48123275Y-32243275D01*
X48244848Y-32121914D01*
X48310724Y-31963267D01*
X48310874Y-31791487D01*
X48245275Y-31632725D01*
X48123914Y-31511152D01*
X47965267Y-31445276D01*
X47793487Y-31445126D01*
X47634725Y-31510725D01*
X47513152Y-31632086D01*
X47447276Y-31790733D01*
X47447126Y-31962513D01*
X47025324Y-31962513D01*
X47025460Y-31806901D01*
X46959861Y-31648139D01*
X46838500Y-31526566D01*
X46679853Y-31460690D01*
X46508073Y-31460540D01*
X46349311Y-31526139D01*
X46227738Y-31647500D01*
X46161862Y-31806147D01*
X46161712Y-31977927D01*
X45643663Y-31977927D01*
X45681724Y-31886267D01*
X45681874Y-31714487D01*
X45616275Y-31555725D01*
X45494914Y-31434152D01*
X45336267Y-31368276D01*
X45164487Y-31368126D01*
X45005725Y-31433725D01*
X44884152Y-31555086D01*
X44818276Y-31713733D01*
X44818126Y-31885513D01*
X39581855Y-31885513D01*
X39581874Y-31864487D01*
X39516275Y-31705725D01*
X39394914Y-31584152D01*
X39312661Y-31549997D01*
X39394275Y-31516275D01*
X39515848Y-31394914D01*
X39581724Y-31236267D01*
X39581874Y-31064487D01*
X39516275Y-30905725D01*
X39394914Y-30784152D01*
X39312661Y-30749997D01*
X39394275Y-30716275D01*
X39457891Y-30652769D01*
X45694558Y-30652769D01*
X45760157Y-30811531D01*
X45881518Y-30933104D01*
X46040165Y-30998980D01*
X46211945Y-30999130D01*
X46370707Y-30933531D01*
X46474843Y-30829577D01*
X46491086Y-30845848D01*
X46649733Y-30911724D01*
X46821513Y-30911874D01*
X46980275Y-30846275D01*
X47101848Y-30724914D01*
X47167724Y-30566267D01*
X47167724Y-30565513D01*
X47312116Y-30565513D01*
X47377715Y-30724275D01*
X47499076Y-30845848D01*
X47657723Y-30911724D01*
X47829503Y-30911874D01*
X47988265Y-30846275D01*
X48109838Y-30724914D01*
X48123292Y-30692513D01*
X50876126Y-30692513D01*
X50941725Y-30851275D01*
X51063086Y-30972848D01*
X51221733Y-31038724D01*
X51393513Y-31038874D01*
X51552275Y-30973275D01*
X51673848Y-30851914D01*
X51739724Y-30693267D01*
X51739874Y-30521487D01*
X51674275Y-30362725D01*
X51552914Y-30241152D01*
X51394267Y-30175276D01*
X51222487Y-30175126D01*
X51063725Y-30240725D01*
X50942152Y-30362086D01*
X50876276Y-30520733D01*
X50876126Y-30692513D01*
X48123292Y-30692513D01*
X48175714Y-30566267D01*
X48175864Y-30394487D01*
X48110265Y-30235725D01*
X47988904Y-30114152D01*
X47830257Y-30048276D01*
X47658477Y-30048126D01*
X47499715Y-30113725D01*
X47378142Y-30235086D01*
X47312266Y-30393733D01*
X47312116Y-30565513D01*
X47167724Y-30565513D01*
X47167874Y-30394487D01*
X47102275Y-30235725D01*
X46980914Y-30114152D01*
X46822267Y-30048276D01*
X46650487Y-30048126D01*
X46491725Y-30113725D01*
X46387589Y-30217679D01*
X46371346Y-30201408D01*
X46212699Y-30135532D01*
X46040919Y-30135382D01*
X45882157Y-30200981D01*
X45760584Y-30322342D01*
X45694708Y-30480989D01*
X45694558Y-30652769D01*
X39457891Y-30652769D01*
X39515848Y-30594914D01*
X39581724Y-30436267D01*
X39581874Y-30264487D01*
X39516275Y-30105725D01*
X39394914Y-29984152D01*
X39236267Y-29918276D01*
X39064487Y-29918126D01*
X38905725Y-29983725D01*
X38784152Y-30105086D01*
X38718276Y-30263733D01*
X38718126Y-30435513D01*
X29334055Y-30435513D01*
X29320275Y-30402163D01*
X29073337Y-30154793D01*
X28750531Y-30020753D01*
X28526562Y-30020558D01*
X28659697Y-29699931D01*
X28660002Y-29350402D01*
X28526525Y-29027363D01*
X28279587Y-28779993D01*
X27956781Y-28645953D01*
X27732812Y-28645758D01*
X27865947Y-28325131D01*
X27866252Y-27975602D01*
X27732775Y-27652563D01*
X27485837Y-27405193D01*
X27163031Y-27271153D01*
X26813502Y-27270848D01*
X26804109Y-27274729D01*
X26637126Y-26985513D01*
X32118126Y-26985513D01*
X32183725Y-27144275D01*
X32305086Y-27265848D01*
X32463733Y-27331724D01*
X32635513Y-27331874D01*
X32794275Y-27266275D01*
X32915848Y-27144914D01*
X32981724Y-26986267D01*
X32981742Y-26965513D01*
X33360373Y-26965513D01*
X33425972Y-27124275D01*
X33547333Y-27245848D01*
X33705980Y-27311724D01*
X33877760Y-27311874D01*
X34036522Y-27246275D01*
X34158095Y-27124914D01*
X34191994Y-27043277D01*
X34233725Y-27144275D01*
X34355086Y-27265848D01*
X34513733Y-27331724D01*
X34685513Y-27331874D01*
X34844275Y-27266275D01*
X34869338Y-27241256D01*
X34877559Y-27249492D01*
X35036206Y-27315368D01*
X35207986Y-27315518D01*
X35366748Y-27249919D01*
X35415573Y-27201179D01*
X35505086Y-27290848D01*
X35663733Y-27356724D01*
X35835513Y-27356874D01*
X35994275Y-27291275D01*
X36115848Y-27169914D01*
X36181724Y-27011267D01*
X36181874Y-26839487D01*
X36116275Y-26680725D01*
X35994914Y-26559152D01*
X35836267Y-26493276D01*
X35664487Y-26493126D01*
X35505725Y-26558725D01*
X35456900Y-26607465D01*
X35367387Y-26517796D01*
X35208740Y-26451920D01*
X35036960Y-26451770D01*
X34878198Y-26517369D01*
X34853135Y-26542388D01*
X34844914Y-26534152D01*
X34686267Y-26468276D01*
X34514487Y-26468126D01*
X34355725Y-26533725D01*
X34234152Y-26655086D01*
X34200253Y-26736723D01*
X34158522Y-26635725D01*
X34037161Y-26514152D01*
X33878514Y-26448276D01*
X33706734Y-26448126D01*
X33547972Y-26513725D01*
X33426399Y-26635086D01*
X33360523Y-26793733D01*
X33360373Y-26965513D01*
X32981742Y-26965513D01*
X32981874Y-26814487D01*
X32916275Y-26655725D01*
X32794914Y-26534152D01*
X32636267Y-26468276D01*
X32464487Y-26468126D01*
X32305725Y-26533725D01*
X32184152Y-26655086D01*
X32118276Y-26813733D01*
X32118126Y-26985513D01*
X26637126Y-26985513D01*
X25882556Y-25678600D01*
X27739469Y-25678600D01*
X27829725Y-25897037D01*
X27829725Y-25897037D01*
G37*
X27829725Y-25897037D02*
X28076663Y-26144407D01*
X28399469Y-26278447D01*
X28748998Y-26278752D01*
X29072037Y-26145275D01*
X29319407Y-25898337D01*
X29368706Y-25779612D01*
X29417225Y-25897037D01*
X29664163Y-26144407D01*
X29986969Y-26278447D01*
X30336498Y-26278752D01*
X30659537Y-26145275D01*
X30906907Y-25898337D01*
X30956206Y-25779612D01*
X31004725Y-25897037D01*
X31251663Y-26144407D01*
X31574469Y-26278447D01*
X31923998Y-26278752D01*
X32247037Y-26145275D01*
X32494407Y-25898337D01*
X32543706Y-25779612D01*
X32592225Y-25897037D01*
X32839163Y-26144407D01*
X33161969Y-26278447D01*
X33511498Y-26278752D01*
X33834537Y-26145275D01*
X34081907Y-25898337D01*
X34131206Y-25779612D01*
X34179725Y-25897037D01*
X34426663Y-26144407D01*
X34749469Y-26278447D01*
X35098998Y-26278752D01*
X35422037Y-26145275D01*
X35669407Y-25898337D01*
X35760649Y-25678600D01*
X36532864Y-25678600D01*
X36518276Y-25713733D01*
X36518126Y-25885513D01*
X36583725Y-26044275D01*
X36614344Y-26074947D01*
X36584152Y-26105086D01*
X36518276Y-26263733D01*
X36518126Y-26435513D01*
X36583725Y-26594275D01*
X36614344Y-26624947D01*
X36584152Y-26655086D01*
X36518276Y-26813733D01*
X36518126Y-26985513D01*
X36583725Y-27144275D01*
X36705086Y-27265848D01*
X36863733Y-27331724D01*
X37035513Y-27331874D01*
X37194275Y-27266275D01*
X37315848Y-27144914D01*
X37381724Y-26986267D01*
X37381874Y-26814487D01*
X37316275Y-26655725D01*
X37285656Y-26625053D01*
X37315848Y-26594914D01*
X37381724Y-26436267D01*
X37381874Y-26264487D01*
X37316275Y-26105725D01*
X37285656Y-26075053D01*
X37315848Y-26044914D01*
X37381724Y-25886267D01*
X37381874Y-25714487D01*
X37367046Y-25678600D01*
X40439469Y-25678600D01*
X40529725Y-25897037D01*
X40776663Y-26144407D01*
X41099469Y-26278447D01*
X41448998Y-26278752D01*
X41772037Y-26145275D01*
X42019407Y-25898337D01*
X42110649Y-25678600D01*
X46789469Y-25678600D01*
X46879725Y-25897037D01*
X47126663Y-26144407D01*
X47449469Y-26278447D01*
X47798998Y-26278752D01*
X48122037Y-26145275D01*
X48369407Y-25898337D01*
X48418706Y-25779612D01*
X48467225Y-25897037D01*
X48714163Y-26144407D01*
X49036969Y-26278447D01*
X49386498Y-26278752D01*
X49709537Y-26145275D01*
X49956907Y-25898337D01*
X50006206Y-25779612D01*
X50054725Y-25897037D01*
X50301663Y-26144407D01*
X50624469Y-26278447D01*
X50973998Y-26278752D01*
X51297037Y-26145275D01*
X51544407Y-25898337D01*
X51593706Y-25779612D01*
X51642225Y-25897037D01*
X51889163Y-26144407D01*
X52211969Y-26278447D01*
X52561498Y-26278752D01*
X52884537Y-26145275D01*
X53131907Y-25898337D01*
X53181206Y-25779612D01*
X53229725Y-25897037D01*
X53476663Y-26144407D01*
X53799469Y-26278447D01*
X54148998Y-26278752D01*
X54472037Y-26145275D01*
X54719407Y-25898337D01*
X54810649Y-25678600D01*
X56667444Y-25678600D01*
X55746036Y-27274477D01*
X55738031Y-27271153D01*
X55388502Y-27270848D01*
X55065463Y-27404325D01*
X54818093Y-27651263D01*
X54684053Y-27974069D01*
X54683748Y-28323598D01*
X54816896Y-28645842D01*
X54594752Y-28645648D01*
X54271713Y-28779125D01*
X54024343Y-29026063D01*
X53890303Y-29348869D01*
X53889998Y-29698398D01*
X54023146Y-30020642D01*
X53801002Y-30020448D01*
X53477963Y-30153925D01*
X53230593Y-30400863D01*
X53096553Y-30723669D01*
X53096248Y-31073198D01*
X53229396Y-31395442D01*
X53007252Y-31395248D01*
X52684213Y-31528725D01*
X52436843Y-31775663D01*
X52302803Y-32098469D01*
X52302498Y-32447998D01*
X52435646Y-32770242D01*
X52213502Y-32770048D01*
X51890463Y-32903525D01*
X51643093Y-33150463D01*
X51509053Y-33473269D01*
X51508748Y-33822798D01*
X51641896Y-34145042D01*
X51419752Y-34144848D01*
X51096713Y-34278325D01*
X50849343Y-34525263D01*
X50715303Y-34848069D01*
X50714998Y-35197598D01*
X50848146Y-35519842D01*
X50626002Y-35519648D01*
X50302963Y-35653125D01*
X50055593Y-35900063D01*
X49921553Y-36222869D01*
X49921248Y-36572398D01*
X50054725Y-36895437D01*
X50141197Y-36982060D01*
X49395943Y-38272838D01*
X49388031Y-38269553D01*
X49038502Y-38269248D01*
X48715463Y-38402725D01*
X48468093Y-38649663D01*
X48334053Y-38972469D01*
X48333748Y-39321998D01*
X48467225Y-39645037D01*
X48553678Y-39731641D01*
X47808420Y-41022429D01*
X47800531Y-41019153D01*
X47451002Y-41018848D01*
X47127963Y-41152325D01*
X46880593Y-41399263D01*
X46746553Y-41722069D01*
X46746248Y-42071598D01*
X46879396Y-42393842D01*
X46657252Y-42393648D01*
X46334213Y-42527125D01*
X46086843Y-42774063D01*
X45952803Y-43096869D01*
X45952498Y-43446398D01*
X46085646Y-43768642D01*
X45863502Y-43768448D01*
X45540463Y-43901925D01*
X45293093Y-44148863D01*
X45159053Y-44471669D01*
X45158748Y-44821198D01*
X45291896Y-45143442D01*
X45069752Y-45143248D01*
X44746713Y-45276725D01*
X44499343Y-45523663D01*
X44365303Y-45846469D01*
X44364998Y-46195998D01*
X44498146Y-46518242D01*
X44276002Y-46518048D01*
X43952963Y-46651525D01*
X43705593Y-46898463D01*
X43571553Y-47221269D01*
X43571248Y-47570798D01*
X43704396Y-47893042D01*
X43482252Y-47892848D01*
X43159213Y-48026325D01*
X42911843Y-48273263D01*
X42777803Y-48596069D01*
X42777498Y-48945598D01*
X42910975Y-49268637D01*
X42997364Y-49355177D01*
X41275000Y-52338312D01*
X40346443Y-50730052D01*
X40431907Y-50644737D01*
X40565947Y-50321931D01*
X40566252Y-49972402D01*
X40432775Y-49649363D01*
X40185837Y-49401993D01*
X39863031Y-49267953D01*
X39639062Y-49267758D01*
X39772197Y-48947131D01*
X39772502Y-48597602D01*
X39639025Y-48274563D01*
X39392087Y-48027193D01*
X39069281Y-47893153D01*
X38845312Y-47892958D01*
X38978447Y-47572331D01*
X38978752Y-47222802D01*
X38845275Y-46899763D01*
X38598337Y-46652393D01*
X38275531Y-46518353D01*
X38051562Y-46518158D01*
X38184697Y-46197531D01*
X38185002Y-45848002D01*
X38051525Y-45524963D01*
X37961294Y-45434574D01*
X38760316Y-45434574D01*
X38833633Y-45612014D01*
X38969272Y-45747890D01*
X39146584Y-45821516D01*
X39338574Y-45821684D01*
X39516014Y-45748367D01*
X39651890Y-45612728D01*
X39725516Y-45435416D01*
X39725684Y-45243426D01*
X39652367Y-45065986D01*
X39516728Y-44930110D01*
X39339416Y-44856484D01*
X39147426Y-44856316D01*
X38969986Y-44929633D01*
X38834110Y-45065272D01*
X38760484Y-45242584D01*
X38760316Y-45434574D01*
X37961294Y-45434574D01*
X37804587Y-45277593D01*
X37481781Y-45143553D01*
X37257812Y-45143358D01*
X37390947Y-44822731D01*
X37391252Y-44473202D01*
X37257775Y-44150163D01*
X37010837Y-43902793D01*
X36688031Y-43768753D01*
X36464062Y-43768558D01*
X36597197Y-43447931D01*
X36597502Y-43098402D01*
X36464025Y-42775363D01*
X36319428Y-42630513D01*
X40208126Y-42630513D01*
X40273725Y-42789275D01*
X40395086Y-42910848D01*
X40553733Y-42976724D01*
X40725513Y-42976874D01*
X40884275Y-42911275D01*
X41005848Y-42789914D01*
X41067859Y-42640574D01*
X43078316Y-42640574D01*
X43151633Y-42818014D01*
X43287272Y-42953890D01*
X43464584Y-43027516D01*
X43656574Y-43027684D01*
X43834014Y-42954367D01*
X43969890Y-42818728D01*
X44043516Y-42641416D01*
X44043684Y-42449426D01*
X43970367Y-42271986D01*
X43834728Y-42136110D01*
X43657416Y-42062484D01*
X43465426Y-42062316D01*
X43287986Y-42135633D01*
X43152110Y-42271272D01*
X43078484Y-42448584D01*
X43078316Y-42640574D01*
X41067859Y-42640574D01*
X41071724Y-42631267D01*
X41071874Y-42459487D01*
X41006275Y-42300725D01*
X40884914Y-42179152D01*
X40726267Y-42113276D01*
X40554487Y-42113126D01*
X40395725Y-42178725D01*
X40274152Y-42300086D01*
X40208276Y-42458733D01*
X40208126Y-42630513D01*
X36319428Y-42630513D01*
X36217087Y-42527993D01*
X35894281Y-42393953D01*
X35670312Y-42393758D01*
X35803447Y-42073131D01*
X35803752Y-41723602D01*
X35670275Y-41400563D01*
X35423337Y-41153193D01*
X35100531Y-41019153D01*
X34751002Y-41018848D01*
X34741726Y-41022681D01*
X33996370Y-39731725D01*
X34081907Y-39646337D01*
X34215947Y-39323531D01*
X34216252Y-38974002D01*
X34082775Y-38650963D01*
X33835837Y-38403593D01*
X33609086Y-38309438D01*
X38861917Y-38309438D01*
X38927516Y-38468200D01*
X39048877Y-38589773D01*
X39207524Y-38655649D01*
X39379304Y-38655799D01*
X39538066Y-38590200D01*
X39659639Y-38468839D01*
X39725515Y-38310192D01*
X39725665Y-38138412D01*
X39662489Y-37985513D01*
X41318126Y-37985513D01*
X41383725Y-38144275D01*
X41393345Y-38153912D01*
X41384152Y-38163089D01*
X41318276Y-38321736D01*
X41318126Y-38493516D01*
X41383725Y-38652278D01*
X41505086Y-38773851D01*
X41663733Y-38839727D01*
X41835513Y-38839877D01*
X41994275Y-38774278D01*
X42115848Y-38652917D01*
X42181724Y-38494270D01*
X42181874Y-38322490D01*
X42116275Y-38163728D01*
X42106655Y-38154091D01*
X42115848Y-38144914D01*
X42181724Y-37986267D01*
X42181874Y-37814487D01*
X42116275Y-37655725D01*
X41994914Y-37534152D01*
X41836267Y-37468276D01*
X41664487Y-37468126D01*
X41505725Y-37533725D01*
X41384152Y-37655086D01*
X41318276Y-37813733D01*
X41318126Y-37985513D01*
X39662489Y-37985513D01*
X39660066Y-37979650D01*
X39538705Y-37858077D01*
X39380058Y-37792201D01*
X39208278Y-37792051D01*
X39049516Y-37857650D01*
X38927943Y-37979011D01*
X38862067Y-38137658D01*
X38861917Y-38309438D01*
X33609086Y-38309438D01*
X33513031Y-38269553D01*
X33163502Y-38269248D01*
X33154202Y-38273091D01*
X32408852Y-36982143D01*
X32494407Y-36896737D01*
X32539345Y-36788513D01*
X47066126Y-36788513D01*
X47131725Y-36947275D01*
X47253086Y-37068848D01*
X47411733Y-37134724D01*
X47583513Y-37134874D01*
X47742275Y-37069275D01*
X47863848Y-36947914D01*
X47929724Y-36789267D01*
X47929874Y-36617487D01*
X47864275Y-36458725D01*
X47742914Y-36337152D01*
X47584267Y-36271276D01*
X47412487Y-36271126D01*
X47253725Y-36336725D01*
X47132152Y-36458086D01*
X47066276Y-36616733D01*
X47066126Y-36788513D01*
X32539345Y-36788513D01*
X32628447Y-36573931D01*
X32628752Y-36224402D01*
X32495275Y-35901363D01*
X32248337Y-35653993D01*
X31925531Y-35519953D01*
X31701562Y-35519758D01*
X31757304Y-35385513D01*
X37118126Y-35385513D01*
X37183725Y-35544275D01*
X37305086Y-35665848D01*
X37463733Y-35731724D01*
X37635513Y-35731874D01*
X37794275Y-35666275D01*
X37915848Y-35544914D01*
X37981724Y-35386267D01*
X37981874Y-35214487D01*
X37916275Y-35055725D01*
X37896099Y-35035513D01*
X38518126Y-35035513D01*
X38583725Y-35194275D01*
X38705086Y-35315848D01*
X38863733Y-35381724D01*
X39035513Y-35381874D01*
X39194275Y-35316275D01*
X39315848Y-35194914D01*
X39381724Y-35036267D01*
X39381874Y-34864487D01*
X39316275Y-34705725D01*
X39194914Y-34584152D01*
X39036267Y-34518276D01*
X38864487Y-34518126D01*
X38705725Y-34583725D01*
X38584152Y-34705086D01*
X38518276Y-34863733D01*
X38518126Y-35035513D01*
X37896099Y-35035513D01*
X37794914Y-34934152D01*
X37636267Y-34868276D01*
X37464487Y-34868126D01*
X37305725Y-34933725D01*
X37184152Y-35055086D01*
X37118276Y-35213733D01*
X37118126Y-35385513D01*
X31757304Y-35385513D01*
X31834697Y-35199131D01*
X31835002Y-34849602D01*
X31701525Y-34526563D01*
X31559596Y-34384385D01*
X33415645Y-34384385D01*
X33481244Y-34543147D01*
X33602605Y-34664720D01*
X33761252Y-34730596D01*
X33933032Y-34730746D01*
X34091794Y-34665147D01*
X34213367Y-34543786D01*
X34279243Y-34385139D01*
X34279264Y-34360751D01*
X35872674Y-34360751D01*
X35938273Y-34519513D01*
X36059634Y-34641086D01*
X36218281Y-34706962D01*
X36390061Y-34707112D01*
X36548823Y-34641513D01*
X36650724Y-34539790D01*
X36658186Y-34557849D01*
X36779547Y-34679422D01*
X36938194Y-34745298D01*
X37109974Y-34745448D01*
X37268736Y-34679849D01*
X37390309Y-34558488D01*
X37456185Y-34399841D01*
X37456335Y-34228061D01*
X37390736Y-34069299D01*
X37269375Y-33947726D01*
X37110728Y-33881850D01*
X36938948Y-33881700D01*
X36780186Y-33947299D01*
X36678285Y-34049022D01*
X36670823Y-34030963D01*
X36549462Y-33909390D01*
X36390815Y-33843514D01*
X36219035Y-33843364D01*
X36060273Y-33908963D01*
X35938700Y-34030324D01*
X35872824Y-34188971D01*
X35872674Y-34360751D01*
X34279264Y-34360751D01*
X34279393Y-34213359D01*
X34213794Y-34054597D01*
X34092433Y-33933024D01*
X33933786Y-33867148D01*
X33762006Y-33866998D01*
X33603244Y-33932597D01*
X33481671Y-34053958D01*
X33415795Y-34212605D01*
X33415645Y-34384385D01*
X31559596Y-34384385D01*
X31454587Y-34279193D01*
X31131781Y-34145153D01*
X30907812Y-34144958D01*
X31040947Y-33824331D01*
X31041252Y-33474802D01*
X31004359Y-33385513D01*
X37818126Y-33385513D01*
X37883725Y-33544275D01*
X37893345Y-33553912D01*
X37884152Y-33563089D01*
X37818276Y-33721736D01*
X37818126Y-33893516D01*
X37883725Y-34052278D01*
X38005086Y-34173851D01*
X38163733Y-34239727D01*
X38335513Y-34239877D01*
X38494275Y-34174278D01*
X38576305Y-34092391D01*
X38659009Y-34126733D01*
X38830789Y-34126883D01*
X38989551Y-34061284D01*
X39111124Y-33939923D01*
X39177000Y-33781276D01*
X39177150Y-33609496D01*
X39111551Y-33450734D01*
X39096357Y-33435513D01*
X44818126Y-33435513D01*
X44883725Y-33594275D01*
X44964344Y-33675034D01*
X44884152Y-33755086D01*
X44818276Y-33913733D01*
X44818126Y-34085513D01*
X44883725Y-34244275D01*
X44893345Y-34253912D01*
X44884152Y-34263089D01*
X44818276Y-34421736D01*
X44818126Y-34593516D01*
X44883725Y-34752278D01*
X44910342Y-34778942D01*
X44884152Y-34805086D01*
X44818276Y-34963733D01*
X44818126Y-35135513D01*
X44883725Y-35294275D01*
X45005086Y-35415848D01*
X45124772Y-35465546D01*
X45005725Y-35514735D01*
X44884152Y-35636096D01*
X44818276Y-35794743D01*
X44818126Y-35966523D01*
X44883725Y-36125285D01*
X45005086Y-36246858D01*
X45163733Y-36312734D01*
X45335513Y-36312884D01*
X45494275Y-36247285D01*
X45615848Y-36125924D01*
X45681724Y-35967277D01*
X45681874Y-35795497D01*
X45616275Y-35636735D01*
X45494914Y-35515162D01*
X45375228Y-35465464D01*
X45494275Y-35416275D01*
X45615848Y-35294914D01*
X45681724Y-35136267D01*
X45681874Y-34964487D01*
X45616275Y-34805725D01*
X45589658Y-34779061D01*
X45615848Y-34752917D01*
X45681724Y-34594270D01*
X45681874Y-34422490D01*
X45616275Y-34263728D01*
X45606655Y-34254091D01*
X45615848Y-34244914D01*
X45635447Y-34197713D01*
X46710526Y-34197713D01*
X46776125Y-34356475D01*
X46897486Y-34478048D01*
X47056133Y-34543924D01*
X47227913Y-34544074D01*
X47386675Y-34478475D01*
X47474368Y-34390934D01*
X47812705Y-34390934D01*
X47878304Y-34549696D01*
X47999665Y-34671269D01*
X48158312Y-34737145D01*
X48330092Y-34737295D01*
X48434533Y-34694141D01*
X48523086Y-34782848D01*
X48681733Y-34848724D01*
X48853513Y-34848874D01*
X49012275Y-34783275D01*
X49133848Y-34661914D01*
X49199724Y-34503267D01*
X49199755Y-34467844D01*
X49234513Y-34467874D01*
X49393275Y-34402275D01*
X49514848Y-34280914D01*
X49580724Y-34122267D01*
X49580874Y-33950487D01*
X49515275Y-33791725D01*
X49505656Y-33782090D01*
X49514848Y-33772914D01*
X49580724Y-33614267D01*
X49580874Y-33442487D01*
X49515275Y-33283725D01*
X49505656Y-33274090D01*
X49514848Y-33264914D01*
X49580724Y-33106267D01*
X49580874Y-32934487D01*
X49515275Y-32775725D01*
X49393914Y-32654152D01*
X49235267Y-32588276D01*
X49063487Y-32588126D01*
X48904725Y-32653725D01*
X48783152Y-32775086D01*
X48717276Y-32933733D01*
X48717126Y-33105513D01*
X48782725Y-33264275D01*
X48792344Y-33273910D01*
X48783152Y-33283086D01*
X48717276Y-33441733D01*
X48717126Y-33613513D01*
X48782725Y-33772275D01*
X48792344Y-33781910D01*
X48783152Y-33791086D01*
X48717276Y-33949733D01*
X48717245Y-33985156D01*
X48682487Y-33985126D01*
X48578046Y-34028280D01*
X48489493Y-33939573D01*
X48330846Y-33873697D01*
X48159066Y-33873547D01*
X48000304Y-33939146D01*
X47878731Y-34060507D01*
X47812855Y-34219154D01*
X47812705Y-34390934D01*
X47474368Y-34390934D01*
X47508248Y-34357114D01*
X47574124Y-34198467D01*
X47574274Y-34026687D01*
X47508675Y-33867925D01*
X47387314Y-33746352D01*
X47228667Y-33680476D01*
X47056887Y-33680326D01*
X46898125Y-33745925D01*
X46776552Y-33867286D01*
X46710676Y-34025933D01*
X46710526Y-34197713D01*
X45635447Y-34197713D01*
X45681724Y-34086267D01*
X45681874Y-33914487D01*
X45616275Y-33755725D01*
X45535656Y-33674966D01*
X45615848Y-33594914D01*
X45681724Y-33436267D01*
X45681874Y-33264487D01*
X45616275Y-33105725D01*
X45494914Y-32984152D01*
X45336267Y-32918276D01*
X45164487Y-32918126D01*
X45005725Y-32983725D01*
X44884152Y-33105086D01*
X44818276Y-33263733D01*
X44818126Y-33435513D01*
X39096357Y-33435513D01*
X38990190Y-33329161D01*
X38831543Y-33263285D01*
X38681832Y-33263154D01*
X38681874Y-33214487D01*
X38616275Y-33055725D01*
X38494914Y-32934152D01*
X38336267Y-32868276D01*
X38164487Y-32868126D01*
X38005725Y-32933725D01*
X37884152Y-33055086D01*
X37818276Y-33213733D01*
X37818126Y-33385513D01*
X31004359Y-33385513D01*
X30907775Y-33151763D01*
X30660837Y-32904393D01*
X30338031Y-32770353D01*
X30114062Y-32770158D01*
X30247197Y-32449531D01*
X30247502Y-32100002D01*
X30114025Y-31776963D01*
X29867087Y-31529593D01*
X29544281Y-31395553D01*
X29320312Y-31395358D01*
X29453447Y-31074731D01*
X29453752Y-30725202D01*
X29334055Y-30435513D01*
X38718126Y-30435513D01*
X38783725Y-30594275D01*
X38905086Y-30715848D01*
X38987339Y-30750003D01*
X38905725Y-30783725D01*
X38784152Y-30905086D01*
X38718276Y-31063733D01*
X38718126Y-31235513D01*
X38783725Y-31394275D01*
X38905086Y-31515848D01*
X38987339Y-31550003D01*
X38905725Y-31583725D01*
X38784152Y-31705086D01*
X38718276Y-31863733D01*
X38718126Y-32035513D01*
X38783725Y-32194275D01*
X38905086Y-32315848D01*
X39024120Y-32365275D01*
X38934152Y-32455086D01*
X38868276Y-32613733D01*
X38868126Y-32785513D01*
X38933725Y-32944275D01*
X39055086Y-33065848D01*
X39213733Y-33131724D01*
X39385513Y-33131874D01*
X39544275Y-33066275D01*
X39665848Y-32944914D01*
X39731724Y-32786267D01*
X39731874Y-32614487D01*
X39666275Y-32455725D01*
X39544914Y-32334152D01*
X39425880Y-32284725D01*
X39515848Y-32194914D01*
X39581724Y-32036267D01*
X39581855Y-31885513D01*
X44818126Y-31885513D01*
X44883725Y-32044275D01*
X45005086Y-32165848D01*
X45163733Y-32231724D01*
X45335513Y-32231874D01*
X45494275Y-32166275D01*
X45615848Y-32044914D01*
X45643663Y-31977927D01*
X46161712Y-31977927D01*
X46227311Y-32136689D01*
X46300416Y-32209922D01*
X46243152Y-32267086D01*
X46177276Y-32425733D01*
X46177126Y-32597513D01*
X46242725Y-32756275D01*
X46364086Y-32877848D01*
X46522733Y-32943724D01*
X46694513Y-32943874D01*
X46853275Y-32878275D01*
X46974848Y-32756914D01*
X47040724Y-32598267D01*
X47040874Y-32426487D01*
X46975275Y-32267725D01*
X46902170Y-32194492D01*
X46959434Y-32137328D01*
X47025310Y-31978681D01*
X47025324Y-31962513D01*
X47447126Y-31962513D01*
X47512725Y-32121275D01*
X47634086Y-32242848D01*
X47792733Y-32308724D01*
X47964513Y-32308874D01*
X48123275Y-32243275D01*
X48244848Y-32121914D01*
X48310724Y-31963267D01*
X48310874Y-31791487D01*
X48245275Y-31632725D01*
X48123914Y-31511152D01*
X47965267Y-31445276D01*
X47793487Y-31445126D01*
X47634725Y-31510725D01*
X47513152Y-31632086D01*
X47447276Y-31790733D01*
X47447126Y-31962513D01*
X47025324Y-31962513D01*
X47025460Y-31806901D01*
X46959861Y-31648139D01*
X46838500Y-31526566D01*
X46679853Y-31460690D01*
X46508073Y-31460540D01*
X46349311Y-31526139D01*
X46227738Y-31647500D01*
X46161862Y-31806147D01*
X46161712Y-31977927D01*
X45643663Y-31977927D01*
X45681724Y-31886267D01*
X45681874Y-31714487D01*
X45616275Y-31555725D01*
X45494914Y-31434152D01*
X45336267Y-31368276D01*
X45164487Y-31368126D01*
X45005725Y-31433725D01*
X44884152Y-31555086D01*
X44818276Y-31713733D01*
X44818126Y-31885513D01*
X39581855Y-31885513D01*
X39581874Y-31864487D01*
X39516275Y-31705725D01*
X39394914Y-31584152D01*
X39312661Y-31549997D01*
X39394275Y-31516275D01*
X39515848Y-31394914D01*
X39581724Y-31236267D01*
X39581874Y-31064487D01*
X39516275Y-30905725D01*
X39394914Y-30784152D01*
X39312661Y-30749997D01*
X39394275Y-30716275D01*
X39457891Y-30652769D01*
X45694558Y-30652769D01*
X45760157Y-30811531D01*
X45881518Y-30933104D01*
X46040165Y-30998980D01*
X46211945Y-30999130D01*
X46370707Y-30933531D01*
X46474843Y-30829577D01*
X46491086Y-30845848D01*
X46649733Y-30911724D01*
X46821513Y-30911874D01*
X46980275Y-30846275D01*
X47101848Y-30724914D01*
X47167724Y-30566267D01*
X47167724Y-30565513D01*
X47312116Y-30565513D01*
X47377715Y-30724275D01*
X47499076Y-30845848D01*
X47657723Y-30911724D01*
X47829503Y-30911874D01*
X47988265Y-30846275D01*
X48109838Y-30724914D01*
X48123292Y-30692513D01*
X50876126Y-30692513D01*
X50941725Y-30851275D01*
X51063086Y-30972848D01*
X51221733Y-31038724D01*
X51393513Y-31038874D01*
X51552275Y-30973275D01*
X51673848Y-30851914D01*
X51739724Y-30693267D01*
X51739874Y-30521487D01*
X51674275Y-30362725D01*
X51552914Y-30241152D01*
X51394267Y-30175276D01*
X51222487Y-30175126D01*
X51063725Y-30240725D01*
X50942152Y-30362086D01*
X50876276Y-30520733D01*
X50876126Y-30692513D01*
X48123292Y-30692513D01*
X48175714Y-30566267D01*
X48175864Y-30394487D01*
X48110265Y-30235725D01*
X47988904Y-30114152D01*
X47830257Y-30048276D01*
X47658477Y-30048126D01*
X47499715Y-30113725D01*
X47378142Y-30235086D01*
X47312266Y-30393733D01*
X47312116Y-30565513D01*
X47167724Y-30565513D01*
X47167874Y-30394487D01*
X47102275Y-30235725D01*
X46980914Y-30114152D01*
X46822267Y-30048276D01*
X46650487Y-30048126D01*
X46491725Y-30113725D01*
X46387589Y-30217679D01*
X46371346Y-30201408D01*
X46212699Y-30135532D01*
X46040919Y-30135382D01*
X45882157Y-30200981D01*
X45760584Y-30322342D01*
X45694708Y-30480989D01*
X45694558Y-30652769D01*
X39457891Y-30652769D01*
X39515848Y-30594914D01*
X39581724Y-30436267D01*
X39581874Y-30264487D01*
X39516275Y-30105725D01*
X39394914Y-29984152D01*
X39236267Y-29918276D01*
X39064487Y-29918126D01*
X38905725Y-29983725D01*
X38784152Y-30105086D01*
X38718276Y-30263733D01*
X38718126Y-30435513D01*
X29334055Y-30435513D01*
X29320275Y-30402163D01*
X29073337Y-30154793D01*
X28750531Y-30020753D01*
X28526562Y-30020558D01*
X28659697Y-29699931D01*
X28660002Y-29350402D01*
X28526525Y-29027363D01*
X28279587Y-28779993D01*
X27956781Y-28645953D01*
X27732812Y-28645758D01*
X27865947Y-28325131D01*
X27866252Y-27975602D01*
X27732775Y-27652563D01*
X27485837Y-27405193D01*
X27163031Y-27271153D01*
X26813502Y-27270848D01*
X26804109Y-27274729D01*
X26637126Y-26985513D01*
X32118126Y-26985513D01*
X32183725Y-27144275D01*
X32305086Y-27265848D01*
X32463733Y-27331724D01*
X32635513Y-27331874D01*
X32794275Y-27266275D01*
X32915848Y-27144914D01*
X32981724Y-26986267D01*
X32981742Y-26965513D01*
X33360373Y-26965513D01*
X33425972Y-27124275D01*
X33547333Y-27245848D01*
X33705980Y-27311724D01*
X33877760Y-27311874D01*
X34036522Y-27246275D01*
X34158095Y-27124914D01*
X34191994Y-27043277D01*
X34233725Y-27144275D01*
X34355086Y-27265848D01*
X34513733Y-27331724D01*
X34685513Y-27331874D01*
X34844275Y-27266275D01*
X34869338Y-27241256D01*
X34877559Y-27249492D01*
X35036206Y-27315368D01*
X35207986Y-27315518D01*
X35366748Y-27249919D01*
X35415573Y-27201179D01*
X35505086Y-27290848D01*
X35663733Y-27356724D01*
X35835513Y-27356874D01*
X35994275Y-27291275D01*
X36115848Y-27169914D01*
X36181724Y-27011267D01*
X36181874Y-26839487D01*
X36116275Y-26680725D01*
X35994914Y-26559152D01*
X35836267Y-26493276D01*
X35664487Y-26493126D01*
X35505725Y-26558725D01*
X35456900Y-26607465D01*
X35367387Y-26517796D01*
X35208740Y-26451920D01*
X35036960Y-26451770D01*
X34878198Y-26517369D01*
X34853135Y-26542388D01*
X34844914Y-26534152D01*
X34686267Y-26468276D01*
X34514487Y-26468126D01*
X34355725Y-26533725D01*
X34234152Y-26655086D01*
X34200253Y-26736723D01*
X34158522Y-26635725D01*
X34037161Y-26514152D01*
X33878514Y-26448276D01*
X33706734Y-26448126D01*
X33547972Y-26513725D01*
X33426399Y-26635086D01*
X33360523Y-26793733D01*
X33360373Y-26965513D01*
X32981742Y-26965513D01*
X32981874Y-26814487D01*
X32916275Y-26655725D01*
X32794914Y-26534152D01*
X32636267Y-26468276D01*
X32464487Y-26468126D01*
X32305725Y-26533725D01*
X32184152Y-26655086D01*
X32118276Y-26813733D01*
X32118126Y-26985513D01*
X26637126Y-26985513D01*
X25882556Y-25678600D01*
X27739469Y-25678600D01*
X27829725Y-25897037D01*
M02*
