M48
INCH,TZ
T1C0.008
T2C0.031
%
G90
G05
T1
X11102Y-11043
X11457Y-11437
X11752Y-11870
X11811Y-11634
X12093Y-10315
X12146Y-12500
X12146Y-12894
X12441Y-10906
X12638Y-13543
X12815Y-10591
X12894Y-13583
X13248Y-14370
X13302Y-10366
X13304Y-10583
X13326Y-13503
X13409Y-11448
X13409Y-11841
X13409Y-12235
X13409Y-12629
X13622Y-10591
X13802Y-11448
X13802Y-11841
X13802Y-12235
X13802Y-12629
X13828Y-10584
X14075Y-10236
X14075Y-10600
X14196Y-11448
X14196Y-11841
X14196Y-12235
X14196Y-12629
X14232Y-14370
X14293Y-13494
X14547Y-10157
X14547Y-10374
X14547Y-10591
X14577Y-13509
X14590Y-11448
X14590Y-11841
X14590Y-12235
X14590Y-12629
X14783Y-13898
X14783Y-14272
X15059Y-13110
X15059Y-13310
X15254Y-13266
X15335Y-13760
X15413Y-11949
X15413Y-12264
X15413Y-12579
X15450Y-16750
X15450Y-17850
X15470Y-15049
X15472Y-12874
X15689Y-13268
X15689Y-13858
X15965Y-14823
X15965Y-15059
X15965Y-15295
X16000Y-16750
X16437Y-14921
X16437Y-15121
X17150Y-16750
X17150Y-17850
X17815Y-12520
X17815Y-13130
X17815Y-13386
X17815Y-13586
X17815Y-13799
X17815Y-14126
X18160Y-12034
X18250Y-14016
X18344Y-12556
X18350Y-12800
X18400Y-12000
X18441Y-11402
X18560Y-13430
X18700Y-14450
X18797Y-12000
X18850Y-12550
X18994Y-13506
X19150Y-14450
X19200Y-13550
X19250Y-10900
X19300Y-11434
X19350Y-13000
X19350Y-13200
X19350Y-13400
X20200Y-12050
X20300Y-11814
X20550Y-11150
T2
X10625Y-11083
X10938Y-11624
X11250Y-10000
X11250Y-12165
X11563Y-12706
X11875Y-10000
X11875Y-13248
X12188Y-13789
X12500Y-10000
X12500Y-14330
X12813Y-14871
X13125Y-10000
X13125Y-15413
X13438Y-15954
X13750Y-10000
X13750Y-16495
X14063Y-17036
X14375Y-17578
X14688Y-18119
X15000Y-18660
X15313Y-19201
X15625Y-10000
X15625Y-19743
X16250Y-10000
X16875Y-10000
X16875Y-19743
X17188Y-19201
X17500Y-18660
X17813Y-18119
X18125Y-17578
X18438Y-17036
X18750Y-10000
X18750Y-16495
X19063Y-15954
X19375Y-10000
X19375Y-15413
X19688Y-14871
X20000Y-10000
X20000Y-14330
X20313Y-13789
X20625Y-10000
X20625Y-13248
X20938Y-12706
X21250Y-10000
X21250Y-12165
X21563Y-11624
X21875Y-11083
T0
M30
