M48
INCH,TZ
T1C0.012
%
G90
G05
T1
X59764Y-44370
X59764Y-45000
X59764Y-45630
X60000Y-40000
X60000Y-40625
X60000Y-41250
X60000Y-41875
X60000Y-42500
X60000Y-43125
X60000Y-43750
X60000Y-44375
X60000Y-45000
X60000Y-45625
X60000Y-46250
X60000Y-46875
X60000Y-47500
X60000Y-48125
X60000Y-48750
X60000Y-49375
X60000Y-50000
X60236Y-44370
X60236Y-45000
X60236Y-45630
T0
M30
