%FSLAX25Y25*%
%MOIN*%
G70*
G01*
G75*
G04 Layer_Physical_Order=4*
G04 Layer_Color=16711680*
%ADD10O,0.03740X0.00787*%
%ADD11O,0.00787X0.03740*%
%ADD12R,0.16142X0.16142*%
%ADD13R,0.10984X0.02913*%
%ADD14R,0.02362X0.01969*%
%ADD15R,0.01969X0.02362*%
G04:AMPARAMS|DCode=16|XSize=19.69mil|YSize=23.62mil|CornerRadius=0mil|HoleSize=0mil|Usage=FLASHONLY|Rotation=60.000|XOffset=0mil|YOffset=0mil|HoleType=Round|Shape=Rectangle|*
%AMROTATEDRECTD16*
4,1,4,0.00531,-0.01443,-0.01515,-0.00262,-0.00531,0.01443,0.01515,0.00262,0.00531,-0.01443,0.0*
%
%ADD16ROTATEDRECTD16*%

G04:AMPARAMS|DCode=17|XSize=27.56mil|YSize=47.24mil|CornerRadius=0mil|HoleSize=0mil|Usage=FLASHONLY|Rotation=135.000|XOffset=0mil|YOffset=0mil|HoleType=Round|Shape=Rectangle|*
%AMROTATEDRECTD17*
4,1,4,0.02645,0.00696,-0.00696,-0.02645,-0.02645,-0.00696,0.00696,0.02645,0.02645,0.00696,0.0*
%
%ADD17ROTATEDRECTD17*%

G04:AMPARAMS|DCode=18|XSize=13.78mil|YSize=7.87mil|CornerRadius=0mil|HoleSize=0mil|Usage=FLASHONLY|Rotation=315.000|XOffset=0mil|YOffset=0mil|HoleType=Round|Shape=Rectangle|*
%AMROTATEDRECTD18*
4,1,4,-0.00766,0.00209,-0.00209,0.00766,0.00766,-0.00209,0.00209,-0.00766,-0.00766,0.00209,0.0*
%
%ADD18ROTATEDRECTD18*%

G04:AMPARAMS|DCode=19|XSize=200mil|YSize=59.84mil|CornerRadius=0mil|HoleSize=0mil|Usage=FLASHONLY|Rotation=330.000|XOffset=0mil|YOffset=0mil|HoleType=Round|Shape=Rectangle|*
%AMROTATEDRECTD19*
4,1,4,-0.10156,0.02409,-0.07164,0.07591,0.10156,-0.02409,0.07164,-0.07591,-0.10156,0.02409,0.0*
%
%ADD19ROTATEDRECTD19*%

%ADD20R,0.05984X0.20000*%
%ADD21R,0.03150X0.01181*%
G04:AMPARAMS|DCode=22|XSize=19.69mil|YSize=23.62mil|CornerRadius=0mil|HoleSize=0mil|Usage=FLASHONLY|Rotation=300.000|XOffset=0mil|YOffset=0mil|HoleType=Round|Shape=Rectangle|*
%AMROTATEDRECTD22*
4,1,4,-0.01515,0.00262,0.00531,0.01443,0.01515,-0.00262,-0.00531,-0.01443,-0.01515,0.00262,0.0*
%
%ADD22ROTATEDRECTD22*%

G04:AMPARAMS|DCode=23|XSize=200mil|YSize=59.84mil|CornerRadius=0mil|HoleSize=0mil|Usage=FLASHONLY|Rotation=30.000|XOffset=0mil|YOffset=0mil|HoleType=Round|Shape=Rectangle|*
%AMROTATEDRECTD23*
4,1,4,-0.07164,-0.07591,-0.10156,-0.02409,0.07164,0.07591,0.10156,0.02409,-0.07164,-0.07591,0.0*
%
%ADD23ROTATEDRECTD23*%

%ADD24R,0.04724X0.04331*%
%ADD25R,0.02362X0.03347*%
%ADD26R,0.00394X0.00394*%
%ADD27R,0.03543X0.03150*%
%ADD28R,0.03150X0.03543*%
%ADD29C,0.01000*%
%ADD30C,0.02000*%
%ADD31C,0.00600*%
%ADD32R,0.05906X0.05906*%
%ADD33C,0.05906*%
%ADD34C,0.02000*%
%ADD35R,0.05787X0.02913*%
%ADD36R,0.05118X0.03937*%
G36*
X7729Y157338D02*
X15440Y156769D01*
X23114Y155823D01*
X30732Y154501D01*
X38276Y152807D01*
X45728Y150745D01*
X53070Y148319D01*
X60283Y145537D01*
X67352Y142403D01*
X74258Y138927D01*
X80985Y135116D01*
X87518Y130980D01*
X93839Y126528D01*
X99935Y121771D01*
X105789Y116720D01*
X111389Y111389D01*
X116720Y105789D01*
X121771Y99935D01*
X126528Y93839D01*
X130980Y87518D01*
X135116Y80985D01*
X138927Y74258D01*
X142403Y67352D01*
X145537Y60283D01*
X148319Y53070D01*
X150745Y45728D01*
X152807Y38276D01*
X154501Y30732D01*
X155823Y23114D01*
X156769Y15440D01*
X157338Y7729D01*
X157528Y0D01*
X157338Y-7729D01*
X156769Y-15440D01*
X155823Y-23114D01*
X154501Y-30732D01*
X152807Y-38276D01*
X150745Y-45728D01*
X148319Y-53070D01*
X145537Y-60283D01*
X142403Y-67352D01*
X138927Y-74258D01*
X135116Y-80985D01*
X130980Y-87518D01*
X126528Y-93839D01*
X121771Y-99935D01*
X116720Y-105789D01*
X111389Y-111389D01*
X105789Y-116720D01*
X99935Y-121771D01*
X93839Y-126528D01*
X87518Y-130980D01*
X80985Y-135116D01*
X74258Y-138927D01*
X67352Y-142403D01*
X60283Y-145537D01*
X53070Y-148319D01*
X45728Y-150745D01*
X38276Y-152807D01*
X30732Y-154501D01*
X23114Y-155823D01*
X15440Y-156769D01*
X7729Y-157338D01*
X0Y-157528D01*
X-7729Y-157338D01*
X-15440Y-156769D01*
X-23114Y-155823D01*
X-30732Y-154501D01*
X-38276Y-152807D01*
X-45728Y-150745D01*
X-53070Y-148319D01*
X-60283Y-145537D01*
X-67352Y-142403D01*
X-74258Y-138927D01*
X-80985Y-135116D01*
X-87518Y-130980D01*
X-93839Y-126528D01*
X-99935Y-121771D01*
X-105789Y-116720D01*
X-111389Y-111389D01*
X-116720Y-105789D01*
X-121771Y-99935D01*
X-126528Y-93839D01*
X-130980Y-87518D01*
X-135116Y-80985D01*
X-138927Y-74258D01*
X-142403Y-67352D01*
X-145537Y-60283D01*
X-148319Y-53070D01*
X-150745Y-45728D01*
X-152807Y-38276D01*
X-154501Y-30732D01*
X-155823Y-23114D01*
X-156769Y-15440D01*
X-157338Y-7729D01*
X-157528Y0D01*
X-157338Y7729D01*
X-156769Y15440D01*
X-155823Y23114D01*
X-154501Y30732D01*
X-152807Y38276D01*
X-150745Y45728D01*
X-148319Y53070D01*
X-145537Y60283D01*
X-142403Y67352D01*
X-138927Y74258D01*
X-135116Y80985D01*
X-130980Y87518D01*
X-126528Y93839D01*
X-121771Y99935D01*
X-116720Y105789D01*
X-111389Y111389D01*
X-105789Y116720D01*
X-99935Y121771D01*
X-93839Y126528D01*
X-87518Y130980D01*
X-80985Y135116D01*
X-74258Y138927D01*
X-67352Y142403D01*
X-60283Y145537D01*
X-53070Y148319D01*
X-45728Y150745D01*
X-38276Y152807D01*
X-30732Y154501D01*
X-23114Y155823D01*
X-15440Y156769D01*
X-7729Y157338D01*
X0Y157528D01*
X7729Y157338D01*
D02*
G37*
%LPC*%
G36*
X-140660Y-5443D02*
X-147647D01*
Y-5869D01*
X-151591D01*
X-152215Y-5993D01*
X-152744Y-6346D01*
X-153098Y-6876D01*
X-153222Y-7500D01*
X-153098Y-8124D01*
X-152744Y-8653D01*
X-152215Y-9007D01*
X-151591Y-9131D01*
X-147647D01*
Y-9557D01*
X-140660D01*
Y-5443D01*
D02*
G37*
G36*
X134931D02*
X127943D01*
Y-5869D01*
X124000D01*
X123376Y-5993D01*
X122846Y-6346D01*
X122493Y-6876D01*
X122369Y-7500D01*
X122493Y-8124D01*
X122846Y-8653D01*
X123376Y-9007D01*
X124000Y-9131D01*
X127943D01*
Y-9557D01*
X134931D01*
Y-5443D01*
D02*
G37*
G36*
X-28598Y-61770D02*
X-29223Y-61894D01*
X-29752Y-62248D01*
X-30106Y-62777D01*
X-30230Y-63402D01*
X-30106Y-64026D01*
X-29752Y-64555D01*
X-29223Y-64909D01*
X-28598Y-65033D01*
X-27974Y-64909D01*
X-27445Y-64555D01*
X-27091Y-64026D01*
X-26967Y-63402D01*
X-27091Y-62777D01*
X-27445Y-62248D01*
X-27974Y-61894D01*
X-28598Y-61770D01*
D02*
G37*
G36*
X-41000Y-47869D02*
X-41624Y-47993D01*
X-42153Y-48346D01*
X-42507Y-48876D01*
X-42631Y-49500D01*
X-42507Y-50124D01*
X-42153Y-50653D01*
X-41624Y-51007D01*
X-41000Y-51131D01*
X-40376Y-51007D01*
X-39846Y-50653D01*
X-39493Y-50124D01*
X-39369Y-49500D01*
X-39493Y-48876D01*
X-39846Y-48346D01*
X-40376Y-47993D01*
X-41000Y-47869D01*
D02*
G37*
G36*
X-140660Y-443D02*
X-147647D01*
Y-869D01*
X-151591D01*
X-152215Y-993D01*
X-152744Y-1347D01*
X-153098Y-1876D01*
X-153222Y-2500D01*
X-153098Y-3124D01*
X-152744Y-3653D01*
X-152215Y-4007D01*
X-151591Y-4131D01*
X-147647D01*
Y-4557D01*
X-140660D01*
Y-443D01*
D02*
G37*
G36*
X134931Y4557D02*
X127943D01*
Y4131D01*
X124000D01*
X123376Y4007D01*
X122846Y3653D01*
X122493Y3124D01*
X122369Y2500D01*
X122493Y1876D01*
X122846Y1347D01*
X123376Y993D01*
X124000Y869D01*
X127943D01*
Y443D01*
X134931D01*
Y4557D01*
D02*
G37*
G36*
Y9557D02*
X127943D01*
Y9131D01*
X124000D01*
X123376Y9007D01*
X122846Y8653D01*
X122493Y8124D01*
X122369Y7500D01*
X122493Y6876D01*
X122846Y6346D01*
X123376Y5993D01*
X124000Y5869D01*
X127943D01*
Y5443D01*
X134931D01*
Y9557D01*
D02*
G37*
G36*
X-127943Y-443D02*
X-134931D01*
Y-4557D01*
X-127943D01*
Y-4331D01*
X-124000D01*
X-123376Y-4207D01*
X-122846Y-3853D01*
X-122493Y-3324D01*
X-122369Y-2700D01*
X-122493Y-2076D01*
X-122846Y-1546D01*
X-123376Y-1193D01*
X-124000Y-1069D01*
X-127943D01*
Y-443D01*
D02*
G37*
G36*
X-26000Y31183D02*
X-26927Y31061D01*
X-27792Y30703D01*
X-28534Y30134D01*
X-29103Y29392D01*
X-29461Y28527D01*
X-29583Y27600D01*
X-29461Y26673D01*
X-29103Y25808D01*
X-28534Y25066D01*
X-27792Y24497D01*
X-26927Y24139D01*
X-26000Y24017D01*
X-25073Y24139D01*
X-24208Y24497D01*
X-23466Y25066D01*
X-22897Y25808D01*
X-22746Y26173D01*
X-22255Y26270D01*
X-15002Y19018D01*
X-15210Y18518D01*
X-22537D01*
X-22539Y18527D01*
X-22897Y19392D01*
X-23466Y20134D01*
X-24208Y20703D01*
X-25073Y21061D01*
X-26000Y21183D01*
X-26927Y21061D01*
X-27792Y20703D01*
X-28534Y20134D01*
X-29103Y19392D01*
X-29461Y18527D01*
X-29583Y17600D01*
X-29461Y16673D01*
X-29103Y15808D01*
X-28534Y15066D01*
X-27792Y14497D01*
X-26927Y14139D01*
X-26000Y14017D01*
X-25073Y14139D01*
X-24208Y14497D01*
X-23466Y15066D01*
X-22897Y15808D01*
X-22539Y16673D01*
X-22537Y16682D01*
X-15280D01*
X-6476Y7878D01*
X-6531Y7600D01*
X-6496Y7421D01*
X-6855Y6983D01*
X-7100Y7031D01*
X-7724Y6907D01*
X-8253Y6554D01*
X-8411Y6318D01*
X-22447D01*
Y11153D01*
X-29553D01*
Y4047D01*
X-22447D01*
Y4482D01*
X-8411D01*
X-8253Y4247D01*
X-8018Y4089D01*
Y-22746D01*
X-18149Y-32877D01*
X-18348Y-33175D01*
X-18418Y-33526D01*
Y-48926D01*
X-21949Y-52457D01*
X-22148Y-52755D01*
X-22218Y-53106D01*
Y-78900D01*
X-22148Y-79251D01*
X-21949Y-79549D01*
X-17376Y-84122D01*
X-17431Y-84400D01*
X-17307Y-85024D01*
X-16953Y-85553D01*
X-16424Y-85907D01*
X-15800Y-86031D01*
X-15176Y-85907D01*
X-14647Y-85553D01*
X-14293Y-85024D01*
X-14169Y-84400D01*
X-14293Y-83776D01*
X-14647Y-83246D01*
X-15148Y-82911D01*
X-15176Y-82698D01*
Y-82602D01*
X-15148Y-82389D01*
X-14906Y-82227D01*
X-14446Y-82166D01*
X-14209Y-82298D01*
X-8454Y-88054D01*
X-7924Y-88407D01*
X-7563Y-88479D01*
X-7457Y-89010D01*
X-7519Y-89051D01*
X-11307Y-92839D01*
X-11376Y-92793D01*
X-12000Y-92669D01*
X-12624Y-92793D01*
X-13153Y-93147D01*
X-13507Y-93676D01*
X-13631Y-94300D01*
X-13507Y-94924D01*
X-13153Y-95454D01*
X-12624Y-95807D01*
X-12000Y-95931D01*
X-11376Y-95807D01*
X-10847Y-95454D01*
X-10511Y-94952D01*
X-10298Y-94924D01*
X-10202D01*
X-9989Y-94952D01*
X-9653Y-95454D01*
X-9124Y-95807D01*
X-8500Y-95931D01*
X-7876Y-95807D01*
X-7346Y-95454D01*
X-7011Y-94952D01*
X-6798Y-94924D01*
X-6702D01*
X-6489Y-94952D01*
X-6154Y-95454D01*
X-5624Y-95807D01*
X-5000Y-95931D01*
X-4376Y-95807D01*
X-3847Y-95454D01*
X-3493Y-94924D01*
X-3369Y-94300D01*
X-3424Y-94022D01*
X-2720Y-93318D01*
X3677D01*
X3965Y-93818D01*
X3869Y-94300D01*
X3876Y-94338D01*
X-165Y-98378D01*
X-16535D01*
X-93878Y-21035D01*
Y-6500D01*
X-93878Y-6500D01*
X-93964Y-6071D01*
X-94207Y-5707D01*
X-95707Y-4207D01*
X-96071Y-3964D01*
X-96500Y-3878D01*
X-96500Y-3878D01*
X-98773D01*
X-98873Y-3379D01*
X-98208Y-3103D01*
X-97466Y-2534D01*
X-96897Y-1792D01*
X-96539Y-927D01*
X-96417Y0D01*
X-96539Y927D01*
X-96897Y1792D01*
X-97466Y2534D01*
X-98208Y3103D01*
X-99073Y3461D01*
X-100000Y3583D01*
X-100927Y3461D01*
X-101792Y3103D01*
X-102534Y2534D01*
X-103103Y1792D01*
X-103461Y927D01*
X-103583Y0D01*
X-103461Y-927D01*
X-103103Y-1792D01*
X-102534Y-2534D01*
X-101792Y-3103D01*
X-101128Y-3379D01*
X-101227Y-3878D01*
X-104535D01*
X-106816Y-1598D01*
X-106539Y-927D01*
X-106417Y0D01*
X-106539Y927D01*
X-106897Y1792D01*
X-107466Y2534D01*
X-108208Y3103D01*
X-109073Y3461D01*
X-110000Y3583D01*
X-110927Y3461D01*
X-111792Y3103D01*
X-112534Y2534D01*
X-113103Y1792D01*
X-113381Y1122D01*
X-116035D01*
X-122376Y7462D01*
X-122369Y7500D01*
X-122493Y8124D01*
X-122846Y8653D01*
X-123376Y9007D01*
X-124000Y9131D01*
X-127546D01*
X-127630Y9221D01*
X-127623Y9709D01*
X-127468Y9878D01*
X-113567D01*
X-113461Y9072D01*
X-113103Y8208D01*
X-112534Y7466D01*
X-111792Y6897D01*
X-110927Y6539D01*
X-110000Y6417D01*
X-109073Y6539D01*
X-108208Y6897D01*
X-107466Y7466D01*
X-106897Y8208D01*
X-106539Y9072D01*
X-106417Y10000D01*
X-106539Y10927D01*
X-106670Y11244D01*
X-104535Y13378D01*
X-83965D01*
X-22624Y-47962D01*
X-22631Y-48000D01*
X-22507Y-48624D01*
X-22153Y-49154D01*
X-21624Y-49507D01*
X-21000Y-49631D01*
X-20376Y-49507D01*
X-19847Y-49154D01*
X-19493Y-48624D01*
X-19369Y-48000D01*
X-19493Y-47376D01*
X-19847Y-46847D01*
X-20376Y-46493D01*
X-21000Y-46369D01*
X-21038Y-46376D01*
X-82707Y15293D01*
X-83071Y15536D01*
X-83500Y15622D01*
X-83500Y15621D01*
X-105000D01*
X-105000Y15622D01*
X-105429Y15536D01*
X-105793Y15293D01*
X-105793Y15293D01*
X-108081Y13005D01*
X-108208Y13103D01*
X-109073Y13461D01*
X-110000Y13583D01*
X-110927Y13461D01*
X-111792Y13103D01*
X-112534Y12534D01*
X-112850Y12122D01*
X-152500D01*
X-152500Y12122D01*
X-152929Y12036D01*
X-153293Y11793D01*
X-153293Y11793D01*
X-155293Y9793D01*
X-155536Y9429D01*
X-155622Y9000D01*
X-155622Y9000D01*
Y5410D01*
X-155622Y5409D01*
X-155536Y4980D01*
X-155293Y4616D01*
X-153214Y2538D01*
X-153222Y2500D01*
X-153098Y1876D01*
X-152744Y1347D01*
X-152215Y993D01*
X-151591Y869D01*
X-147647D01*
Y443D01*
X-140660D01*
Y4557D01*
X-147647D01*
Y4131D01*
X-151591D01*
X-151628Y4124D01*
X-153378Y5874D01*
Y6396D01*
X-152878Y6548D01*
X-152744Y6346D01*
X-152215Y5993D01*
X-151591Y5869D01*
X-147647D01*
Y5443D01*
X-140660D01*
Y9378D01*
X-140660Y9557D01*
X-140293Y9878D01*
X-140293Y9878D01*
X-135297D01*
X-134931Y9557D01*
X-134931Y9378D01*
Y5443D01*
X-127943D01*
Y5869D01*
X-124000D01*
X-123962Y5876D01*
X-117293Y-793D01*
X-117293Y-793D01*
X-116929Y-1036D01*
X-116500Y-1122D01*
X-113381D01*
X-113103Y-1792D01*
X-112534Y-2534D01*
X-111792Y-3103D01*
X-110927Y-3461D01*
X-110000Y-3583D01*
X-109073Y-3461D01*
X-108402Y-3184D01*
X-107708Y-3878D01*
X-107915Y-4378D01*
X-115535D01*
X-122376Y2462D01*
X-122369Y2500D01*
X-122493Y3124D01*
X-122846Y3653D01*
X-123376Y4007D01*
X-124000Y4131D01*
X-127943D01*
Y4557D01*
X-134931D01*
Y443D01*
X-127943D01*
Y869D01*
X-124000D01*
X-123962Y876D01*
X-116793Y-6293D01*
X-116793Y-6293D01*
X-116429Y-6536D01*
X-116000Y-6622D01*
X-116000Y-6622D01*
X-112255D01*
X-112085Y-7122D01*
X-112534Y-7466D01*
X-113103Y-8208D01*
X-113461Y-9072D01*
X-113583Y-10000D01*
X-113461Y-10927D01*
X-113103Y-11792D01*
X-112534Y-12534D01*
X-111792Y-13103D01*
X-110927Y-13461D01*
X-110000Y-13583D01*
X-109073Y-13461D01*
X-108208Y-13103D01*
X-107466Y-12534D01*
X-106897Y-11792D01*
X-106539Y-10927D01*
X-106417Y-10000D01*
X-106539Y-9072D01*
X-106764Y-8530D01*
X-106340Y-8246D01*
X-103793Y-10793D01*
X-103793Y-10793D01*
X-103553Y-10954D01*
Y-13553D01*
X-101122D01*
Y-25000D01*
X-101122Y-25000D01*
X-101036Y-25429D01*
X-100793Y-25793D01*
X-60805Y-65781D01*
X-60441Y-66024D01*
X-60012Y-66110D01*
X-60012Y-66110D01*
X-58663D01*
X-58642Y-66142D01*
X-58113Y-66495D01*
X-57488Y-66619D01*
X-56864Y-66495D01*
X-56335Y-66142D01*
X-55981Y-65613D01*
X-55857Y-64988D01*
X-55981Y-64364D01*
X-56335Y-63835D01*
X-56864Y-63481D01*
X-57488Y-63357D01*
X-58113Y-63481D01*
X-58642Y-63835D01*
X-58663Y-63867D01*
X-59547D01*
X-98878Y-24535D01*
Y-13906D01*
X-98525Y-13553D01*
X-96447D01*
X-96122Y-13918D01*
Y-21500D01*
X-96122Y-21500D01*
X-96036Y-21929D01*
X-95793Y-22293D01*
X-17793Y-100293D01*
X-17793Y-100293D01*
X-17429Y-100536D01*
X-17000Y-100622D01*
X-17000Y-100622D01*
X300D01*
X300Y-100622D01*
X729Y-100536D01*
X1093Y-100293D01*
X5462Y-95924D01*
X5500Y-95931D01*
X6124Y-95807D01*
X6654Y-95454D01*
X7007Y-94924D01*
X7131Y-94300D01*
X7035Y-93818D01*
X7323Y-93318D01*
X25893D01*
X26071Y-93436D01*
X26500Y-93522D01*
X26929Y-93436D01*
X27293Y-93193D01*
X82565Y-37922D01*
X132800D01*
X132800Y-37922D01*
X133229Y-37836D01*
X133593Y-37593D01*
X155593Y-15593D01*
X155593Y-15593D01*
X155836Y-15229D01*
X155922Y-14800D01*
X155922Y-14800D01*
Y4291D01*
X155836Y4720D01*
X155593Y5084D01*
X155593Y5084D01*
X153214Y7462D01*
X153222Y7500D01*
X153098Y8124D01*
X152744Y8653D01*
X152215Y9007D01*
X151591Y9131D01*
X147647D01*
Y9557D01*
X140660D01*
Y5443D01*
X147647D01*
Y5869D01*
X151591D01*
X151628Y5876D01*
X153678Y3826D01*
Y1217D01*
X153178Y1065D01*
X153093Y1193D01*
X153093Y1193D01*
X151824Y2462D01*
X151831Y2500D01*
X151707Y3124D01*
X151354Y3653D01*
X150824Y4007D01*
X150200Y4131D01*
X147647D01*
Y4557D01*
X140660D01*
Y443D01*
X147647D01*
Y869D01*
X150200D01*
X150238Y876D01*
X151178Y-65D01*
Y-674D01*
X150678Y-964D01*
X150200Y-869D01*
X147647D01*
Y-443D01*
X140660D01*
Y-4557D01*
X147647D01*
Y-4131D01*
X150200D01*
X150678Y-4036D01*
X151178Y-4326D01*
Y-8235D01*
X149035Y-10378D01*
X113913D01*
X113583Y-10002D01*
X113583Y-10000D01*
X113461Y-9072D01*
X113103Y-8208D01*
X112534Y-7466D01*
X111792Y-6897D01*
X110927Y-6539D01*
X110000Y-6417D01*
X109073Y-6539D01*
X108208Y-6897D01*
X107466Y-7466D01*
X106897Y-8208D01*
X106539Y-9072D01*
X106417Y-10000D01*
X106539Y-10927D01*
X106816Y-11598D01*
X101035Y-17379D01*
X90630D01*
X90201Y-17464D01*
X89837Y-17707D01*
X89837Y-17707D01*
X17462Y-90082D01*
X12657D01*
X12466Y-89620D01*
X95965Y-6121D01*
X105000D01*
X105000Y-6122D01*
X105429Y-6036D01*
X105793Y-5793D01*
X108402Y-3184D01*
X109073Y-3461D01*
X110000Y-3583D01*
X110927Y-3461D01*
X111792Y-3103D01*
X112534Y-2534D01*
X113103Y-1792D01*
X113461Y-927D01*
X113583Y0D01*
X113461Y927D01*
X113103Y1792D01*
X112534Y2534D01*
X111792Y3103D01*
X111127Y3379D01*
X111227Y3878D01*
X116035D01*
X122376Y-2462D01*
X122369Y-2500D01*
X122493Y-3124D01*
X122846Y-3653D01*
X123376Y-4007D01*
X124000Y-4131D01*
X127943D01*
Y-4557D01*
X134931D01*
Y-443D01*
X127943D01*
Y-869D01*
X124000D01*
X123962Y-876D01*
X117293Y5793D01*
X116929Y6036D01*
X116500Y6122D01*
X116500Y6121D01*
X111227D01*
X111127Y6622D01*
X111792Y6897D01*
X112534Y7466D01*
X113103Y8208D01*
X113461Y9072D01*
X113583Y10000D01*
X113461Y10927D01*
X113103Y11792D01*
X112534Y12534D01*
X111792Y13103D01*
X110927Y13461D01*
X110000Y13583D01*
X109073Y13461D01*
X108208Y13103D01*
X107466Y12534D01*
X106897Y11792D01*
X106539Y10927D01*
X106417Y10000D01*
X106539Y9072D01*
X106897Y8208D01*
X107466Y7466D01*
X108208Y6897D01*
X108872Y6622D01*
X108773Y6121D01*
X105465D01*
X103553Y8033D01*
Y13553D01*
X96447D01*
Y11122D01*
X31400D01*
X31400Y11122D01*
X30971Y11036D01*
X30607Y10793D01*
X30607Y10793D01*
X6680Y-13134D01*
X6218Y-12943D01*
Y-8611D01*
X6453Y-8454D01*
X6807Y-7924D01*
X6931Y-7300D01*
X6807Y-6676D01*
X6453Y-6146D01*
X6218Y-5989D01*
Y-258D01*
X6148Y93D01*
X5949Y390D01*
X4159Y2180D01*
Y4059D01*
X4089Y4410D01*
X3890Y4707D01*
X-7651Y16249D01*
X-7949Y16448D01*
X-8300Y16518D01*
X-9907D01*
X-21638Y28249D01*
X-21936Y28448D01*
X-22287Y28518D01*
X-22537D01*
X-22539Y28527D01*
X-22897Y29392D01*
X-23466Y30134D01*
X-24208Y30703D01*
X-25073Y31061D01*
X-26000Y31183D01*
D02*
G37*
%LPD*%
G36*
X-14821Y-51973D02*
Y-54825D01*
X-14853Y-54847D01*
X-15207Y-55376D01*
X-15331Y-56000D01*
X-15207Y-56624D01*
X-14853Y-57153D01*
X-14324Y-57507D01*
X-13700Y-57631D01*
X-13076Y-57507D01*
X-12547Y-57153D01*
X-12193Y-56624D01*
X-12131Y-56315D01*
X-11631Y-56365D01*
Y-60805D01*
X-11916Y-61187D01*
X-14868D01*
X-15154Y-60716D01*
X-15093Y-60624D01*
X-14969Y-60000D01*
X-15093Y-59376D01*
X-15447Y-58846D01*
X-15976Y-58493D01*
X-16600Y-58369D01*
X-17224Y-58493D01*
X-17482Y-58665D01*
X-17982Y-58398D01*
Y-54480D01*
X-15283Y-51781D01*
X-14821Y-51973D01*
D02*
G37*
G36*
X10200Y-84300D02*
X9100Y-86000D01*
X7300Y-85600D01*
X6600Y-84000D01*
Y-81800D01*
X9500D01*
X10200Y-84300D01*
D02*
G37*
G36*
X-15800Y-64631D02*
X-15789Y-64629D01*
X-15778Y-64631D01*
X-15212Y-64623D01*
X-15084Y-64750D01*
Y-64750D01*
X-11916D01*
X-11631Y-65132D01*
Y-71391D01*
X-11802Y-71505D01*
X-12131Y-71585D01*
X-13594Y-70122D01*
X-14123Y-69768D01*
X-14748Y-69644D01*
X-15800D01*
X-16424Y-69768D01*
X-16953Y-70122D01*
X-17307Y-70651D01*
X-17431Y-71276D01*
X-17307Y-71900D01*
X-16953Y-72429D01*
X-16424Y-72783D01*
X-15800Y-72907D01*
X-15423D01*
X-14831Y-73499D01*
Y-75567D01*
X-15331Y-75862D01*
X-15800Y-75769D01*
X-16078Y-75824D01*
X-17982Y-73920D01*
Y-67154D01*
X-17844Y-67028D01*
X-17482Y-66912D01*
X-17416Y-66975D01*
X-17307Y-67524D01*
X-16953Y-68054D01*
X-16424Y-68407D01*
X-15800Y-68531D01*
X-15176Y-68407D01*
X-14647Y-68054D01*
X-14293Y-67524D01*
X-14169Y-66900D01*
X-14293Y-66276D01*
X-14647Y-65746D01*
X-15176Y-65393D01*
X-15800Y-65269D01*
X-15980Y-65304D01*
X-16201Y-65061D01*
X-16199Y-65051D01*
X-15941Y-64603D01*
X-15800Y-64631D01*
D02*
G37*
G36*
X153678Y-9517D02*
Y-14335D01*
X132335Y-35678D01*
X82100D01*
X81671Y-35764D01*
X81307Y-36007D01*
X81307Y-36007D01*
X25831Y-91482D01*
X19887D01*
X19696Y-91020D01*
X91095Y-19622D01*
X101500D01*
X101500Y-19622D01*
X101929Y-19536D01*
X102293Y-19293D01*
X108402Y-13184D01*
X109073Y-13461D01*
X110000Y-13583D01*
X110927Y-13461D01*
X111792Y-13103D01*
X112420Y-12622D01*
X149500D01*
X149500Y-12622D01*
X149929Y-12536D01*
X150293Y-12293D01*
X153093Y-9493D01*
X153093Y-9493D01*
X153178Y-9365D01*
X153678Y-9517D01*
D02*
G37*
G36*
X96447Y6447D02*
X101967D01*
X104207Y4207D01*
X104207Y4207D01*
X104571Y3964D01*
X105000Y3878D01*
X105000Y3878D01*
X108773D01*
X108872Y3379D01*
X108208Y3103D01*
X107466Y2534D01*
X106897Y1792D01*
X106539Y927D01*
X106417Y0D01*
X106539Y-927D01*
X106816Y-1598D01*
X104535Y-3878D01*
X101227D01*
X101128Y-3379D01*
X101792Y-3103D01*
X102534Y-2534D01*
X103103Y-1792D01*
X103461Y-927D01*
X103583Y0D01*
X103461Y927D01*
X103103Y1792D01*
X102534Y2534D01*
X101792Y3103D01*
X100927Y3461D01*
X100000Y3583D01*
X99073Y3461D01*
X98208Y3103D01*
X97466Y2534D01*
X96897Y1792D01*
X96539Y927D01*
X96417Y0D01*
X96539Y-927D01*
X96897Y-1792D01*
X97466Y-2534D01*
X98208Y-3103D01*
X98873Y-3379D01*
X98773Y-3878D01*
X95500D01*
X95500Y-3878D01*
X95071Y-3964D01*
X94707Y-4207D01*
X94707Y-4207D01*
X15121Y-83793D01*
X14659Y-83601D01*
Y-80081D01*
X8341D01*
Y-81151D01*
X6600D01*
X6511Y-81187D01*
X4916D01*
Y-83868D01*
X4416Y-83917D01*
X4383Y-83751D01*
X4029Y-83222D01*
X1154Y-80347D01*
X624Y-79993D01*
X0Y-79869D01*
X-7324D01*
X-8369Y-78824D01*
Y-52137D01*
X-8093Y-51724D01*
X-7969Y-51100D01*
X-8093Y-50476D01*
X-8446Y-49946D01*
X-8976Y-49593D01*
X-9600Y-49469D01*
X-10224Y-49593D01*
X-10753Y-49946D01*
X-11153Y-50346D01*
X-11507Y-50876D01*
X-11631Y-51500D01*
Y-55635D01*
X-12131Y-55685D01*
X-12193Y-55376D01*
X-12547Y-54847D01*
X-12578Y-54825D01*
Y-35565D01*
X31865Y8878D01*
X96447D01*
Y6447D01*
D02*
G37*
G36*
X2324Y3678D02*
Y1800D01*
X2394Y1449D01*
X2592Y1151D01*
X4382Y-639D01*
Y-5989D01*
X4146Y-6146D01*
X3793Y-6676D01*
X3669Y-7300D01*
X3793Y-7924D01*
X4146Y-8454D01*
X4382Y-8611D01*
Y-13740D01*
X-3820Y-21943D01*
X-4282Y-21752D01*
Y6092D01*
X-4276Y6093D01*
X-3746Y6447D01*
X-3393Y6976D01*
X-3269Y7600D01*
X-3393Y8224D01*
X-3746Y8754D01*
X-4276Y9107D01*
X-4900Y9231D01*
X-5178Y9176D01*
X-10185Y14182D01*
X-9978Y14682D01*
X-8680D01*
X2324Y3678D01*
D02*
G37*
%LPC*%
G36*
X14750Y-59916D02*
X11187D01*
Y-63084D01*
X11187Y-63084D01*
Y-63084D01*
Y-63416D01*
X11187D01*
X11187Y-63584D01*
Y-66416D01*
X11187Y-66584D01*
X11187Y-66584D01*
Y-66916D01*
X11187D01*
X11187Y-66916D01*
Y-70084D01*
X11187Y-70084D01*
Y-70084D01*
Y-70416D01*
X11187D01*
X11187Y-70584D01*
Y-73584D01*
X14750D01*
Y-72972D01*
X14800Y-72931D01*
X15424Y-72806D01*
X15954Y-72453D01*
X16307Y-71924D01*
X16431Y-71299D01*
X16307Y-70675D01*
X15954Y-70146D01*
X15674Y-69959D01*
X15676Y-69371D01*
X15793Y-69293D01*
X17462Y-67624D01*
X17500Y-67631D01*
X18124Y-67507D01*
X18654Y-67154D01*
X19007Y-66624D01*
X19131Y-66000D01*
X19007Y-65376D01*
X18654Y-64846D01*
X18335Y-64634D01*
X18187Y-64243D01*
X18244Y-64017D01*
X18507Y-63624D01*
X18631Y-63000D01*
X18507Y-62376D01*
X18154Y-61847D01*
X17624Y-61493D01*
X17000Y-61369D01*
X16962Y-61376D01*
X16293Y-60707D01*
X15929Y-60464D01*
X15500Y-60378D01*
X15500Y-60378D01*
X14750D01*
Y-59916D01*
D02*
G37*
G36*
X8032Y-50537D02*
X7407Y-50661D01*
X6878Y-51015D01*
X6524Y-51544D01*
X6400Y-52169D01*
X6524Y-52793D01*
X6878Y-53322D01*
X7407Y-53676D01*
X8032Y-53800D01*
X8656Y-53676D01*
X9185Y-53322D01*
X9539Y-52793D01*
X9663Y-52169D01*
X9539Y-51544D01*
X9185Y-51015D01*
X8656Y-50661D01*
X8032Y-50537D01*
D02*
G37*
G36*
X-900Y-45851D02*
X-3200D01*
X-3357Y-45916D01*
X-3813D01*
Y-46411D01*
X-3849Y-46500D01*
Y-51900D01*
X-3813Y-51989D01*
Y-52584D01*
X-3499D01*
X-2914Y-53364D01*
X-2654Y-53754D01*
X-2796Y-54260D01*
X-3007Y-54576D01*
X-3008Y-54583D01*
X-3585Y-55416D01*
X-3813D01*
Y-55911D01*
X-3849Y-56000D01*
Y-61500D01*
X-3813Y-61589D01*
Y-62084D01*
X-3357D01*
X-3200Y-62149D01*
X-800D01*
X-643Y-62084D01*
X-250D01*
Y-61741D01*
X-151Y-61500D01*
Y-59769D01*
X769Y-58849D01*
X2500D01*
X2589Y-58813D01*
X3084D01*
Y-58357D01*
X3149Y-58200D01*
Y-55900D01*
X3084Y-55743D01*
Y-55250D01*
X769D01*
X-168Y-54314D01*
X-347Y-54046D01*
X-204Y-53540D01*
X-192Y-53522D01*
X735Y-52750D01*
X3084D01*
Y-52257D01*
X3149Y-52100D01*
Y-49800D01*
X3084Y-49643D01*
Y-49187D01*
X2589D01*
X2500Y-49151D01*
X842D01*
X-250Y-48204D01*
Y-45916D01*
X-743D01*
X-900Y-45851D01*
D02*
G37*
%LPD*%
G36*
X500Y-55900D02*
X2500D01*
Y-58200D01*
X500D01*
X-800Y-59500D01*
Y-61500D01*
X-3200D01*
Y-56000D01*
X-2300Y-54700D01*
X-700D01*
X500Y-55900D01*
D02*
G37*
G36*
X-900Y-48500D02*
X600Y-49800D01*
X2500D01*
Y-52100D01*
X500D01*
X-700Y-53100D01*
X-2300D01*
X-3200Y-51900D01*
Y-46500D01*
X-900D01*
Y-48500D01*
D02*
G37*
D14*
X12968Y-65000D02*
D03*
X9031D02*
D03*
X12968Y-61500D02*
D03*
X9031D02*
D03*
X12968Y-68500D02*
D03*
X9031D02*
D03*
X12968Y-72000D02*
D03*
X9031D02*
D03*
X-2032Y-60500D02*
D03*
X-5968D02*
D03*
X-2032Y-57000D02*
D03*
X-5968D02*
D03*
X-2032Y-47500D02*
D03*
X-5968D02*
D03*
X-2032Y-51000D02*
D03*
X-5968D02*
D03*
D15*
X-13500Y-59031D02*
D03*
Y-62968D02*
D03*
X6500Y-79031D02*
D03*
Y-82968D02*
D03*
X1500Y-57032D02*
D03*
Y-60969D02*
D03*
X1500Y-50968D02*
D03*
Y-47032D02*
D03*
D19*
X120984Y-81495D02*
D03*
X130984Y-64174D02*
D03*
D20*
X10000Y145669D02*
D03*
X-10000D02*
D03*
D23*
X-120984Y-81495D02*
D03*
X-130984Y-64174D02*
D03*
D29*
X90630Y-18500D02*
X101500D01*
X110000Y-10000D01*
X110500Y-11500D02*
X149500D01*
X105000Y-5000D02*
X110000Y0D01*
X95500Y-5000D02*
X105000D01*
X10900Y-89600D02*
X95500Y-5000D01*
X-13700Y-35100D02*
X31400Y10000D01*
X100000D01*
X105000Y5000D01*
X116500D01*
X124000Y-2500D01*
X-105000Y14500D02*
X-83500D01*
X-109500Y10000D02*
X-105000Y14500D01*
X-110000Y10000D02*
X-109500D01*
X-152500Y11000D02*
X-111000D01*
X-103000Y-10000D02*
X-100000D01*
X-107500Y-5500D02*
X-103000Y-10000D01*
X-116000Y-5500D02*
X-107500D01*
X-124000Y2500D02*
X-116000Y-5500D01*
X-100000Y-25000D02*
Y-10000D01*
X-96500Y-5000D02*
X-95000Y-6500D01*
X-105000Y-5000D02*
X-96500D01*
X-110000Y0D02*
X-105000Y-5000D01*
X-95000Y-21500D02*
Y-6500D01*
X-116500Y0D02*
X-110000D01*
X-124000Y7500D02*
X-116500Y0D01*
X-100000Y-25000D02*
X-60012Y-64988D01*
X-95000Y-21500D02*
X-17000Y-99500D01*
X15500Y-61500D02*
X17000Y-63000D01*
X12968Y-61500D02*
X15500D01*
X12968Y-68500D02*
X15000D01*
X17500Y-66000D01*
X-83500Y14500D02*
X-21000Y-48000D01*
X-154500Y9000D02*
X-152500Y11000D01*
X-154500Y5409D02*
Y9000D01*
Y5409D02*
X-151591Y2500D01*
X-8500Y-94300D02*
X-7970D01*
X-12000D02*
X-11470D01*
X132800Y-36800D02*
X154800Y-14800D01*
Y4291D01*
X151591Y7500D02*
X154800Y4291D01*
X150200Y2500D02*
X152300Y400D01*
Y-8700D02*
Y400D01*
X149500Y-11500D02*
X152300Y-8700D01*
X-17000Y-99500D02*
X300D01*
X5500Y-94300D01*
X-13700Y-56000D02*
Y-35100D01*
X26500Y-92400D02*
X82100Y-36800D01*
X132800D01*
X18130Y-91000D02*
X90630Y-18500D01*
X-60012Y-64988D02*
X-57488D01*
D30*
X150200Y7500D02*
X151591D01*
X144153D02*
X150200D01*
X-131437Y-7500D02*
X-124000D01*
X-130000Y7500D02*
X-124000D01*
X144153Y2500D02*
X150200D01*
X144153Y-2500D02*
X150200D01*
X144153Y-7500D02*
X150200D01*
X124000D02*
X131437D01*
X124000Y-2500D02*
X131437D01*
X124000Y2500D02*
X131437D01*
X124000Y7500D02*
X131437D01*
X-131437Y2500D02*
X-124000D01*
X-151591Y-7500D02*
X-144153D01*
X-151591Y-2500D02*
X-144153D01*
X-151591Y2500D02*
X-144153D01*
X-151591Y7500D02*
X-144153D01*
X-15800Y-71276D02*
X-14748D01*
X-13200Y-72823D01*
Y-81000D02*
Y-72823D01*
Y-81000D02*
X-7300Y-86900D01*
X-2500D01*
X-15800Y-63000D02*
X-13500Y-62968D01*
X2000Y-87800D02*
Y-87752D01*
X2876Y-86877D01*
Y-84376D01*
X0Y-81500D02*
X2876Y-84376D01*
X-8000Y-81500D02*
X0D01*
X-10000Y-79500D02*
X-8000Y-81500D01*
X-10000Y-51500D02*
X-9600Y-51100D01*
X-10000Y-79500D02*
Y-51500D01*
X-5968Y-46968D02*
X-5500Y-46500D01*
X-5968Y-51000D02*
Y-47500D01*
Y-46968D01*
X-6700Y-55200D02*
X-5968Y-55932D01*
X-131437Y-2500D02*
X-131237Y-2700D01*
X-124000D01*
D31*
X3241Y1800D02*
Y4059D01*
X-8300Y15600D02*
X3241Y4059D01*
X-10287Y15600D02*
X-8300D01*
X-26000Y27600D02*
X-22287D01*
X-10287Y15600D01*
X3241Y1800D02*
X5300Y-258D01*
Y-7300D02*
Y-258D01*
X-26000Y17600D02*
X-14900D01*
X-4900Y7600D01*
X-23800Y5400D02*
X-7100D01*
X-17700Y-65000D02*
Y-61100D01*
Y-65000D02*
X-15800Y-66900D01*
X-17700Y-61100D02*
X-16600Y-60000D01*
X-18900Y-74300D02*
X-15800Y-77400D01*
X-20100Y-76600D02*
X-15800Y-80900D01*
X-21300Y-78900D02*
X-15800Y-84400D01*
X-5000Y-94300D02*
X-3100Y-92400D01*
X-7970Y-94300D02*
X-4670Y-91000D01*
X10800Y-89700D02*
X10900Y-89600D01*
X-11470Y-94300D02*
X-6870Y-89700D01*
X10800D01*
X-21300Y-78900D02*
Y-53106D01*
X-20100Y-76600D02*
Y-53603D01*
X-18900Y-74300D02*
Y-54100D01*
X-15100Y-50300D01*
Y-34520D01*
X5300Y-14120D01*
Y-7300D01*
X-20100Y-53603D02*
X-16300Y-49803D01*
Y-34023D01*
X-21300Y-53106D02*
X-17500Y-49306D01*
Y-33526D01*
X-7100Y-23126D01*
Y5400D01*
X-3100Y-92400D02*
X26500D01*
X-4670Y-91000D02*
X18130D01*
X-5600Y6900D02*
X-4900Y7600D01*
X-5600Y6587D02*
X-5200Y6187D01*
X-5600Y6587D02*
Y6900D01*
X-5200Y-22923D02*
Y6187D01*
X-16300Y-34023D02*
X-5200Y-22923D01*
D32*
X-100000Y-10000D02*
D03*
X100000Y10000D02*
D03*
X-26000Y7600D02*
D03*
D33*
X-110000Y-10000D02*
D03*
X-100000Y0D02*
D03*
X-110000D02*
D03*
X-100000Y10000D02*
D03*
X-110000D02*
D03*
X110000D02*
D03*
X100000Y0D02*
D03*
X110000D02*
D03*
X100000Y-10000D02*
D03*
X110000D02*
D03*
X-26000Y17600D02*
D03*
Y27600D02*
D03*
D34*
X130500Y57500D02*
D03*
X140500Y37500D02*
D03*
X130500Y17500D02*
D03*
Y-22500D02*
D03*
X140500Y-42500D02*
D03*
X110500Y97500D02*
D03*
X120500Y77500D02*
D03*
X110500Y57500D02*
D03*
X120500Y37500D02*
D03*
X110500Y17500D02*
D03*
X120500Y-2500D02*
D03*
X110500Y-22500D02*
D03*
X120500Y-42500D02*
D03*
X110500Y-102500D02*
D03*
X100500Y117500D02*
D03*
X90500Y97500D02*
D03*
X100500Y77500D02*
D03*
X90500Y57500D02*
D03*
X100500Y37500D02*
D03*
X90500Y17500D02*
D03*
Y-22500D02*
D03*
X100500Y-42500D02*
D03*
X90500Y-62500D02*
D03*
X100500Y-82500D02*
D03*
X90500Y-102500D02*
D03*
X70500Y137500D02*
D03*
X80500Y117500D02*
D03*
X70500Y97500D02*
D03*
X80500Y77500D02*
D03*
X70500Y57500D02*
D03*
X80500Y37500D02*
D03*
X70500Y17500D02*
D03*
X80500Y-2500D02*
D03*
X70500Y-22500D02*
D03*
X80500Y-42500D02*
D03*
X70500Y-62500D02*
D03*
X80500Y-82500D02*
D03*
X70500Y-102500D02*
D03*
X80500Y-122500D02*
D03*
X50500Y137500D02*
D03*
X60500Y117500D02*
D03*
X50500Y97500D02*
D03*
X60500Y77500D02*
D03*
X50500Y57500D02*
D03*
X60500Y37500D02*
D03*
X50500Y17500D02*
D03*
X60500Y-2500D02*
D03*
X50500Y-22500D02*
D03*
Y-62500D02*
D03*
X60500Y-82500D02*
D03*
X50500Y-102500D02*
D03*
X60500Y-122500D02*
D03*
X50500Y-142500D02*
D03*
X30500Y137500D02*
D03*
X40500Y117500D02*
D03*
X30500Y97500D02*
D03*
X40500Y77500D02*
D03*
X30500Y57500D02*
D03*
X40500Y37500D02*
D03*
X30500Y17500D02*
D03*
X40500Y-2500D02*
D03*
X30500Y-22500D02*
D03*
X40500Y-42500D02*
D03*
Y-82500D02*
D03*
X30500Y-102500D02*
D03*
X40500Y-122500D02*
D03*
X30500Y-142500D02*
D03*
X20500Y117500D02*
D03*
X10500Y97500D02*
D03*
X20500Y77500D02*
D03*
X10500Y57500D02*
D03*
X20500Y37500D02*
D03*
X10500Y17500D02*
D03*
Y-22500D02*
D03*
X20500Y-42500D02*
D03*
X10500Y-102500D02*
D03*
X20500Y-122500D02*
D03*
X10500Y-142500D02*
D03*
X-9500Y97500D02*
D03*
Y57500D02*
D03*
Y17500D02*
D03*
Y-22500D02*
D03*
Y-102500D02*
D03*
X500Y-122500D02*
D03*
X-9500Y-142500D02*
D03*
X-29500Y137500D02*
D03*
X-19500Y117500D02*
D03*
X-29500Y97500D02*
D03*
X-19500Y77500D02*
D03*
X-29500Y57500D02*
D03*
X-19500Y37500D02*
D03*
Y-2500D02*
D03*
X-29500Y-22500D02*
D03*
Y-102500D02*
D03*
X-19500Y-122500D02*
D03*
X-29500Y-142500D02*
D03*
X-49500Y137500D02*
D03*
X-39500Y117500D02*
D03*
X-49500Y97500D02*
D03*
X-39500Y77500D02*
D03*
X-49500Y57500D02*
D03*
X-39500Y37500D02*
D03*
X-49500Y17500D02*
D03*
X-39500Y-2500D02*
D03*
X-49500Y-22500D02*
D03*
Y-62500D02*
D03*
Y-102500D02*
D03*
X-39500Y-122500D02*
D03*
X-49500Y-142500D02*
D03*
X-69500Y137500D02*
D03*
X-59500Y117500D02*
D03*
X-69500Y97500D02*
D03*
X-59500Y77500D02*
D03*
X-69500Y57500D02*
D03*
X-59500Y37500D02*
D03*
X-69500Y17500D02*
D03*
X-59500Y-2500D02*
D03*
X-69500Y-22500D02*
D03*
X-59500Y-42500D02*
D03*
X-69500Y-62500D02*
D03*
X-59500Y-82500D02*
D03*
X-69500Y-102500D02*
D03*
X-59500Y-122500D02*
D03*
X-79500Y117500D02*
D03*
X-89500Y97500D02*
D03*
X-79500Y77500D02*
D03*
X-89500Y57500D02*
D03*
X-79500Y37500D02*
D03*
X-89500Y17500D02*
D03*
X-79500Y-2500D02*
D03*
X-89500Y-22500D02*
D03*
Y-62500D02*
D03*
X-79500Y-82500D02*
D03*
X-89500Y-102500D02*
D03*
X-79500Y-122500D02*
D03*
X-99500Y117500D02*
D03*
X-109500Y97500D02*
D03*
X-99500Y77500D02*
D03*
X-109500Y57500D02*
D03*
X-99500Y37500D02*
D03*
X-109500Y17500D02*
D03*
Y-22500D02*
D03*
X-99500Y-42500D02*
D03*
Y-82500D02*
D03*
X-109500Y-102500D02*
D03*
X-119500Y77500D02*
D03*
X-129500Y57500D02*
D03*
X-119500Y37500D02*
D03*
X-129500Y17500D02*
D03*
Y-22500D02*
D03*
X-119500Y-42500D02*
D03*
X-139500Y37500D02*
D03*
X-149500Y17500D02*
D03*
Y-22500D02*
D03*
X-139500Y-42500D02*
D03*
X-124000Y-7500D02*
D03*
X5996Y-76996D02*
D03*
X1665D02*
D03*
X-2665D02*
D03*
X-6996D02*
D03*
X5996Y-72665D02*
D03*
X1665D02*
D03*
X-2665D02*
D03*
X-6996D02*
D03*
X5996Y-68335D02*
D03*
X1665D02*
D03*
X-2665D02*
D03*
X-6996D02*
D03*
X5996Y-64004D02*
D03*
X1665D02*
D03*
X-2665D02*
D03*
X-6996D02*
D03*
X-13718Y-9318D02*
D03*
X-18859Y-12412D02*
D03*
X-24000Y-15506D02*
D03*
X-29141Y-18600D02*
D03*
X-34282Y-21694D02*
D03*
X-39422Y-24788D02*
D03*
X-44563Y-27881D02*
D03*
X-49704Y-30975D02*
D03*
X-54845Y-34069D02*
D03*
X-59986Y-37163D02*
D03*
X-65126Y-40257D02*
D03*
X-80549Y-49539D02*
D03*
X-85690Y-52633D02*
D03*
X-90830Y-55727D02*
D03*
X-95971Y-58820D02*
D03*
X-101369Y-61440D02*
D03*
X-106287Y-64877D02*
D03*
X-111469Y-67902D02*
D03*
X-115972Y-63448D02*
D03*
X-110791Y-60423D02*
D03*
X-105609Y-57398D02*
D03*
X-100432Y-54365D02*
D03*
X-95291Y-51271D02*
D03*
X-90150Y-48177D02*
D03*
X-85009Y-45083D02*
D03*
X-69587Y-35802D02*
D03*
X-64446Y-32708D02*
D03*
X-59306Y-29614D02*
D03*
X-54165Y-26520D02*
D03*
X-43883Y-20332D02*
D03*
X-38742Y-17238D02*
D03*
X-33602Y-14144D02*
D03*
X-28461Y-11050D02*
D03*
X-23320Y-7957D02*
D03*
X-18179Y-4863D02*
D03*
X-13038Y-1769D02*
D03*
X5141Y2587D02*
D03*
X10418Y-268D02*
D03*
X20704Y-6450D02*
D03*
X25846Y-9540D02*
D03*
X30989Y-12631D02*
D03*
X36132Y-15722D02*
D03*
X41274Y-18813D02*
D03*
X46417Y-21903D02*
D03*
X51560Y-24994D02*
D03*
X56703Y-28085D02*
D03*
X61845Y-31176D02*
D03*
X87559Y-46630D02*
D03*
X92701Y-49720D02*
D03*
X97844Y-52811D02*
D03*
X102906Y-56033D02*
D03*
X108178Y-58897D02*
D03*
X113359Y-61922D02*
D03*
X113721Y-69217D02*
D03*
X108539Y-66192D02*
D03*
X103358Y-63167D02*
D03*
X98174Y-60147D02*
D03*
X93031Y-57056D02*
D03*
X87888Y-53965D02*
D03*
X82746Y-50875D02*
D03*
X77603Y-47784D02*
D03*
X57032Y-35421D02*
D03*
X51889Y-32330D02*
D03*
X46747Y-29239D02*
D03*
X41604Y-26148D02*
D03*
X36461Y-23057D02*
D03*
X31319Y-19967D02*
D03*
X26176Y-16876D02*
D03*
X21033Y-13785D02*
D03*
X15891Y-10694D02*
D03*
X10748Y-7604D02*
D03*
X3059Y131311D02*
D03*
Y125311D02*
D03*
X2946Y119312D02*
D03*
X3054Y113313D02*
D03*
X3043Y107313D02*
D03*
X3032Y101313D02*
D03*
X3022Y95313D02*
D03*
X3011Y89313D02*
D03*
X3000Y83313D02*
D03*
X2989Y77313D02*
D03*
X2978Y71313D02*
D03*
X2968Y65313D02*
D03*
X2957Y59313D02*
D03*
X2946Y53313D02*
D03*
X2936Y47313D02*
D03*
X2925Y41313D02*
D03*
X2914Y35313D02*
D03*
X2903Y29313D02*
D03*
X2893Y23313D02*
D03*
X2882Y17313D02*
D03*
X2871Y11313D02*
D03*
X-3241Y14113D02*
D03*
X-3231Y20113D02*
D03*
X-3220Y26113D02*
D03*
X-3209Y32113D02*
D03*
X-3198Y38113D02*
D03*
X-3188Y44113D02*
D03*
X-3177Y50113D02*
D03*
X-3166Y56113D02*
D03*
X-3156Y62113D02*
D03*
X-3145Y68113D02*
D03*
X-3134Y74113D02*
D03*
X-3123Y80113D02*
D03*
X-3112Y86113D02*
D03*
X-3102Y92113D02*
D03*
X-3091Y98113D02*
D03*
X-3080Y104113D02*
D03*
X-3070Y110113D02*
D03*
X-3059Y116113D02*
D03*
X-3059Y122113D02*
D03*
Y128113D02*
D03*
X3020Y-12858D02*
D03*
X-3059Y-17849D02*
D03*
Y-11849D02*
D03*
Y-5849D02*
D03*
X71303Y-44109D02*
D03*
X65303Y-40409D02*
D03*
X-79009Y-41383D02*
D03*
X-73409Y-38083D02*
D03*
X-75220Y-46332D02*
D03*
X-69120Y-42639D02*
D03*
X2959Y-23351D02*
D03*
X14800Y-65000D02*
D03*
X17000Y-63000D02*
D03*
X17500Y-66000D02*
D03*
X14800Y-71299D02*
D03*
X-15800Y-66900D02*
D03*
Y-63000D02*
D03*
X-16600Y-60000D02*
D03*
X-15800Y-71276D02*
D03*
Y-73900D02*
D03*
X12500Y-94300D02*
D03*
X23800Y-73500D02*
D03*
X23800Y-70000D02*
D03*
X-23800Y-60000D02*
D03*
X-1500Y-52600D02*
D03*
X-6700Y-55200D02*
D03*
X-1500D02*
D03*
X-5500Y-46500D02*
D03*
X-28500Y-53500D02*
D03*
X-31000Y-49500D02*
D03*
X-41000Y-49500D02*
D03*
X11969Y-55831D02*
D03*
X-124000Y7500D02*
D03*
Y2500D02*
D03*
X-151591Y-7500D02*
D03*
Y-2500D02*
D03*
Y2500D02*
D03*
Y7500D02*
D03*
X124000D02*
D03*
Y2500D02*
D03*
Y-2500D02*
D03*
Y-7500D02*
D03*
X-57488Y-64988D02*
D03*
X-21000Y-48000D02*
D03*
X-5000Y-94300D02*
D03*
X-8500D02*
D03*
X-12000D02*
D03*
X-2500Y-86900D02*
D03*
X150200Y7500D02*
D03*
Y2500D02*
D03*
Y-2500D02*
D03*
Y-7500D02*
D03*
X-15800Y-84400D02*
D03*
Y-80900D02*
D03*
Y-77400D02*
D03*
X-4900Y7600D02*
D03*
X-7100Y5400D02*
D03*
X5300Y-7300D02*
D03*
X8032Y-52169D02*
D03*
X10800Y-86500D02*
D03*
X-28598Y-63402D02*
D03*
X2000Y-87800D02*
D03*
X8200Y-85700D02*
D03*
X9000Y-94300D02*
D03*
X5500Y-85800D02*
D03*
X-1500Y-94300D02*
D03*
X2000D02*
D03*
X5500D02*
D03*
X276Y-85800D02*
D03*
X-13700Y-56000D02*
D03*
X-9600Y-51100D02*
D03*
X16800Y-78100D02*
D03*
X26200Y-85900D02*
D03*
X-16400Y-57100D02*
D03*
X7300Y-29500D02*
D03*
X-2300D02*
D03*
X0Y0D02*
D03*
X-124000Y-2700D02*
D03*
D35*
X-131437Y-7500D02*
D03*
Y-2500D02*
D03*
Y2500D02*
D03*
Y7500D02*
D03*
X-144153D02*
D03*
Y2500D02*
D03*
Y-2500D02*
D03*
Y-7500D02*
D03*
X144153D02*
D03*
Y-2500D02*
D03*
Y2500D02*
D03*
Y7500D02*
D03*
X131437D02*
D03*
Y2500D02*
D03*
Y-2500D02*
D03*
Y-7500D02*
D03*
D36*
X11500Y-76350D02*
D03*
Y-82650D02*
D03*
M02*
