%FSLAX25Y25*%
%MOIN*%
G70*
G01*
G75*
G04 Layer_Physical_Order=2*
G04 Layer_Color=36540*
%ADD10O,0.03740X0.00787*%
%ADD11O,0.00787X0.03740*%
%ADD12R,0.16142X0.16142*%
%ADD13R,0.10984X0.02913*%
%ADD14R,0.02362X0.01969*%
%ADD15R,0.01969X0.02362*%
G04:AMPARAMS|DCode=16|XSize=19.69mil|YSize=23.62mil|CornerRadius=0mil|HoleSize=0mil|Usage=FLASHONLY|Rotation=60.000|XOffset=0mil|YOffset=0mil|HoleType=Round|Shape=Rectangle|*
%AMROTATEDRECTD16*
4,1,4,0.00531,-0.01443,-0.01515,-0.00262,-0.00531,0.01443,0.01515,0.00262,0.00531,-0.01443,0.0*
%
%ADD16ROTATEDRECTD16*%

G04:AMPARAMS|DCode=17|XSize=27.56mil|YSize=47.24mil|CornerRadius=0mil|HoleSize=0mil|Usage=FLASHONLY|Rotation=135.000|XOffset=0mil|YOffset=0mil|HoleType=Round|Shape=Rectangle|*
%AMROTATEDRECTD17*
4,1,4,0.02645,0.00696,-0.00696,-0.02645,-0.02645,-0.00696,0.00696,0.02645,0.02645,0.00696,0.0*
%
%ADD17ROTATEDRECTD17*%

G04:AMPARAMS|DCode=18|XSize=13.78mil|YSize=7.87mil|CornerRadius=0mil|HoleSize=0mil|Usage=FLASHONLY|Rotation=315.000|XOffset=0mil|YOffset=0mil|HoleType=Round|Shape=Rectangle|*
%AMROTATEDRECTD18*
4,1,4,-0.00766,0.00209,-0.00209,0.00766,0.00766,-0.00209,0.00209,-0.00766,-0.00766,0.00209,0.0*
%
%ADD18ROTATEDRECTD18*%

G04:AMPARAMS|DCode=19|XSize=200mil|YSize=59.84mil|CornerRadius=0mil|HoleSize=0mil|Usage=FLASHONLY|Rotation=330.000|XOffset=0mil|YOffset=0mil|HoleType=Round|Shape=Rectangle|*
%AMROTATEDRECTD19*
4,1,4,-0.10156,0.02409,-0.07164,0.07591,0.10156,-0.02409,0.07164,-0.07591,-0.10156,0.02409,0.0*
%
%ADD19ROTATEDRECTD19*%

%ADD20R,0.05984X0.20000*%
%ADD21R,0.03150X0.01181*%
G04:AMPARAMS|DCode=22|XSize=19.69mil|YSize=23.62mil|CornerRadius=0mil|HoleSize=0mil|Usage=FLASHONLY|Rotation=300.000|XOffset=0mil|YOffset=0mil|HoleType=Round|Shape=Rectangle|*
%AMROTATEDRECTD22*
4,1,4,-0.01515,0.00262,0.00531,0.01443,0.01515,-0.00262,-0.00531,-0.01443,-0.01515,0.00262,0.0*
%
%ADD22ROTATEDRECTD22*%

G04:AMPARAMS|DCode=23|XSize=200mil|YSize=59.84mil|CornerRadius=0mil|HoleSize=0mil|Usage=FLASHONLY|Rotation=30.000|XOffset=0mil|YOffset=0mil|HoleType=Round|Shape=Rectangle|*
%AMROTATEDRECTD23*
4,1,4,-0.07164,-0.07591,-0.10156,-0.02409,0.07164,0.07591,0.10156,0.02409,-0.07164,-0.07591,0.0*
%
%ADD23ROTATEDRECTD23*%

%ADD24R,0.04724X0.04331*%
%ADD25R,0.02362X0.03347*%
%ADD26R,0.00394X0.00394*%
%ADD27R,0.03543X0.03150*%
%ADD28R,0.03150X0.03543*%
%ADD29C,0.01000*%
%ADD30C,0.02000*%
%ADD31C,0.00600*%
%ADD32R,0.05906X0.05906*%
%ADD33C,0.05906*%
%ADD34C,0.02000*%
G36*
X7729Y157338D02*
X15440Y156769D01*
X23114Y155823D01*
X30732Y154501D01*
X38276Y152807D01*
X45728Y150745D01*
X53070Y148319D01*
X60283Y145537D01*
X67352Y142403D01*
X74258Y138927D01*
X80985Y135116D01*
X87518Y130980D01*
X93839Y126528D01*
X99935Y121771D01*
X105789Y116720D01*
X111389Y111389D01*
X116720Y105789D01*
X121771Y99935D01*
X126528Y93839D01*
X130980Y87518D01*
X135116Y80985D01*
X138927Y74258D01*
X142403Y67352D01*
X145537Y60283D01*
X148319Y53070D01*
X150745Y45728D01*
X152807Y38276D01*
X154501Y30732D01*
X155823Y23114D01*
X156769Y15440D01*
X157338Y7729D01*
X157528Y0D01*
X157338Y-7729D01*
X156769Y-15440D01*
X155823Y-23114D01*
X154501Y-30732D01*
X152807Y-38276D01*
X150745Y-45728D01*
X148319Y-53070D01*
X145537Y-60283D01*
X142403Y-67352D01*
X138927Y-74258D01*
X135116Y-80985D01*
X130980Y-87518D01*
X126528Y-93839D01*
X121771Y-99935D01*
X116720Y-105789D01*
X111389Y-111389D01*
X105789Y-116720D01*
X99935Y-121771D01*
X93839Y-126528D01*
X87518Y-130980D01*
X80985Y-135116D01*
X74258Y-138927D01*
X67352Y-142403D01*
X60283Y-145537D01*
X53070Y-148319D01*
X45728Y-150745D01*
X38276Y-152807D01*
X30732Y-154501D01*
X23114Y-155823D01*
X15440Y-156769D01*
X7729Y-157338D01*
X0Y-157528D01*
X-7729Y-157338D01*
X-15440Y-156769D01*
X-23114Y-155823D01*
X-30732Y-154501D01*
X-38276Y-152807D01*
X-45728Y-150745D01*
X-53070Y-148319D01*
X-60283Y-145537D01*
X-67352Y-142403D01*
X-74258Y-138927D01*
X-80985Y-135116D01*
X-87518Y-130980D01*
X-93839Y-126528D01*
X-99935Y-121771D01*
X-105789Y-116720D01*
X-111389Y-111389D01*
X-116720Y-105789D01*
X-121771Y-99935D01*
X-126528Y-93839D01*
X-130980Y-87518D01*
X-135116Y-80985D01*
X-138927Y-74258D01*
X-142403Y-67352D01*
X-145537Y-60283D01*
X-148319Y-53070D01*
X-150745Y-45728D01*
X-152807Y-38276D01*
X-154501Y-30732D01*
X-155823Y-23114D01*
X-156769Y-15440D01*
X-157338Y-7729D01*
X-157528Y0D01*
X-157338Y7729D01*
X-156769Y15440D01*
X-155823Y23114D01*
X-154501Y30732D01*
X-152807Y38276D01*
X-150745Y45728D01*
X-148319Y53070D01*
X-145537Y60283D01*
X-142403Y67352D01*
X-138927Y74258D01*
X-135116Y80985D01*
X-130980Y87518D01*
X-126528Y93839D01*
X-121771Y99935D01*
X-116720Y105789D01*
X-111389Y111389D01*
X-105789Y116720D01*
X-99935Y121771D01*
X-93839Y126528D01*
X-87518Y130980D01*
X-80985Y135116D01*
X-74258Y138927D01*
X-67352Y142403D01*
X-60283Y145537D01*
X-53070Y148319D01*
X-45728Y150745D01*
X-38276Y152807D01*
X-30732Y154501D01*
X-23114Y155823D01*
X-15440Y156769D01*
X-7729Y157338D01*
X0Y157528D01*
X7729Y157338D01*
D02*
G37*
%LPC*%
G36*
X8032Y-50537D02*
X7407Y-50661D01*
X6878Y-51015D01*
X6524Y-51544D01*
X6400Y-52169D01*
X6524Y-52793D01*
X6878Y-53322D01*
X7407Y-53676D01*
X8032Y-53800D01*
X8656Y-53676D01*
X9185Y-53322D01*
X9539Y-52793D01*
X9663Y-52169D01*
X9539Y-51544D01*
X9185Y-51015D01*
X8656Y-50661D01*
X8032Y-50537D01*
D02*
G37*
G36*
X-9600Y-49469D02*
X-10224Y-49593D01*
X-10753Y-49946D01*
X-11107Y-50476D01*
X-11231Y-51100D01*
X-11107Y-51724D01*
X-10753Y-52254D01*
X-10224Y-52607D01*
X-9600Y-52731D01*
X-8976Y-52607D01*
X-8446Y-52254D01*
X-8093Y-51724D01*
X-7969Y-51100D01*
X-8093Y-50476D01*
X-8446Y-49946D01*
X-8976Y-49593D01*
X-9600Y-49469D01*
D02*
G37*
G36*
X-1500Y-50969D02*
X-2124Y-51093D01*
X-2654Y-51446D01*
X-3007Y-51976D01*
X-3131Y-52600D01*
X-3007Y-53224D01*
X-2796Y-53540D01*
X-2695Y-53900D01*
X-2796Y-54260D01*
X-3007Y-54576D01*
X-3131Y-55200D01*
X-3007Y-55824D01*
X-2654Y-56353D01*
X-2124Y-56707D01*
X-1500Y-56831D01*
X-876Y-56707D01*
X-347Y-56353D01*
X7Y-55824D01*
X131Y-55200D01*
X7Y-54576D01*
X-204Y-54260D01*
X-305Y-53900D01*
X-204Y-53540D01*
X7Y-53224D01*
X131Y-52600D01*
X7Y-51976D01*
X-347Y-51446D01*
X-876Y-51093D01*
X-1500Y-50969D01*
D02*
G37*
G36*
X17000Y-61369D02*
X16376Y-61493D01*
X15846Y-61847D01*
X15493Y-62376D01*
X15369Y-63000D01*
X14938Y-63396D01*
X14800Y-63369D01*
X14176Y-63493D01*
X13646Y-63846D01*
X13293Y-64376D01*
X13169Y-65000D01*
X13293Y-65624D01*
X13646Y-66154D01*
X14176Y-66507D01*
X14800Y-66631D01*
X15424Y-66507D01*
X15534Y-66434D01*
X15993Y-66624D01*
X16346Y-67154D01*
X16876Y-67507D01*
X17500Y-67631D01*
X18124Y-67507D01*
X18654Y-67154D01*
X19007Y-66624D01*
X19131Y-66000D01*
X19007Y-65376D01*
X18654Y-64846D01*
X18335Y-64634D01*
X18187Y-64243D01*
X18244Y-64017D01*
X18507Y-63624D01*
X18631Y-63000D01*
X18507Y-62376D01*
X18154Y-61847D01*
X17624Y-61493D01*
X17000Y-61369D01*
D02*
G37*
G36*
X-13700Y-54369D02*
X-14324Y-54493D01*
X-14853Y-54847D01*
X-15207Y-55376D01*
X-15331Y-56000D01*
X-15207Y-56624D01*
X-14853Y-57153D01*
X-14324Y-57507D01*
X-13700Y-57631D01*
X-13076Y-57507D01*
X-12547Y-57153D01*
X-12193Y-56624D01*
X-12069Y-56000D01*
X-12193Y-55376D01*
X-12547Y-54847D01*
X-13076Y-54493D01*
X-13700Y-54369D01*
D02*
G37*
G36*
X-41000Y-47869D02*
X-41624Y-47993D01*
X-42153Y-48346D01*
X-42507Y-48876D01*
X-42631Y-49500D01*
X-42507Y-50124D01*
X-42153Y-50653D01*
X-41624Y-51007D01*
X-41000Y-51131D01*
X-40376Y-51007D01*
X-39846Y-50653D01*
X-39493Y-50124D01*
X-39369Y-49500D01*
X-39493Y-48876D01*
X-39846Y-48346D01*
X-40376Y-47993D01*
X-41000Y-47869D01*
D02*
G37*
G36*
X-96447Y-6447D02*
X-103553D01*
Y-13553D01*
X-96447D01*
Y-6447D01*
D02*
G37*
G36*
X-151591Y-5869D02*
X-152215Y-5993D01*
X-152744Y-6346D01*
X-153098Y-6876D01*
X-153222Y-7500D01*
X-153098Y-8124D01*
X-152744Y-8653D01*
X-152215Y-9007D01*
X-151591Y-9131D01*
X-150966Y-9007D01*
X-150437Y-8653D01*
X-150083Y-8124D01*
X-149959Y-7500D01*
X-150083Y-6876D01*
X-150437Y-6346D01*
X-150966Y-5993D01*
X-151591Y-5869D01*
D02*
G37*
G36*
X110000Y-6417D02*
X109073Y-6539D01*
X108208Y-6897D01*
X107466Y-7466D01*
X106897Y-8208D01*
X106539Y-9072D01*
X106417Y-10000D01*
X106539Y-10927D01*
X106897Y-11792D01*
X107466Y-12534D01*
X108208Y-13103D01*
X109073Y-13461D01*
X110000Y-13583D01*
X110927Y-13461D01*
X111792Y-13103D01*
X112534Y-12534D01*
X113103Y-11792D01*
X113461Y-10927D01*
X113583Y-10000D01*
X113461Y-9072D01*
X113103Y-8208D01*
X112534Y-7466D01*
X111792Y-6897D01*
X110927Y-6539D01*
X110000Y-6417D01*
D02*
G37*
G36*
X-21000Y-46369D02*
X-21624Y-46493D01*
X-22153Y-46847D01*
X-22507Y-47376D01*
X-22631Y-48000D01*
X-22507Y-48624D01*
X-22153Y-49154D01*
X-21624Y-49507D01*
X-21000Y-49631D01*
X-20376Y-49507D01*
X-19847Y-49154D01*
X-19493Y-48624D01*
X-19369Y-48000D01*
X-19493Y-47376D01*
X-19847Y-46847D01*
X-20376Y-46493D01*
X-21000Y-46369D01*
D02*
G37*
G36*
X-110000Y-6417D02*
X-110927Y-6539D01*
X-111792Y-6897D01*
X-112534Y-7466D01*
X-113103Y-8208D01*
X-113461Y-9072D01*
X-113583Y-10000D01*
X-113461Y-10927D01*
X-113103Y-11792D01*
X-112534Y-12534D01*
X-111792Y-13103D01*
X-110927Y-13461D01*
X-110000Y-13583D01*
X-109073Y-13461D01*
X-108208Y-13103D01*
X-107466Y-12534D01*
X-106897Y-11792D01*
X-106539Y-10927D01*
X-106417Y-10000D01*
X-106539Y-9072D01*
X-106897Y-8208D01*
X-107466Y-7466D01*
X-108208Y-6897D01*
X-109073Y-6539D01*
X-110000Y-6417D01*
D02*
G37*
G36*
X-16600Y-58369D02*
X-17224Y-58493D01*
X-17753Y-58846D01*
X-18107Y-59376D01*
X-18231Y-60000D01*
X-18107Y-60624D01*
X-17753Y-61154D01*
X-17265Y-61480D01*
X-17217Y-61537D01*
X-17086Y-62045D01*
X-17307Y-62376D01*
X-17431Y-63000D01*
X-17307Y-63624D01*
X-16953Y-64153D01*
X-16424Y-64507D01*
X-15800Y-64631D01*
X-15176Y-64507D01*
X-14647Y-64153D01*
X-14293Y-63624D01*
X-14169Y-63000D01*
X-14293Y-62376D01*
X-14647Y-61847D01*
X-15135Y-61520D01*
X-15183Y-61463D01*
X-15314Y-60956D01*
X-15093Y-60624D01*
X-14969Y-60000D01*
X-15093Y-59376D01*
X-15447Y-58846D01*
X-15976Y-58493D01*
X-16600Y-58369D01*
D02*
G37*
G36*
X-2500Y-85269D02*
X-3124Y-85393D01*
X-3653Y-85747D01*
X-4007Y-86276D01*
X-4131Y-86900D01*
X-4007Y-87524D01*
X-3653Y-88054D01*
X-3124Y-88407D01*
X-2500Y-88531D01*
X-1876Y-88407D01*
X-1347Y-88054D01*
X-993Y-87524D01*
X-869Y-86900D01*
X-993Y-86276D01*
X-1347Y-85747D01*
X-1876Y-85393D01*
X-2500Y-85269D01*
D02*
G37*
G36*
X8200Y-84069D02*
X7576Y-84193D01*
X7046Y-84547D01*
X6693Y-85076D01*
X6569Y-85700D01*
X6693Y-86324D01*
X7046Y-86853D01*
X7576Y-87207D01*
X8200Y-87331D01*
X8824Y-87207D01*
X8830Y-87204D01*
X9160Y-87340D01*
X9336Y-87466D01*
X9646Y-87931D01*
X10176Y-88284D01*
X10800Y-88408D01*
X11424Y-88284D01*
X11953Y-87931D01*
X12307Y-87401D01*
X12431Y-86777D01*
Y-86500D01*
X12307Y-85876D01*
X11953Y-85347D01*
X11424Y-84993D01*
X10800Y-84869D01*
X10176Y-84993D01*
X9920Y-85164D01*
X9707Y-85076D01*
X9353Y-84547D01*
X8824Y-84193D01*
X8200Y-84069D01*
D02*
G37*
G36*
X2000Y-86169D02*
X1376Y-86293D01*
X846Y-86646D01*
X493Y-87176D01*
X369Y-87800D01*
X493Y-88424D01*
X846Y-88954D01*
X1376Y-89307D01*
X2000Y-89431D01*
X2624Y-89307D01*
X3153Y-88954D01*
X3507Y-88424D01*
X3631Y-87800D01*
X3507Y-87176D01*
X3153Y-86646D01*
X2624Y-86293D01*
X2000Y-86169D01*
D02*
G37*
G36*
X5500Y-92669D02*
X4876Y-92793D01*
X4346Y-93147D01*
X3993Y-93676D01*
X3869Y-94300D01*
X3993Y-94924D01*
X4346Y-95454D01*
X4876Y-95807D01*
X5500Y-95931D01*
X6124Y-95807D01*
X6654Y-95454D01*
X7007Y-94924D01*
X7131Y-94300D01*
X7007Y-93676D01*
X6654Y-93147D01*
X6124Y-92793D01*
X5500Y-92669D01*
D02*
G37*
G36*
X-5000D02*
X-5624Y-92793D01*
X-6154Y-93147D01*
X-6489Y-93648D01*
X-6702Y-93676D01*
X-6798D01*
X-7011Y-93648D01*
X-7346Y-93147D01*
X-7876Y-92793D01*
X-8500Y-92669D01*
X-9124Y-92793D01*
X-9653Y-93147D01*
X-9989Y-93648D01*
X-10202Y-93676D01*
X-10298D01*
X-10511Y-93648D01*
X-10847Y-93147D01*
X-11376Y-92793D01*
X-12000Y-92669D01*
X-12624Y-92793D01*
X-13153Y-93147D01*
X-13507Y-93676D01*
X-13631Y-94300D01*
X-13507Y-94924D01*
X-13153Y-95454D01*
X-12624Y-95807D01*
X-12000Y-95931D01*
X-11376Y-95807D01*
X-10847Y-95454D01*
X-10511Y-94952D01*
X-10298Y-94924D01*
X-10202D01*
X-9989Y-94952D01*
X-9653Y-95454D01*
X-9124Y-95807D01*
X-8500Y-95931D01*
X-7876Y-95807D01*
X-7346Y-95454D01*
X-7011Y-94952D01*
X-6798Y-94924D01*
X-6702D01*
X-6489Y-94952D01*
X-6154Y-95454D01*
X-5624Y-95807D01*
X-5000Y-95931D01*
X-4376Y-95807D01*
X-3847Y-95454D01*
X-3493Y-94924D01*
X-3369Y-94300D01*
X-3493Y-93676D01*
X-3847Y-93147D01*
X-4376Y-92793D01*
X-5000Y-92669D01*
D02*
G37*
G36*
X-15800Y-75769D02*
X-16424Y-75893D01*
X-16953Y-76247D01*
X-17307Y-76776D01*
X-17431Y-77400D01*
X-17307Y-78024D01*
X-16953Y-78553D01*
X-16452Y-78889D01*
X-16424Y-79102D01*
Y-79198D01*
X-16452Y-79411D01*
X-16953Y-79747D01*
X-17307Y-80276D01*
X-17431Y-80900D01*
X-17307Y-81524D01*
X-16953Y-82054D01*
X-16452Y-82389D01*
X-16424Y-82602D01*
Y-82698D01*
X-16452Y-82911D01*
X-16953Y-83246D01*
X-17307Y-83776D01*
X-17431Y-84400D01*
X-17307Y-85024D01*
X-16953Y-85553D01*
X-16424Y-85907D01*
X-15800Y-86031D01*
X-15176Y-85907D01*
X-14647Y-85553D01*
X-14293Y-85024D01*
X-14169Y-84400D01*
X-14293Y-83776D01*
X-14647Y-83246D01*
X-15148Y-82911D01*
X-15176Y-82698D01*
Y-82602D01*
X-15148Y-82389D01*
X-14647Y-82054D01*
X-14293Y-81524D01*
X-14169Y-80900D01*
X-14293Y-80276D01*
X-14647Y-79747D01*
X-15148Y-79411D01*
X-15176Y-79198D01*
Y-79102D01*
X-15148Y-78889D01*
X-14647Y-78553D01*
X-14293Y-78024D01*
X-14169Y-77400D01*
X-14293Y-76776D01*
X-14647Y-76247D01*
X-15176Y-75893D01*
X-15800Y-75769D01*
D02*
G37*
G36*
X-57488Y-63357D02*
X-58113Y-63481D01*
X-58642Y-63835D01*
X-58995Y-64364D01*
X-59119Y-64988D01*
X-58995Y-65613D01*
X-58642Y-66142D01*
X-58113Y-66495D01*
X-57488Y-66619D01*
X-56864Y-66495D01*
X-56335Y-66142D01*
X-55981Y-65613D01*
X-55857Y-64988D01*
X-55981Y-64364D01*
X-56335Y-63835D01*
X-56864Y-63481D01*
X-57488Y-63357D01*
D02*
G37*
G36*
X-28598Y-61770D02*
X-29223Y-61894D01*
X-29752Y-62248D01*
X-30106Y-62777D01*
X-30230Y-63402D01*
X-30106Y-64026D01*
X-29752Y-64555D01*
X-29223Y-64909D01*
X-28598Y-65033D01*
X-27974Y-64909D01*
X-27445Y-64555D01*
X-27091Y-64026D01*
X-26967Y-63402D01*
X-27091Y-62777D01*
X-27445Y-62248D01*
X-27974Y-61894D01*
X-28598Y-61770D01*
D02*
G37*
G36*
X-15800Y-65269D02*
X-16424Y-65393D01*
X-16953Y-65746D01*
X-17307Y-66276D01*
X-17431Y-66900D01*
X-17307Y-67524D01*
X-16953Y-68054D01*
X-16424Y-68407D01*
X-15800Y-68531D01*
X-15176Y-68407D01*
X-14647Y-68054D01*
X-14293Y-67524D01*
X-14169Y-66900D01*
X-14293Y-66276D01*
X-14647Y-65746D01*
X-15176Y-65393D01*
X-15800Y-65269D01*
D02*
G37*
G36*
X14800Y-69668D02*
X14176Y-69792D01*
X13646Y-70146D01*
X13293Y-70675D01*
X13169Y-71299D01*
X13293Y-71924D01*
X13646Y-72453D01*
X14176Y-72806D01*
X14800Y-72931D01*
X15424Y-72806D01*
X15954Y-72453D01*
X16307Y-71924D01*
X16431Y-71299D01*
X16307Y-70675D01*
X15954Y-70146D01*
X15424Y-69792D01*
X14800Y-69668D01*
D02*
G37*
G36*
X-15800Y-69644D02*
X-16424Y-69768D01*
X-16953Y-70122D01*
X-17307Y-70651D01*
X-17431Y-71276D01*
X-17307Y-71900D01*
X-16953Y-72429D01*
X-16424Y-72783D01*
X-15800Y-72907D01*
X-15176Y-72783D01*
X-14647Y-72429D01*
X-14293Y-71900D01*
X-14169Y-71276D01*
X-14293Y-70651D01*
X-14647Y-70122D01*
X-15176Y-69768D01*
X-15800Y-69644D01*
D02*
G37*
G36*
X124000Y-5869D02*
X123376Y-5993D01*
X122846Y-6346D01*
X122493Y-6876D01*
X122369Y-7500D01*
X122493Y-8124D01*
X122846Y-8653D01*
X123376Y-9007D01*
X124000Y-9131D01*
X124624Y-9007D01*
X125154Y-8653D01*
X125507Y-8124D01*
X125631Y-7500D01*
X125507Y-6876D01*
X125154Y-6346D01*
X124624Y-5993D01*
X124000Y-5869D01*
D02*
G37*
G36*
X-124000Y9131D02*
X-124624Y9007D01*
X-125154Y8653D01*
X-125507Y8124D01*
X-125631Y7500D01*
X-125507Y6876D01*
X-125154Y6346D01*
X-124624Y5993D01*
X-124000Y5869D01*
X-123376Y5993D01*
X-122846Y6346D01*
X-122493Y6876D01*
X-122369Y7500D01*
X-122493Y8124D01*
X-122846Y8653D01*
X-123376Y9007D01*
X-124000Y9131D01*
D02*
G37*
G36*
X124000D02*
X123376Y9007D01*
X122846Y8653D01*
X122493Y8124D01*
X122369Y7500D01*
X122493Y6876D01*
X122846Y6346D01*
X123376Y5993D01*
X124000Y5869D01*
X124624Y5993D01*
X125154Y6346D01*
X125507Y6876D01*
X125631Y7500D01*
X125507Y8124D01*
X125154Y8653D01*
X124624Y9007D01*
X124000Y9131D01*
D02*
G37*
G36*
X150200D02*
X149576Y9007D01*
X149047Y8653D01*
X148693Y8124D01*
X148569Y7500D01*
X148693Y6876D01*
X149047Y6346D01*
X149576Y5993D01*
X150200Y5869D01*
X150824Y5993D01*
X151354Y6346D01*
X151707Y6876D01*
X151831Y7500D01*
X151707Y8124D01*
X151354Y8653D01*
X150824Y9007D01*
X150200Y9131D01*
D02*
G37*
G36*
Y4131D02*
X149576Y4007D01*
X149047Y3653D01*
X148693Y3124D01*
X148569Y2500D01*
X148693Y1876D01*
X149047Y1347D01*
X149576Y993D01*
X150200Y869D01*
X150824Y993D01*
X151354Y1347D01*
X151707Y1876D01*
X151831Y2500D01*
X151707Y3124D01*
X151354Y3653D01*
X150824Y4007D01*
X150200Y4131D01*
D02*
G37*
G36*
X-22447Y11153D02*
X-29553D01*
Y4047D01*
X-22447D01*
Y11153D01*
D02*
G37*
G36*
X-151591Y9131D02*
X-152215Y9007D01*
X-152744Y8653D01*
X-153098Y8124D01*
X-153222Y7500D01*
X-153098Y6876D01*
X-152744Y6346D01*
X-152215Y5993D01*
X-151591Y5869D01*
X-150966Y5993D01*
X-150437Y6346D01*
X-150083Y6876D01*
X-149959Y7500D01*
X-150083Y8124D01*
X-150437Y8653D01*
X-150966Y9007D01*
X-151591Y9131D01*
D02*
G37*
G36*
X-4900Y9231D02*
X-5524Y9107D01*
X-6053Y8754D01*
X-6407Y8224D01*
X-6531Y7600D01*
X-6496Y7421D01*
X-6921Y6996D01*
X-7100Y7031D01*
X-7724Y6907D01*
X-8253Y6554D01*
X-8607Y6024D01*
X-8731Y5400D01*
X-8607Y4776D01*
X-8253Y4247D01*
X-7724Y3893D01*
X-7100Y3769D01*
X-6476Y3893D01*
X-5946Y4247D01*
X-5593Y4776D01*
X-5469Y5400D01*
X-5504Y5579D01*
X-5079Y6004D01*
X-4900Y5969D01*
X-4276Y6093D01*
X-3746Y6447D01*
X-3393Y6976D01*
X-3269Y7600D01*
X-3393Y8224D01*
X-3746Y8754D01*
X-4276Y9107D01*
X-4900Y9231D01*
D02*
G37*
G36*
X-26000Y21183D02*
X-26927Y21061D01*
X-27792Y20703D01*
X-28534Y20134D01*
X-29103Y19392D01*
X-29461Y18527D01*
X-29583Y17600D01*
X-29461Y16673D01*
X-29103Y15808D01*
X-28534Y15066D01*
X-27792Y14497D01*
X-26927Y14139D01*
X-26000Y14017D01*
X-25073Y14139D01*
X-24208Y14497D01*
X-23466Y15066D01*
X-22897Y15808D01*
X-22539Y16673D01*
X-22417Y17600D01*
X-22539Y18527D01*
X-22897Y19392D01*
X-23466Y20134D01*
X-24208Y20703D01*
X-25073Y21061D01*
X-26000Y21183D01*
D02*
G37*
G36*
Y31183D02*
X-26927Y31061D01*
X-27792Y30703D01*
X-28534Y30134D01*
X-29103Y29392D01*
X-29461Y28527D01*
X-29583Y27600D01*
X-29461Y26673D01*
X-29103Y25808D01*
X-28534Y25066D01*
X-27792Y24497D01*
X-26927Y24139D01*
X-26000Y24017D01*
X-25073Y24139D01*
X-24208Y24497D01*
X-23466Y25066D01*
X-22897Y25808D01*
X-22539Y26673D01*
X-22417Y27600D01*
X-22539Y28527D01*
X-22897Y29392D01*
X-23466Y30134D01*
X-24208Y30703D01*
X-25073Y31061D01*
X-26000Y31183D01*
D02*
G37*
G36*
X-110000Y13583D02*
X-110927Y13461D01*
X-111792Y13103D01*
X-112534Y12534D01*
X-113103Y11792D01*
X-113461Y10927D01*
X-113583Y10000D01*
X-113461Y9072D01*
X-113103Y8208D01*
X-112534Y7466D01*
X-111792Y6897D01*
X-110927Y6539D01*
X-110000Y6417D01*
X-109073Y6539D01*
X-108208Y6897D01*
X-107466Y7466D01*
X-106897Y8208D01*
X-106539Y9072D01*
X-106417Y10000D01*
X-106539Y10927D01*
X-106897Y11792D01*
X-107466Y12534D01*
X-108208Y13103D01*
X-109073Y13461D01*
X-110000Y13583D01*
D02*
G37*
G36*
X110000D02*
X109073Y13461D01*
X108208Y13103D01*
X107466Y12534D01*
X106897Y11792D01*
X106539Y10927D01*
X106417Y10000D01*
X106539Y9072D01*
X106897Y8208D01*
X107466Y7466D01*
X108208Y6897D01*
X109073Y6539D01*
X110000Y6417D01*
X110927Y6539D01*
X111792Y6897D01*
X112534Y7466D01*
X113103Y8208D01*
X113461Y9072D01*
X113583Y10000D01*
X113461Y10927D01*
X113103Y11792D01*
X112534Y12534D01*
X111792Y13103D01*
X110927Y13461D01*
X110000Y13583D01*
D02*
G37*
G36*
X103553Y13553D02*
X96447D01*
Y6447D01*
X103553D01*
Y13553D01*
D02*
G37*
G36*
X124000Y-869D02*
X123376Y-993D01*
X122846Y-1347D01*
X122493Y-1876D01*
X122369Y-2500D01*
X122493Y-3124D01*
X122846Y-3653D01*
X123376Y-4007D01*
X124000Y-4131D01*
X124624Y-4007D01*
X125154Y-3653D01*
X125507Y-3124D01*
X125631Y-2500D01*
X125507Y-1876D01*
X125154Y-1347D01*
X124624Y-993D01*
X124000Y-869D01*
D02*
G37*
G36*
X150200D02*
X149576Y-993D01*
X149047Y-1347D01*
X148693Y-1876D01*
X148569Y-2500D01*
X148693Y-3124D01*
X149047Y-3653D01*
X149576Y-4007D01*
X150200Y-4131D01*
X150824Y-4007D01*
X151354Y-3653D01*
X151707Y-3124D01*
X151831Y-2500D01*
X151707Y-1876D01*
X151354Y-1347D01*
X150824Y-993D01*
X150200Y-869D01*
D02*
G37*
G36*
X-110000Y3583D02*
X-110927Y3461D01*
X-111792Y3103D01*
X-112534Y2534D01*
X-113103Y1792D01*
X-113461Y927D01*
X-113583Y0D01*
X-113461Y-927D01*
X-113103Y-1792D01*
X-112534Y-2534D01*
X-111792Y-3103D01*
X-110927Y-3461D01*
X-110000Y-3583D01*
X-109073Y-3461D01*
X-108208Y-3103D01*
X-107466Y-2534D01*
X-106897Y-1792D01*
X-106539Y-927D01*
X-106417Y0D01*
X-106539Y927D01*
X-106897Y1792D01*
X-107466Y2534D01*
X-108208Y3103D01*
X-109073Y3461D01*
X-110000Y3583D01*
D02*
G37*
G36*
X5300Y-5669D02*
X4676Y-5793D01*
X4146Y-6146D01*
X3793Y-6676D01*
X3669Y-7300D01*
X3793Y-7924D01*
X4146Y-8454D01*
X4676Y-8807D01*
X5300Y-8931D01*
X5924Y-8807D01*
X6453Y-8454D01*
X6807Y-7924D01*
X6931Y-7300D01*
X6807Y-6676D01*
X6453Y-6146D01*
X5924Y-5793D01*
X5300Y-5669D01*
D02*
G37*
G36*
X-124000Y-1069D02*
X-124624Y-1193D01*
X-125154Y-1546D01*
X-125507Y-2076D01*
X-125631Y-2700D01*
X-125507Y-3324D01*
X-125154Y-3853D01*
X-124624Y-4207D01*
X-124000Y-4331D01*
X-123376Y-4207D01*
X-122846Y-3853D01*
X-122493Y-3324D01*
X-122369Y-2700D01*
X-122493Y-2076D01*
X-122846Y-1546D01*
X-123376Y-1193D01*
X-124000Y-1069D01*
D02*
G37*
G36*
X-151591Y-869D02*
X-152215Y-993D01*
X-152744Y-1347D01*
X-153098Y-1876D01*
X-153222Y-2500D01*
X-153098Y-3124D01*
X-152744Y-3653D01*
X-152215Y-4007D01*
X-151591Y-4131D01*
X-150966Y-4007D01*
X-150437Y-3653D01*
X-150083Y-3124D01*
X-149959Y-2500D01*
X-150083Y-1876D01*
X-150437Y-1347D01*
X-150966Y-993D01*
X-151591Y-869D01*
D02*
G37*
G36*
Y4131D02*
X-152215Y4007D01*
X-152744Y3653D01*
X-153098Y3124D01*
X-153222Y2500D01*
X-153098Y1876D01*
X-152744Y1347D01*
X-152215Y993D01*
X-151591Y869D01*
X-150966Y993D01*
X-150437Y1347D01*
X-150083Y1876D01*
X-149959Y2500D01*
X-150083Y3124D01*
X-150437Y3653D01*
X-150966Y4007D01*
X-151591Y4131D01*
D02*
G37*
G36*
X-124000D02*
X-124624Y4007D01*
X-125154Y3653D01*
X-125507Y3124D01*
X-125631Y2500D01*
X-125507Y1876D01*
X-125154Y1347D01*
X-124624Y993D01*
X-124000Y869D01*
X-123376Y993D01*
X-122846Y1347D01*
X-122493Y1876D01*
X-122369Y2500D01*
X-122493Y3124D01*
X-122846Y3653D01*
X-123376Y4007D01*
X-124000Y4131D01*
D02*
G37*
G36*
X124000D02*
X123376Y4007D01*
X122846Y3653D01*
X122493Y3124D01*
X122369Y2500D01*
X122493Y1876D01*
X122846Y1347D01*
X123376Y993D01*
X124000Y869D01*
X124624Y993D01*
X125154Y1347D01*
X125507Y1876D01*
X125631Y2500D01*
X125507Y3124D01*
X125154Y3653D01*
X124624Y4007D01*
X124000Y4131D01*
D02*
G37*
G36*
X-100000Y3583D02*
X-100927Y3461D01*
X-101792Y3103D01*
X-102534Y2534D01*
X-103103Y1792D01*
X-103461Y927D01*
X-103583Y0D01*
X-103461Y-927D01*
X-103103Y-1792D01*
X-102534Y-2534D01*
X-101792Y-3103D01*
X-100927Y-3461D01*
X-100000Y-3583D01*
X-99073Y-3461D01*
X-98208Y-3103D01*
X-97466Y-2534D01*
X-96897Y-1792D01*
X-96539Y-927D01*
X-96417Y0D01*
X-96539Y927D01*
X-96897Y1792D01*
X-97466Y2534D01*
X-98208Y3103D01*
X-99073Y3461D01*
X-100000Y3583D01*
D02*
G37*
G36*
X100000D02*
X99073Y3461D01*
X98208Y3103D01*
X97466Y2534D01*
X96897Y1792D01*
X96539Y927D01*
X96417Y0D01*
X96539Y-927D01*
X96897Y-1792D01*
X97466Y-2534D01*
X98208Y-3103D01*
X99073Y-3461D01*
X100000Y-3583D01*
X100927Y-3461D01*
X101792Y-3103D01*
X102534Y-2534D01*
X103103Y-1792D01*
X103461Y-927D01*
X103583Y0D01*
X103461Y927D01*
X103103Y1792D01*
X102534Y2534D01*
X101792Y3103D01*
X100927Y3461D01*
X100000Y3583D01*
D02*
G37*
G36*
X110000D02*
X109073Y3461D01*
X108208Y3103D01*
X107466Y2534D01*
X106897Y1792D01*
X106539Y927D01*
X106417Y0D01*
X106539Y-927D01*
X106897Y-1792D01*
X107466Y-2534D01*
X108208Y-3103D01*
X109073Y-3461D01*
X110000Y-3583D01*
X110927Y-3461D01*
X111792Y-3103D01*
X112534Y-2534D01*
X113103Y-1792D01*
X113461Y-927D01*
X113583Y0D01*
X113461Y927D01*
X113103Y1792D01*
X112534Y2534D01*
X111792Y3103D01*
X110927Y3461D01*
X110000Y3583D01*
D02*
G37*
%LPD*%
D30*
X10800Y-86777D02*
Y-86500D01*
D33*
X-100000Y10000D02*
D03*
X100000Y-10000D02*
D03*
D34*
X130500Y57500D02*
D03*
X140500Y37500D02*
D03*
X130500Y17500D02*
D03*
Y-22500D02*
D03*
X140500Y-42500D02*
D03*
X110500Y97500D02*
D03*
X120500Y77500D02*
D03*
X110500Y57500D02*
D03*
X120500Y37500D02*
D03*
X110500Y17500D02*
D03*
X120500Y-2500D02*
D03*
X110500Y-22500D02*
D03*
X120500Y-42500D02*
D03*
X110500Y-102500D02*
D03*
X100500Y117500D02*
D03*
X90500Y97500D02*
D03*
X100500Y77500D02*
D03*
X90500Y57500D02*
D03*
X100500Y37500D02*
D03*
X90500Y17500D02*
D03*
Y-22500D02*
D03*
X100500Y-42500D02*
D03*
X90500Y-62500D02*
D03*
X100500Y-82500D02*
D03*
X90500Y-102500D02*
D03*
X70500Y137500D02*
D03*
X80500Y117500D02*
D03*
X70500Y97500D02*
D03*
X80500Y77500D02*
D03*
X70500Y57500D02*
D03*
X80500Y37500D02*
D03*
X70500Y17500D02*
D03*
X80500Y-2500D02*
D03*
X70500Y-22500D02*
D03*
X80500Y-42500D02*
D03*
X70500Y-62500D02*
D03*
X80500Y-82500D02*
D03*
X70500Y-102500D02*
D03*
X80500Y-122500D02*
D03*
X50500Y137500D02*
D03*
X60500Y117500D02*
D03*
X50500Y97500D02*
D03*
X60500Y77500D02*
D03*
X50500Y57500D02*
D03*
X60500Y37500D02*
D03*
X50500Y17500D02*
D03*
X60500Y-2500D02*
D03*
X50500Y-22500D02*
D03*
Y-62500D02*
D03*
X60500Y-82500D02*
D03*
X50500Y-102500D02*
D03*
X60500Y-122500D02*
D03*
X50500Y-142500D02*
D03*
X30500Y137500D02*
D03*
X40500Y117500D02*
D03*
X30500Y97500D02*
D03*
X40500Y77500D02*
D03*
X30500Y57500D02*
D03*
X40500Y37500D02*
D03*
X30500Y17500D02*
D03*
X40500Y-2500D02*
D03*
X30500Y-22500D02*
D03*
X40500Y-42500D02*
D03*
Y-82500D02*
D03*
X30500Y-102500D02*
D03*
X40500Y-122500D02*
D03*
X30500Y-142500D02*
D03*
X20500Y117500D02*
D03*
X10500Y97500D02*
D03*
X20500Y77500D02*
D03*
X10500Y57500D02*
D03*
X20500Y37500D02*
D03*
X10500Y17500D02*
D03*
Y-22500D02*
D03*
X20500Y-42500D02*
D03*
X10500Y-102500D02*
D03*
X20500Y-122500D02*
D03*
X10500Y-142500D02*
D03*
X-9500Y97500D02*
D03*
Y57500D02*
D03*
Y17500D02*
D03*
Y-22500D02*
D03*
Y-102500D02*
D03*
X500Y-122500D02*
D03*
X-9500Y-142500D02*
D03*
X-29500Y137500D02*
D03*
X-19500Y117500D02*
D03*
X-29500Y97500D02*
D03*
X-19500Y77500D02*
D03*
X-29500Y57500D02*
D03*
X-19500Y37500D02*
D03*
Y-2500D02*
D03*
X-29500Y-22500D02*
D03*
Y-102500D02*
D03*
X-19500Y-122500D02*
D03*
X-29500Y-142500D02*
D03*
X-49500Y137500D02*
D03*
X-39500Y117500D02*
D03*
X-49500Y97500D02*
D03*
X-39500Y77500D02*
D03*
X-49500Y57500D02*
D03*
X-39500Y37500D02*
D03*
X-49500Y17500D02*
D03*
X-39500Y-2500D02*
D03*
X-49500Y-22500D02*
D03*
Y-62500D02*
D03*
Y-102500D02*
D03*
X-39500Y-122500D02*
D03*
X-49500Y-142500D02*
D03*
X-69500Y137500D02*
D03*
X-59500Y117500D02*
D03*
X-69500Y97500D02*
D03*
X-59500Y77500D02*
D03*
X-69500Y57500D02*
D03*
X-59500Y37500D02*
D03*
X-69500Y17500D02*
D03*
X-59500Y-2500D02*
D03*
X-69500Y-22500D02*
D03*
X-59500Y-42500D02*
D03*
X-69500Y-62500D02*
D03*
X-59500Y-82500D02*
D03*
X-69500Y-102500D02*
D03*
X-59500Y-122500D02*
D03*
X-79500Y117500D02*
D03*
X-89500Y97500D02*
D03*
X-79500Y77500D02*
D03*
X-89500Y57500D02*
D03*
X-79500Y37500D02*
D03*
X-89500Y17500D02*
D03*
X-79500Y-2500D02*
D03*
X-89500Y-22500D02*
D03*
Y-62500D02*
D03*
X-79500Y-82500D02*
D03*
X-89500Y-102500D02*
D03*
X-79500Y-122500D02*
D03*
X-99500Y117500D02*
D03*
X-109500Y97500D02*
D03*
X-99500Y77500D02*
D03*
X-109500Y57500D02*
D03*
X-99500Y37500D02*
D03*
X-109500Y17500D02*
D03*
Y-22500D02*
D03*
X-99500Y-42500D02*
D03*
Y-82500D02*
D03*
X-109500Y-102500D02*
D03*
X-119500Y77500D02*
D03*
X-129500Y57500D02*
D03*
X-119500Y37500D02*
D03*
X-129500Y17500D02*
D03*
Y-22500D02*
D03*
X-119500Y-42500D02*
D03*
X-139500Y37500D02*
D03*
X-149500Y17500D02*
D03*
Y-22500D02*
D03*
X-139500Y-42500D02*
D03*
X-124000Y-7500D02*
D03*
X5996Y-76996D02*
D03*
X1665D02*
D03*
X-2665D02*
D03*
X-6996D02*
D03*
X5996Y-72665D02*
D03*
X1665D02*
D03*
X-2665D02*
D03*
X-6996D02*
D03*
X5996Y-68335D02*
D03*
X1665D02*
D03*
X-2665D02*
D03*
X-6996D02*
D03*
X5996Y-64004D02*
D03*
X1665D02*
D03*
X-2665D02*
D03*
X-6996D02*
D03*
X-13718Y-9318D02*
D03*
X-18859Y-12412D02*
D03*
X-24000Y-15506D02*
D03*
X-29141Y-18600D02*
D03*
X-34282Y-21694D02*
D03*
X-39422Y-24788D02*
D03*
X-44563Y-27881D02*
D03*
X-49704Y-30975D02*
D03*
X-54845Y-34069D02*
D03*
X-59986Y-37163D02*
D03*
X-65126Y-40257D02*
D03*
X-80549Y-49539D02*
D03*
X-85690Y-52633D02*
D03*
X-90830Y-55727D02*
D03*
X-95971Y-58820D02*
D03*
X-101369Y-61440D02*
D03*
X-106287Y-64877D02*
D03*
X-111469Y-67902D02*
D03*
X-115972Y-63448D02*
D03*
X-110791Y-60423D02*
D03*
X-105609Y-57398D02*
D03*
X-100432Y-54365D02*
D03*
X-95291Y-51271D02*
D03*
X-90150Y-48177D02*
D03*
X-85009Y-45083D02*
D03*
X-69587Y-35802D02*
D03*
X-64446Y-32708D02*
D03*
X-59306Y-29614D02*
D03*
X-54165Y-26520D02*
D03*
X-43883Y-20332D02*
D03*
X-38742Y-17238D02*
D03*
X-33602Y-14144D02*
D03*
X-28461Y-11050D02*
D03*
X-23320Y-7957D02*
D03*
X-18179Y-4863D02*
D03*
X-13038Y-1769D02*
D03*
X5141Y2587D02*
D03*
X10418Y-268D02*
D03*
X20704Y-6450D02*
D03*
X25846Y-9540D02*
D03*
X30989Y-12631D02*
D03*
X36132Y-15722D02*
D03*
X41274Y-18813D02*
D03*
X46417Y-21903D02*
D03*
X51560Y-24994D02*
D03*
X56703Y-28085D02*
D03*
X61845Y-31176D02*
D03*
X87559Y-46630D02*
D03*
X92701Y-49720D02*
D03*
X97844Y-52811D02*
D03*
X102906Y-56033D02*
D03*
X108178Y-58897D02*
D03*
X113359Y-61922D02*
D03*
X113721Y-69217D02*
D03*
X108539Y-66192D02*
D03*
X103358Y-63167D02*
D03*
X98174Y-60147D02*
D03*
X93031Y-57056D02*
D03*
X87888Y-53965D02*
D03*
X82746Y-50875D02*
D03*
X77603Y-47784D02*
D03*
X57032Y-35421D02*
D03*
X51889Y-32330D02*
D03*
X46747Y-29239D02*
D03*
X41604Y-26148D02*
D03*
X36461Y-23057D02*
D03*
X31319Y-19967D02*
D03*
X26176Y-16876D02*
D03*
X21033Y-13785D02*
D03*
X15891Y-10694D02*
D03*
X10748Y-7604D02*
D03*
X3059Y131311D02*
D03*
Y125311D02*
D03*
X2946Y119312D02*
D03*
X3054Y113313D02*
D03*
X3043Y107313D02*
D03*
X3032Y101313D02*
D03*
X3022Y95313D02*
D03*
X3011Y89313D02*
D03*
X3000Y83313D02*
D03*
X2989Y77313D02*
D03*
X2978Y71313D02*
D03*
X2968Y65313D02*
D03*
X2957Y59313D02*
D03*
X2946Y53313D02*
D03*
X2936Y47313D02*
D03*
X2925Y41313D02*
D03*
X2914Y35313D02*
D03*
X2903Y29313D02*
D03*
X2893Y23313D02*
D03*
X2882Y17313D02*
D03*
X2871Y11313D02*
D03*
X-3241Y14113D02*
D03*
X-3231Y20113D02*
D03*
X-3220Y26113D02*
D03*
X-3209Y32113D02*
D03*
X-3198Y38113D02*
D03*
X-3188Y44113D02*
D03*
X-3177Y50113D02*
D03*
X-3166Y56113D02*
D03*
X-3156Y62113D02*
D03*
X-3145Y68113D02*
D03*
X-3134Y74113D02*
D03*
X-3123Y80113D02*
D03*
X-3112Y86113D02*
D03*
X-3102Y92113D02*
D03*
X-3091Y98113D02*
D03*
X-3080Y104113D02*
D03*
X-3070Y110113D02*
D03*
X-3059Y116113D02*
D03*
X-3059Y122113D02*
D03*
Y128113D02*
D03*
X3020Y-12858D02*
D03*
X-3059Y-17849D02*
D03*
Y-11849D02*
D03*
Y-5849D02*
D03*
X71303Y-44109D02*
D03*
X65303Y-40409D02*
D03*
X-79009Y-41383D02*
D03*
X-73409Y-38083D02*
D03*
X-75220Y-46332D02*
D03*
X-69120Y-42639D02*
D03*
X2959Y-23351D02*
D03*
X-15800Y-73900D02*
D03*
X12500Y-94300D02*
D03*
X23800Y-73500D02*
D03*
X23800Y-70000D02*
D03*
X-23800Y-60000D02*
D03*
X-6700Y-55200D02*
D03*
X-5500Y-46500D02*
D03*
X-28500Y-53500D02*
D03*
X-31000Y-49500D02*
D03*
X11969Y-55831D02*
D03*
X150200Y-7500D02*
D03*
X10800Y-86500D02*
D03*
X9000Y-94300D02*
D03*
X5500Y-85800D02*
D03*
X-1500Y-94300D02*
D03*
X2000D02*
D03*
X276Y-85800D02*
D03*
X16800Y-78100D02*
D03*
X26200Y-85900D02*
D03*
X-16400Y-57100D02*
D03*
X7300Y-29500D02*
D03*
X-2300D02*
D03*
X0Y0D02*
D03*
M02*
