%FSLAX25Y25*%
%MOIN*%
G70*
G01*
G75*
G04 Layer_Color=16711935*
%ADD10O,0.03740X0.00787*%
%ADD11O,0.00787X0.03740*%
%ADD12R,0.16142X0.16142*%
%ADD13R,0.10984X0.02913*%
%ADD14R,0.02362X0.01969*%
%ADD15R,0.01969X0.02362*%
G04:AMPARAMS|DCode=16|XSize=19.69mil|YSize=23.62mil|CornerRadius=0mil|HoleSize=0mil|Usage=FLASHONLY|Rotation=60.000|XOffset=0mil|YOffset=0mil|HoleType=Round|Shape=Rectangle|*
%AMROTATEDRECTD16*
4,1,4,0.00531,-0.01443,-0.01515,-0.00262,-0.00531,0.01443,0.01515,0.00262,0.00531,-0.01443,0.0*
%
%ADD16ROTATEDRECTD16*%

G04:AMPARAMS|DCode=17|XSize=27.56mil|YSize=47.24mil|CornerRadius=0mil|HoleSize=0mil|Usage=FLASHONLY|Rotation=135.000|XOffset=0mil|YOffset=0mil|HoleType=Round|Shape=Rectangle|*
%AMROTATEDRECTD17*
4,1,4,0.02645,0.00696,-0.00696,-0.02645,-0.02645,-0.00696,0.00696,0.02645,0.02645,0.00696,0.0*
%
%ADD17ROTATEDRECTD17*%

G04:AMPARAMS|DCode=18|XSize=13.78mil|YSize=7.87mil|CornerRadius=0mil|HoleSize=0mil|Usage=FLASHONLY|Rotation=315.000|XOffset=0mil|YOffset=0mil|HoleType=Round|Shape=Rectangle|*
%AMROTATEDRECTD18*
4,1,4,-0.00766,0.00209,-0.00209,0.00766,0.00766,-0.00209,0.00209,-0.00766,-0.00766,0.00209,0.0*
%
%ADD18ROTATEDRECTD18*%

G04:AMPARAMS|DCode=19|XSize=200mil|YSize=59.84mil|CornerRadius=0mil|HoleSize=0mil|Usage=FLASHONLY|Rotation=330.000|XOffset=0mil|YOffset=0mil|HoleType=Round|Shape=Rectangle|*
%AMROTATEDRECTD19*
4,1,4,-0.10156,0.02409,-0.07164,0.07591,0.10156,-0.02409,0.07164,-0.07591,-0.10156,0.02409,0.0*
%
%ADD19ROTATEDRECTD19*%

%ADD20R,0.05984X0.20000*%
%ADD21R,0.03150X0.01181*%
G04:AMPARAMS|DCode=22|XSize=19.69mil|YSize=23.62mil|CornerRadius=0mil|HoleSize=0mil|Usage=FLASHONLY|Rotation=300.000|XOffset=0mil|YOffset=0mil|HoleType=Round|Shape=Rectangle|*
%AMROTATEDRECTD22*
4,1,4,-0.01515,0.00262,0.00531,0.01443,0.01515,-0.00262,-0.00531,-0.01443,-0.01515,0.00262,0.0*
%
%ADD22ROTATEDRECTD22*%

G04:AMPARAMS|DCode=23|XSize=200mil|YSize=59.84mil|CornerRadius=0mil|HoleSize=0mil|Usage=FLASHONLY|Rotation=30.000|XOffset=0mil|YOffset=0mil|HoleType=Round|Shape=Rectangle|*
%AMROTATEDRECTD23*
4,1,4,-0.07164,-0.07591,-0.10156,-0.02409,0.07164,0.07591,0.10156,0.02409,-0.07164,-0.07591,0.0*
%
%ADD23ROTATEDRECTD23*%

%ADD24R,0.04724X0.04331*%
%ADD25R,0.02362X0.03347*%
%ADD26R,0.00394X0.00394*%
%ADD27R,0.03543X0.03150*%
%ADD28R,0.03150X0.03543*%
%ADD29C,0.01000*%
%ADD30C,0.02000*%
%ADD31C,0.00600*%
%ADD32R,0.05906X0.05906*%
%ADD33C,0.05906*%
%ADD34C,0.02000*%
%ADD35R,0.05787X0.02913*%
%ADD36R,0.05118X0.03937*%
%ADD37C,0.00984*%
%ADD38C,0.00787*%
%ADD39C,0.00800*%
%ADD40C,0.10000*%
%ADD41O,0.04540X0.01587*%
%ADD42O,0.01587X0.04540*%
%ADD43R,0.16942X0.16942*%
%ADD44R,0.11784X0.03713*%
%ADD45R,0.03162X0.02769*%
%ADD46R,0.02769X0.03162*%
G04:AMPARAMS|DCode=47|XSize=27.69mil|YSize=31.62mil|CornerRadius=0mil|HoleSize=0mil|Usage=FLASHONLY|Rotation=60.000|XOffset=0mil|YOffset=0mil|HoleType=Round|Shape=Rectangle|*
%AMROTATEDRECTD47*
4,1,4,0.00677,-0.01989,-0.02061,-0.00408,-0.00677,0.01989,0.02061,0.00408,0.00677,-0.01989,0.0*
%
%ADD47ROTATEDRECTD47*%

G04:AMPARAMS|DCode=48|XSize=35.56mil|YSize=55.24mil|CornerRadius=0mil|HoleSize=0mil|Usage=FLASHONLY|Rotation=135.000|XOffset=0mil|YOffset=0mil|HoleType=Round|Shape=Rectangle|*
%AMROTATEDRECTD48*
4,1,4,0.03210,0.00696,-0.00696,-0.03210,-0.03210,-0.00696,0.00696,0.03210,0.03210,0.00696,0.0*
%
%ADD48ROTATEDRECTD48*%

G04:AMPARAMS|DCode=49|XSize=21.78mil|YSize=15.87mil|CornerRadius=0mil|HoleSize=0mil|Usage=FLASHONLY|Rotation=315.000|XOffset=0mil|YOffset=0mil|HoleType=Round|Shape=Rectangle|*
%AMROTATEDRECTD49*
4,1,4,-0.01331,0.00209,-0.00209,0.01331,0.01331,-0.00209,0.00209,-0.01331,-0.01331,0.00209,0.0*
%
%ADD49ROTATEDRECTD49*%

G04:AMPARAMS|DCode=50|XSize=208mil|YSize=67.84mil|CornerRadius=0mil|HoleSize=0mil|Usage=FLASHONLY|Rotation=330.000|XOffset=0mil|YOffset=0mil|HoleType=Round|Shape=Rectangle|*
%AMROTATEDRECTD50*
4,1,4,-0.10703,0.02262,-0.07311,0.08138,0.10703,-0.02262,0.07311,-0.08138,-0.10703,0.02262,0.0*
%
%ADD50ROTATEDRECTD50*%

%ADD51R,0.06784X0.20800*%
%ADD52R,0.03950X0.01981*%
G04:AMPARAMS|DCode=53|XSize=27.69mil|YSize=31.62mil|CornerRadius=0mil|HoleSize=0mil|Usage=FLASHONLY|Rotation=300.000|XOffset=0mil|YOffset=0mil|HoleType=Round|Shape=Rectangle|*
%AMROTATEDRECTD53*
4,1,4,-0.02061,0.00408,0.00677,0.01989,0.02061,-0.00408,-0.00677,-0.01989,-0.02061,0.00408,0.0*
%
%ADD53ROTATEDRECTD53*%

G04:AMPARAMS|DCode=54|XSize=208mil|YSize=67.84mil|CornerRadius=0mil|HoleSize=0mil|Usage=FLASHONLY|Rotation=30.000|XOffset=0mil|YOffset=0mil|HoleType=Round|Shape=Rectangle|*
%AMROTATEDRECTD54*
4,1,4,-0.07311,-0.08138,-0.10703,-0.02262,0.07311,0.08138,0.10703,0.02262,-0.07311,-0.08138,0.0*
%
%ADD54ROTATEDRECTD54*%

%ADD55R,0.05524X0.05131*%
%ADD56R,0.03162X0.04147*%
%ADD57R,0.01194X0.01194*%
%ADD58R,0.04343X0.03950*%
%ADD59R,0.03950X0.04343*%
%ADD60R,0.06706X0.06706*%
%ADD61C,0.06706*%
%ADD62C,0.02800*%
%ADD63R,0.06587X0.03713*%
%ADD64R,0.05918X0.04737*%
D45*
X12968Y-65000D02*
D03*
X9031D02*
D03*
X12968Y-61500D02*
D03*
X9031D02*
D03*
X12968Y-68500D02*
D03*
X9031D02*
D03*
X12968Y-72000D02*
D03*
X9031D02*
D03*
X-2032Y-60500D02*
D03*
X-5968D02*
D03*
X-2032Y-57000D02*
D03*
X-5968D02*
D03*
X-2032Y-47500D02*
D03*
X-5968D02*
D03*
X-2032Y-51000D02*
D03*
X-5968D02*
D03*
D46*
X-13500Y-59031D02*
D03*
Y-62968D02*
D03*
X6500Y-79031D02*
D03*
Y-82968D02*
D03*
X1500Y-57032D02*
D03*
Y-60969D02*
D03*
X1500Y-50968D02*
D03*
Y-47032D02*
D03*
D50*
X120984Y-81495D02*
D03*
X130984Y-64174D02*
D03*
D51*
X10000Y145669D02*
D03*
X-10000D02*
D03*
D54*
X-120984Y-81495D02*
D03*
X-130984Y-64174D02*
D03*
D60*
X-100000Y-10000D02*
D03*
X100000Y10000D02*
D03*
X-26000Y7600D02*
D03*
D61*
X-110000Y-10000D02*
D03*
X-100000Y0D02*
D03*
X-110000D02*
D03*
X-100000Y10000D02*
D03*
X-110000D02*
D03*
X110000D02*
D03*
X100000Y0D02*
D03*
X110000D02*
D03*
X100000Y-10000D02*
D03*
X110000D02*
D03*
X-26000Y17600D02*
D03*
Y27600D02*
D03*
D62*
X5996Y-76996D02*
D03*
X1665D02*
D03*
X-2665D02*
D03*
X-6996D02*
D03*
X5996Y-72665D02*
D03*
X1665D02*
D03*
X-2665D02*
D03*
X-6996D02*
D03*
X5996Y-68335D02*
D03*
X1665D02*
D03*
X-2665D02*
D03*
X-6996D02*
D03*
X5996Y-64004D02*
D03*
X1665D02*
D03*
X-2665D02*
D03*
X-6996D02*
D03*
D63*
X-131437Y-7500D02*
D03*
Y-2500D02*
D03*
Y2500D02*
D03*
Y7500D02*
D03*
X-144153D02*
D03*
Y2500D02*
D03*
Y-2500D02*
D03*
Y-7500D02*
D03*
X144153D02*
D03*
Y-2500D02*
D03*
Y2500D02*
D03*
Y7500D02*
D03*
X131437D02*
D03*
Y2500D02*
D03*
Y-2500D02*
D03*
Y-7500D02*
D03*
D64*
X11500Y-76350D02*
D03*
Y-82650D02*
D03*
M02*
